<svg width="136" height="29" viewBox="0 0 136 29" fill="none" xmlns="http://www.w3.org/2000/svg">
<path fill-rule="evenodd" clip-rule="evenodd" d="M0 4.96667C0 3.29881 0 2.46487 0.305186 1.81961C0.61961 1.15482 1.15482 0.61961 1.81961 0.305186C2.46487 0 3.2988 0 4.96667 0C6.63453 0 7.46846 0 8.11372 0.305186C8.77852 0.61961 9.31372 1.15482 9.62815 1.81961C9.93333 2.46487 9.93333 3.2988 9.93333 4.96667V15.2324C9.93333 15.9337 9.93333 16.2843 9.86084 16.6179C9.79654 16.9138 9.69029 17.199 9.5453 17.4648C9.38185 17.7646 9.15243 18.0297 8.69359 18.56L8.69357 18.5601L6.69898 20.8654C4.62776 23.2593 3.59215 24.4562 2.69077 24.5732C1.90989 24.6745 1.12935 24.3837 0.605122 23.7962C0 23.1179 0 21.5352 0 18.3696V4.96667ZM11.92 5.08587C11.92 3.30565 11.92 2.41554 12.2665 1.73558C12.5712 1.13748 13.0575 0.651203 13.6556 0.346454C14.3355 0 15.2256 0 17.0059 0H17.1648C18.945 0 19.8351 0 20.5151 0.346454C21.1132 0.651203 21.5995 1.13748 21.9042 1.73558C22.2507 2.41554 22.2507 3.30565 22.2507 5.08587V12.3968C22.2507 14.177 22.2507 15.0671 21.9042 15.7471C21.5995 16.3452 21.1132 16.8315 20.5151 17.1362C19.8351 17.4827 18.945 17.4827 17.1648 17.4827H17.0059C15.2256 17.4827 14.3355 17.4827 13.6556 17.1362C13.0575 16.8315 12.5712 16.3452 12.2665 15.7471C11.92 15.0671 11.92 14.177 11.92 12.3968V5.08587ZM10.4473 19.5878C10.1159 19.8037 9.83771 20.1051 9.28127 20.7077L7.89787 22.206C6.02961 24.2294 5.09548 25.2411 5.05177 26.1033C5.01381 26.8521 5.33031 27.5751 5.90621 28.0552C6.56936 28.608 7.94635 28.608 10.7003 28.608H17.4827C18.9637 28.608 19.7043 28.608 20.2884 28.366C21.0673 28.0434 21.6861 27.4246 22.0087 26.6458C22.2507 26.0616 22.2507 25.3211 22.2507 23.84C22.2507 22.3589 22.2507 21.6184 22.0087 21.0342C21.6861 20.2554 21.0673 19.6366 20.2884 19.314C19.7043 19.072 18.9637 19.072 17.4827 19.072H13.0179C12.1977 19.072 11.7875 19.072 11.4041 19.1689C11.0642 19.2548 10.7409 19.3963 10.4473 19.5878Z" fill="#FF8C20"/>
<path d="M28.6084 28.2101V0.163025H41.2145C42.9275 0.163025 44.4129 0.456852 45.6709 1.04451C46.9556 1.60545 47.9458 2.42015 48.6417 3.4886C49.3644 4.53035 49.7257 5.78579 49.7257 7.25493V7.6556C49.7257 8.93775 49.4848 9.99285 49.003 10.8209C48.5213 11.6223 47.9458 12.25 47.2767 12.7041C46.6344 13.1315 46.0188 13.4386 45.43 13.6256V14.3468C46.0188 14.5071 46.6611 14.8143 47.357 15.2684C48.0529 15.6958 48.6417 16.3235 49.1235 17.1515C49.632 17.9796 49.8863 19.0614 49.8863 20.397V20.7976C49.8863 22.3469 49.525 23.6825 48.8023 24.8044C48.0797 25.8995 47.076 26.741 45.7913 27.3286C44.5334 27.9163 43.0613 28.2101 41.3751 28.2101H28.6084ZM33.9078 23.402H40.7328C41.8837 23.402 42.807 23.1215 43.5029 22.5606C44.2256 21.9997 44.5869 21.1983 44.5869 20.1566V19.7559C44.5869 18.7142 44.2389 17.9128 43.5431 17.3519C42.8472 16.7909 41.9104 16.5105 40.7328 16.5105H33.9078V23.402ZM33.9078 11.7024H40.6525C41.7498 11.7024 42.6464 11.4219 43.3423 10.861C44.065 10.3 44.4263 9.5254 44.4263 8.53708V8.1364C44.4263 7.12137 44.0784 6.34673 43.3825 5.81251C42.6866 5.25156 41.7766 4.97109 40.6525 4.97109H33.9078V11.7024Z" fill="#FF8C20"/>
<path d="M58.4204 28.771C57.0019 28.771 55.7306 28.5306 54.6065 28.0498C53.4824 27.5423 52.5858 26.8211 51.9166 25.8862C51.2743 24.9246 50.9531 23.7626 50.9531 22.4003C50.9531 21.0381 51.2743 19.9028 51.9166 18.9946C52.5858 18.0597 53.4957 17.3652 54.6466 16.9111C55.8243 16.4303 57.1625 16.1899 58.6613 16.1899H64.1213V15.068C64.1213 14.1331 63.8269 13.3719 63.2381 12.7842C62.6493 12.1698 61.7125 11.8627 60.4278 11.8627C59.1699 11.8627 58.2331 12.1565 57.6175 12.7441C57.0019 13.3051 56.6004 14.0396 56.4131 14.9478L51.7561 13.3852C52.0772 12.3702 52.5858 11.4486 53.2816 10.6206C54.0043 9.7658 54.9544 9.08466 56.1321 8.57714C57.3365 8.04291 58.7952 7.7758 60.5081 7.7758C63.131 7.7758 65.2053 8.43023 66.7309 9.73909C68.2564 11.048 69.0192 12.9445 69.0192 15.4286V22.8411C69.0192 23.6424 69.3939 24.0431 70.1434 24.0431H71.7492V28.2101H68.3769C67.3866 28.2101 66.5703 27.9697 65.9279 27.4889C65.2856 27.0081 64.9644 26.367 64.9644 25.5656V25.5256H64.2016C64.0945 25.8461 63.8537 26.2735 63.479 26.8077C63.1043 27.3153 62.5154 27.7693 61.7125 28.17C60.9096 28.5707 59.8122 28.771 58.4204 28.771ZM59.3037 24.6842C60.7222 24.6842 61.8731 24.2969 62.7563 23.5222C63.6663 22.7209 64.1213 21.6658 64.1213 20.3569V19.9562H59.0226C58.0859 19.9562 57.3499 20.1566 56.8146 20.5572C56.2793 20.9579 56.0116 21.5189 56.0116 22.2401C56.0116 22.9613 56.2927 23.5489 56.8547 24.003C57.4168 24.4571 58.2331 24.6842 59.3037 24.6842Z" fill="#FF8C20"/>
<path d="M73.3806 28.2101V8.33674H78.3588V10.5805H79.0814C79.3759 9.77916 79.8576 9.19151 80.5267 8.81755C81.2226 8.44359 82.0256 8.2566 82.9355 8.2566H85.4064V10.5004V12.7441H82.8553C81.5706 12.7441 80.5133 13.0914 79.6836 13.7859C78.8539 14.4537 78.4391 15.4954 78.4391 16.9111V28.2101H73.3806Z" fill="#FF8C20"/>
<path d="M112.108 28.771C110.127 28.771 108.374 28.357 106.848 27.5289C105.35 26.6742 104.172 25.4855 103.315 23.963C102.486 22.4137 102.071 20.5973 102.071 18.5138V18.033C102.071 15.9495 102.486 14.1465 103.315 12.6239C104.145 11.0747 105.309 9.88601 106.808 9.05795C108.307 8.20318 110.047 7.7758 112.027 7.7758C113.981 7.7758 115.681 8.21654 117.126 9.09802C118.571 9.95279 119.695 11.1548 120.498 12.7041C121.301 14.2266 121.703 16.0029 121.703 18.033V19.7559H107.21C107.263 21.1182 107.772 22.2267 108.735 23.0815C109.699 23.9362 110.876 24.3636 112.268 24.3636C113.687 24.3636 114.731 24.0565 115.4 23.4421C116.069 22.8277 116.577 22.1466 116.925 21.3987L121.06 23.5623C120.686 24.2568 120.137 25.0181 119.414 25.8461C118.718 26.6475 117.782 27.342 116.604 27.9296C115.426 28.4906 113.928 28.771 112.108 28.771ZM107.25 15.9896H116.564C116.457 14.841 115.988 13.9194 115.159 13.2249C114.356 12.5304 113.299 12.1832 111.987 12.1832C110.622 12.1832 109.538 12.5304 108.735 13.2249C107.932 13.9194 107.437 14.841 107.25 15.9896Z" fill="#FF8C20"/>
<path d="M123.166 28.2101V8.33674H128.144V10.5805H128.866C129.161 9.77916 129.643 9.19151 130.312 8.81755C131.008 8.44359 131.811 8.2566 132.721 8.2566H135.129V12.7441H132.64C131.356 12.7441 130.298 13.0914 129.469 13.7859C128.639 14.4537 128.224 15.4954 128.224 16.9111V28.2101H123.166Z" fill="#FF8C20"/>
<path d="M95.1995 28.2101C93.888 28.2101 92.8175 27.8094 91.9878 27.0081C91.1848 26.18 90.7834 25.0849 90.7834 23.7226V12.7441H86.8933V10.5004V8.25661H90.7834V2.1664H95.8419V8.33675H101.302V12.7441H95.8419V22.8411C95.8419 23.6424 96.2166 24.0431 96.966 24.0431H100.82V28.2101H95.1995Z" fill="#FF8C20"/>
</svg>
