<svg width="200" height="201" viewBox="0 0 200 201" fill="none" xmlns="http://www.w3.org/2000/svg">
<path d="M52.8155 150.36C50.8116 149.825 48.8077 149.29 46.8038 148.755C46.2384 149.893 45.7261 150.966 45.2379 152.095C42.4828 158.958 39.9498 166.09 42.1761 175.482C43.0017 178.078 44.5858 182.349 49.9293 183.953C55.2351 185.129 58.4811 182.585 60.597 180.888C64.83 177.097 66.8876 172.896 68.621 168.652L68.3465 169.167C71.1432 163.862 73.4797 158.464 75.5957 152.984C76.0217 151.877 76.4375 150.766 76.8436 149.652C74.99 148.721 73.1364 147.791 71.2828 146.86C70.6398 147.836 69.998 148.809 69.3571 149.781C66.1826 154.585 63.0317 159.385 59.8174 163.961L59.543 164.476C57.7981 167.674 55.5869 170.729 53.5225 172.25C53.0282 172.617 52.5784 172.838 52.3806 172.884C52.1663 172.941 52.4012 172.773 52.9307 172.895C53.1788 172.951 53.4219 173.077 53.5486 173.169C53.6818 173.264 53.712 173.312 53.688 173.271C53.6348 173.194 53.4232 172.787 53.263 172.224C52.0676 167.874 52.4298 160.566 52.6687 153.839C52.7152 152.692 52.7547 151.57 52.8155 150.36Z" fill="#DC9E73"/>
<path d="M53.3143 127.215C55.2865 127.858 57.2586 128.5 59.2307 129.142C61.2559 125.91 63.1471 122.52 64.8341 119.169C66.9476 114.952 68.7794 110.694 70.3577 106.308C75.8758 91.0157 81.7009 75.7913 88.1572 61.0058C91.4126 53.6034 94.7793 46.3535 98.6375 39.4442C100.552 36.0445 102.602 32.7015 104.788 30.0147C105.811 28.7335 107.116 27.5142 107.632 27.2456C107.737 27.1799 107.769 27.1804 107.616 27.2078C107.483 27.2319 107.118 27.2603 106.735 27.1601C106.352 27.0666 106.042 26.872 105.915 26.7574C105.805 26.6585 105.82 26.6332 105.908 26.7456V26.7456C111.141 48.5397 97.2354 82.602 87.7097 109.769C86.3886 113.275 85.0306 116.785 83.6504 120.264C85.5536 121.089 87.4568 121.913 89.3599 122.738C90.9701 119.315 92.5534 115.855 94.0952 112.392C104.652 83.5043 123.287 58.4051 114.866 20.439L114.866 20.439C114.299 19.6212 113.627 18.8477 112.783 18.1626C111.792 17.361 110.605 16.7249 109.227 16.3976C106.367 15.7182 103.871 16.6525 102.455 17.3862C99.3699 19.0626 97.7323 20.9619 96.1581 22.7128C93.0762 26.3194 90.7853 29.957 88.5845 33.6425C84.2187 41.0689 80.6128 48.4935 77.1375 56.0757C70.2654 71.1874 64.2485 86.5779 58.6485 102.094C57.0476 106.543 55.793 111.078 54.8648 115.762C54.1326 119.489 53.5902 123.38 53.3143 127.215Z" fill="#DC9E73"/>
<path d="M154.867 127.876C155.203 129.923 155.538 131.97 155.874 134.017C157.391 134.558 158.875 134.886 160.407 134.97C162.628 135.101 164.865 134.717 166.91 133.83C173.105 131.124 179.161 126.615 182.379 119.409C183.865 115.823 184.963 111.316 182.655 106.272C180.273 100.814 173.228 99.2415 169.507 100.213C159.698 102.169 150.287 104.579 140.813 107.174C139.559 107.52 138.324 107.866 137.072 108.221C137.466 110.257 137.861 112.293 138.255 114.33C139.544 114.192 140.815 114.056 142.103 113.915C151.784 112.876 161.574 111.636 171.029 110.596V110.596C171.859 110.53 172.436 110.694 172.563 110.814C172.696 110.952 172.51 110.857 172.559 111.012C172.679 111.302 172.642 113.004 171.787 114.621C170.143 117.969 166.452 120.981 162.142 122.818C160.725 123.431 159.345 124.259 157.916 125.333C156.927 126.067 155.954 126.907 154.867 127.876Z" fill="#DC9E73"/>
<path d="M126.792 139.969C126.365 137.939 125.937 135.91 125.509 133.88C122.352 134.451 119.175 135.03 116.008 135.61C90.9998 139.871 63.6278 146.447 41.2155 147.026V147.026C39.0551 146.582 36.9249 145.751 35.2764 144.662C34.4589 144.124 33.7747 143.513 33.3797 142.996C32.9674 142.473 32.9696 142.168 32.9981 142.298C33.0085 142.345 32.99 142.424 33.0087 142.389C33.0277 142.358 33.1031 142.226 33.2824 142.032C33.6301 141.645 34.3556 141.097 35.2392 140.619C37.0052 139.653 39.3677 138.858 41.7877 138.253L41.8587 138.234C52.4699 135.411 63.1738 132.799 73.9067 130.28C83.4815 128.035 92.9962 125.486 102.455 122.6C105.537 121.66 108.613 120.684 111.682 119.673C111.259 117.642 110.836 115.612 110.412 113.581C107.184 113.882 103.963 114.236 100.752 114.642C90.8964 115.89 81.1274 117.631 71.4713 119.895C60.6467 122.436 49.8501 125.141 39.1034 128.144L39.1744 128.126C36.2306 128.916 33.2193 129.892 30.1814 131.598C27.3903 133.276 22.8834 136.174 22.8004 142.495C23.2427 148.529 27.0396 151.19 29.8747 153.114C32.914 154.999 36.0974 156.088 39.3801 156.689V156.689C68.6654 155.609 91.7094 147.817 117.406 142.227C120.538 141.476 123.676 140.721 126.792 139.969Z" fill="#DC9E73"/>
<path d="M85.6336 52.0388C67.811 34.614 61.6361 46.2315 65.4383 56.7618C66.3998 59.4246 70.2207 65.2046 75.7665 72.7663M104.588 73.258C127.491 99.1505 159.884 135.393 163.013 142.995C166.85 152.315 161.24 173.8 146.601 158.203C136.071 147.272 114.175 121.581 95.7428 98.5865" stroke="#DC9E73" stroke-width="6.22222" stroke-linejoin="bevel"/>
</svg>
