<svg width="250" height="250" viewBox="0 0 250 250" fill="none" xmlns="http://www.w3.org/2000/svg">
<path d="M212.019 179.795C216.584 192.963 210.176 207.143 197.707 211.466C185.237 215.788 157.942 185.328 177.326 188.555C196.71 191.782 168.706 168.101 181.175 163.778C193.644 159.455 207.454 166.626 212.019 179.795Z" fill="#DE9766"/>
<path d="M157.129 196.572C158.239 189.802 159.349 183.033 160.459 176.264C153.631 175.022 146.804 173.903 140.134 172.745C125.05 170.11 110.051 167.35 96.4731 162.928C89.7867 160.729 83.2573 157.922 79.2006 154.712C77.1744 153.135 76.1375 151.602 75.9355 150.862C75.7354 150.146 75.6463 149.473 76.3264 147.575C76.2958 147.752 76.1208 147.904 76.4368 147.633C76.7207 147.399 77.473 146.92 78.5568 146.477C80.6674 145.585 83.9969 144.827 87.2828 144.396C94.1348 143.487 101.834 143.446 109.534 143.699C125.01 144.251 140.984 145.997 157.03 147.718C168.92 148.994 180.762 150.285 193.119 151.074C199.248 151.448 205.461 151.717 212.062 151.526C218.934 150.748 224.65 152.612 236.232 145.193C239.626 142.637 243.594 136.808 243.433 130.753C243.349 124.852 241.107 121.122 239.183 118.233C235.229 112.712 230.998 109.481 226.821 106.445C218.428 100.563 209.852 96.3922 201.08 92.6946C183.612 85.466 165.516 80.6134 147.088 77.8988C140.092 76.885 133.046 76.211 125.979 75.9621C125.619 79.5008 125.259 83.0394 124.899 86.578C131.461 87.7182 137.964 89.2078 144.391 90.9634C161.294 95.6158 177.797 101.984 193.057 109.907C200.669 113.894 208.052 118.321 214.133 123.261C217.104 125.668 219.865 128.477 220.937 130.372C221.209 130.837 221.328 131.171 221.326 131.259C221.329 131.344 221.169 131.094 221.143 130.436C221.103 129.794 221.341 128.81 221.649 128.251C221.955 127.664 222.179 127.483 222.105 127.503V127.503C222.75 126.982 222.511 127.209 221.866 127.347C221.195 127.516 220.274 127.678 219.157 127.807C217.028 128.051 214.384 128.141 211.726 128.124C206.342 128.085 200.625 127.683 194.895 127.188C183.284 126.164 171.58 124.751 159.651 123.469C143.497 121.743 127.141 119.992 110.248 119.522C101.774 119.332 93.1674 119.376 83.9084 120.702C79.4129 121.385 74.3963 122.39 69.1782 124.637C64.1873 126.782 57.1038 131.214 54.1355 139.606V139.606C52.1504 144.94 51.4459 152.521 54.0447 159.053C56.5591 165.596 61.0394 169.987 65.131 173.089C73.486 179.195 81.6605 181.985 89.6777 184.501C105.697 189.254 121.365 191.568 136.846 193.776C143.658 194.73 150.527 195.618 157.129 196.572Z" fill="#DE9766"/>
<path d="M13.7414 90.0522C14.3243 93.561 14.9072 97.0698 15.49 100.579C19.8596 100.093 24.2273 99.5974 28.5933 99.0903C56.8841 95.8046 85.0987 92.0593 113.237 87.8545L117.103 72.1524C105.879 63.3928 94.4797 54.8973 82.8258 46.661C70.6238 38.4373 61.0339 30.4893 44.3328 23.3271C42.7648 22.8881 41.0526 22.3928 38.0924 22.8199C35.1865 23.1455 31.6762 25.6331 30.406 27.9373C27.8425 32.5766 28.3976 34.9116 28.3371 37.1629C28.5732 41.4644 29.4306 44.6678 30.3328 47.9228C32.1953 54.3098 34.5351 60.1381 37.2186 65.9356L38.6085 57.8757C32.0131 65.6881 25.4763 73.5542 18.9983 81.474C16.2146 84.8773 13.4417 88.2905 10.6796 91.7136C13.3037 94.1148 15.9278 96.516 18.5518 98.9173C21.717 95.863 24.8714 92.7989 28.0149 89.7248C35.3301 82.5711 42.5867 75.3637 49.7846 68.1026L51.1745 60.0427C49.2071 54.726 47.4312 49.13 46.2459 43.8321C45.6661 41.2212 45.2389 38.5119 45.2782 36.754C45.286 36.3347 45.3325 36.0122 45.3621 35.9574C45.3661 35.9079 45.4634 36.171 44.8741 37.1877C44.3944 38.2082 42.2268 39.7689 40.8271 39.8802C39.4194 40.0782 39.1118 39.8554 39.0622 39.8869V39.8869C48.086 44.3188 61.2039 53.8943 72.2776 61.6061C83.7202 69.6925 95.1651 77.936 106.486 86.1925L110.352 70.4903C82.366 75.6088 54.4559 81.1867 26.6221 87.2242C22.3267 88.1559 18.0332 89.0986 13.7414 90.0522ZM15.49 100.579L13.7414 90.0522L18.5518 98.9173L10.6796 91.7136L15.49 100.579Z" fill="#DE9766"/>
<path d="M105.75 77.7743L45.9888 65.7338" stroke="#DE9766" stroke-width="10.6707" stroke-linejoin="bevel"/>
</svg>
