<svg width="260" height="260" viewBox="0 0 260 260" fill="none" xmlns="http://www.w3.org/2000/svg">
<path d="M30.0356 185.69C31.8241 186.662 33.6125 187.635 35.4009 188.608C37.6458 185.232 39.9342 181.954 42.4024 178.957C46.4292 174.04 51.2362 169.648 55.8916 168.336C60.429 167.017 64.4895 168.703 68.7708 172.388C75.9827 178.388 81.7383 185.723 90.8575 192.85C95.3847 196.321 102.088 199.623 109.196 199.541C116.258 199.526 122.151 197.098 127.187 194.422C129.32 193.274 131.292 191.954 133.13 190.49C143.356 182.47 149.013 169.281 153.022 167.041C153.538 164.533 164.909 170.993 171.826 177.731V177.731C183.846 189.904 208.857 199.92 224.301 185.109C227.795 182.036 230.587 178.364 232.554 174.262C230.784 173.256 229.015 172.249 227.245 171.243C225.156 174.219 222.41 176.826 219.42 178.737C206.562 187.363 191.883 179.168 181.53 167.774V167.774C177.621 163.69 173.567 159.71 168.318 156.117C165.681 154.367 162.79 152.658 158.82 151.6C154.955 150.477 149.388 150.807 145.394 153.08C131.416 163.117 130.044 172.535 122.803 177.522C121.67 178.424 120.518 179.198 119.29 179.875V179.875C111.357 184.049 106.808 184.729 99.913 180.104C93.0582 175.448 85.6068 167.725 76.9342 161.775V161.775C70.7331 157.046 60.1709 153.909 51.8731 158C43.8036 161.791 39.3487 168.232 35.6809 174.311C33.494 178.047 31.6853 181.892 30.0356 185.69Z" fill="#DE9766"/>
<path d="M30.0356 230.624C31.8241 231.597 33.6125 232.569 35.4009 233.542C38.1186 230.438 40.7002 227.379 43.27 224.544C46.4519 221.034 49.6463 217.802 52.8318 215.576C58.227 211.746 63.315 212.384 69.1544 216.823C76.7092 222.437 82.9539 229.617 91.9625 236.229C96.4424 239.452 102.684 242.324 109.178 242.134C115.641 242.009 121.135 239.674 125.929 237.039C138.289 230.396 146.28 218.205 155.074 215.011C163.375 211.83 174.294 220.245 182.954 228.287V228.287C188.748 233.564 194.989 238.832 203.794 240.909C213.006 243.443 222.421 236.725 226.365 230.151C228.844 226.53 230.711 222.696 232.554 219.196C230.784 218.19 229.015 217.184 227.245 216.177C225.104 219.751 223.168 223.194 220.869 226.188C212.658 239.302 198.806 232.36 189.16 221.918V221.918C180.126 213.593 169.423 201.016 151.949 205.23C136.923 211.149 130.769 222.359 120.548 227.127V227.127C104.097 238.362 93.3346 220.025 76.5505 207.208V207.208C69.5097 200.573 54.203 198.444 45.837 205.563C40.7208 209.185 37.3339 213.885 34.7598 218.67C32.6975 222.544 31.1976 226.582 30.0356 230.624Z" fill="#DE9766"/>
<path d="M74.0657 90.5736C73.319 88.6797 72.5722 86.7858 71.8254 84.892C69.6553 85.3583 67.4915 85.4194 65.4207 85.1279C57.0549 83.9438 50.7231 77.2745 48.6495 69.9317C46.0226 61.4152 49.4049 52.1671 55.6958 48.8112C56.2105 48.5219 56.741 48.2671 57.2955 48.0433C64.3924 44.9146 74.4965 49.2546 78.7388 58.0671C82.2675 64.9155 82.1119 74.2136 76.7156 80.7463C75.3805 82.3627 73.7395 83.7765 71.8254 84.892C72.5722 86.7858 73.319 88.6797 74.0657 90.5736C76.9001 89.8203 79.6509 88.5067 82.0968 86.7031C92.1062 79.4349 95.6974 64.9858 91.5438 53.018V53.018C87.0976 37.9358 68.5478 25.6993 51.2198 32.6348V32.6348C49.9652 33.1246 48.75 33.699 47.5729 34.3605C32.686 42.6546 29.0564 61.9914 35.4743 75.1269V75.1269C40.6281 86.7796 53.2424 94.9094 65.5555 93.2977C68.5823 92.9252 71.4899 91.9823 74.0657 90.5736ZM71.8254 84.892L74.0657 90.5736L71.8254 84.892Z" fill="#DE9766"/>
<path d="M96.8457 52.3487C96.8457 54.3844 96.8457 56.4202 96.8457 58.456C97.231 59.3641 97.6164 60.0697 98.0017 60.5727C98.4803 61.1974 98.9588 61.5097 99.4373 61.5097C105.895 61.5097 112.353 60.6032 118.81 58.7903C119.196 58.6821 119.581 58.5707 119.967 58.456C119.967 56.4202 119.967 54.3844 119.967 52.3487C119.581 52.234 119.196 52.1226 118.81 52.0144C112.353 50.2014 105.895 49.295 99.4373 49.295C98.9588 49.295 98.4803 49.6073 98.0017 50.232C97.6164 50.735 97.231 51.4406 96.8457 52.3487Z" fill="#DE9766"/>
<path d="M31.4097 66.3086C31.4097 68.3444 31.4097 70.3802 31.4097 72.416C31.0243 73.3241 30.639 74.0297 30.2536 74.5327C29.7751 75.1574 29.2966 75.4697 28.818 75.4697C22.3603 75.4697 15.9026 74.5632 9.44491 72.7502C9.05956 72.642 8.67421 72.5306 8.28886 72.416C8.28886 70.3802 8.28886 68.3444 8.28886 66.3086C8.67421 66.194 9.05956 66.0826 9.44491 65.9744C15.9026 64.1614 22.3603 63.2549 28.818 63.2549C29.2966 63.2549 29.7751 63.5673 30.2536 64.1919C30.639 64.695 31.0243 65.4005 31.4097 66.3086Z" fill="#DE9766"/>
<path d="M95.8134 83.7845C95.0475 85.6708 94.2815 87.557 93.5156 89.4432C93.728 90.5096 94.0165 91.3882 94.3813 92.0793C94.8342 92.9374 95.4047 93.5061 96.0927 93.7855C105.377 97.5554 115.002 100.485 124.968 102.575C125.563 102.7 126.159 102.822 126.756 102.941C127.522 101.054 128.288 99.1682 129.054 97.282C128.543 96.9508 128.031 96.6226 127.517 96.2974C118.915 90.8478 109.972 86.238 100.688 82.4682C100 82.1888 99.1947 82.1988 98.2717 82.4982C97.5285 82.7394 96.709 83.1681 95.8134 83.7845Z" fill="#DE9766"/>
<path d="M47.0951 96.5358C45.3085 95.5597 43.522 94.5836 41.7355 93.6074C40.6519 93.6967 39.746 93.8832 39.0179 94.1667C38.1137 94.5188 37.4836 95.0206 37.1276 95.6722C32.3231 104.466 28.314 113.694 25.1005 123.356C24.9088 123.933 24.7198 124.511 24.5337 125.091C26.3203 126.067 28.1068 127.043 29.8933 128.019C30.2806 127.549 30.6651 127.078 31.0467 126.605C37.4422 118.681 43.0422 110.322 47.8467 101.529C48.2027 100.877 48.2846 100.076 48.0925 99.1248C47.9377 98.3589 47.6053 97.4959 47.0951 96.5358Z" fill="#DE9766"/>
<path d="M33.7021 37.4466C35.0172 35.8926 36.3323 34.3385 37.6474 32.7845C37.7776 31.7051 37.777 30.7802 37.6455 30.01C37.4822 29.0535 37.1172 28.3354 36.5504 27.8557C28.9014 21.3827 20.6669 15.6017 11.8467 10.5126C11.3204 10.209 10.792 9.90775 10.2615 9.609C8.94643 11.163 7.63133 12.717 6.31623 14.2711C6.69861 14.7448 7.08306 15.2161 7.46961 15.685C13.9474 23.5419 21.0108 30.7069 28.6598 37.1798C29.2266 37.6595 29.9951 37.9008 30.9655 37.9036C31.7469 37.9059 32.6591 37.7535 33.7021 37.4466Z" fill="#DE9766"/>
<path d="M84.0567 31.7348C85.5436 33.1253 87.0305 34.5158 88.5174 35.9063C89.5989 36.0793 90.5236 36.1212 91.3102 36.0112C92.2807 35.8814 93.028 35.5284 93.5435 34.96C100.599 27.3438 106.056 18.0318 109.863 8.57359C110.1 7.99885 110.319 7.44394 110.55 6.86143C108.827 5.77713 107.104 4.69283 105.381 3.60852C104.96 4.06238 104.557 4.49122 104.143 4.94164C97.2596 12.4531 91.0834 19.6251 84.4962 26.7535C84.0092 27.2904 83.7495 28.036 83.7155 28.9932C83.6833 29.7692 83.8041 30.6753 84.0567 31.7348Z" fill="#DE9766"/>
<path d="M56.9297 23.9933C58.9655 23.9933 61.0013 23.9933 63.0371 23.9933C63.9452 23.757 64.6508 23.5207 65.1538 23.2844C65.7784 22.991 66.0908 22.6975 66.0908 22.4041C66.0908 18.4442 65.1843 14.4842 63.3713 10.5243C63.2631 10.288 63.1517 10.0517 63.0371 9.81543C61.0013 9.81543 58.9655 9.81543 56.9297 9.81543C56.8151 10.0517 56.7037 10.288 56.5955 10.5243C54.7825 14.4842 53.876 18.4442 53.876 22.4041C53.876 22.6975 54.1883 22.991 54.813 23.2844C55.316 23.5207 56.0216 23.757 56.9297 23.9933Z" fill="#DE9766"/>
<path d="M72.0981 98.8155C74.055 98.2542 76.0119 97.693 77.9688 97.1317C78.9594 97.2914 79.7552 97.507 80.3563 97.7784C81.1029 98.1155 81.5492 98.5386 81.6952 99.0479C83.6663 105.92 84.766 113.043 84.9943 120.415C85.008 120.855 85.0185 121.296 85.0259 121.737C83.069 122.299 81.1121 122.86 79.1552 123.421C78.9274 123.043 78.7027 122.663 78.4811 122.283C74.7673 115.91 71.9249 109.288 69.9538 102.415C69.8078 101.906 69.9619 101.311 70.4163 100.629C70.7822 100.081 71.3428 99.4759 72.0981 98.8155Z" fill="#DE9766"/>
<ellipse cx="62.8189" cy="69.144" rx="7.41611" ry="7.63423" fill="#DE9766"/>
</svg>
