<svg width="320" height="320" viewBox="0 0 320 320" fill="none" xmlns="http://www.w3.org/2000/svg">
<path d="M226.646 30.009C223.021 30.3611 219.395 30.7133 215.77 31.0654C215.949 40.5977 216.208 50.1098 216.562 59.6152C217.576 86.6654 219.337 113.711 222.472 140.699C226.545 176.065 231.894 211.248 238.138 246.28L239.294 249.45C247.146 262.791 255.01 276.124 262.887 289.45L279.267 288.816C285.669 275.361 292.059 261.9 298.436 248.433L299.309 243.918C294.128 169.846 286.23 94.2443 264.877 22.3565L260.86 18.0685C257 16.8457 252.694 15.8297 248.149 15.7695C236.235 15.7513 227.081 21.166 218.614 25.7287C220.343 28.9344 222.073 32.14 223.802 35.3457C231.987 31.1792 240.451 27.2621 247.796 27.7211C250.725 27.8661 253.737 28.6353 256.956 29.778L252.938 25.49C271.605 97.3813 277.374 170.713 281.417 245.141L282.29 240.627C275.698 253.99 269.118 267.36 262.55 280.735L278.929 280.101C271.218 266.678 263.494 253.263 255.757 239.855L256.913 243.026C251.012 208.186 245.885 173.443 241.854 138.448C238.752 111.747 235.441 84.9718 231.306 58.2073C229.855 48.8059 228.306 39.4077 226.646 30.009ZM215.77 31.0654L226.646 30.009L223.802 35.3457L218.614 25.7287L215.77 31.0654Z" fill="#DE9766"/>
<path d="M250.784 246.368C268.091 237.004 283.109 239.574 288.455 242.03" stroke="#DE9766" stroke-width="10.9268" stroke-linejoin="bevel"/>
<path d="M70.2883 151.963C65.3684 132.71 67.8551 139.204 90.1548 147.487C107.995 154.113 98.7111 137.811 91.8393 128.831L133.845 151.432L129.714 129.116L173 143.212" stroke="#DE9766" stroke-width="10.9268" stroke-linejoin="bevel"/>
<path d="M190.896 286.074C190.485 282.455 190.073 278.836 189.662 275.217C177.868 275.905 166.092 276.699 154.319 277.564C122.25 279.932 90.2471 282.776 58.2743 286.074L70.8946 294.963C60.1782 231.152 46.1092 161.586 38.4105 103.808C38.2683 106.1 37.4678 108.04 36.7443 109.23C36.1506 110.216 35.6073 110.809 35.2354 111.18C35.0388 111.373 34.9204 111.474 34.8286 111.552C34.7349 111.631 34.6654 111.685 34.6189 111.719C34.523 111.79 34.535 111.778 34.5962 111.741C34.7053 111.674 35.078 111.47 35.5049 111.271C35.9118 111.079 36.434 110.852 37.0521 110.606C84.0974 96.8489 142.398 91.9085 195.896 85.6207L181.963 73.7254C187.454 128.772 193.583 183.771 200.349 238.72C201.789 250.416 203.258 262.11 204.756 273.801C208.388 273.523 212.019 273.245 215.651 272.967C215.353 261.184 215.025 249.403 214.669 237.624C212.996 182.285 210.684 126.995 207.736 71.7532L193.803 59.8579C137.946 64.1383 84.8172 65.8869 26.0883 83.0484C23.9022 83.9306 21.7873 84.8437 19.2003 86.397C17.802 87.2666 16.3414 88.2031 14.4167 90.0696C13.3811 91.0951 12.3064 92.3436 11.3189 93.9859C10.1096 95.9852 9.02917 98.7474 8.8336 101.857V101.857C17.5807 174.684 33.5288 234.274 48.7514 299.595L61.3716 308.483C92.8973 303.059 124.526 297.573 156.108 292.073C167.704 290.058 179.297 288.047 190.896 286.074Z" fill="#DE9766"/>
<path d="M82.0203 200.406C78.9292 181.247 88.2756 189.29 96.4022 205.446C109.853 211.879 104.328 186.004 99.3745 177.114L121.984 204.598L128.421 177.022C139.405 180.217 144.85 184.928 152.48 201.912" stroke="#DE9766" stroke-width="10.9268" stroke-linejoin="bevel"/>
<path d="M93.868 256.302C90.7769 237.143 100.123 245.187 108.25 261.342C121.701 267.776 116.175 241.901 111.222 233.01L133.832 260.495L140.268 232.918C151.253 236.113 156.697 240.824 164.328 257.808" stroke="#DE9766" stroke-width="10.9268" stroke-linejoin="bevel"/>
</svg>
