<svg width="319" height="321" viewBox="0 0 319 321" fill="none" xmlns="http://www.w3.org/2000/svg">
<path d="M35.7595 43.1069C39.2662 42.3462 42.7729 41.5855 46.2797 40.8249C46.1513 37.7734 46.2771 35.0333 46.6772 32.3751C47.4411 27.3775 49.3139 23.4368 52.1331 20.7629C63.249 9.42301 90.5188 20.4384 92.4895 42.4266V42.4266C93.5103 48.7452 93.2679 55.2379 90.8653 60.7173C87.189 69.9244 76.6965 74.3789 67.5833 71.0185C58.3803 67.9247 51.6847 59.1768 48.4608 49.5542C47.4946 46.7268 46.7911 43.8538 46.2797 40.8249C42.7729 41.5855 39.2662 42.3462 35.7595 43.1069C36.6621 46.5806 37.7722 49.8906 39.1848 53.1724C43.9355 64.3027 52.6411 74.9322 65.2012 78.6694C77.5747 82.9529 93.0278 75.8486 97.6089 63.6794C100.715 56.5396 101.335 48.8941 100.859 41.5051V41.5051C101.95 16.5834 68.7388 -12.6387 41.5415 9.72512C35.1813 15.6943 32.7645 24.7188 33.3429 32.0512C33.5966 36.0437 34.4741 39.5833 35.7595 43.1069ZM46.2797 40.8249L35.7595 43.1069L35.7595 43.1069L46.2797 40.8249L46.2797 40.8249Z" fill="#DE9766"/>
<path d="M78.1991 205.788C47.8454 181.094 29.5304 119.358 38.585 90.5474C46.8165 81.9729 108.553 63.28 108.553 83.8587C108.553 104.438 92.0898 149.711 108.553 166.689C125.016 183.666 178.125 166.369 187.267 174.92C203.215 189.84 214.191 258.607 226.366 292.734L244.887 309.711C232.883 310.74 207.743 308.785 203.215 292.734C198.688 276.682 180.407 223.966 171.833 199.615C171.833 199.615 108.553 230.483 78.1991 205.788Z" fill="#DE9766"/>
<path d="M202.745 125.892C196.572 119.719 143.067 107.372 108.083 81.1336C99.5083 76.3319 87.504 73.931 108.083 102.741C133.806 138.754 208.919 132.066 202.745 125.892Z" fill="#DE9766"/>
<path d="M175.993 154.703C166.262 145.29 116.314 136.182 81.3304 109.944C72.7559 105.142 60.7516 102.742 81.3304 131.552C107.054 167.565 185.723 164.116 175.993 154.703Z" fill="#DE9766"/>
<path d="M151.768 298.907C149.367 275.412 142.199 219.781 132.733 185.209L168.231 179.035V295.82C174.233 305.938 183.357 324.836 171.833 319.485C160.308 314.135 153.655 303.537 151.768 298.907Z" fill="#DE9766"/>
<path d="M192.926 163.086C190.045 157.736 188.638 132.39 188.295 120.385L233.054 110.096L258.263 63.2793C263.751 68.081 275.447 81.0799 278.328 94.6619C281.209 108.244 254.147 145.937 240.257 163.086C225.68 165.316 195.807 168.437 192.926 163.086Z" fill="#DE9766"/>
</svg>
