<svg width="300" height="300" viewBox="0 0 300 300" fill="none" xmlns="http://www.w3.org/2000/svg">
<path d="M63.4228 157.55C65.7718 157.55 68.1208 157.55 70.4698 157.55C70.8888 143.614 73.255 129.741 78.8508 117.485C89.9207 91.3282 117.906 78.3099 145.721 78.4836C164.467 78.1843 183.866 80.119 195.768 91.1965C207.785 102.114 212.232 120.906 214.449 139.283V139.283C221.28 182.247 189.624 222.439 145.47 218.984C138.292 218.982 131.651 217.051 126.023 213.187C94.0273 190.634 97.8321 114.737 138.763 109.521V109.521C151.984 108.109 165.563 108.922 173.9 115.482C182.357 121.772 185.528 134.714 185.659 147.986C185.827 160.721 184.69 174.126 178.08 181.492C171.703 188.986 158.339 190.804 145.47 191.053C123.16 194.286 124.972 147.042 137.919 139.644C139.414 139.607 140.864 139.597 142.233 139.659C154.566 137.705 153.143 156.726 154.027 169.882C156.376 169.882 158.725 169.882 161.074 169.882C161.225 162.652 161.426 155.449 160.365 147.796C159.73 144.024 158.973 139.713 155.531 135.745C151.898 131.684 146.694 130.79 142.909 130.421C141.189 130.259 139.543 130.193 137.919 130.155V130.155C131.462 130.328 128.138 134.509 125.769 137.637C123.403 140.988 121.851 144.433 120.583 147.958C118.116 154.997 116.911 162.279 116.945 169.765C117.058 177.193 118.276 185.139 123.011 192.378C127.599 199.802 137.211 204.245 145.47 204.08V204.08C159.127 204.026 175.838 204.216 188.702 191.355C200.645 178.031 200.904 161.829 201.421 147.986V147.986C201.57 133.052 199.167 114.424 184.451 102.3C169.703 90.691 152.05 90.7096 137.076 91.8211V91.8211C104.337 94.4571 88.4214 127.862 86.4368 153.617C84.2409 180.159 90.089 210.667 115.234 228.982C124.055 235.1 135.054 238.154 145.47 238.062V238.062C169.754 238.357 197.477 230.008 214.028 208.979C230.617 188.305 234.881 161.463 231.524 137.059V137.059C228.497 117.401 223.779 95.0284 206.069 79.4636C187.852 64.1886 164.833 64.08 145.218 64.9722V64.9722C114.525 65.6302 80.822 83.3655 70.1694 113.808C64.6151 127.936 63.018 142.955 63.4228 157.55Z" fill="#DE9766"/>
<ellipse cx="150" cy="34.4796" rx="8.55705" ry="8.80872" fill="#DE9766"/>
<ellipse cx="250.277" cy="92.7703" rx="7.87171" ry="8.80872" transform="rotate(60 250.277 92.7703)" fill="#DE9766"/>
<ellipse cx="250.747" cy="206.163" rx="6.93128" ry="8.80872" transform="rotate(120 250.747 206.163)" fill="#DE9766"/>
<ellipse cx="150" cy="265.268" rx="8.55705" ry="8.80872" transform="rotate(-180 150 265.268)" fill="#DE9766"/>
<ellipse cx="48.9301" cy="208.227" rx="8.55705" ry="7.49735" transform="rotate(-120 48.9301 208.227)" fill="#DE9766"/>
<ellipse cx="48.3522" cy="91.188" rx="8.55705" ry="6.83008" transform="rotate(-60 48.3522 91.188)" fill="#DE9766"/>
</svg>
