<svg width="300" height="300" viewBox="0 0 300 300" fill="none" xmlns="http://www.w3.org/2000/svg">
<path d="M34.8323 162.766L27.105 185.493L58.0141 153.675L37.105 196.857L95.2868 122.312M95.2868 122.312L55.2868 196.857L89.3777 160.039L74.3777 196.857L103.469 160.039L91.6504 196.857L123.014 157.312L110.287 196.857L141.196 153.675L130.287 194.584L158.014 153.675L145.287 192.766L184.378 146.857L161.65 192.766L211.65 131.402L181.196 189.584L225.287 138.221L204.832 186.857L236.196 138.221L223.469 182.766L248.923 140.039L243.923 179.13L263.469 146.857L265.287 177.312L275.741 151.857M95.2868 122.312C118.62 116.402 171.65 104.583 203.469 134.129" stroke="#DE9766" stroke-width="12.7273" stroke-linejoin="bevel"/>
<path d="M278.469 176.856C269.2 185.055 113.853 202.079 53.3575 202.745C50.9654 202.772 48.6429 202.606 46.2864 202.194C38.6665 200.861 29.466 198.474 25.7412 193.22C20.287 185.527 19.2729 172.983 20.2867 168.675C22.1049 160.947 40.2867 160.038 49.8322 155.947C59.3776 151.856 76.1958 120.493 88.9231 117.765C101.65 115.038 131.196 109.129 158.469 106.856C182.906 104.82 197.967 115.096 212.862 126.002C220.608 131.674 229.985 134.365 239.555 135.117C264.788 137.1 276.905 144.53 278.469 155.947C279.021 159.983 281.196 174.443 278.469 176.856Z" stroke="#DE9766" stroke-width="12.7273" stroke-linejoin="bevel"/>
<path d="M86.196 223.673C65.2869 224.128 65.2869 215.946 60.2869 203.673L109.378 199.128C108.62 207.158 102.923 223.31 86.196 223.673Z" fill="#DE9766"/>
<path d="M205.741 211.855C184.832 212.31 184.832 204.128 179.832 191.855L228.923 187.31C228.166 195.34 222.469 211.491 205.741 211.855Z" fill="#DE9766"/>
<path d="M113.469 129.583C97.105 131.401 89.8323 145.492 88.0141 150.947C85.6976 157.896 97.6979 158.673 104.948 157.627C126.695 154.49 169.095 147.882 179.832 146.401C193.014 144.583 191.196 137.765 185.287 130.492C179.378 123.219 163.014 123.674 152.56 125.038C142.105 126.401 129.832 127.765 113.469 129.583Z" stroke="#DE9766" stroke-width="12.7273" stroke-linejoin="bevel"/>
<path d="M96.1961 113.674C96.1961 113.674 90.287 90.9467 96.1961 87.7648C102.105 84.5828 139.287 78.0375 149.832 77.3102C160.378 76.5829 166.651 96.7042 168.469 106.856" stroke="#DE9766" stroke-width="12.7273" stroke-linejoin="bevel"/>
<path d="M20 250.5C95.6667 239.833 252.4 218.1 274 216.5" stroke="#DE9766" stroke-width="12.7273" stroke-linejoin="bevel"/>
</svg>
