<svg width="267" height="269" viewBox="0 0 267 269" fill="none" xmlns="http://www.w3.org/2000/svg">
<path d="M160 150.633C161.2 142.633 165.167 96.9661 167 75.1328H189.5C195.5 75.1328 214.167 163.622 224 210.955C227.079 225.777 150 230.777 150 220.455C151.667 197.622 158.8 158.633 160 150.633Z" stroke="#DE9766" stroke-width="12"/>
<path d="M177 77.1328L164.5 224.633L186 77.1328L177 221.633L195 95.6328L186 219.133L204 119.133L198.5 219.133L212 161.633V219.133" stroke="#DE9766" stroke-width="8"/>
<path d="M78.5 169.633C74.5 169.633 70.5 169.633 66.5 169.633C66.4033 170.863 66.3102 172.094 66.2205 173.324C65.6301 181.427 65.1916 189.53 64.9051 197.633L64.96 196.721C63.7752 204.272 62.7245 211.839 61.8078 219.423C61.0388 225.784 60.7356 232.202 60.8982 238.677C60.9294 239.92 60.9778 241.165 61.0434 242.413C65.0145 242.893 68.9855 243.373 72.9566 243.853C73.3175 242.657 73.6613 241.459 73.9878 240.259C75.6884 234.01 76.9232 227.705 77.6922 221.343C78.6089 213.76 79.3915 206.16 80.04 198.544L80.0949 197.633C79.8084 189.53 79.3699 181.427 78.7795 173.324C78.6898 172.094 78.5967 170.863 78.5 169.633Z" fill="#DE9766"/>
<path d="M97.5 158.133L105.5 187.633L97.5 237.633" stroke="#DE9766" stroke-width="12"/>
<path d="M11 57.1328C33.9391 70.9299 46.7351 76.2705 69.5 83.6328L86.5 80.1328C106.204 69.1631 116.897 61.1993 135.5 44.6328" stroke="#DE9766" stroke-width="12"/>
<path d="M89.8398 47.2166C91.3398 27.2166 70.3398 20.7166 57.3398 37.7166C54.5065 43.05 51.9398 55.7168 64.3398 63.7168C79.8398 73.7168 88.3398 67.2166 89.8398 47.2166Z" fill="#DE9766"/>
<path d="M75.2222 63.4844L76.2778 79.426" stroke="#DE9766" stroke-width="12"/>
<path d="M195.105 42.2157C196.605 22.2157 176.604 20.9546 163.604 37.9546C160.771 43.288 157.544 60.2157 169.944 68.2157C185.444 78.2157 193.605 62.2157 195.105 42.2157Z" fill="#DE9766"/>
<path d="M225.5 62.6334C204 54.1334 196.5 28.1338 188 27.1338C163.2 21.5338 154.333 38.8 156 50.1334L213 68.6334C222.666 73.6334 239.343 68.1065 225.5 62.6334Z" fill="#DE9766"/>
<path d="M99 161.955C99 161.955 79.5 169.455 70.5 167.455C61.5 165.455 59.5005 83.1328 59.5005 83.1328H89.5005L99 161.955Z" fill="#DE9766" stroke="#DE9766" stroke-width="12"/>
<path d="M136.499 41.4863C134.5 43.2507 132.5 45.015 130.501 46.7793C132.032 48.5821 133.599 50.3821 135.173 52.1573C143.174 60.4907 148.278 68.5884 161.141 76.0506C173.286 78.9667 183.749 79.7498 195.039 81.0243L194.46 80.9346C204.447 83.1578 214.441 85.3528 224.441 87.5194L222.711 86.7826C222.711 86.7826 222.711 86.7826 222.711 86.7826C230.928 92.3057 239.267 97.6482 247.727 102.81C249.734 104.034 251.748 105.249 253.769 106.453C255.256 104.239 256.744 102.026 258.231 99.813C256.353 98.3968 254.469 96.9907 252.577 95.5948C244.603 89.7102 236.507 84.0062 228.289 78.4831C228.289 78.4831 228.289 78.4831 228.289 78.4831L226.559 77.7462C216.559 75.5795 206.553 73.4412 196.54 71.3311L195.961 71.2414C185.179 70.1952 173.382 69.2497 163.859 67.215C157.616 63.6174 148.49 54.0385 141.257 46.5681C139.655 44.8862 138.053 43.1789 136.499 41.4863Z" fill="#DE9766"/>
</svg>
