<svg width="300" height="300" viewBox="0 0 300 300" fill="none" xmlns="http://www.w3.org/2000/svg">
<path d="M221.987 66.2915C221.987 66.2915 185.393 95.5828 165.677 100.819C145.962 106.056 132.088 100.819 110.149 100.819C100.894 100.819 -18.2862 70.3008 7.69661 91.6793C26.6415 107.267 64.0375 112.667 87.5 116.052L42.1083 229.791H54.6216C77.4465 200.038 81.7389 177.81 95.7433 137.343L102 144.838L69.4812 249.086H78.8662C105.189 214.379 110.149 148.163 147.853 144.838C185.556 141.512 249.197 220.81 253.271 217.605C257.345 214.399 191.031 135.03 195.56 132.142C200.089 129.254 283.605 204.561 286.897 198.31C290.189 192.058 213.381 116.052 213.381 116.052L221.987 91.6793C230.851 94.726 249.517 96.148 253.271 77.4623C257.025 58.7766 233.979 62.2294 221.987 66.2915Z" fill="#DE9766"/>
<path d="M227.345 55.2949L216.828 69.4054H231.552L227.345 55.2949Z" fill="#DE9766"/>
<path d="M244.523 51L234.006 65.1104H248.73L244.523 51Z" fill="#DE9766"/>
</svg>
