<svg width="300" height="300" viewBox="0 0 300 300" fill="none" xmlns="http://www.w3.org/2000/svg">
<path d="M160.755 27.1391C151.765 30.6839 142.455 28.4292 139.961 22.1031C137.466 15.777 158.808 -1.39593 156.008 9.26643C153.208 19.9288 170.021 2.9404 172.515 9.26647C175.01 15.5925 169.744 23.5944 160.755 27.1391Z" fill="#DE9766"/>
<circle cx="106.743" cy="55.0832" r="8.40249" fill="#DE9766"/>
<path d="M122.918 71.0058C120.018 71.179 117.119 71.3522 114.219 71.5255C114.127 72.7732 114.044 73.9928 113.97 75.1853C112.479 93.4804 115.948 113.368 118.92 129.675C119.368 132.763 120.382 135.725 121.97 138.847C122.528 139.95 123.158 141.052 123.859 142.22C126.763 142.22 129.668 142.22 132.573 142.22C133.274 140.953 133.863 139.701 134.336 138.408C135.688 134.755 136.082 130.906 135.552 127.268C132.039 107.964 126.972 92.516 123.631 74.5083C123.394 73.3713 123.156 72.2042 122.918 71.0058Z" fill="#DE9766"/>
<path d="M182.062 71.3173C184.961 71.4905 187.86 71.6638 190.76 71.837C190.853 73.0848 190.936 74.3043 191.009 75.4969C192.501 93.7919 189.031 113.68 186.059 129.986C185.611 133.075 184.597 136.036 183.009 139.159C182.451 140.261 181.822 141.363 181.12 142.532C178.216 142.532 175.311 142.532 172.407 142.532C171.706 141.264 171.116 140.012 170.643 138.72C169.291 135.066 168.897 131.218 169.427 127.58C172.941 108.275 178.007 92.8275 181.348 74.8198C181.585 73.6828 181.823 72.5157 182.062 71.3173Z" fill="#DE9766"/>
<path d="M144.71 157.78C150.83 157.054 164.564 155.602 170.539 155.602" stroke="#DE9766" stroke-width="8.71369" stroke-linejoin="bevel"/>
<path d="M124.481 53.5267C138.787 52.6969 170.889 51.0371 184.855 51.0371" stroke="#DE9766" stroke-width="8.71369" stroke-linejoin="bevel"/>
<ellipse cx="201.037" cy="50.468" rx="9.1409" ry="16.7714" transform="rotate(17.206 201.037 50.468)" fill="#DE9766"/>
<ellipse cx="134.067" cy="160.372" rx="7.72912" ry="7.16115" transform="rotate(17.206 134.067 160.372)" fill="#DE9766"/>
<ellipse cx="191.867" cy="283.608" rx="7.72912" ry="7.16115" transform="rotate(17.206 191.867 283.608)" fill="#DE9766"/>
<ellipse cx="182.659" cy="155.555" rx="9.1409" ry="11.4545" transform="rotate(17.206 182.659 155.555)" fill="#DE9766"/>
<ellipse cx="117.274" cy="292.357" rx="10.4241" ry="5.95364" transform="rotate(4.31055 117.274 292.357)" fill="#DE9766"/>
<ellipse cx="117.306" cy="228.516" rx="9.9392" ry="12.4519" transform="rotate(4.31055 117.306 228.516)" fill="#DE9766"/>
<ellipse cx="193.523" cy="222.013" rx="8.1622" ry="7.04404" transform="rotate(4.31055 193.523 222.013)" fill="#DE9766"/>
<path d="M131.017 173.651C129.772 189.336 125.519 203.216 123.548 208.195" stroke="#DE9766" stroke-width="8.71369" stroke-linejoin="bevel"/>
<path d="M184.234 208.978C189.42 209.079 194.605 209.179 199.791 209.279C199.749 208.507 199.689 207.728 199.613 206.975C197.979 193.447 193.416 182.184 187.539 171.055C187.202 170.451 186.832 169.804 186.458 169.193C183.867 170.505 181.276 171.818 178.684 173.13C178.887 173.656 179.105 174.247 179.299 174.81C182.782 185.359 185.059 197.188 184.4 207.346C184.356 207.897 184.301 208.45 184.234 208.978Z" fill="#DE9766"/>
<path d="M116.39 246.162C116.39 257.365 116.39 270.54 116.39 275.726" stroke="#DE9766" stroke-width="8.71369" stroke-linejoin="bevel"/>
<path d="M193.568 241.494C193.568 252.697 193.568 265.872 193.568 271.058" stroke="#DE9766" stroke-width="8.71369" stroke-linejoin="bevel"/>
<path d="M98.3403 71.2656C86.0996 96.6806 60.7469 151.183 57.2614 165.871" stroke="#DE9766" stroke-width="8.71369" stroke-linejoin="bevel"/>
<path d="M203.986 69.3516C208.659 67.1009 213.332 64.8503 218.005 62.5996C218.684 64.1407 219.391 65.7469 220.088 67.3382C232.406 95.9538 244.931 124.109 254.902 154.203C255.425 155.95 255.915 157.676 256.314 159.576C253.488 160.246 250.662 160.917 247.836 161.587C247.444 160.196 246.9 158.647 246.317 157.086C234.907 129.008 220.394 101.312 206.357 73.8991C205.564 72.37 204.761 70.8273 203.986 69.3516Z" fill="#DE9766"/>
</svg>
