<svg width="220" height="220" viewBox="0 0 220 220" fill="none" xmlns="http://www.w3.org/2000/svg">
<path d="M60.7312 5.61306C61.2602 8.99415 61.7892 12.3752 62.3182 15.7563C66.2452 15.2383 70.211 15.056 74.1852 15.1753C85.5087 15.5414 97.4952 18.2837 106.917 23.1566L103.72 16.8581C99.4992 42.551 95.3765 68.2583 91.352 93.98C91.3984 93.4631 91.7464 92.8539 91.8923 92.7101C92.0438 92.543 91.9322 92.6707 91.6086 92.8167C90.9487 93.1389 89.6131 93.5092 88.1767 93.7032C85.2494 94.111 81.8134 94.035 78.4862 93.6213C75.1566 93.2043 71.8114 92.4386 68.9913 91.3293C67.6011 90.785 66.3352 90.1168 65.6066 89.5582C65.2451 89.2895 65.0428 89.0496 65.0707 89.0688C65.0838 89.07 65.3717 89.4769 65.4456 90.1511L65.4456 90.1511C63.5788 72.2055 63.3167 54.7152 65.5061 36.9956C65.9887 32.8244 66.349 28.5861 66.5398 24.3129C66.7289 20.0994 66.7572 15.823 66.5928 11.5003C63.2141 10.9566 59.8353 10.4128 56.4566 9.86909C54.9412 13.9445 53.6437 18.071 52.594 22.2568C51.5293 26.5002 50.7156 30.84 50.2082 35.2257C47.8773 53.8931 48.2762 73.2563 50.4242 91.7364L50.4242 91.7364C51.1254 97.1641 54.444 99.9601 56.6824 101.663C59.0927 103.403 61.3718 104.432 63.6094 105.294C68.0811 106.966 72.3881 107.829 76.7849 108.324C81.1873 108.785 85.5972 108.882 90.3807 108.145C92.7806 107.743 95.2802 107.191 98.1123 105.78C100.74 104.51 104.884 101.317 105.591 96.0633V96.0633C109.104 70.2667 112.519 44.4559 115.835 18.6306L112.639 12.3321C100.052 6.45 87.3817 4.32764 74.2656 4.3539C69.7368 4.41022 65.2114 4.81589 60.7312 5.61306ZM62.3182 15.7563L60.7312 5.61306L56.4566 9.86909L66.5928 11.5003L62.3182 15.7563Z" fill="#DE9766"/>
<path d="M143.014 18.5311C142.518 21.9173 142.023 25.3034 141.528 28.6896C147.849 29.8828 154.172 31.0659 160.496 32.2387C171.489 34.2773 182.487 36.2852 193.489 38.2622L187.506 30.2285C178.293 81.5015 169.748 132.872 161.872 184.341L180.304 180.137C173.008 169.174 165.676 158.235 158.308 147.321C151.057 136.58 143.692 125.916 136.213 115.328L137.796 122.268C141.054 96.1368 143.751 69.9231 145.886 43.6272C146.408 37.2075 146.896 30.7829 147.35 24.3535C143.964 23.8581 140.578 23.3626 137.191 22.8672C135.785 29.1574 134.412 35.4524 133.072 41.7524C127.585 67.5579 122.659 93.4456 118.295 119.415L119.878 126.355C126.901 137.25 134.038 148.068 141.289 158.81C148.657 169.724 156.061 180.614 163.501 191.48L181.933 187.276C189.132 135.708 195.662 84.0427 201.523 32.2792L195.54 24.2455C184.433 22.9879 173.321 21.761 162.204 20.5649C155.809 19.8767 149.412 19.1988 143.014 18.5311ZM141.528 28.6896L143.014 18.5311L137.191 22.8672L147.35 24.3535L141.528 28.6896Z" fill="#DE9766"/>
<path d="M62.1127 116.941C61.6173 120.327 61.1218 123.713 60.6264 127.1C65.5898 128.094 70.5546 129.079 75.5209 130.053C81.8419 131.293 88.1652 132.516 94.491 133.723L89.7223 130.609C105.566 158.54 121.761 186.251 138.308 213.742L148.588 199.111C127.581 194.175 106.533 189.424 85.4461 184.855C74.925 182.576 64.3714 180.446 53.7853 178.467L53.1286 178.348C54.3649 178.532 55.419 179.39 55.5467 179.634C55.7368 179.915 55.4768 179.707 55.2231 179.217C54.6803 178.227 54.1061 176.398 53.7151 174.435C52.9169 170.459 52.6231 165.852 52.6311 161.258C52.7022 152.071 53.7666 142.346 56.5724 134.134C57.2862 132.112 58.1573 130.231 59.0487 128.925C59.4841 128.277 59.9089 127.81 60.1635 127.557C60.4274 127.31 60.4116 127.204 60.6264 127.1C61.1218 123.713 61.6173 120.327 62.1127 116.941C57.1965 115.906 52.7692 118.731 50.4352 121.067C47.9306 123.52 46.2889 126.077 44.8388 128.653C39.3757 138.897 36.93 149.309 35.578 160.187C34.9753 165.641 34.7139 171.165 35.3661 177.165C35.7328 180.2 36.2467 183.299 37.7149 186.931C39.11 190.179 42.1973 196.303 50.2893 197.754L49.6326 197.635C60.0887 200.214 70.5773 202.643 81.0984 204.923C102.186 209.491 123.313 213.876 144.479 218.078L154.759 203.446C137.266 176.548 119.421 149.869 101.224 123.411L96.4553 120.297C90.0489 119.641 83.6401 119.002 77.2288 118.379C72.1916 117.889 67.1529 117.41 62.1127 116.941ZM60.6264 127.1L62.1127 116.941L60.6264 127.1Z" fill="#DE9766"/>
</svg>
