<svg width="180" height="180" viewBox="0 0 180 180" fill="none" xmlns="http://www.w3.org/2000/svg">
<path d="M71.6935 106.052L62.1679 113.61L52.6422 121.169M52.6422 121.169L43.8725 137.193M52.6422 121.169H32.6836M52.6422 121.169L39.9413 129.332M83.1848 119.053L81.6728 130.541M81.6728 130.541L66.2503 140.821M81.6728 130.541L85.5589 148.323M56.8758 70.3758C65.7463 70.275 85.6645 70.7386 94.3737 73.3992C97.7002 106.052 143.964 149.778 140.033 150.987C136.101 152.197 101.027 126.913 97.7002 124.495C94.3737 122.076 75.9272 113.913 71.6935 109.378C69.8122 107.362 65.1837 99.4282 61.2847 91.2373C56.4099 80.9965 52.6754 70.3541 56.8758 70.3758Z" stroke="#DE9766" stroke-width="13.0263" stroke-linejoin="bevel"/>
<path d="M26.8638 69.8978C23.5033 67.1481 20.1428 64.3983 16.7823 61.6486C15.3803 63.8678 12.4139 66.2604 14.3404 72.9791C15.1912 75.2038 17.2844 76.9988 18.9881 77.6772C20.7244 78.411 22.1374 78.5111 23.3351 78.5143L22.7195 78.4845C27.4131 78.8726 32.1065 79.2621 36.7981 79.6711C41.4896 80.08 46.1818 80.482 50.8743 80.8818L54.1151 80.2975C58.0193 78.2589 61.069 75.7561 63.6872 72.014C66.2923 68.4067 67.6899 62.6218 66.157 57.8413C62.6895 47.2092 52.841 44.1049 44.7606 43.4816L41.1514 44.5728C37.3877 47.3666 33.6172 50.1511 29.8372 52.9225C27.4672 54.6601 25.0284 56.3039 22.5209 57.8538C21.0289 58.7759 19.5126 59.6649 17.9719 60.5206C20.5393 64.0223 23.1068 67.5241 25.6742 71.0258C26.9536 69.8139 28.2575 68.6351 29.5857 67.4896C31.818 65.5643 34.1192 63.7328 36.4891 61.9952C40.2692 59.2238 44.0588 56.4654 47.8551 53.7162L44.2459 54.8075C49.2125 55.0871 54.4969 58.0354 54.9042 61.0068C55.2546 62.4884 55.019 63.6083 53.8832 65.255C52.7869 66.8178 50.6579 68.5228 48.802 69.3893L52.0428 68.8049C47.3607 68.2977 42.6785 67.7927 37.9955 67.2947C33.3126 66.7966 28.6315 66.2791 23.9506 65.7601L23.3351 65.7304C23.3212 65.7317 23.5156 65.6724 24.1432 65.9235C24.7419 66.1306 25.8756 67.0479 26.2833 68.1428C26.8697 69.7569 26.4575 70.3228 26.4919 70.3747C26.4714 70.4414 26.6099 70.1823 26.8638 69.8978ZM16.7823 61.6486L26.8638 69.8978L25.6742 71.0258L17.9719 60.5206L16.7823 61.6486Z" fill="#DE9766"/>
<path d="M62.1439 68.3431C64.8816 71.7134 67.6194 75.0836 70.3571 78.4539C72.2077 76.451 74.0899 74.4886 76.0059 72.5617C82.8779 65.6562 90.161 59.2118 97.8258 53.2938C107.557 45.9043 117.83 37.7707 127.61 32.3246C127.563 32.3495 127.418 32.4215 127.138 32.4741C126.928 32.5237 126.271 32.5634 125.69 32.3491C125.079 32.1394 124.634 31.7637 124.386 31.4671C124.123 31.143 124.096 31.0364 124.049 30.9476C123.987 30.7998 124.038 30.9386 124.057 31.1485C124.083 31.3863 124.094 31.6125 124.098 31.9433C124.109 33.1647 123.932 34.8045 123.714 36.2717C123.252 39.3659 122.558 42.5502 121.796 45.7245C120.252 52.1043 118.409 58.458 116.462 64.7766C112.538 77.4424 108.151 90.0085 103.488 102.455C102.553 104.941 101.566 107.537 100.606 110C104.717 111.399 108.828 112.797 112.939 114.196C113.694 111.618 114.481 108.917 115.221 106.333C118.928 93.4002 122.51 80.4651 125.821 67.3996C127.463 60.8754 129.045 54.3281 130.398 47.6179C131.064 44.266 131.682 40.9046 132.097 37.3611C132.286 35.6529 132.467 33.7594 132.397 31.7145C132.32 30.6176 132.357 29.6237 131.648 27.7797C131.335 27.0265 130.436 25.3205 128.406 24.6125C126.201 23.9502 125.016 24.557 124.038 24.9799V24.9799C112.319 31.9013 103.176 39.6223 93.1229 47.2002C85.4081 53.1569 77.4306 58.7668 69.1493 64.0202C66.8392 65.4859 64.5073 66.9231 62.1439 68.3431Z" fill="#DE9766"/>
<path d="M92.3264 65.4342C93.0763 69.711 93.8262 73.9879 94.5762 78.2647C97.1678 77.4166 99.7675 76.6192 102.379 75.8693C111.744 73.1845 121.244 71.1026 130.82 69.6663C142.918 67.9512 155.851 65.8496 167.046 65.8559C166.992 65.8546 166.831 65.847 166.561 65.7566C166.353 65.6977 165.759 65.4121 165.357 64.9423C164.926 64.4618 164.72 63.9167 164.647 63.5368C164.576 63.1258 164.603 63.0192 164.606 62.919C164.624 62.76 164.601 62.906 164.515 63.0985C164.422 63.3188 164.321 63.5216 164.164 63.8125C163.578 64.8845 162.626 66.2309 161.72 67.4059C159.81 69.8837 157.653 72.3266 155.442 74.7281C150.987 79.5484 146.283 84.2006 141.505 88.7708C131.91 97.9227 121.959 106.762 111.825 115.362C109.798 117.077 107.672 118.864 105.634 120.548C108.543 123.772 111.452 126.995 114.362 130.218C116.277 128.335 118.279 126.359 120.185 124.463C129.72 114.972 139.148 105.419 148.402 95.6196C153.014 90.721 157.584 85.7729 162.033 80.5709C164.248 77.9679 166.424 75.3328 168.512 72.4399C169.509 71.0402 170.59 69.4746 171.524 67.654C171.991 66.6587 172.507 65.8084 172.785 63.8526C172.88 63.0427 172.925 61.1146 171.496 59.5075C169.893 57.8553 168.562 57.8081 167.502 57.7013V57.7013C153.896 58.0396 142.151 60.331 129.68 62.0539C120.041 63.4996 110.341 64.5144 100.55 65.0699C97.8187 65.2251 95.0821 65.3448 92.3264 65.4342Z" fill="#DE9766"/>
</svg>
