<svg width="300" height="300" viewBox="0 0 300 300" fill="none" xmlns="http://www.w3.org/2000/svg">
<path d="M223.181 146.911C214.819 130.994 121.012 103.862 89.016 135.696C50.1117 174.404 73.7451 211.665 152.281 212.388C230.817 213.112 231.544 162.828 223.181 146.911Z" fill="#DE9766"/>
<path d="M257.641 114.866C254.469 104.567 218.887 87.011 206.751 107.61C191.994 132.656 200.958 156.766 230.748 157.234C260.537 157.702 260.813 125.165 257.641 114.866Z" fill="#DE9766"/>
<path d="M201.457 68.4492C204.709 69.3461 221.166 85.6017 227.354 100.4L201.457 120.916V68.4492Z" fill="#DE9766"/>
<path d="M269.731 76.1846C266.48 77.0814 239.596 88.9648 233.408 103.763L259.305 124.279L269.731 76.1846Z" fill="#DE9766"/>
<path d="M61.2108 242.667C61.2108 233.519 72.5409 197.598 78.206 180.781C87.4117 180.781 106.673 181.588 110.072 184.817C114.321 188.853 61.2108 254.103 61.2108 242.667Z" fill="#DE9766"/>
<path d="M105.771 251.327C111.19 243.957 123.341 208.305 128.74 191.401C121.323 185.947 105.327 175.188 100.676 175.775C94.862 176.51 98.9966 260.54 105.771 251.327Z" fill="#DE9766"/>
<path d="M211.549 251.656C206.129 244.286 193.978 208.634 188.58 191.73C195.997 186.277 211.993 175.517 216.644 176.104C222.458 176.839 218.323 260.869 211.549 251.656Z" fill="#DE9766"/>
<path d="M178.248 251.656C183.667 244.286 195.818 208.634 201.216 191.73C193.8 186.277 177.804 175.517 173.153 176.104C167.339 176.839 171.473 260.869 178.248 251.656Z" fill="#DE9766"/>
<path d="M60.3015 43.9803C76.7813 56.0879 54.584 119.989 93.2611 133.779V148.913C82.2746 143.868 57.0055 126.043 43.8216 95.1014C27.3418 56.4243 43.8216 31.8727 60.3015 43.9803Z" fill="#DE9766"/>
</svg>
