<svg width="320" height="323" viewBox="0 0 320 323" fill="none" xmlns="http://www.w3.org/2000/svg">
<path d="M117.205 252.109C117.013 254.69 116.822 257.271 116.631 259.852C131.601 261.425 146.573 262.973 161.548 264.499C199.259 268.339 236.982 272.028 274.716 275.566L283.136 268.309C289.035 205.385 294.512 142.43 299.568 79.4442L290.579 68.4844C262.205 64.8247 233.903 60.9158 205.288 57.7046C154.107 51.7326 102.198 49.9258 50.7525 51.1766L41.2704 58.9493C27.2951 121.836 27.8083 187.074 29.8968 250.084L37.0081 256.999C63.3974 255.77 90.0996 256.056 116.94 253.826C132.069 252.609 147.09 250.758 162.067 248.559C161.763 245.988 161.46 243.418 161.156 240.848C146.19 242.185 131.278 243.205 116.379 243.636C90.0449 244.475 63.5398 242.961 36.7026 243.085L43.8139 250C44.3798 186.446 45.7645 124.054 60.4835 63.0477L51.0014 70.8204C102 70.54 152.464 72.7678 202.949 78.6489C231.202 81.8184 259.534 85.5541 288.06 88.8837L279.07 77.9239C274.778 140.967 270.908 204.041 267.459 267.146L275.879 259.889C238.036 257.821 200.182 255.904 162.316 254.139C147.281 253.439 132.244 252.762 117.205 252.109Z" fill="#DE9766"/>
<path d="M76.2301 95.9621C73.8379 100.343 71.4458 104.724 69.0536 109.104C70.0883 109.772 71.1251 110.436 72.164 111.096C81.1028 116.775 90.1978 122.168 99.449 127.275L98.5089 112.302C97.8657 112.761 97.2235 113.223 96.5824 113.685C87.867 119.976 79.9358 127.354 72.7888 135.818C71.9722 136.785 71.1659 137.766 70.3698 138.761C71.8845 140.86 73.3992 142.959 74.9139 145.057C76.1095 144.615 77.2947 144.159 78.4698 143.688C88.7539 139.571 98.2536 134.366 106.969 128.075C107.61 127.613 108.25 127.148 108.889 126.683L107.949 111.709C98.6513 106.687 89.1973 101.952 79.5871 97.502C78.4702 96.9848 77.3512 96.4715 76.2301 95.9621Z" fill="#DE9766"/>
<path d="M128.818 112.24C128.71 117.231 128.602 122.221 128.493 127.211C130.334 127.341 132.237 127.477 134.104 127.615C151.464 128.913 168.907 130.323 186.367 131.488C202.894 132.604 219.52 132.529 236.275 131.275C238.166 131.13 240.136 130.978 242.001 130.802C242.232 128.224 242.463 125.646 242.693 123.069C240.879 122.564 238.955 122.07 237.107 121.604C220.733 117.511 204.206 114.905 187.558 113.781C169.967 112.608 152.332 111.938 134.574 112.134C132.662 112.157 130.711 112.191 128.818 112.24Z" fill="#DE9766"/>
<path d="M86.6406 153.834C86.5514 158.824 86.4622 163.815 86.3731 168.805C88.7901 168.938 91.2886 169.079 93.7392 169.222C116.518 170.563 139.363 172.055 162.221 173.311C183.858 174.514 205.574 174.537 227.396 173.39C229.858 173.258 232.425 173.118 234.852 172.955C235.043 170.374 235.233 167.793 235.423 165.212C233.037 164.694 230.509 164.187 228.083 163.708C206.574 159.503 184.939 156.8 163.203 155.591C140.237 154.33 117.233 153.582 94.1261 153.738C91.6391 153.757 89.1005 153.787 86.6406 153.834Z" fill="#DE9766"/>
<path d="M86.9323 200.057C86.9774 205.048 87.0226 210.04 87.0677 215.031C88.8913 215.104 90.7774 215.182 92.6282 215.264C109.834 216.033 127.13 216.924 144.435 217.573C160.816 218.201 177.262 217.638 193.804 215.898C195.671 215.698 197.616 215.489 199.456 215.259C199.614 212.676 199.771 210.092 199.929 207.509C198.119 207.057 196.202 206.62 194.361 206.207C178.045 202.592 161.616 200.471 145.11 199.839C127.669 199.186 110.198 199.04 92.6267 199.775C90.7352 199.856 88.8041 199.95 86.9323 200.057Z" fill="#DE9766"/>
<path d="M203 189H221M239 189H221M221 189V227.5M207.5 227.5H236.5" stroke="#DE9766" stroke-width="12.7273" stroke-linejoin="bevel"/>
</svg>
