<svg width="305" height="305" viewBox="0 0 305 305" fill="none" xmlns="http://www.w3.org/2000/svg">
<path d="M93.0168 240.513C95.3577 240.319 97.6987 240.125 100.04 239.931C100.725 236.709 103.347 230.163 105.696 225.319V225.319C109.669 216.351 115.248 209.31 118.597 197.661V197.661C118.712 197.06 118.798 196.456 118.862 195.89C119.588 182.906 117.276 172.243 115.906 160.831V160.831C114.045 147.877 110.997 135.467 108.666 123.277V123.277C106.657 112.077 104.883 101.391 107.12 91.2562V91.2562C107.286 90.3174 107.462 89.4429 107.62 88.9137C107.693 88.6584 107.774 88.4897 107.737 88.5993C107.68 88.6896 107.567 89.2085 106.507 90.0635V90.0635C105.981 90.4948 104.652 91.176 103.147 91.1209C101.646 91.0709 100.782 90.5365 100.387 90.2814C99.9987 90.0147 99.9168 89.9013 99.899 89.8967C99.8867 89.8912 99.9491 89.9758 100.034 90.112C100.389 90.6689 100.945 91.805 101.418 92.9514C102.395 95.3039 103.293 98.0012 104.134 100.717C105.819 106.192 107.315 111.86 108.776 117.575V117.575C110.193 123.134 110.647 128.725 111.727 135.941C111.822 136.465 111.919 137 112.081 137.698C112.175 138.075 112.244 138.424 112.521 139.21C112.59 139.399 112.691 139.669 112.859 140.025C113.069 140.426 113.205 140.865 114.109 141.959C114.375 142.266 114.708 142.609 115.158 142.973C115.658 143.379 116.489 143.93 117.525 144.289C118.535 144.67 120.191 144.881 121.538 144.616C122.877 144.374 123.851 143.88 124.605 143.377C125.893 142.489 126.414 141.706 126.697 141.328C126.856 141.103 126.982 140.902 127.089 140.719C127.192 140.542 127.254 140.426 127.321 140.296C127.8 139.322 127.859 139.004 127.973 138.668C128.073 138.342 128.13 138.122 128.181 137.92C128.282 137.517 128.348 137.213 128.409 136.923C128.529 136.358 128.622 135.873 128.714 135.399V135.399C131.031 123.126 134.018 111.299 137.735 99.4269V99.4269C141.567 87.3963 146.428 75.1389 151.136 62.7925L151.136 62.7925C151.997 60.5381 152.874 58.3006 153.764 56.2332C154.209 55.1992 154.66 54.2092 155.067 53.426C155.266 53.0431 155.456 52.718 155.544 52.5923C155.587 52.5295 155.598 52.5255 155.556 52.5836C155.521 52.6349 155.401 52.7658 155.418 52.7511V52.7511C154.186 53.8359 152.704 54.9411 149.378 54.388C147.343 53.8998 146.587 53.116 146.142 52.7364C145.71 52.3203 145.576 52.106 145.456 51.9274L145.456 51.9274C144.862 50.9427 144.776 50.4258 144.708 50.1845C144.651 49.9315 144.657 49.9014 144.656 49.9496C144.66 50.06 144.655 50.4771 144.614 50.9612C144.535 51.9331 144.346 53.2102 144.114 54.4999C143.644 57.1048 143.006 59.9161 142.34 62.734C140.994 68.3988 139.512 74.197 138.103 80.0556V80.0556C135.187 91.6362 135.061 104.046 134.942 114.363V114.363C134.9 115.93 134.82 117.477 134.702 119.057C134.644 119.853 134.576 120.643 134.502 121.527C134.465 121.976 134.426 122.428 134.39 123.024C134.373 123.325 134.355 123.648 134.349 124.117C134.368 124.638 134.27 125.034 134.589 126.776V126.776C134.739 127.455 134.967 128.352 135.649 129.558C136.167 130.691 138.685 133.5 141.736 134.067C144.423 134.696 146.73 133.929 147.666 133.502C148.499 133.132 149.052 132.763 149.481 132.449C150.833 131.395 150.976 131.054 151.25 130.759C151.715 130.176 151.83 129.969 151.972 129.755C152.222 129.359 152.338 129.145 152.447 128.949C152.654 128.569 152.788 128.298 152.912 128.046C153.158 127.544 153.349 127.126 153.537 126.71C153.91 125.883 154.241 125.112 154.561 124.353C155.204 122.83 155.805 121.349 156.402 119.857C160.362 109.918 164.158 100.034 168.078 90.3429V90.3429C171.413 82.1814 174.64 73.8402 177.981 66.212C179.254 63.3474 180.559 60.655 181.854 58.6884V58.6884C182.975 56.857 184 55.9811 183.267 56.5668V56.5668C182.142 57.2732 180.538 57.735 179.285 57.7604C178.015 57.8025 177.142 57.5697 176.597 57.3963C175.529 57.0227 175.404 56.8333 175.622 56.9905V56.9905C174.744 56.4429 174.209 55.765 174.008 55.4497C173.796 55.117 173.807 55.0654 173.844 55.1746C173.937 55.4059 174.139 56.1804 174.279 57.0551L174.279 57.0551C175.038 60.9586 173.49 67.1724 171.586 74.1064V74.1064C169.613 81.1869 166.908 89.1159 164.591 96.901V96.901C162.731 103.074 160.883 109.231 159.023 115.367C158.098 118.416 157.158 121.5 156.216 124.516C155.743 126.03 155.275 127.509 154.792 128.976C154.557 129.689 154.315 130.411 154.086 131.057C153.974 131.375 153.857 131.693 153.772 131.911C153.726 132.032 153.69 132.118 153.685 132.131C153.685 132.134 153.692 132.117 153.738 132.026C153.779 131.951 153.859 131.761 154.19 131.261V131.261C154.257 131.162 154.343 131.035 154.5 130.829C154.669 130.617 154.86 130.347 155.426 129.795C155.572 129.655 155.747 129.495 155.978 129.305C155.993 129.294 156.008 129.282 156.022 129.27C156.021 129.27 156.137 129.178 156.202 129.128C156.354 129.012 156.527 128.886 156.734 128.75C157.149 128.479 157.688 128.155 158.522 127.832C159.945 127.186 164.034 126.541 167.3 129.005C170.421 131.429 170.759 133.94 170.989 135.08C171.165 136.328 171.086 136.947 171.047 137.426C171.037 137.528 171.015 137.699 171.015 137.698C171.012 137.717 171.009 137.736 171.007 137.754C171.002 137.791 170.997 137.827 170.991 137.861C170.981 137.93 170.97 137.993 170.96 138.053C170.876 138.523 170.807 138.769 170.753 138.964C170.648 139.331 170.579 139.505 170.567 139.541C170.543 139.606 170.525 139.652 170.512 139.687C170.457 139.824 170.469 139.789 170.474 139.777C170.491 139.737 170.545 139.615 170.591 139.514C170.7 139.274 170.824 139.012 170.954 138.743C171.216 138.199 171.509 137.613 171.798 137.042C172.387 135.881 172.996 134.72 173.625 133.545C174.885 131.193 176.188 128.856 177.528 126.516C180.206 121.843 183.013 117.198 185.901 112.603V112.603C192.785 101.769 201.14 91.159 209.467 80.342C210.628 78.829 211.785 77.3296 212.911 75.9149C213.474 75.2094 214.04 74.5129 214.519 73.9565C214.75 73.6868 214.984 73.4355 215.016 73.4007C215.014 73.3933 214.995 73.4366 214.597 73.7266C214.379 73.8763 214.062 74.1059 213.377 74.4142C212.734 74.7198 211.449 75.0664 210.432 75.0678C208.766 75.1441 206.865 74.4496 205.838 73.6859C204.767 72.9225 204.292 72.2528 203.978 71.7925C203.394 70.8628 203.356 70.521 203.271 70.2386V70.2386C203.434 70.4862 203.478 73.0813 203.142 75.3288C202.833 77.6822 202.312 80.2212 201.697 82.776V82.776C199.422 92.3387 192.61 102.681 187.382 114.351V114.351C181.872 126.439 181.05 139.655 181.084 150.992V150.992C181.153 154.417 180.186 158.017 180.658 163.91V163.91C181.514 169.411 183.085 171.955 184.924 175.337V175.337C185.669 176.841 188.044 179.048 190.501 179.486C192.877 179.968 194.312 179.519 195.303 179.244C197.247 178.6 198.105 177.987 198.982 177.457C200.632 176.393 201.777 175.495 202.835 174.761V174.761C212.948 167.719 225.612 158.446 232.572 153.304V153.304C231.36 153.668 230.545 153.535 230.112 153.455C229.667 153.36 229.497 153.271 229.41 153.23C229.252 153.144 229.411 153.207 229.596 153.334C229.993 153.596 230.585 154.089 231.164 154.636C232.342 155.749 233.562 157.113 234.735 158.538V158.538C234.941 158.759 234.996 158.952 234.821 158.49C234.742 158.264 234.624 157.78 234.642 157.241C234.65 156.707 234.805 156.279 234.763 156.434V156.434C233.565 160.215 224.176 166.865 217.055 171.638V171.638C207.745 177.952 199.233 185.133 192.063 194.391V194.391C187.393 200.856 183.79 207.247 180.03 213.717C177.729 217.723 175.476 221.731 173.234 225.751L173.335 225.587C169.059 232.562 164.742 239.297 160.523 246.599L160.583 246.5C158.952 249.221 157.029 251.998 155.128 254.767C157.029 256.147 158.931 257.526 160.832 258.906C162.892 256.191 164.96 253.504 166.953 250.516L167.014 250.417C171.262 243.803 176.038 237.031 180.595 230.298L180.696 230.134C183.106 226.236 185.518 222.356 187.96 218.503C191.897 212.341 195.902 205.991 200.137 200.633V200.633C206.377 193.201 214.664 186.619 223.273 181.293V181.293C231.119 175.642 239.824 173.519 246.688 160.22V160.22C247.173 159.266 247.414 155.792 246.651 154.201C246.007 152.466 245.292 151.534 244.663 150.691V150.691C243.314 148.933 241.902 147.209 240.193 145.468C239.327 144.596 238.414 143.725 237.164 142.797C236.521 142.332 235.827 141.851 234.74 141.345C233.65 140.956 232.132 139.937 228.635 140.833V140.833C213.892 149.336 206.121 155.74 194.825 162.892V162.892C193.435 163.805 192.215 164.676 191.36 165.179C191.155 165.3 190.981 165.392 190.893 165.431C190.811 165.47 190.792 165.451 191.084 165.352C191.374 165.288 192.053 164.97 193.706 165.292C195.432 165.578 197.208 167.262 197.594 168.116V168.116C197.021 167.065 196.51 165.961 196.108 164.892C195.908 164.361 195.736 163.836 195.613 163.376C195.49 162.939 195.418 162.462 195.445 162.543V162.543C195.22 160.396 196.105 156.046 196.265 151.434V151.434C196.529 140.044 197.72 129.881 201.954 121.135V121.135C206.732 110.792 214.142 100.923 218.073 86.912V86.912C219.383 80.7748 221.609 75.8869 219.96 65.9662V65.9662C219.681 64.9318 219.371 63.8486 218.359 62.2666C217.831 61.4828 217.098 60.5123 215.707 59.5255C214.363 58.5375 212.075 57.7125 210.018 57.801V57.801C208.761 57.8066 207.238 58.2137 206.376 58.6176C205.471 59.024 204.952 59.3801 204.534 59.6723C203.749 60.2407 203.371 60.6089 203.022 60.9345C202.352 61.5785 201.951 62.0256 201.539 62.4806C200.745 63.3675 200.086 64.1561 199.428 64.9493C198.133 66.5163 196.913 68.0415 195.688 69.5801V69.5801C187.252 80.1643 178.513 90.8226 170.622 102.846V102.846C167.549 107.589 164.555 112.399 161.668 117.296C160.222 119.75 158.81 122.212 157.417 124.742C156.721 126.008 156.042 127.268 155.356 128.582C155.019 129.23 154.673 129.905 154.33 130.596C154.158 130.943 153.99 131.285 153.795 131.699C153.71 131.881 153.603 132.111 153.486 132.378C153.412 132.547 153.378 132.618 153.246 132.952C153.216 133.028 153.184 133.111 153.148 133.21C153.129 133.266 153.033 133.517 152.918 133.92C152.859 134.135 152.785 134.398 152.699 134.882C152.688 134.943 152.677 135.008 152.667 135.078C152.661 135.113 152.656 135.15 152.651 135.187C152.648 135.206 152.646 135.225 152.643 135.245C152.643 135.244 152.62 135.418 152.61 135.522C152.571 136.008 152.491 136.632 152.668 137.885C152.899 139.03 153.238 141.544 156.361 143.968C159.63 146.434 163.721 145.789 165.148 145.142C165.984 144.818 166.524 144.493 166.941 144.221C167.149 144.084 167.324 143.957 167.476 143.84C167.542 143.79 167.658 143.697 167.657 143.698C167.672 143.686 167.687 143.674 167.702 143.662C167.935 143.471 168.113 143.308 168.261 143.166C169.325 142.09 169.365 141.873 169.58 141.591V141.591C176.575 124.681 178.388 115.411 182.645 102.408V102.408C184.97 94.7747 187.541 87.4921 189.939 79.0835V79.0835C191.648 72.2874 194.633 64.3661 193.12 53.9609V53.9609C192.852 52.3789 192.537 50.7129 191.78 48.603C190.996 46.6136 189.761 43.4068 185.778 40.8031V40.8031C185.27 40.506 184.404 39.8682 182.519 39.2251C180.842 38.5556 176.526 38.1576 173.365 40.2177V40.2177C168.732 43.1977 167.247 46.2832 165.875 48.1836L165.875 48.1836C163.506 51.8195 161.96 55.1987 160.501 58.4468C156.784 66.9474 153.695 75.0173 150.381 83.1897V83.1897C146.382 93.1633 142.62 103.099 138.796 112.88V112.88C138.237 114.302 137.678 115.705 137.119 117.058C136.842 117.726 136.56 118.395 136.294 118.996C136.163 119.293 136.033 119.578 135.937 119.779C135.893 119.872 135.848 119.959 135.87 119.918C135.887 119.89 135.904 119.85 136.051 119.617C136.141 119.484 136.203 119.358 136.606 118.852C136.851 118.592 136.959 118.291 138.273 117.265C138.691 116.959 139.234 116.597 140.058 116.23C140.983 115.808 143.275 115.044 145.953 115.671C148.992 116.235 151.5 119.034 152.013 120.157C152.689 121.354 152.913 122.239 153.06 122.904V122.904C153.201 123.616 153.197 123.858 153.211 124.037C153.218 124.2 153.216 124.259 153.216 124.282C153.214 124.321 153.216 124.22 153.222 124.093C153.236 123.824 153.264 123.434 153.295 123.024C153.358 122.195 153.429 121.282 153.489 120.364C153.611 118.522 153.693 116.647 153.726 114.778V114.778C153.76 103.406 153.805 93.8786 156.061 84.2692V84.2692C157.37 78.5111 158.762 72.7531 160.088 66.7983C160.745 63.8166 161.393 60.7979 161.932 57.5368C162.196 55.8964 162.444 54.1889 162.575 52.2137C162.637 51.1957 162.678 50.1282 162.586 48.7535C162.402 47.3469 162.54 45.7272 160.705 42.4896V42.4896C159.45 40.8875 158.735 38.5619 153.193 36.9064V36.9064C148.35 36.034 145.292 37.8093 142.973 39.9475V39.9475C138.805 44.5503 138.679 46.7834 137.417 49.3757C136.396 51.875 135.508 54.2762 134.64 56.6813L134.64 56.6813C130.188 69.0579 125.543 81.4327 121.666 94.6264V94.6264C118.081 107.044 115.181 119.903 113.145 132.604V132.604C113.072 133.046 112.999 133.48 112.938 133.82C112.907 133.988 112.877 134.138 112.869 134.187C112.866 134.207 112.865 134.208 112.895 134.111C112.943 133.993 112.928 133.9 113.303 133.134C113.356 133.03 113.407 132.935 113.494 132.785C113.585 132.63 113.696 132.453 113.838 132.251C114.093 131.914 114.569 131.185 115.812 130.326C116.54 129.84 117.489 129.358 118.799 129.121C120.118 128.861 121.743 129.068 122.728 129.44C123.738 129.791 124.541 130.325 125.019 130.712C125.449 131.06 125.762 131.383 126.007 131.666C126.837 132.674 126.918 133.011 127.077 133.303C127.197 133.559 127.251 133.709 127.283 133.798C127.402 134.15 127.354 134.049 127.336 133.972C127.281 133.776 127.193 133.386 127.113 133.001C126.136 127.615 125.317 120.416 123.36 113.621V113.621C121.691 107.823 119.982 102.059 117.969 96.1859C116.95 93.249 115.886 90.312 114.48 87.2087C113.755 85.6501 113.001 84.0589 111.706 82.1675C110.99 81.1986 110.303 80.1128 108.36 78.7191C107.336 78.0325 105.789 77.1917 103.531 77.1191C101.274 77.04 99.2357 78.0139 98.1032 78.905V78.905C94.546 82.0487 94.7408 83.9744 94.2059 85.4086C93.8509 86.8617 93.6909 88.0104 93.5324 89.0921L93.5324 89.0921C91.2797 101.849 93.9465 114.444 96.4395 125.83L96.4395 125.83C99.3591 138.401 102.844 150.516 105.096 162.559V162.559C106.967 173.541 109.621 185.287 109.476 195.01C109.452 195.382 109.416 195.75 109.371 196.076V196.076C107.749 203.467 102.056 212.993 98.4432 222.091V222.091C96.2269 227.944 93.8401 232.157 93.0168 240.513Z" fill="#DE9766"/>
</svg>
