<svg width="300" height="301" viewBox="0 0 300 301" fill="none" xmlns="http://www.w3.org/2000/svg">
<path d="M37.2633 159.567C40.085 159.05 42.9067 158.532 45.7285 158.014C46.6059 144.631 45.871 131.543 43.5236 118.752C43.451 118.356 43.3783 117.96 43.3057 117.564C38.6552 92.2272 33.9796 66.8947 29.2833 41.566L21.0509 52.3317C76.8106 46.945 132.199 48.6969 188.573 51.7851L180.554 44.5105C186.042 79.4247 191.551 114.336 197.069 149.245L198.433 152.649C223.567 188.092 248.62 223.446 273.72 258.887L279.062 247.406C244.671 250.598 210.678 254.77 176.924 253.153C161.182 252.466 145.515 250.788 129.8 248.449L132.75 249.76C109.2 231.472 87.161 211.785 68.7725 188.495C60.4761 178.163 52.6902 167.377 45.0658 156.388C42.6858 157.99 40.3059 159.592 37.926 161.194C45.3029 172.476 52.8431 183.656 61.0011 194.528C79.0683 219.057 101.44 240.521 124.832 259.625L127.782 260.936C143.782 263.729 159.93 265.786 176.261 266.661C211.41 268.681 246.168 264.753 280.364 261.978L285.706 250.498C261.006 214.781 236.355 179.131 211.607 143.416L212.972 146.82C207.835 111.852 202.687 76.8864 197.52 41.9234L189.501 34.6488C133.436 31.046 76.077 28.824 19.5228 34.1023L11.2905 44.8679C15.8934 70.2137 20.5171 95.5558 25.166 120.893C25.2386 121.289 25.3113 121.685 25.3839 122.081C27.7313 134.872 31.6911 147.368 37.2633 159.567ZM45.7285 158.014L37.2633 159.567L37.926 161.194L45.0658 156.388L45.7285 158.014Z" fill="#DE9766"/>
<path d="M45.1844 161.557L203.484 149.262" stroke="#DE9766" stroke-width="8.60656" stroke-linejoin="bevel"/>
<path d="M185.348 149.261L64.2418 157.253L43.6475 63.8105H172.746L185.348 149.261Z" stroke="#DE9766" stroke-width="8.60656" stroke-linejoin="bevel"/>
<path d="M55.9426 66.8848V94.8561L69.1598 66.8848L59.9385 125.901L82.9918 66.8848L69.1598 153.872L94.6721 66.8848L82.9918 153.872L109.426 66.8848L100.205 149.569L125.41 66.8848L115.574 149.569L137.705 66.8848L125.41 149.569L153.074 66.8848L137.705 149.569L166.291 66.8848L148.77 149.569L174.59 94.8561L161.373 149.569L179.508 118.217L174.59 149.569" stroke="#DE9766" stroke-width="8.60656" stroke-linejoin="bevel"/>
<path d="M96.5164 184.61L195.492 176.618" stroke="#DE9766" stroke-width="8.60656" stroke-linejoin="bevel"/>
<path d="M114.344 206.434L213.32 198.442" stroke="#DE9766" stroke-width="8.60656" stroke-linejoin="bevel"/>
<path d="M124.18 223.647L223.156 215.655" stroke="#DE9766" stroke-width="8.60656" stroke-linejoin="bevel"/>
</svg>
