<svg width="400" height="401" viewBox="0 0 400 401" fill="none" xmlns="http://www.w3.org/2000/svg">
<path d="M128.365 70.8871C131.866 71.6775 135.366 72.4678 138.866 73.2582C140.476 68.0361 145.051 64.5223 151.011 60.5733C152.453 59.6163 153.939 58.6587 155.458 57.6695C163.785 53.4122 176.861 49.609 188.088 46.2497C199.489 43.0132 212.008 39.4759 222.107 38.8065V38.8065C230.188 38.639 238.763 40.828 246.333 44.5832V44.5832C251.512 47.1228 255.97 51.2637 260.869 56.2378V56.2378C264.345 59.6843 267.182 65.8827 269.157 71.8433V71.8433C271.306 78.5253 273.812 84.6188 275.392 90.8409V90.8409C276.979 97.1203 277.814 104.382 277.377 110.651V110.651C277.523 111.257 276.169 113.234 274.352 115.152C272.563 117.095 270.578 119.129 268.668 121.216V121.216C263.196 127.098 257.785 133.588 252.193 137.867V137.867C248.847 140.215 244.844 142.1 240.756 143.8C236.657 145.494 232.409 147.018 228.13 148.475V148.475C220.108 151.154 211.876 154.18 204.19 156.036V156.036C198.761 157.075 192.105 156.49 185.909 155.641V155.641C179.298 154.519 172.08 150.022 164.524 146.583V146.583C161.154 145.052 158.827 142.864 156.183 139.576V139.576C152.434 134.947 148.968 129.365 144.673 124.11V124.11C141.53 120.132 138.621 115.043 135.9 110.134V110.134C134.213 107.165 134.549 101.23 133.989 95.1506L133.959 94.9215C133.933 94.7004 133.918 94.2346 133.943 93.7331C134.394 87.7613 136.654 80.3873 138.775 73.6075C135.335 72.5843 131.896 71.561 128.457 70.5378C126.536 77.888 124.413 84.7467 123.988 93.5214C123.985 94.399 124.007 95.3211 124.192 96.4558L124.161 96.2267C125.039 101.373 123.977 107.456 127.778 114.755V114.755C130.822 119.839 133.747 124.806 137.887 129.808V129.808C141.863 134.399 145.316 139.712 149.756 144.991V144.991C152.487 148.336 156.621 152.144 161.176 154.007V154.007C168.482 157.062 175.289 161.666 184.854 163.325V163.325C191.628 164.108 198.284 164.839 205.794 163.402V163.402C214.639 161.171 222.396 158.192 230.518 155.465V155.465C234.88 153.964 239.242 152.395 243.574 150.605C247.902 148.795 252.263 146.835 256.446 144.006V144.006C263.755 138.526 268.782 132.488 274.53 126.792V126.792C276.435 124.852 278.388 123.004 280.432 120.962C282.305 118.883 285.249 116.694 286.09 111.657V111.657C286.979 103.607 286.46 96.3593 285.003 88.6067V88.6067C283.62 81.6183 281.347 75.038 279.731 68.7324V68.7324C277.716 61.6597 275.533 54.6303 269.747 47.8423V47.8423C265.228 42.717 259.793 36.8067 252.657 32.8218V32.8218C243.423 27.6607 233.12 24.4114 222.107 24.2013V24.2013C207.52 24.7376 196.119 28.182 183.807 31.5635C171.52 35.427 160.489 38.3242 147.467 46.4105C146.033 47.5181 144.585 48.6392 143.109 49.8271C137.362 54.4125 129.791 61.2863 128.365 70.8871ZM138.866 73.2582L128.365 70.8871L128.457 70.5378L138.775 73.6075L138.866 73.2582Z" fill="#DE9766"/>
<path d="M228.294 69.6734C230.046 66.5421 231.798 63.4108 233.551 60.2796C229.108 58.0517 224.517 56.0311 219.76 54.3772C199.681 45.4807 171.284 52.4152 160.859 72.4278C157.604 78.8878 158.739 83.5478 158.355 88.6473C158.25 91.6293 158.763 94.8834 159.086 97.3402C159.403 100.268 159.977 102.944 160.513 105.638C161.06 108.319 161.626 110.993 162.191 113.66C162.767 116.503 163.656 119.227 164.291 121.788C166.009 127.864 166.768 133.015 170.405 140.026C177.661 148.483 187.422 147.869 195.528 148.393L196.086 148.351C199.741 147.867 203.357 147.336 207.002 146.724C210.748 146.029 213.958 145.693 218.494 144.141C222.914 142.311 226.83 140.926 231.868 138.369L232.09 138.226C234.514 136.571 237.24 135.127 240.168 132.351C244.372 128.257 248.038 123.131 250.573 118.002C252.06 115.038 252.547 112.453 253.096 110.024C254.275 103.566 254.189 98.0882 254.078 92.2222C253.949 85.32 250.28 79.8683 247.789 75.4843C246.978 74.1228 246.144 72.9109 245.283 71.7288C243.965 69.9318 242.598 68.2332 241.078 66.5494C239.096 64.3357 236.544 61.9738 233.551 60.2796C231.798 63.4108 230.046 66.5421 228.294 69.6734C230.076 70.6261 231.644 71.9359 233.341 73.7256C234.593 75.0387 235.83 76.4929 236.964 77.9606C237.705 78.9216 238.414 79.9078 238.996 80.8302C241.748 85.2826 244.112 88.9673 244.195 92.6598C244.462 97.8962 244.547 103.644 243.813 108.163C243.399 110.381 242.925 112.513 242.284 113.823C240.082 118.535 237.383 122.473 233.87 126.122C232.414 127.637 229.799 129.305 227.206 131.129L227.428 130.986C224.216 132.716 219.437 134.728 215.307 136.546C213.001 137.432 208.963 138.237 205.575 138.921C202.063 139.614 198.489 140.266 194.969 140.872L195.528 140.83C187.989 140.939 179.244 140.497 175.624 136.088C173.603 132.464 171.569 125.733 169.989 120.256C169.218 117.486 168.339 114.99 167.786 112.431C167.185 109.79 166.602 107.139 166.065 104.508C165.538 101.874 164.995 99.2265 164.751 96.7551C164.371 93.6874 164.024 91.4051 164.138 88.7986C164.355 84.0878 164.366 78.2106 165.94 75.7965C176.562 58.0379 198.599 54.2152 216.296 63.2291C220.412 65.0503 224.416 67.2467 228.294 69.6734ZM233.551 60.2796L228.294 69.6734L233.551 60.2796V60.2796Z" fill="#DE9766"/>
<path d="M210.695 87.0589C212.458 83.9337 214.221 80.8085 215.984 77.6833C213.81 77.4296 211.705 77.1588 209.645 76.9166C206.193 76.5198 202.846 76.1539 199.406 76.3487C193.767 76.5289 188.756 80.374 185.97 84.7349C184.426 87.7787 184.96 89.4014 184.737 91.4079C184.667 92.6126 184.864 94.0456 184.95 94.8744C185.201 97.2526 185.643 99.1849 186.031 101.27C186.246 102.421 186.585 103.513 186.8 104.447C187.078 105.598 187.372 106.744 187.706 107.902C187.874 108.483 188.049 109.062 188.253 109.663C188.356 109.965 188.464 110.269 188.595 110.598C188.661 110.762 188.734 110.935 188.825 111.128C188.925 111.33 189.001 111.517 189.275 111.903C192.788 115.935 196.705 115.44 199.897 115.762L200.328 115.729C203.268 115.322 205.476 115.297 209.274 114.208C211.026 113.527 212.338 113.16 214.658 112.033L214.838 111.916C215.735 111.337 216.806 110.855 218.26 109.531C220.043 107.896 221.697 105.69 222.788 103.654C223.572 102.138 223.785 101.045 224.052 100.069C224.667 97.1352 224.701 95.0987 224.767 92.6889C224.797 91.1534 224.322 89.2713 223.786 88.0371C223.255 86.763 222.746 85.8151 222.27 84.8884C221.913 84.2339 221.576 83.6948 221.229 83.1674C220.698 82.3674 220.163 81.6272 219.526 80.852C218.718 79.8541 217.481 78.6005 215.984 77.6833C214.221 80.8085 212.458 83.9337 210.695 87.0589C211.014 87.1567 211.34 87.3092 211.929 87.8424C212.346 88.2156 212.8 88.6831 213.2 89.1331C213.461 89.4261 213.709 89.7282 213.881 89.9474C214.427 90.7244 214.945 91.4817 215.259 92.0062C215.575 92.5628 215.652 92.6307 215.747 93.0851C215.957 94.9263 216.056 97.1874 215.945 98.4568C215.845 99.2604 215.693 99.972 215.67 100.094C214.963 101.822 214.201 103.087 213.05 104.42C212.84 104.738 211.881 105.449 210.873 106.202L211.053 106.085C211.127 106.056 210.917 106.181 210.771 106.261C210.61 106.35 210.431 106.445 210.249 106.539C209.882 106.729 209.5 106.92 209.113 107.111C208.34 107.492 207.551 107.87 206.754 108.249C205.29 108.834 201.959 109.505 199.465 109.996L199.897 109.964C197.142 110.129 194.015 109.686 193.417 108.803C193.523 108.961 193.462 108.889 193.434 108.835C193.397 108.771 193.35 108.677 193.303 108.579C193.208 108.378 193.108 108.146 193.011 107.907C192.816 107.426 192.628 106.915 192.446 106.397C192.084 105.359 191.747 104.291 191.43 103.213C191.111 102.107 190.778 101.2 190.565 100.282C190.096 98.2996 189.556 96.1763 189.314 94.4273C189.133 93.1407 189.003 92.4538 189.016 91.5189C189.026 90.5802 189.042 89.6511 189.1 88.7856C189.144 87.9392 189.322 87.1024 189.419 87.0032C191.788 83.2064 195.384 80.4803 199.639 80.3078C202.294 80.1483 205.018 81.2631 207.213 83.0878C208.533 84.1786 209.701 85.5264 210.695 87.0589ZM215.984 77.6833L210.695 87.0589L215.984 77.6833V77.6833Z" fill="#DE9766"/>
<circle cx="201.887" cy="95.5846" r="5.38244" fill="#DE9766"/>
<circle cx="207.836" cy="67.5394" r="4.53258" fill="#DE9766"/>
<circle cx="181.49" cy="71.7887" r="5.38244" fill="#DE9766"/>
<ellipse cx="174.125" cy="97.5674" rx="4.81586" ry="3.39943" transform="rotate(-60.6367 174.125 97.5674)" fill="#DE9766"/>
<ellipse cx="180.357" cy="117.68" rx="4.24929" ry="4.81586" fill="#DE9766"/>
<circle cx="195.653" cy="129.011" r="4.81586" fill="#DE9766"/>
<circle cx="222.85" cy="122.212" r="4.81586" fill="#DE9766"/>
<circle cx="233.048" cy="104.081" r="4.81586" fill="#DE9766"/>
<ellipse cx="227.95" cy="78.0206" rx="4.81586" ry="3.68272" fill="#DE9766"/>
<circle cx="263.644" cy="23.6302" r="7.64873" fill="#DE9766"/>
<ellipse cx="284.607" cy="49.9748" rx="5.38244" ry="3.96601" fill="#DE9766"/>
<ellipse cx="226.249" cy="8.89859" rx="5.38244" ry="7.64873" transform="rotate(17.206 226.249 8.89859)" fill="#DE9766"/>
<ellipse cx="180.679" cy="15.2466" rx="5.38244" ry="7.64873" transform="rotate(68.4801 180.679 15.2466)" fill="#DE9766"/>
<ellipse cx="141.335" cy="25.6092" rx="3.90056" ry="5.5429" transform="rotate(68.4801 141.335 25.6092)" fill="#DE9766"/>
<ellipse cx="105.017" cy="80.2828" rx="6.0856" ry="6.95188" transform="rotate(68.4801 105.017 80.2828)" fill="#DE9766"/>
<ellipse cx="105.882" cy="120.225" rx="5.08262" ry="6.95188" transform="rotate(-16.5317 105.882 120.225)" fill="#DE9766"/>
<ellipse cx="123.673" cy="160.239" rx="6.47798" ry="6.95188" transform="rotate(-16.5317 123.673 160.239)" fill="#DE9766"/>
<ellipse cx="154.024" cy="180.7" rx="8.96647" ry="3.6824" transform="rotate(-16.5317 154.024 180.7)" fill="#DE9766"/>
<ellipse cx="254.08" cy="156.629" rx="4.00187" ry="3.6824" transform="rotate(-16.5317 254.08 156.629)" fill="#DE9766"/>
<ellipse cx="273.493" cy="147.845" rx="4.14717" ry="5.70774" transform="rotate(-16.5317 273.493 147.845)" fill="#DE9766"/>
<path d="M121.538 43.1776C117.585 44.7364 113.491 43.7449 112.394 40.963C111.297 38.1811 120.682 30.6293 119.451 35.3181C118.219 40.0069 125.613 32.5362 126.71 35.3181C127.807 38.1 125.491 41.6188 121.538 43.1776Z" fill="#DE9766"/>
<path d="M294.758 119.434C292.095 118.321 290.871 115.181 292.025 112.422C293.179 109.664 301.769 109.373 298.464 112.229C295.16 115.086 302.823 113.697 301.669 116.456C300.515 119.215 297.421 120.548 294.758 119.434Z" fill="#DE9766"/>
<path d="M292.338 86.6748C289.476 85.4777 288.658 80.9176 290.51 76.4895C292.362 72.0613 302.327 69.9955 297.975 74.9787C293.623 79.962 302.726 76.3961 300.874 80.8243C299.022 85.2524 295.2 87.8718 292.338 86.6748Z" fill="#DE9766"/>
<path d="M218.6 146.79C216.334 146.834 214.069 146.878 211.803 146.922C211.186 151.076 210.529 155.318 209.901 159.527C206.898 179.324 204.673 199.192 203.716 219.122C203.248 228.671 202.795 238.22 202.328 247.732L202.382 247.137C199.826 269.204 197.513 291.548 195 313.388C195.015 335.812 200.477 351.224 204.779 369.47L204.624 368.606C205.504 375.134 206.377 381.663 207.24 388.193C207.349 389.021 207.458 389.848 207.567 390.676C208.013 394.061 210.405 397.225 211.824 400.499C214.076 400.243 216.327 399.986 218.579 399.729C219.224 396.219 220.842 392.598 220.515 389.199C220.435 388.369 220.355 387.538 220.275 386.707C219.645 380.15 219.026 373.592 218.413 367.033L218.259 366.169C214.731 349.363 210.456 329.406 211.041 315.736C214.565 293.481 217.67 271.526 220.655 249.409L220.71 248.814C221.362 239.226 221.919 229.641 222.39 220.035C223.352 199.992 222.89 179.852 220.502 159.668C219.985 155.376 219.375 151.047 218.6 146.79Z" fill="#DE9766"/>
<path d="M215.518 241.914C213.607 243.133 211.697 244.353 209.787 245.572C210.869 247.857 211.958 250.138 213.054 252.414C218.862 264.47 224.874 276.396 231.089 288.192L229.887 285.058C232.05 311.577 235.163 337.938 239.225 364.142L239.821 366.38C241.151 370.077 242.5 373.767 243.869 377.45C244.364 378.782 245.218 379.98 246.43 381.045C248.571 382.925 251.831 384.389 256.208 385.438C258.332 384.648 260.457 383.858 262.581 383.068C265.21 379.415 266.721 376.177 267.114 373.355C267.336 371.756 267.2 370.291 266.705 368.96C265.335 365.277 263.946 361.602 262.538 357.934L263.133 360.172C258.508 334.062 252.934 308.109 246.409 282.315L245.207 279.181C237.125 268.577 228.838 258.103 220.348 247.759C218.745 245.806 217.135 243.858 215.518 241.914Z" fill="#DE9766"/>
<path d="M158.731 265.575C160.873 266.317 163.014 267.059 165.155 267.8C166.511 264.66 167.881 261.525 169.254 258.391C174.031 247.494 178.861 236.615 183.367 225.624C186.222 218.661 189.127 211.715 192.055 204.777L189.339 208.563C200.852 200.786 212.415 193.073 223.911 185.272L212.325 186.441C232.246 197.911 252.3 209.111 272.869 219.269C275.435 220.537 278.167 221.469 281.065 222.066L276.988 218.847C278.967 220.267 281.14 221.525 283.509 222.621C286.938 224.208 290.775 225.457 295.021 226.365C296.765 224.918 298.509 223.471 300.254 222.024C300.143 217.683 299.625 213.681 298.697 210.018C298.057 207.488 297.221 205.12 296.19 202.914L292.114 199.694C289.878 197.756 287.478 196.153 284.911 194.886C264.343 184.727 243.26 175.611 222.043 166.764L215.072 163.857L210.458 167.933C200.046 177.13 189.701 186.413 179.307 195.633L177.091 197.599L176.591 199.419C174.599 206.681 172.584 213.936 170.519 221.172C167.258 232.595 164.322 244.13 161.333 255.646C160.473 258.958 159.609 262.269 158.731 265.575Z" fill="#DE9766"/>
</svg>
