<svg width="326" height="329" viewBox="0 0 326 329" fill="none" xmlns="http://www.w3.org/2000/svg">
<path d="M111.391 55.3594C120.46 17.8605 244.264 25.5722 245.602 57.9266C249.001 140.08 227.791 207.185 207.747 289.492C203.634 314.648 73.1175 301.53 76.6209 268.056C84.4462 193.304 87.8083 152.876 111.391 55.3594ZM183.124 255.698C178.243 254.76 173.524 257.957 172.586 262.838L170.699 272.658C169.76 277.539 172.957 282.257 177.838 283.195L188.641 285.272C193.522 286.21 198.24 283.013 199.178 278.132L201.065 268.312C202.003 263.431 198.807 258.713 193.926 257.775L183.124 255.698ZM118.251 250.995C118.596 246.036 114.857 241.736 109.899 241.391L98.9253 240.626C93.9668 240.28 89.6669 244.019 89.3212 248.978L88.6255 258.953C88.2799 263.912 92.0199 268.212 96.9784 268.558L107.952 269.322C112.91 269.668 117.209 265.929 117.555 260.97L118.251 250.995ZM140.954 244.505C136.047 243.71 131.424 247.043 130.629 251.95L129.029 261.821C128.234 266.727 131.567 271.349 136.473 272.144L147.331 273.904C152.238 274.7 156.86 271.367 157.656 266.461L159.255 256.59C160.051 251.683 156.718 247.061 151.812 246.265L140.954 244.505ZM128.251 177.995C128.596 173.036 124.857 168.736 119.899 168.39L108.925 167.626C103.967 167.28 99.6671 171.019 99.3213 175.978L98.6255 185.954C98.2801 190.912 102.02 195.212 106.979 195.557L117.952 196.323C122.91 196.668 127.21 192.928 127.555 187.97L128.251 177.995ZM197.123 180.698C192.242 179.76 187.524 182.957 186.586 187.838L184.699 197.658C183.761 202.539 186.957 207.257 191.838 208.195L202.64 210.271C207.521 211.21 212.24 208.013 213.178 203.132L215.065 193.312C216.003 188.43 212.807 183.713 207.926 182.775L197.123 180.698ZM152.873 171.593C147.966 170.798 143.344 174.13 142.548 179.037L140.949 188.908C140.153 193.814 143.486 198.437 148.392 199.232L159.25 200.992C164.157 201.788 168.779 198.455 169.575 193.549L171.175 183.678C171.97 178.771 168.638 174.149 163.731 173.353L152.873 171.593ZM141.251 138.994C141.597 134.036 137.857 129.735 132.898 129.39L121.925 128.625C116.966 128.28 112.666 132.02 112.321 136.978L111.626 146.954C111.28 151.912 115.019 156.212 119.978 156.558L130.951 157.323C135.91 157.668 140.21 153.929 140.555 148.971L141.251 138.994ZM208.124 140.699C203.243 139.761 198.525 142.957 197.587 147.838L195.698 157.658C194.761 162.54 197.957 167.257 202.838 168.195L213.641 170.271C218.522 171.209 223.239 168.013 224.178 163.132L226.065 153.312C227.003 148.431 223.807 143.712 218.926 142.774L208.124 140.699ZM162.287 132.601C157.38 131.806 152.758 135.138 151.962 140.045L150.363 149.916C149.567 154.822 152.9 159.445 157.806 160.24L168.664 162C173.571 162.796 178.193 159.463 178.989 154.557L180.589 144.686C181.384 139.779 178.052 135.157 173.145 134.361L162.287 132.601ZM145.251 99.9947C145.596 95.0362 141.856 90.7361 136.898 90.3904L125.925 89.6258C120.967 89.2802 116.667 93.0193 116.321 97.9778L115.626 107.953C115.28 112.912 119.02 117.212 123.979 117.558L134.952 118.322C139.91 118.668 144.21 114.929 144.555 109.97L145.251 99.9947ZM185.76 104.962C186.106 100.003 182.367 95.7032 177.409 95.3574L166.435 94.5926C161.477 94.247 157.177 97.9861 156.831 102.945L156.135 112.92C155.79 117.879 159.53 122.179 164.488 122.524L175.462 123.289C180.42 123.634 184.719 119.895 185.065 114.937L185.76 104.962ZM210.124 96.6989C205.243 95.7607 200.525 98.9566 199.587 103.838L197.699 113.658C196.761 118.539 199.957 123.256 204.838 124.195L215.641 126.271C220.522 127.209 225.239 124.013 226.178 119.132L228.065 109.311C229.003 104.43 225.806 99.7126 220.925 98.7744L210.124 96.6989ZM192.29 45.2978C189.305 44.4635 185.824 44.2166 182.837 44.1127C176.825 43.9036 168.074 44.2208 160.223 44.2533L160.148 44.2548C157.402 44.2852 153.757 44.7742 150.504 46.8729C148.777 47.9877 146.857 49.7692 145.635 52.4317C144.358 55.2162 144.208 58.193 144.9 60.8669C146.144 65.6789 149.718 68.4874 151.947 69.8719C154.527 71.4739 157.57 72.5908 160.781 73.3504C167.58 74.9585 176.29 74.6448 182.966 73.5909C186.365 73.0541 189.977 72.2132 193.024 70.9377C194.499 70.3204 196.458 69.3514 198.231 67.8199C199.852 66.4198 202.678 63.3239 202.86 58.529L202.87 58.0595L202.864 57.651C202.74 53.4602 200.604 50.2382 198.192 48.2575C196.062 46.5091 193.752 45.7066 192.29 45.2978Z" fill="#DE9766"/>
<path d="M108.819 45.603C105.844 43.4599 102.869 41.3169 99.8935 39.1738C91.385 52.999 88.6748 66.8806 85.1386 80.8627C74.0299 130.929 68.1008 181.36 62.926 231.956C61.4924 250.008 58.8684 266.533 60.3057 286.368V286.368C82.5815 309.892 110.261 313.022 137.315 318.914C164.205 322.897 194.726 324.366 218.813 306.711L219.776 305.546C248.902 217.199 277.257 129.193 259.365 31.1594L259.365 31.1594C222.454 11.7419 179.712 5.5117 138.872 15.8296C124.613 19.8539 110.583 27.1573 100.239 38.7419C102.984 41.1729 105.729 43.6039 108.474 46.0349C116.956 36.2558 128.916 29.6613 141.788 25.8494C178.545 15.7993 220.985 21.4044 254.822 38.9777L254.822 38.9777C264.356 118.699 242.634 219.554 213.55 302.362L214.513 301.197C170.941 328.73 104.021 311.599 66.5482 284.452V284.452C65.6947 269.069 67.8722 249.916 69.3958 232.583C74.5276 182.286 81.4338 131.808 94.1076 83.1223C97.8455 69.848 101.922 55.4908 108.819 45.603ZM99.8935 39.1738L108.819 45.603L108.474 46.0349L100.239 38.7419L99.8935 39.1738Z" fill="#DE9766"/>
</svg>
