<svg width="294" height="294" viewBox="0 0 294 294" fill="none" xmlns="http://www.w3.org/2000/svg">
<path d="M126.884 256.863C134.105 256.863 141.326 256.863 148.547 256.863C149.175 253.514 149.78 250.058 150.348 246.566C152.585 233.069 154.188 219.419 154.917 205.758C157.624 156.692 160.263 107.334 162.041 57.954C162.174 54.4155 162.306 50.8676 162.425 47.4467C155.236 46.7628 148.048 46.079 140.859 45.3951C140.329 48.8021 139.799 52.3349 139.282 55.8585C132.108 105.022 126.762 154.326 124.014 204.099C123.274 217.971 123.62 232.01 125.305 246.08C125.735 249.721 126.256 253.339 126.884 256.863Z" fill="#DE9766"/>
<path d="M81.0319 77.6669C82.7159 84.6889 84.3998 91.7109 86.0838 98.7328C87.7684 98.5939 89.4255 98.4088 91.0993 98.1667C106.127 96.0114 120.389 89.6921 132.372 80.888C144.37 72.0255 154.331 60.9518 161.576 47.6175C162.361 46.1422 163.162 44.5517 163.873 42.9551C157.782 39.0762 151.691 35.1972 145.601 31.3183C144.747 32.1787 143.796 33.1288 142.86 34.0215C134.168 42.3002 124.567 50.1237 114.985 57.1804C105.329 64.2449 95.465 70.6373 84.6743 75.9437C83.4675 76.5341 82.2665 77.1055 81.0319 77.6669Z" fill="#DE9766"/>
<path d="M215.084 97.4841C178.582 88.7304 152.422 59.7946 143.905 46.4209" stroke="#DE9766" stroke-width="21.6632" stroke-linejoin="bevel"/>
<path d="M211.421 138.015C209.737 145.037 208.053 152.059 206.369 159.08C204.61 159.251 202.872 159.339 201.116 159.336C191.903 159.335 182.866 156.903 175.038 152.611C156.082 142.107 141.018 126.796 130.856 107.98C130.08 106.497 129.286 104.902 128.58 103.303C134.67 99.4238 140.761 95.5449 146.852 91.666C147.709 92.5237 148.668 93.4689 149.613 94.3544C162.145 106 176.353 116.238 190.636 124.105C196.589 127.356 202.136 131.109 208.016 135.47C209.14 136.299 210.26 137.144 211.421 138.015Z" fill="#DE9766"/>
<path d="M217.61 192.173C215.926 199.195 214.242 206.217 212.558 213.239C210.874 213.1 209.217 212.915 207.543 212.673C192.515 210.517 178.253 204.198 166.27 195.394C154.272 186.531 144.311 175.458 137.066 162.123C136.281 160.648 135.48 159.058 134.769 157.461C140.86 153.582 146.951 149.703 153.041 145.824C153.895 146.685 154.846 147.635 155.782 148.527C164.474 156.806 174.075 164.63 183.657 171.686C193.313 178.751 203.177 185.143 213.968 190.45C215.175 191.04 216.376 191.611 217.61 192.173Z" fill="#DE9766"/>
<path d="M83.5579 148.548C120.06 139.794 146.22 110.858 154.737 97.4844" stroke="#DE9766" stroke-width="21.6632" stroke-linejoin="bevel"/>
<path d="M77.9372 192.173C79.6212 199.195 81.3051 206.217 82.9891 213.239C84.7479 213.409 86.4858 213.497 88.242 213.494C97.4552 213.494 106.492 211.062 114.32 206.769C133.276 196.265 148.34 180.955 158.502 162.138C159.278 160.656 160.072 159.06 160.778 157.461C154.687 153.582 148.597 149.703 142.506 145.824C141.648 146.682 140.69 147.627 139.745 148.513C127.213 160.158 113.005 170.396 98.7222 178.263C92.7685 181.514 87.2218 185.268 81.3422 189.628C80.2178 190.457 79.0976 191.302 77.9372 192.173Z" fill="#DE9766"/>
<path d="M235 53.5L272.5 26.5" stroke="#DE9766" stroke-width="12.7273" stroke-linejoin="bevel"/>
<path d="M22 32.5L53 56" stroke="#DE9766" stroke-width="12.7273" stroke-linejoin="bevel"/>
<path d="M237.5 154.5L279 166M55.5 154.5L27 166" stroke="#DE9766" stroke-width="12.7273" stroke-linejoin="bevel"/>
</svg>
