<svg width="160" height="160" viewBox="0 0 160 160" fill="none" xmlns="http://www.w3.org/2000/svg">
<mask id="path-1-inside-1_1437_49285" fill="white">
<path fill-rule="evenodd" clip-rule="evenodd" d="M58 7.99978C56.4084 7.99978 55.0339 7.07023 54.3899 5.72441C53.4298 6.17823 52.4836 6.65678 51.5523 7.15923C51.8384 7.71019 52 8.33611 52 8.99978C52 11.2089 50.2091 12.9998 48 12.9998C46.6929 12.9998 45.5321 12.3728 44.8022 11.4031C43.8833 12.0698 42.9841 12.762 42.1055 13.4785C42.6648 14.1665 43 15.044 43 15.9998C43 18.2089 41.2091 19.9998 39 19.9998C37.9434 19.9998 36.9824 19.5901 36.2674 18.9209C35.6657 19.5611 35.078 20.2146 34.5046 20.8808C35.4164 21.614 36 22.7387 36 23.9998C36 26.2089 34.2091 27.9998 32 27.9998C31.1448 27.9998 30.3523 27.7314 29.7021 27.2743C29.1895 28.0606 28.6948 28.8597 28.2186 29.6709C29.2926 30.3882 30 31.6114 30 32.9998C30 35.2089 28.2091 36.9998 26 36.9998C25.5308 36.9998 25.0805 36.919 24.6622 36.7706C24.3045 37.6217 23.9658 38.4828 23.6468 39.3534C25.0345 39.9811 26 41.3777 26 42.9998C26 45.2089 24.2091 46.9998 22 46.9998C21.8035 46.9998 21.6103 46.9856 21.4213 46.9582C21.1926 47.9901 20.9905 49.0319 20.8157 50.083C22.6337 50.4597 24 52.0702 24 53.9998C24 56.198 22.2268 57.9821 20.0327 57.9996C20.011 58.6637 20 59.3305 20 59.9998V61.9998C22.2091 61.9998 24 63.7906 24 65.9998C24 68.2089 22.2091 69.9998 20 69.9998V73.9998C22.2091 73.9998 24 75.7906 24 77.9998C24 80.2089 22.2091 81.9998 20 81.9998V85.9998C22.2091 85.9998 24 87.7906 24 89.9998C24 92.2089 22.2091 93.9998 20 93.9998V97.9998C22.2091 97.9998 24 99.7906 24 102C24 104.11 22.3665 105.838 20.2952 105.989C20.4669 107.722 20.7123 109.433 21.0282 111.119C21.3393 111.041 21.6649 111 22 111C24.2091 111 26 112.791 26 115C26 116.854 24.7382 118.414 23.0265 118.867C23.4189 120.052 23.8472 121.222 24.3103 122.373C24.8236 122.134 25.3962 122 26 122C28.2091 122 30 123.791 30 126C30 127.567 29.0987 128.924 27.7862 129.58C28.313 130.508 28.8638 131.42 29.4378 132.316C29.9178 132.113 30.4457 132 31 132C33.2091 132 35 133.791 35 136C35 136.986 34.6431 137.889 34.0515 138.586C34.635 139.28 35.2339 139.961 35.8478 140.628C36.4691 140.23 37.2077 140 38 140C40.2091 140 42 141.791 42 144C42 144.726 41.8065 145.407 41.4682 145.994C42.5479 146.899 43.6599 147.768 44.8022 148.596C45.5321 147.627 46.6929 147 48 147C50.2091 147 52 148.791 52 151C52 151.663 51.8384 152.289 51.5523 152.84C52.4836 153.343 53.4298 153.821 54.3899 154.275C55.0339 152.929 56.4084 152 58 152C60.2091 152 62 153.791 62 156C62 156.416 61.9363 156.818 61.8182 157.196C62.8972 157.538 63.9895 157.851 65.094 158.134C65.4898 156.341 67.0883 155 69 155C71.2091 155 73 156.791 73 159C73 159.201 72.9852 159.398 72.9566 159.591C73.9644 159.709 74.9797 159.801 76.0021 159.869C76.0713 157.72 77.8347 156 80 156C82.1653 156 83.9287 157.72 83.9979 159.869C85.0202 159.801 86.0356 159.709 87.0434 159.591C87.0148 159.398 87 159.201 87 159C87 156.791 88.7909 155 91 155C92.9117 155 94.5102 156.341 94.906 158.134C96.0105 157.851 97.1028 157.538 98.1818 157.196C98.0637 156.818 98 156.416 98 156C98 153.791 99.7909 152 102 152C103.592 152 104.966 152.929 105.61 154.275C106.57 153.821 107.516 153.343 108.448 152.84C108.162 152.289 108 151.663 108 151C108 148.791 109.791 147 112 147C113.307 147 114.468 147.627 115.198 148.596C116.117 147.93 117.016 147.238 117.895 146.521C117.335 145.833 117 144.956 117 144C117 141.791 118.791 140 121 140C122.057 140 123.018 140.409 123.733 141.079C124.334 140.438 124.922 139.785 125.495 139.119C124.584 138.386 124 137.261 124 136C124 133.791 125.791 132 128 132C128.855 132 129.648 132.268 130.298 132.725C130.968 131.698 131.607 130.649 132.214 129.58C130.901 128.924 130 127.567 130 126C130 123.791 131.791 122 134 122C134.604 122 135.176 122.134 135.69 122.373C136.153 121.222 136.581 120.052 136.974 118.867C135.262 118.414 134 116.854 134 115C134 112.791 135.791 111 138 111C138.335 111 138.661 111.041 138.972 111.119C139.288 109.433 139.533 107.722 139.705 105.989C137.634 105.838 136 104.11 136 102C136 99.7906 137.791 97.9998 140 97.9998V93.9998C137.791 93.9998 136 92.2089 136 89.9998C136 87.7906 137.791 85.9998 140 85.9998V81.9998C137.791 81.9998 136 80.2089 136 77.9998C136 75.7906 137.791 73.9998 140 73.9998V69.9998C137.791 69.9998 136 68.2089 136 65.9998C136 63.7906 137.791 61.9998 140 61.9998V59.9998C140 59.3305 139.989 58.6637 139.967 57.9996C137.773 57.9821 136 56.198 136 53.9998C136 52.0702 137.366 50.4597 139.184 50.083C139.01 49.0319 138.807 47.9901 138.579 46.9582C138.39 46.9856 138.197 46.9998 138 46.9998C135.791 46.9998 134 45.2089 134 42.9998C134 41.3777 134.966 39.9811 136.353 39.3534C135.983 38.3439 135.587 37.347 135.165 36.3638C134.541 36.7662 133.798 36.9998 133 36.9998C130.791 36.9998 129 35.2089 129 32.9998C129 31.3038 130.056 29.8543 131.545 29.2725C131.142 28.5977 130.726 27.9315 130.298 27.2743C129.648 27.7314 128.855 27.9998 128 27.9998C125.791 27.9998 124 26.2089 124 23.9998C124 22.7387 124.584 21.6139 125.495 20.8808C124.922 20.2146 124.334 19.5611 123.733 18.9209C123.018 19.5901 122.057 19.9998 121 19.9998C118.791 19.9998 117 18.2089 117 15.9998C117 15.044 117.335 14.1665 117.895 13.4785C117.016 12.762 116.117 12.0698 115.198 11.4031C114.468 12.3728 113.307 12.9998 112 12.9998C109.791 12.9998 108 11.2089 108 8.99978C108 8.33611 108.162 7.71018 108.448 7.15923C107.516 6.65678 106.57 6.17823 105.61 5.72441C104.966 7.07023 103.592 7.99978 102 7.99978C99.7909 7.99978 98 6.20892 98 3.99978C98 3.58325 98.0637 3.1816 98.1818 2.80401C97.1028 2.46131 96.0105 2.14829 94.906 1.86592C94.5102 3.65866 92.9117 4.99978 91 4.99978C88.7909 4.99978 87 3.20892 87 0.99978C87 0.798992 87.0148 0.601661 87.0434 0.408815C86.0356 0.290979 85.0203 0.198116 83.9979 0.130859C83.9287 2.27933 82.1653 3.99978 80 3.99978C77.8347 3.99978 76.0713 2.27933 76.0021 0.130859C74.9797 0.198116 73.9644 0.290979 72.9566 0.408815C72.9852 0.601661 73 0.798992 73 0.99978C73 3.20892 71.2091 4.99978 69 4.99978C67.0883 4.99978 65.4898 3.65866 65.094 1.86592C63.9895 2.14829 62.8972 2.46131 61.8182 2.80401C61.9363 3.1816 62 3.58325 62 3.99978C62 6.20892 60.2091 7.99978 58 7.99978Z"/>
</mask>
<path fill-rule="evenodd" clip-rule="evenodd" d="M58 7.99978C56.4084 7.99978 55.0339 7.07023 54.3899 5.72441C53.4298 6.17823 52.4836 6.65678 51.5523 7.15923C51.8384 7.71019 52 8.33611 52 8.99978C52 11.2089 50.2091 12.9998 48 12.9998C46.6929 12.9998 45.5321 12.3728 44.8022 11.4031C43.8833 12.0698 42.9841 12.762 42.1055 13.4785C42.6648 14.1665 43 15.044 43 15.9998C43 18.2089 41.2091 19.9998 39 19.9998C37.9434 19.9998 36.9824 19.5901 36.2674 18.9209C35.6657 19.5611 35.078 20.2146 34.5046 20.8808C35.4164 21.614 36 22.7387 36 23.9998C36 26.2089 34.2091 27.9998 32 27.9998C31.1448 27.9998 30.3523 27.7314 29.7021 27.2743C29.1895 28.0606 28.6948 28.8597 28.2186 29.6709C29.2926 30.3882 30 31.6114 30 32.9998C30 35.2089 28.2091 36.9998 26 36.9998C25.5308 36.9998 25.0805 36.919 24.6622 36.7706C24.3045 37.6217 23.9658 38.4828 23.6468 39.3534C25.0345 39.9811 26 41.3777 26 42.9998C26 45.2089 24.2091 46.9998 22 46.9998C21.8035 46.9998 21.6103 46.9856 21.4213 46.9582C21.1926 47.9901 20.9905 49.0319 20.8157 50.083C22.6337 50.4597 24 52.0702 24 53.9998C24 56.198 22.2268 57.9821 20.0327 57.9996C20.011 58.6637 20 59.3305 20 59.9998V61.9998C22.2091 61.9998 24 63.7906 24 65.9998C24 68.2089 22.2091 69.9998 20 69.9998V73.9998C22.2091 73.9998 24 75.7906 24 77.9998C24 80.2089 22.2091 81.9998 20 81.9998V85.9998C22.2091 85.9998 24 87.7906 24 89.9998C24 92.2089 22.2091 93.9998 20 93.9998V97.9998C22.2091 97.9998 24 99.7906 24 102C24 104.11 22.3665 105.838 20.2952 105.989C20.4669 107.722 20.7123 109.433 21.0282 111.119C21.3393 111.041 21.6649 111 22 111C24.2091 111 26 112.791 26 115C26 116.854 24.7382 118.414 23.0265 118.867C23.4189 120.052 23.8472 121.222 24.3103 122.373C24.8236 122.134 25.3962 122 26 122C28.2091 122 30 123.791 30 126C30 127.567 29.0987 128.924 27.7862 129.58C28.313 130.508 28.8638 131.42 29.4378 132.316C29.9178 132.113 30.4457 132 31 132C33.2091 132 35 133.791 35 136C35 136.986 34.6431 137.889 34.0515 138.586C34.635 139.28 35.2339 139.961 35.8478 140.628C36.4691 140.23 37.2077 140 38 140C40.2091 140 42 141.791 42 144C42 144.726 41.8065 145.407 41.4682 145.994C42.5479 146.899 43.6599 147.768 44.8022 148.596C45.5321 147.627 46.6929 147 48 147C50.2091 147 52 148.791 52 151C52 151.663 51.8384 152.289 51.5523 152.84C52.4836 153.343 53.4298 153.821 54.3899 154.275C55.0339 152.929 56.4084 152 58 152C60.2091 152 62 153.791 62 156C62 156.416 61.9363 156.818 61.8182 157.196C62.8972 157.538 63.9895 157.851 65.094 158.134C65.4898 156.341 67.0883 155 69 155C71.2091 155 73 156.791 73 159C73 159.201 72.9852 159.398 72.9566 159.591C73.9644 159.709 74.9797 159.801 76.0021 159.869C76.0713 157.72 77.8347 156 80 156C82.1653 156 83.9287 157.72 83.9979 159.869C85.0202 159.801 86.0356 159.709 87.0434 159.591C87.0148 159.398 87 159.201 87 159C87 156.791 88.7909 155 91 155C92.9117 155 94.5102 156.341 94.906 158.134C96.0105 157.851 97.1028 157.538 98.1818 157.196C98.0637 156.818 98 156.416 98 156C98 153.791 99.7909 152 102 152C103.592 152 104.966 152.929 105.61 154.275C106.57 153.821 107.516 153.343 108.448 152.84C108.162 152.289 108 151.663 108 151C108 148.791 109.791 147 112 147C113.307 147 114.468 147.627 115.198 148.596C116.117 147.93 117.016 147.238 117.895 146.521C117.335 145.833 117 144.956 117 144C117 141.791 118.791 140 121 140C122.057 140 123.018 140.409 123.733 141.079C124.334 140.438 124.922 139.785 125.495 139.119C124.584 138.386 124 137.261 124 136C124 133.791 125.791 132 128 132C128.855 132 129.648 132.268 130.298 132.725C130.968 131.698 131.607 130.649 132.214 129.58C130.901 128.924 130 127.567 130 126C130 123.791 131.791 122 134 122C134.604 122 135.176 122.134 135.69 122.373C136.153 121.222 136.581 120.052 136.974 118.867C135.262 118.414 134 116.854 134 115C134 112.791 135.791 111 138 111C138.335 111 138.661 111.041 138.972 111.119C139.288 109.433 139.533 107.722 139.705 105.989C137.634 105.838 136 104.11 136 102C136 99.7906 137.791 97.9998 140 97.9998V93.9998C137.791 93.9998 136 92.2089 136 89.9998C136 87.7906 137.791 85.9998 140 85.9998V81.9998C137.791 81.9998 136 80.2089 136 77.9998C136 75.7906 137.791 73.9998 140 73.9998V69.9998C137.791 69.9998 136 68.2089 136 65.9998C136 63.7906 137.791 61.9998 140 61.9998V59.9998C140 59.3305 139.989 58.6637 139.967 57.9996C137.773 57.9821 136 56.198 136 53.9998C136 52.0702 137.366 50.4597 139.184 50.083C139.01 49.0319 138.807 47.9901 138.579 46.9582C138.39 46.9856 138.197 46.9998 138 46.9998C135.791 46.9998 134 45.2089 134 42.9998C134 41.3777 134.966 39.9811 136.353 39.3534C135.983 38.3439 135.587 37.347 135.165 36.3638C134.541 36.7662 133.798 36.9998 133 36.9998C130.791 36.9998 129 35.2089 129 32.9998C129 31.3038 130.056 29.8543 131.545 29.2725C131.142 28.5977 130.726 27.9315 130.298 27.2743C129.648 27.7314 128.855 27.9998 128 27.9998C125.791 27.9998 124 26.2089 124 23.9998C124 22.7387 124.584 21.6139 125.495 20.8808C124.922 20.2146 124.334 19.5611 123.733 18.9209C123.018 19.5901 122.057 19.9998 121 19.9998C118.791 19.9998 117 18.2089 117 15.9998C117 15.044 117.335 14.1665 117.895 13.4785C117.016 12.762 116.117 12.0698 115.198 11.4031C114.468 12.3728 113.307 12.9998 112 12.9998C109.791 12.9998 108 11.2089 108 8.99978C108 8.33611 108.162 7.71018 108.448 7.15923C107.516 6.65678 106.57 6.17823 105.61 5.72441C104.966 7.07023 103.592 7.99978 102 7.99978C99.7909 7.99978 98 6.20892 98 3.99978C98 3.58325 98.0637 3.1816 98.1818 2.80401C97.1028 2.46131 96.0105 2.14829 94.906 1.86592C94.5102 3.65866 92.9117 4.99978 91 4.99978C88.7909 4.99978 87 3.20892 87 0.99978C87 0.798992 87.0148 0.601661 87.0434 0.408815C86.0356 0.290979 85.0203 0.198116 83.9979 0.130859C83.9287 2.27933 82.1653 3.99978 80 3.99978C77.8347 3.99978 76.0713 2.27933 76.0021 0.130859C74.9797 0.198116 73.9644 0.290979 72.9566 0.408815C72.9852 0.601661 73 0.798992 73 0.99978C73 3.20892 71.2091 4.99978 69 4.99978C67.0883 4.99978 65.4898 3.65866 65.094 1.86592C63.9895 2.14829 62.8972 2.46131 61.8182 2.80401C61.9363 3.1816 62 3.58325 62 3.99978C62 6.20892 60.2091 7.99978 58 7.99978Z" fill="#F2F4FF"/>
<path d="M54.3899 5.72441L55.2919 5.29272L54.8623 4.39502L53.9625 4.82032L54.3899 5.72441ZM51.5523 7.15923L51.0775 6.27914L50.2113 6.74648L50.6648 7.62001L51.5523 7.15923ZM44.8022 11.4031L45.6012 10.8017L45.0103 10.0167L44.215 10.5937L44.8022 11.4031ZM42.1055 13.4785L41.4735 12.7035L40.6998 13.3345L41.3295 14.1093L42.1055 13.4785ZM36.2674 18.9209L36.9507 18.1907L36.222 17.5088L35.5386 18.2361L36.2674 18.9209ZM34.5046 20.8808L33.7467 20.2285L33.0722 21.0122L33.878 21.6601L34.5046 20.8808ZM29.7021 27.2743L30.2772 26.4562L29.43 25.8606L28.8644 26.7281L29.7021 27.2743ZM28.2186 29.6709L27.3562 29.1647L26.8785 29.9785L27.6632 30.5025L28.2186 29.6709ZM24.6622 36.7706L24.9966 35.8281L24.1063 35.5123L23.7403 36.3831L24.6622 36.7706ZM23.6468 39.3534L22.7078 39.0093L22.3882 39.8816L23.2346 40.2645L23.6468 39.3534ZM21.4213 46.9582L21.5647 45.9686L20.6459 45.8354L20.445 46.7418L21.4213 46.9582ZM20.8157 50.083L19.8292 49.9189L19.6715 50.8672L20.6128 51.0622L20.8157 50.083ZM20.0327 57.9996L20.0247 56.9997L19.0647 57.0074L19.0332 57.9669L20.0327 57.9996ZM20 61.9998H19V62.9998H20V61.9998ZM20 69.9998V68.9998H19V69.9998H20ZM20 73.9998H19V74.9998H20V73.9998ZM20 81.9998V80.9998H19V81.9998H20ZM20 85.9998H19V86.9998H20V85.9998ZM20 93.9998V92.9998H19V93.9998H20ZM20 97.9998H19V98.9998H20V97.9998ZM20.2952 105.989L20.2224 104.992L19.1988 105.066L19.3001 106.088L20.2952 105.989ZM21.0282 111.119L20.0454 111.303L20.2408 112.346L21.2704 112.089L21.0282 111.119ZM23.0265 118.867L22.7705 117.9L21.7432 118.172L22.0771 119.181L23.0265 118.867ZM24.3103 122.373L23.3825 122.746L23.7764 123.726L24.7332 123.279L24.3103 122.373ZM27.7862 129.58L27.3391 128.685L26.3961 129.157L26.9166 130.073L27.7862 129.58ZM29.4378 132.316L28.5957 132.856L29.0513 133.567L29.8287 133.237L29.4378 132.316ZM34.0515 138.586L33.289 137.939L32.7426 138.583L33.286 139.23L34.0515 138.586ZM35.8478 140.628L35.1121 141.305L35.6801 141.922L36.3865 141.47L35.8478 140.628ZM41.4682 145.994L40.6018 145.495L40.183 146.221L40.8256 146.76L41.4682 145.994ZM44.8022 148.596L44.215 149.406L45.0102 149.983L45.6012 149.198L44.8022 148.596ZM51.5523 152.84L50.6648 152.38L50.2113 153.253L51.0775 153.72L51.5523 152.84ZM54.3899 154.275L53.9625 155.179L54.8623 155.605L55.2919 154.707L54.3899 154.275ZM61.8182 157.196L60.8638 156.897L60.5665 157.847L61.5155 158.149L61.8182 157.196ZM65.094 158.134L64.8464 159.102L65.8477 159.358L66.0705 158.349L65.094 158.134ZM72.9566 159.591L71.9674 159.444L71.8164 160.464L72.8405 160.584L72.9566 159.591ZM76.0021 159.869L75.9365 160.867L76.9683 160.934L77.0016 159.901L76.0021 159.869ZM83.9979 159.869L82.9984 159.901L83.0317 160.934L84.0635 160.867L83.9979 159.869ZM87.0434 159.591L87.1595 160.584L88.1836 160.464L88.0326 159.444L87.0434 159.591ZM94.906 158.134L93.9295 158.349L94.1523 159.358L95.1537 159.102L94.906 158.134ZM98.1818 157.196L98.4845 158.149L99.4335 157.847L99.1362 156.897L98.1818 157.196ZM105.61 154.275L104.708 154.707L105.138 155.605L106.037 155.179L105.61 154.275ZM108.448 152.84L108.922 153.72L109.789 153.253L109.335 152.38L108.448 152.84ZM115.198 148.596L114.399 149.198L114.99 149.983L115.785 149.406L115.198 148.596ZM117.895 146.521L118.527 147.296L119.3 146.665L118.67 145.89L117.895 146.521ZM123.733 141.079L123.049 141.809L123.778 142.491L124.461 141.763L123.733 141.079ZM125.495 139.119L126.253 139.771L126.928 138.987L126.122 138.339L125.495 139.119ZM130.298 132.725L129.723 133.543L130.57 134.139L131.136 133.271L130.298 132.725ZM132.214 129.58L133.083 130.074L133.604 129.157L132.661 128.685L132.214 129.58ZM135.69 122.373L135.267 123.279L136.224 123.726L136.618 122.746L135.69 122.373ZM136.974 118.867L137.923 119.181L138.257 118.172L137.229 117.9L136.974 118.867ZM138.972 111.119L138.73 112.089L139.759 112.346L139.955 111.303L138.972 111.119ZM139.705 105.989L140.7 106.088L140.801 105.066L139.778 104.992L139.705 105.989ZM140 97.9998V98.9998H141V97.9998H140ZM140 93.9998H141V92.9998H140V93.9998ZM140 85.9998V86.9998H141V85.9998H140ZM140 81.9998H141V80.9998H140V81.9998ZM140 73.9998V74.9998H141V73.9998H140ZM140 69.9998H141V68.9998H140V69.9998ZM140 61.9998V62.9998H141V61.9998H140ZM139.967 57.9996L140.967 57.9669L140.935 57.0074L139.975 56.9997L139.967 57.9996ZM139.184 50.083L139.387 51.0622L140.328 50.8672L140.171 49.919L139.184 50.083ZM138.579 46.9582L139.555 46.7418L139.354 45.8354L138.435 45.9686L138.579 46.9582ZM136.353 39.3534L136.765 40.2645L137.612 39.8816L137.292 39.0093L136.353 39.3534ZM135.165 36.3638L136.084 35.9695L135.618 34.882L134.623 35.5234L135.165 36.3638ZM131.545 29.2725L131.909 30.2039L133.01 29.7741L132.404 28.7596L131.545 29.2725ZM130.298 27.2743L131.136 26.7281L130.57 25.8606L129.723 26.4562L130.298 27.2743ZM125.495 20.8808L126.122 21.6601L126.928 21.0122L126.253 20.2285L125.495 20.8808ZM123.733 18.9209L124.461 18.2361L123.778 17.5088L123.049 18.1907L123.733 18.9209ZM117.895 13.4785L118.67 14.1093L119.3 13.3345L118.527 12.7035L117.895 13.4785ZM115.198 11.4031L115.785 10.5937L114.99 10.0167L114.399 10.8017L115.198 11.4031ZM108.448 7.15923L109.335 7.62001L109.789 6.74647L108.922 6.27914L108.448 7.15923ZM105.61 5.72441L106.037 4.82032L105.138 4.39502L104.708 5.29272L105.61 5.72441ZM98.1818 2.80401L99.1362 3.10259L99.4335 2.15232L98.4845 1.85093L98.1818 2.80401ZM94.906 1.86592L95.1537 0.897081L94.1523 0.641087L93.9295 1.65036L94.906 1.86592ZM87.0434 0.408815L88.0326 0.555298L88.1836 -0.464668L87.1595 -0.584418L87.0434 0.408815ZM83.9979 0.130859L84.0635 -0.866984L83.0317 -0.934864L82.9984 0.0986801L83.9979 0.130859ZM76.0021 0.130859L77.0016 0.0986801L76.9683 -0.934865L75.9365 -0.866984L76.0021 0.130859ZM72.9566 0.408815L72.8405 -0.584418L71.8164 -0.464668L71.9674 0.555298L72.9566 0.408815ZM65.094 1.86592L66.0705 1.65036L65.8477 0.641086L64.8463 0.897081L65.094 1.86592ZM61.8182 2.80401L61.5155 1.85093L60.5665 2.15233L60.8638 3.1026L61.8182 2.80401ZM53.4878 6.1561C54.2918 7.83603 56.009 8.99978 58 8.99978V6.99978C56.8078 6.99978 55.7761 6.30443 55.2919 5.29272L53.4878 6.1561ZM52.0271 8.03932C52.9429 7.54526 53.8732 7.07472 54.8172 6.6285L53.9625 4.82032C52.9863 5.28175 52.0244 5.7683 51.0775 6.27914L52.0271 8.03932ZM53 8.99978C53 8.17196 52.798 7.38839 52.4398 6.69845L50.6648 7.62001C50.8787 8.03199 51 8.50025 51 8.99978H53ZM48 13.9998C50.7614 13.9998 53 11.7612 53 8.99978H51C51 10.6566 49.6569 11.9998 48 11.9998V13.9998ZM44.0033 12.0045C44.914 13.2144 46.3654 13.9998 48 13.9998V11.9998C47.0203 11.9998 46.1503 11.5312 45.6012 10.8017L44.0033 12.0045ZM42.7375 14.2534C43.6015 13.5488 44.4858 12.8682 45.3895 12.2125L44.215 10.5937C43.2808 11.2715 42.3666 11.9751 41.4735 12.7035L42.7375 14.2534ZM44 15.9998C44 14.806 43.5804 13.7075 42.8815 12.8477L41.3295 14.1093C41.7492 14.6255 42 15.282 42 15.9998H44ZM39 20.9998C41.7614 20.9998 44 18.7612 44 15.9998H42C42 17.6566 40.6569 18.9998 39 18.9998V20.9998ZM35.584 19.651C36.477 20.4867 37.6797 20.9998 39 20.9998V18.9998C38.207 18.9998 37.4878 18.6934 36.9507 18.1907L35.584 19.651ZM35.2626 21.5331C35.8264 20.878 36.4044 20.2353 36.9961 19.6057L35.5386 18.2361C34.927 18.8869 34.3295 19.5512 33.7467 20.2285L35.2626 21.5331ZM37 23.9998C37 22.423 36.269 21.0163 35.1312 20.1015L33.878 21.6601C34.5639 22.2116 35 23.0544 35 23.9998H37ZM32 28.9998C34.7614 28.9998 37 26.7612 37 23.9998H35C35 25.6566 33.6569 26.9998 32 26.9998V28.9998ZM29.127 28.0923C29.9401 28.664 30.9323 28.9998 32 28.9998V26.9998C31.3573 26.9998 30.7645 26.7988 30.2772 26.4562L29.127 28.0923ZM29.081 30.1771C29.5492 29.3794 30.0357 28.5936 30.5398 27.8204L28.8644 26.7281C28.3432 27.5275 27.8403 28.3399 27.3562 29.1647L29.081 30.1771ZM31 32.9998C31 31.2633 30.1139 29.7342 28.7739 28.8393L27.6632 30.5025C28.4713 31.0421 29 31.9594 29 32.9998H31ZM26 37.9998C28.7614 37.9998 31 35.7612 31 32.9998H29C29 34.6566 27.6569 35.9998 26 35.9998V37.9998ZM24.3278 37.713C24.852 37.899 25.4153 37.9998 26 37.9998V35.9998C25.6463 35.9998 25.309 35.939 24.9966 35.8281L24.3278 37.713ZM24.5857 39.6975C24.8994 38.8416 25.2324 37.9949 25.5841 37.158L23.7403 36.3831C23.3766 37.2485 23.0322 38.1241 22.7078 39.0093L24.5857 39.6975ZM27 42.9998C27 40.9706 25.7913 39.2259 24.0589 38.4423L23.2346 40.2645C24.2776 40.7363 25 41.7847 25 42.9998H27ZM22 47.9998C24.7614 47.9998 27 45.7612 27 42.9998H25C25 44.6566 23.6569 45.9998 22 45.9998V47.9998ZM21.2779 47.9479C21.5142 47.9821 21.7553 47.9998 22 47.9998V45.9998C21.8516 45.9998 21.7063 45.9891 21.5647 45.9686L21.2779 47.9479ZM21.8021 50.2471C21.974 49.2136 22.1728 48.1892 22.3976 47.1746L20.445 46.7418C20.2125 47.791 20.007 48.8503 19.8292 49.9189L21.8021 50.2471ZM25 53.9998C25 51.5866 23.2914 49.5747 21.0186 49.1038L20.6128 51.0622C21.9759 51.3446 23 52.5537 23 53.9998H25ZM20.0407 58.9996C22.7835 58.9776 25 56.7476 25 53.9998H23C23 55.6484 21.6701 56.9865 20.0247 56.9997L20.0407 58.9996ZM21 59.9998C21 59.3414 21.0108 58.6855 21.0322 58.0324L19.0332 57.9669C19.0111 58.6419 19 59.3195 19 59.9998H21ZM21 61.9998V59.9998H19V61.9998H21ZM25 65.9998C25 63.2384 22.7614 60.9998 20 60.9998V62.9998C21.6569 62.9998 23 64.3429 23 65.9998H25ZM20 70.9998C22.7614 70.9998 25 68.7612 25 65.9998H23C23 67.6566 21.6569 68.9998 20 68.9998V70.9998ZM21 73.9998V69.9998H19V73.9998H21ZM25 77.9998C25 75.2384 22.7614 72.9998 20 72.9998V74.9998C21.6569 74.9998 23 76.3429 23 77.9998H25ZM20 82.9998C22.7614 82.9998 25 80.7612 25 77.9998H23C23 79.6566 21.6569 80.9998 20 80.9998V82.9998ZM21 85.9998V81.9998H19V85.9998H21ZM25 89.9998C25 87.2384 22.7614 84.9998 20 84.9998V86.9998C21.6569 86.9998 23 88.3429 23 89.9998H25ZM20 94.9998C22.7614 94.9998 25 92.7612 25 89.9998H23C23 91.6566 21.6569 92.9998 20 92.9998V94.9998ZM21 97.9998V93.9998H19V97.9998H21ZM25 102C25 99.2384 22.7614 96.9998 20 96.9998V98.9998C21.6569 98.9998 23 100.343 23 102H25ZM20.3679 106.986C22.9581 106.797 25 104.638 25 102H23C23 103.582 21.7749 104.878 20.2224 104.992L20.3679 106.986ZM22.0111 110.934C21.7005 109.277 21.4592 107.594 21.2903 105.89L19.3001 106.088C19.4746 107.849 19.7241 109.589 20.0454 111.303L22.0111 110.934ZM22 110C21.5826 110 21.1757 110.051 20.7861 110.148L21.2704 112.089C21.5029 112.031 21.7471 112 22 112V110ZM27 115C27 112.238 24.7614 110 22 110V112C23.6569 112 25 113.343 25 115H27ZM23.2824 119.834C25.4218 119.267 27 117.319 27 115H25C25 116.389 24.0547 117.56 22.7705 117.9L23.2824 119.834ZM25.2381 122C24.7828 120.868 24.3616 119.718 23.9758 118.553L22.0771 119.181C22.4761 120.387 22.9117 121.575 23.3825 122.746L25.2381 122ZM26 121C25.247 121 24.5304 121.167 23.8874 121.467L24.7332 123.279C25.1168 123.1 25.5453 123 26 123V121ZM31 126C31 123.238 28.7614 121 26 121V123C27.6569 123 29 124.343 29 126H31ZM28.2334 130.474C29.8716 129.655 31 127.96 31 126H29C29 127.174 28.3259 128.192 27.3391 128.685L28.2334 130.474ZM30.2799 131.777C29.7155 130.896 29.1739 129.998 28.6559 129.086L26.9166 130.073C27.4522 131.017 28.0122 131.945 28.5957 132.856L30.2799 131.777ZM31 131C30.309 131 29.6483 131.141 29.047 131.396L29.8287 133.237C30.1873 133.085 30.5825 133 31 133V131ZM36 136C36 133.238 33.7614 131 31 131V133C32.6569 133 34 134.343 34 136H36ZM34.8141 139.233C35.5532 138.362 36 137.232 36 136H34C34 136.74 33.7331 137.416 33.289 137.939L34.8141 139.233ZM36.5834 139.95C35.9798 139.295 35.3908 138.625 34.817 137.943L33.286 139.23C33.8792 139.935 34.4881 140.627 35.1121 141.305L36.5834 139.95ZM38 139C37.0111 139 36.0864 139.288 35.309 139.785L36.3865 141.47C36.8519 141.172 37.4043 141 38 141V139ZM43 144C43 141.238 40.7614 139 38 139V141C39.6569 141 41 142.343 41 144H43ZM42.3346 146.493C42.7581 145.758 43 144.906 43 144H41C41 144.546 40.8549 145.055 40.6018 145.495L42.3346 146.493ZM45.3895 147.787C44.2661 146.972 43.1725 146.118 42.1108 145.228L40.8256 146.76C41.9232 147.681 43.0536 148.563 44.215 149.406L45.3895 147.787ZM48 146C46.3654 146 44.914 146.785 44.0033 147.995L45.6012 149.198C46.1503 148.468 47.0203 148 48 148V146ZM53 151C53 148.238 50.7614 146 48 146V148C49.6569 148 51 149.343 51 151H53ZM52.4398 153.301C52.798 152.611 53 151.828 53 151H51C51 151.499 50.8787 151.968 50.6648 152.38L52.4398 153.301ZM54.8172 153.371C53.8732 152.925 52.9429 152.454 52.0271 151.96L51.0775 153.72C52.0244 154.231 52.9863 154.718 53.9625 155.179L54.8172 153.371ZM58 151C56.009 151 54.2918 152.164 53.4878 153.843L55.2919 154.707C55.7761 153.695 56.8078 153 58 153V151ZM63 156C63 153.238 60.7614 151 58 151V153C59.6569 153 61 154.343 61 156H63ZM62.7726 157.494C62.9206 157.021 63 156.519 63 156H61C61 156.314 60.9521 156.615 60.8638 156.897L62.7726 157.494ZM65.3417 157.165C64.2557 156.887 63.1818 156.579 62.1209 156.242L61.5155 158.149C62.6127 158.497 63.7233 158.815 64.8464 159.102L65.3417 157.165ZM69 154C66.6091 154 64.6123 155.677 64.1175 157.918L66.0705 158.349C66.3673 157.005 67.5674 156 69 156V154ZM74 159C74 156.238 71.7614 154 69 154V156C70.6569 156 72 157.343 72 159H74ZM73.9459 159.737C73.9816 159.496 74 159.25 74 159H72C72 159.151 71.9888 159.3 71.9674 159.444L73.9459 159.737ZM76.0678 158.871C75.0623 158.805 74.0637 158.713 73.0728 158.598L72.8405 160.584C73.865 160.704 74.8972 160.798 75.9365 160.867L76.0678 158.871ZM80 155C77.2932 155 75.0891 157.15 75.0026 159.837L77.0016 159.901C77.0534 158.29 78.3762 157 80 157V155ZM84.9974 159.837C84.9109 157.15 82.7068 155 80 155V157C81.6238 157 82.9466 158.29 82.9984 159.901L84.9974 159.837ZM86.9272 158.598C85.9363 158.713 84.9377 158.805 83.9322 158.871L84.0635 160.867C85.1028 160.798 86.135 160.704 87.1595 160.584L86.9272 158.598ZM86 159C86 159.25 86.0184 159.496 86.0541 159.737L88.0326 159.444C88.0112 159.3 88 159.151 88 159H86ZM91 154C88.2386 154 86 156.238 86 159H88C88 157.343 89.3431 156 91 156V154ZM95.8825 157.918C95.3877 155.677 93.3909 154 91 154V156C92.4326 156 93.6327 157.005 93.9295 158.349L95.8825 157.918ZM97.8791 156.242C96.8182 156.579 95.7443 156.887 94.6583 157.165L95.1537 159.102C96.2767 158.815 97.3873 158.497 98.4845 158.149L97.8791 156.242ZM97 156C97 156.519 97.0794 157.021 97.2274 157.494L99.1362 156.897C99.0479 156.615 99 156.314 99 156H97ZM102 151C99.2386 151 97 153.238 97 156H99C99 154.343 100.343 153 102 153V151ZM106.512 153.843C105.708 152.164 103.991 151 102 151V153C103.192 153 104.224 153.695 104.708 154.707L106.512 153.843ZM107.973 151.96C107.057 152.454 106.127 152.925 105.183 153.371L106.037 155.179C107.014 154.718 107.976 154.231 108.922 153.72L107.973 151.96ZM107 151C107 151.828 107.202 152.611 107.56 153.301L109.335 152.38C109.121 151.968 109 151.499 109 151H107ZM112 146C109.239 146 107 148.238 107 151H109C109 149.343 110.343 148 112 148V146ZM115.997 147.995C115.086 146.785 113.635 146 112 146V148C112.98 148 113.85 148.468 114.399 149.198L115.997 147.995ZM117.262 145.746C116.398 146.451 115.514 147.131 114.611 147.787L115.785 149.406C116.719 148.728 117.633 148.024 118.527 147.296L117.262 145.746ZM116 144C116 145.194 116.42 146.292 117.119 147.152L118.67 145.89C118.251 145.374 118 144.718 118 144H116ZM121 139C118.239 139 116 141.238 116 144H118C118 142.343 119.343 141 121 141V139ZM124.416 140.349C123.523 139.513 122.32 139 121 139V141C121.793 141 122.512 141.306 123.049 141.809L124.416 140.349ZM124.737 138.466C124.174 139.122 123.596 139.764 123.004 140.394L124.461 141.763C125.073 141.113 125.67 140.448 126.253 139.771L124.737 138.466ZM123 136C123 137.577 123.731 138.983 124.869 139.898L126.122 138.339C125.436 137.788 125 136.945 125 136H123ZM128 131C125.239 131 123 133.238 123 136H125C125 134.343 126.343 133 128 133V131ZM130.873 131.907C130.06 131.336 129.068 131 128 131V133C128.643 133 129.235 133.201 129.723 133.543L130.873 131.907ZM131.344 129.086C130.747 130.138 130.119 131.169 129.46 132.179L131.136 133.271C131.816 132.227 132.466 131.161 133.083 130.074L131.344 129.086ZM129 126C129 127.96 130.128 129.655 131.767 130.474L132.661 128.685C131.674 128.192 131 127.174 131 126H129ZM134 121C131.239 121 129 123.238 129 126H131C131 124.343 132.343 123 134 123V121ZM136.113 121.467C135.47 121.167 134.753 121 134 121V123C134.455 123 134.883 123.1 135.267 123.279L136.113 121.467ZM136.024 118.553C135.638 119.718 135.217 120.868 134.762 122L136.618 122.746C137.088 121.575 137.524 120.387 137.923 119.181L136.024 118.553ZM133 115C133 117.319 134.578 119.267 136.718 119.834L137.229 117.9C135.945 117.56 135 116.389 135 115H133ZM138 110C135.239 110 133 112.238 133 115H135C135 113.343 136.343 112 138 112V110ZM139.214 110.148C138.824 110.051 138.417 110 138 110V112C138.253 112 138.497 112.031 138.73 112.089L139.214 110.148ZM138.71 105.89C138.541 107.594 138.3 109.277 137.989 110.934L139.955 111.303C140.276 109.589 140.525 107.849 140.7 106.088L138.71 105.89ZM135 102C135 104.638 137.042 106.797 139.632 106.986L139.778 104.992C138.225 104.878 137 103.582 137 102H135ZM140 96.9998C137.239 96.9998 135 99.2384 135 102H137C137 100.343 138.343 98.9998 140 98.9998V96.9998ZM139 93.9998V97.9998H141V93.9998H139ZM135 89.9998C135 92.7612 137.239 94.9998 140 94.9998V92.9998C138.343 92.9998 137 91.6566 137 89.9998H135ZM140 84.9998C137.239 84.9998 135 87.2384 135 89.9998H137C137 88.3429 138.343 86.9998 140 86.9998V84.9998ZM139 81.9998V85.9998H141V81.9998H139ZM135 77.9998C135 80.7612 137.239 82.9998 140 82.9998V80.9998C138.343 80.9998 137 79.6566 137 77.9998H135ZM140 72.9998C137.239 72.9998 135 75.2384 135 77.9998H137C137 76.3429 138.343 74.9998 140 74.9998V72.9998ZM139 69.9998V73.9998H141V69.9998H139ZM135 65.9998C135 68.7612 137.239 70.9998 140 70.9998V68.9998C138.343 68.9998 137 67.6566 137 65.9998H135ZM140 60.9998C137.239 60.9998 135 63.2384 135 65.9998H137C137 64.3429 138.343 62.9998 140 62.9998V60.9998ZM139 59.9998V61.9998H141V59.9998H139ZM138.968 58.0324C138.989 58.6855 139 59.3414 139 59.9998H141C141 59.3195 140.989 58.6419 140.967 57.9669L138.968 58.0324ZM135 53.9998C135 56.7476 137.217 58.9776 139.959 58.9996L139.975 56.9997C138.33 56.9865 137 55.6484 137 53.9998H135ZM138.981 49.1038C136.709 49.5747 135 51.5866 135 53.9998H137C137 52.5537 138.024 51.3446 139.387 51.0622L138.981 49.1038ZM137.602 47.1746C137.827 48.1892 138.026 49.2136 138.198 50.2471L140.171 49.919C139.993 48.8503 139.788 47.791 139.555 46.7418L137.602 47.1746ZM138 47.9998C138.245 47.9998 138.486 47.9821 138.722 47.9479L138.435 45.9686C138.294 45.9891 138.148 45.9998 138 45.9998V47.9998ZM133 42.9998C133 45.7612 135.239 47.9998 138 47.9998V45.9998C136.343 45.9998 135 44.6566 135 42.9998H133ZM135.941 38.4423C134.209 39.2259 133 40.9706 133 42.9998H135C135 41.7847 135.722 40.7363 136.765 40.2645L135.941 38.4423ZM134.246 36.758C134.661 37.7248 135.051 38.7049 135.414 39.6975L137.292 39.0093C136.916 37.9828 136.513 36.9693 136.084 35.9695L134.246 36.758ZM133 37.9998C133.996 37.9998 134.926 37.7077 135.707 37.2041L134.623 35.5234C134.156 35.8248 133.6 35.9998 133 35.9998V37.9998ZM128 32.9998C128 35.7612 130.239 37.9998 133 37.9998V35.9998C131.343 35.9998 130 34.6566 130 32.9998H128ZM131.182 28.341C129.321 29.0676 128 30.8782 128 32.9998H130C130 31.7294 130.79 30.641 131.909 30.2039L131.182 28.341ZM129.46 27.8204C129.882 28.4667 130.291 29.1218 130.687 29.7853L132.404 28.7596C131.994 28.0736 131.571 27.3963 131.136 26.7281L129.46 27.8204ZM128 28.9998C129.068 28.9998 130.06 28.664 130.873 28.0923L129.723 26.4562C129.235 26.7988 128.643 26.9998 128 26.9998V28.9998ZM123 23.9998C123 26.7612 125.239 28.9998 128 28.9998V26.9998C126.343 26.9998 125 25.6566 125 23.9998H123ZM124.869 20.1015C123.731 21.0163 123 22.423 123 23.9998H125C125 23.0544 125.436 22.2116 126.122 21.6601L124.869 20.1015ZM123.004 19.6056C123.596 20.2353 124.174 20.878 124.737 21.5331L126.253 20.2285C125.67 19.5512 125.073 18.8869 124.461 18.2361L123.004 19.6056ZM121 20.9998C122.32 20.9998 123.523 20.4867 124.416 19.651L123.049 18.1907C122.512 18.6934 121.793 18.9998 121 18.9998V20.9998ZM116 15.9998C116 18.7612 118.239 20.9998 121 20.9998V18.9998C119.343 18.9998 118 17.6566 118 15.9998H116ZM117.119 12.8477C116.42 13.7075 116 14.806 116 15.9998H118C118 15.282 118.251 14.6255 118.67 14.1093L117.119 12.8477ZM114.611 12.2125C115.514 12.8682 116.398 13.5488 117.262 14.2534L118.527 12.7035C117.633 11.9751 116.719 11.2715 115.785 10.5937L114.611 12.2125ZM112 13.9998C113.635 13.9998 115.086 13.2144 115.997 12.0045L114.399 10.8017C113.85 11.5312 112.98 11.9998 112 11.9998V13.9998ZM107 8.99978C107 11.7612 109.239 13.9998 112 13.9998V11.9998C110.343 11.9998 109 10.6566 109 8.99978H107ZM107.56 6.69844C107.202 7.38839 107 8.17196 107 8.99978H109C109 8.50025 109.121 8.03198 109.335 7.62001L107.56 6.69844ZM105.183 6.62849C106.127 7.07472 107.057 7.54526 107.973 8.03932L108.922 6.27914C107.976 5.7683 107.014 5.28174 106.037 4.82032L105.183 6.62849ZM102 8.99978C103.991 8.99978 105.708 7.83603 106.512 6.1561L104.708 5.29272C104.224 6.30442 103.192 6.99978 102 6.99978V8.99978ZM97 3.99978C97 6.7612 99.2386 8.99978 102 8.99978V6.99978C100.343 6.99978 99 5.65663 99 3.99978H97ZM97.2274 2.50544C97.0794 2.97854 97 3.48083 97 3.99978H99C99 3.68568 99.0479 3.38465 99.1362 3.10259L97.2274 2.50544ZM94.6583 2.83477C95.7443 3.11239 96.8182 3.42015 97.8791 3.7571L98.4845 1.85093C97.3873 1.50246 96.2767 1.18419 95.1537 0.897081L94.6583 2.83477ZM91 5.99978C93.3909 5.99978 95.3877 4.32263 95.8825 2.08149L93.9295 1.65036C93.6327 2.99469 92.4326 3.99978 91 3.99978V5.99978ZM86 0.99978C86 3.7612 88.2386 5.99978 91 5.99978V3.99978C89.3431 3.99978 88 2.65663 88 0.99978H86ZM86.0541 0.262331C86.0184 0.503517 86 0.749807 86 0.99978H88C88 0.848178 88.0112 0.699804 88.0326 0.555298L86.0541 0.262331ZM83.9323 1.1287C84.9377 1.19485 85.9362 1.28617 86.9272 1.40205L87.1595 -0.584418C86.135 -0.704214 85.1028 -0.798616 84.0635 -0.866984L83.9323 1.1287ZM80 4.99978C82.7068 4.99978 84.9109 2.84923 84.9974 0.163039L82.9984 0.0986801C82.9466 1.70942 81.6238 2.99978 80 2.99978V4.99978ZM75.0026 0.163039C75.0891 2.84923 77.2932 4.99978 80 4.99978V2.99978C78.3762 2.99978 77.0534 1.70942 77.0016 0.0986801L75.0026 0.163039ZM73.0728 1.40205C74.0638 1.28617 75.0623 1.19485 76.0677 1.1287L75.9365 -0.866984C74.8972 -0.798616 73.865 -0.704214 72.8405 -0.584418L73.0728 1.40205ZM74 0.99978C74 0.749807 73.9816 0.503517 73.9459 0.262331L71.9674 0.555298C71.9888 0.699804 72 0.848178 72 0.99978H74ZM69 5.99978C71.7614 5.99978 74 3.7612 74 0.99978H72C72 2.65663 70.6569 3.99978 69 3.99978V5.99978ZM64.1175 2.08149C64.6123 4.32263 66.6091 5.99978 69 5.99978V3.99978C67.5674 3.99978 66.3673 2.99469 66.0705 1.65036L64.1175 2.08149ZM62.1209 3.7571C63.1818 3.42015 64.2557 3.11239 65.3417 2.83477L64.8463 0.897081C63.7233 1.18419 62.6127 1.50246 61.5155 1.85093L62.1209 3.7571ZM63 3.99978C63 3.48083 62.9206 2.97855 62.7726 2.50543L60.8638 3.1026C60.9521 3.38465 61 3.68568 61 3.99978H63ZM58 8.99978C60.7614 8.99978 63 6.7612 63 3.99978H61C61 5.65663 59.6569 6.99978 58 6.99978V8.99978Z" fill="#22242D" mask="url(#path-1-inside-1_1437_49285)"/>
<g clip-path="url(#clip0_1437_49285)">
<rect x="28" y="8" width="104" height="144" rx="52" fill="#FFF4E3"/>
<circle cx="140" cy="83" r="104" fill="#FCCD56"/>
<circle cx="155" cy="83" r="80" fill="#EB9244"/>
<path d="M114.836 97.4863L112.932 102.817L111.409 106.243L105.657 104.069L114.836 97.4863Z" fill="#A68A34" stroke="#22242D" stroke-width="0.571112" stroke-linejoin="round"/>
<path d="M112.957 102.501L111.383 98.2657L108.334 96.1191L104.698 97.3186L103.817 99.3494L100.2 100.555L104.873 107.298L111.559 106.243L112.957 102.501Z" fill="#A68A34" stroke="#22242D" stroke-width="0.571112" stroke-linejoin="round"/>
<path d="M110.77 102.511L110.77 98.0475L108.335 96.1191L104.699 97.3186L103.669 99.1987L98.2429 101.007L100.504 107.186L108.212 105.92L110.77 102.511Z" fill="#FFE493" stroke="#22242D" stroke-width="0.571112" stroke-linejoin="round"/>
<path d="M97.7066 97.1055L110.687 102.633L108.193 105.982L102.918 106.736L97.7066 97.1055Z" fill="#FFE493" stroke="#22242D" stroke-width="0.571112" stroke-linejoin="round"/>
<path d="M112.57 101.198L111.047 98.1523L111.047 101.198L112.57 101.198Z" fill="#FFE493" stroke="#22242D" stroke-width="0.571112" stroke-linejoin="round"/>
<path d="M74.5938 43L73.3175 46.5735L72.2965 48.8708L68.4402 47.4134L74.5938 43Z" fill="#A68A34" stroke="#22242D" stroke-width="0.382879" stroke-linejoin="round"/>
<path d="M73.332 46.3623L72.2767 43.523L70.2326 42.084L67.795 42.8881L67.2047 44.2496L64.7798 45.0579L67.9122 49.5784L72.3947 48.8711L73.332 46.3623Z" fill="#A68A34" stroke="#22242D" stroke-width="0.382879" stroke-linejoin="round"/>
<path d="M71.8672 46.3694L71.8672 43.3767L70.2352 42.084L67.7976 42.8881L67.1066 44.1485L63.4692 45.361L64.9848 49.5035L70.1526 48.6549L71.8672 46.3694Z" fill="#FFE493" stroke="#22242D" stroke-width="0.382879" stroke-linejoin="round"/>
<path d="M63.1061 42.7441L71.8086 46.4498L70.1359 48.695L66.5996 49.2002L63.1061 42.7441Z" fill="#FFE493" stroke="#22242D" stroke-width="0.382879" stroke-linejoin="round"/>
<path d="M73.0703 45.4893L72.0493 43.4473L72.0493 45.4893L73.0703 45.4893Z" fill="#FFE493" stroke="#22242D" stroke-width="0.382879" stroke-linejoin="round"/>
<path d="M74.5938 117L73.3175 120.574L72.2965 122.871L68.4402 121.413L74.5938 117Z" fill="#A68A34" stroke="#22242D" stroke-width="0.382879" stroke-linejoin="round"/>
<path d="M73.332 120.362L72.2767 117.523L70.2326 116.084L67.795 116.888L67.2047 118.25L64.7798 119.058L67.9122 123.578L72.3947 122.871L73.332 120.362Z" fill="#A68A34" stroke="#22242D" stroke-width="0.382879" stroke-linejoin="round"/>
<path d="M71.8672 120.369L71.8672 117.377L70.2352 116.084L67.7976 116.888L67.1066 118.149L63.4692 119.361L64.9848 123.504L70.1526 122.655L71.8672 120.369Z" fill="#FFE493" stroke="#22242D" stroke-width="0.382879" stroke-linejoin="round"/>
<path d="M63.1061 116.744L71.8086 120.45L70.1359 122.695L66.5996 123.2L63.1061 116.744Z" fill="#FFE493" stroke="#22242D" stroke-width="0.382879" stroke-linejoin="round"/>
<path d="M73.0703 119.489L72.0493 117.447L72.0493 119.489L73.0703 119.489Z" fill="#FFE493" stroke="#22242D" stroke-width="0.382879" stroke-linejoin="round"/>
<path d="M56.5117 35.1953L55.3103 38.5592L54.3492 40.7217L50.7192 39.3498L56.5117 35.1953Z" fill="#A68A34" stroke="#22242D" stroke-width="0.360418" stroke-linejoin="round"/>
<path d="M55.3242 38.3594L54.3308 35.6867L52.4066 34.332L50.112 35.089L49.5563 36.3706L47.2736 37.1315L50.2223 41.3868L54.4419 40.721L55.3242 38.3594Z" fill="#A68A34" stroke="#22242D" stroke-width="0.360418" stroke-linejoin="round"/>
<path d="M53.9414 38.3661L53.9414 35.549L52.4052 34.332L50.1105 35.089L49.4601 36.2755L46.0361 37.4168L47.4628 41.3163L52.3274 40.5175L53.9414 38.3661Z" fill="#FFE493" stroke="#22242D" stroke-width="0.360418" stroke-linejoin="round"/>
<path d="M45.6986 34.9551L53.8906 38.4434L52.3161 40.5569L48.9872 41.0324L45.6986 34.9551Z" fill="#FFE493" stroke="#22242D" stroke-width="0.360418" stroke-linejoin="round"/>
<path d="M55.0781 37.5375L54.117 35.6152L54.117 37.5375L55.0781 37.5375Z" fill="#FFE493" stroke="#22242D" stroke-width="0.360418" stroke-linejoin="round"/>
<path d="M56.5117 122.824L55.3103 126.188L54.3492 128.351L50.7192 126.979L56.5117 122.824Z" fill="#A68A34" stroke="#22242D" stroke-width="0.360418" stroke-linejoin="round"/>
<path d="M55.3242 125.988L54.3308 123.316L52.4066 121.961L50.112 122.718L49.5563 123.999L47.2736 124.76L50.2223 129.016L54.4419 128.35L55.3242 125.988Z" fill="#A68A34" stroke="#22242D" stroke-width="0.360418" stroke-linejoin="round"/>
<path d="M53.9414 125.995L53.9414 123.178L52.4052 121.961L50.1105 122.718L49.4601 123.904L46.0361 125.046L47.4628 128.945L52.3274 128.146L53.9414 125.995Z" fill="#FFE493" stroke="#22242D" stroke-width="0.360418" stroke-linejoin="round"/>
<path d="M45.6986 122.584L53.8906 126.072L52.3161 128.186L48.9872 128.661L45.6986 122.584Z" fill="#FFE493" stroke="#22242D" stroke-width="0.360418" stroke-linejoin="round"/>
<path d="M55.0781 125.166L54.117 123.244L54.117 125.166L55.0781 125.166Z" fill="#FFE493" stroke="#22242D" stroke-width="0.360418" stroke-linejoin="round"/>
<path d="M114.836 59.9863L112.932 65.3167L111.409 68.7434L105.657 66.5695L114.836 59.9863Z" fill="#A68A34" stroke="#22242D" stroke-width="0.571112" stroke-linejoin="round"/>
<path d="M112.957 64.9989L111.383 60.7637L108.334 58.6172L104.698 59.8167L103.817 61.8474L100.2 63.0531L104.873 69.796L111.559 68.741L112.957 64.9989Z" fill="#A68A34" stroke="#22242D" stroke-width="0.571112" stroke-linejoin="round"/>
<path d="M110.77 65.0095L110.77 60.5455L108.335 58.6172L104.699 59.8167L103.669 61.6967L98.2429 63.5053L100.504 69.6844L108.212 68.4185L110.77 65.0095Z" fill="#FFE493" stroke="#22242D" stroke-width="0.571112" stroke-linejoin="round"/>
<path d="M97.7066 59.6035L110.687 65.131L108.193 68.48L102.918 69.2336L97.7066 59.6035Z" fill="#FFE493" stroke="#22242D" stroke-width="0.571112" stroke-linejoin="round"/>
<path d="M112.57 63.6963L111.047 60.6504L111.047 63.6963L112.57 63.6963Z" fill="#FFE493" stroke="#22242D" stroke-width="0.571112" stroke-linejoin="round"/>
<path d="M96.3281 49.1875L94.6791 53.8047L93.36 56.7728L88.3775 54.8898L96.3281 49.1875Z" fill="#A68A34" stroke="#22242D" stroke-width="0.494696" stroke-linejoin="round"/>
<path d="M94.6992 53.5319L93.3357 49.8635L90.6947 48.0042L87.5451 49.0432L86.7824 50.8022L83.6493 51.8465L87.6966 57.6872L93.4881 56.7734L94.6992 53.5319Z" fill="#A68A34" stroke="#22242D" stroke-width="0.494696" stroke-linejoin="round"/>
<path d="M92.8047 53.5409L92.8047 49.6742L90.6961 48.0039L87.5466 49.0429L86.6538 50.6714L81.9542 52.2379L83.9124 57.5903L90.5893 56.4938L92.8047 53.5409Z" fill="#FFE493" stroke="#22242D" stroke-width="0.494696" stroke-linejoin="round"/>
<path d="M81.4904 48.8594L92.7344 53.6473L90.5732 56.5482L86.0042 57.2009L81.4904 48.8594Z" fill="#FFE493" stroke="#22242D" stroke-width="0.494696" stroke-linejoin="round"/>
<path d="M94.3633 52.404L93.0441 49.7656L93.0441 52.404L94.3633 52.404Z" fill="#FFE493" stroke="#22242D" stroke-width="0.494696" stroke-linejoin="round"/>
<path d="M96.3281 109.875L94.6791 114.492L93.36 117.46L88.3775 115.577L96.3281 109.875Z" fill="#A68A34" stroke="#22242D" stroke-width="0.494696" stroke-linejoin="round"/>
<path d="M94.6992 114.219L93.3357 110.551L90.6947 108.692L87.5451 109.731L86.7824 111.49L83.6493 112.534L87.6966 118.375L93.4881 117.461L94.6992 114.219Z" fill="#A68A34" stroke="#22242D" stroke-width="0.494696" stroke-linejoin="round"/>
<path d="M92.8047 114.228L92.8047 110.362L90.6961 108.691L87.5466 109.73L86.6538 111.359L81.9542 112.925L83.9124 118.278L90.5893 117.181L92.8047 114.228Z" fill="#FFE493" stroke="#22242D" stroke-width="0.494696" stroke-linejoin="round"/>
<path d="M81.4904 109.547L92.7344 114.335L90.5732 117.236L86.0042 117.888L81.4904 109.547Z" fill="#FFE493" stroke="#22242D" stroke-width="0.494696" stroke-linejoin="round"/>
<path d="M94.3633 113.092L93.0441 110.453L93.0441 113.092L94.3633 113.092Z" fill="#FFE493" stroke="#22242D" stroke-width="0.494696" stroke-linejoin="round"/>
<path d="M122.707 78.2617L120.803 83.5921L119.28 87.0188L113.528 84.8448L122.707 78.2617Z" fill="#A68A34" stroke="#22242D" stroke-width="0.571112" stroke-linejoin="round"/>
<path d="M120.828 83.2762L119.254 79.041L116.205 76.8945L112.569 78.094L111.688 80.1248L108.071 81.3305L112.744 88.0733L119.43 87.0184L120.828 83.2762Z" fill="#A68A34" stroke="#22242D" stroke-width="0.571112" stroke-linejoin="round"/>
<path d="M118.641 83.2868L118.641 78.8228L116.206 76.8945L112.57 78.094L111.54 79.9741L106.114 81.7826L108.375 87.9617L116.083 86.6959L118.641 83.2868Z" fill="#FFE493" stroke="#22242D" stroke-width="0.571112" stroke-linejoin="round"/>
<path d="M105.574 77.8809L118.555 83.4084L116.06 86.7574L110.785 87.5109L105.574 77.8809Z" fill="#FFE493" stroke="#22242D" stroke-width="0.571112" stroke-linejoin="round"/>
<path d="M120.437 81.9737L118.915 78.9277L118.915 81.9737L120.437 81.9737Z" fill="#FFE493" stroke="#22242D" stroke-width="0.571112" stroke-linejoin="round"/>
<path d="M99.1406 80.3594L97.7114 84.3613L96.568 86.934L92.2494 85.3018L99.1406 80.3594Z" fill="#A68A34" stroke="#22242D" stroke-width="0.428778" stroke-linejoin="round"/>
<path d="M97.7266 84.1232L96.5448 80.9436L94.2556 79.332L91.5258 80.2326L90.8647 81.7572L88.1491 82.6624L91.657 87.7248L96.6768 86.9328L97.7266 84.1232Z" fill="#A68A34" stroke="#22242D" stroke-width="0.428778" stroke-linejoin="round"/>
<path d="M96.0859 84.1312L96.0859 80.7798L94.2583 79.332L91.5285 80.2326L90.7546 81.6441L86.6813 83.0019L88.3785 87.641L94.1658 86.6906L96.0859 84.1312Z" fill="#FFE493" stroke="#22242D" stroke-width="0.428778" stroke-linejoin="round"/>
<path d="M86.2777 80.0742L96.0234 84.2242L94.1503 86.7385L90.19 87.3043L86.2777 80.0742Z" fill="#FFE493" stroke="#22242D" stroke-width="0.428778" stroke-linejoin="round"/>
<path d="M97.4336 83.1462L96.2902 80.8594L96.2902 83.1462L97.4336 83.1462Z" fill="#FFE493" stroke="#22242D" stroke-width="0.428778" stroke-linejoin="round"/>
<path d="M85.1406 68.3594L83.7114 72.3613L82.568 74.934L78.2494 73.3018L85.1406 68.3594Z" fill="#A68A34" stroke="#22242D" stroke-width="0.428778" stroke-linejoin="round"/>
<path d="M83.7266 72.1232L82.5448 68.9436L80.2556 67.332L77.5258 68.2326L76.8647 69.7572L74.1491 70.6624L77.657 75.7248L82.6768 74.9328L83.7266 72.1232Z" fill="#A68A34" stroke="#22242D" stroke-width="0.428778" stroke-linejoin="round"/>
<path d="M82.0859 72.1312L82.0859 68.7798L80.2583 67.332L77.5285 68.2326L76.7546 69.6441L72.6813 71.0019L74.3785 75.641L80.1658 74.6906L82.0859 72.1312Z" fill="#FFE493" stroke="#22242D" stroke-width="0.428778" stroke-linejoin="round"/>
<path d="M72.2777 68.0742L82.0234 72.2242L80.1503 74.7385L76.19 75.3043L72.2777 68.0742Z" fill="#FFE493" stroke="#22242D" stroke-width="0.428778" stroke-linejoin="round"/>
<path d="M83.4336 71.1462L82.2902 68.8594L82.2902 71.1462L83.4336 71.1462Z" fill="#FFE493" stroke="#22242D" stroke-width="0.428778" stroke-linejoin="round"/>
<path d="M68.5625 61.2383L67.4921 64.2353L66.6358 66.162L63.4017 64.9397L68.5625 61.2383Z" fill="#A68A34" stroke="#22242D" stroke-width="0.321112" stroke-linejoin="round"/>
<path d="M67.5039 64.0569L66.6189 61.6756L64.9045 60.4687L62.8601 61.1432L62.365 62.285L60.3313 62.9629L62.9584 66.7541L66.7178 66.161L67.5039 64.0569Z" fill="#A68A34" stroke="#22242D" stroke-width="0.321112" stroke-linejoin="round"/>
<path d="M66.2773 64.0629L66.2773 61.553L64.9086 60.4687L62.8643 61.1432L62.2847 62.2002L59.2342 63.2171L60.5052 66.6913L64.8393 65.9796L66.2773 64.0629Z" fill="#FFE493" stroke="#22242D" stroke-width="0.321112" stroke-linejoin="round"/>
<path d="M58.9319 61.0254L66.2305 64.1333L64.8277 66.0163L61.8618 66.44L58.9319 61.0254Z" fill="#FFE493" stroke="#22242D" stroke-width="0.321112" stroke-linejoin="round"/>
<path d="M67.2852 63.3259L66.4289 61.6133L66.4289 63.3259L67.2852 63.3259Z" fill="#FFE493" stroke="#22242D" stroke-width="0.321112" stroke-linejoin="round"/>
<path d="M68.5625 98.5156L67.4921 101.513L66.6358 103.439L63.4017 102.217L68.5625 98.5156Z" fill="#A68A34" stroke="#22242D" stroke-width="0.321112" stroke-linejoin="round"/>
<path d="M67.5039 101.334L66.6189 98.953L64.9045 97.7461L62.8601 98.4205L62.365 99.5623L60.3313 100.24L62.9584 104.031L66.7178 103.438L67.5039 101.334Z" fill="#A68A34" stroke="#22242D" stroke-width="0.321112" stroke-linejoin="round"/>
<path d="M66.2773 101.34L66.2773 98.8303L64.9086 97.7461L62.8643 98.4205L62.2847 99.4776L59.2342 100.494L60.5052 103.969L64.8393 103.257L66.2773 101.34Z" fill="#FFE493" stroke="#22242D" stroke-width="0.321112" stroke-linejoin="round"/>
<path d="M58.9319 98.3027L66.2305 101.411L64.8277 103.294L61.8618 103.717L58.9319 98.3027Z" fill="#FFE493" stroke="#22242D" stroke-width="0.321112" stroke-linejoin="round"/>
<path d="M67.2852 100.603L66.4289 98.8906L66.4289 100.603L67.2852 100.603Z" fill="#FFE493" stroke="#22242D" stroke-width="0.321112" stroke-linejoin="round"/>
<path d="M56.3945 54.8906L55.5903 57.1425L54.9469 58.5902L52.5168 57.6718L56.3945 54.8906Z" fill="#A68A34" stroke="#22242D" stroke-width="0.241278" stroke-linejoin="round"/>
<path d="M55.5977 57.0086L54.9326 55.2193L53.6445 54.3125L52.1084 54.8193L51.7364 55.6772L50.2083 56.1866L52.1823 59.0352L55.007 58.5895L55.5977 57.0086Z" fill="#A68A34" stroke="#22242D" stroke-width="0.241278" stroke-linejoin="round"/>
<path d="M54.6758 57.0131L54.6758 55.1272L53.6474 54.3125L52.1112 54.8193L51.6758 55.6135L49.3837 56.3776L50.3387 58.9881L53.5953 58.4533L54.6758 57.0131Z" fill="#FFE493" stroke="#22242D" stroke-width="0.241278" stroke-linejoin="round"/>
<path d="M49.1566 54.7305L54.6406 57.0657L53.5866 58.4805L51.3581 58.7989L49.1566 54.7305Z" fill="#FFE493" stroke="#22242D" stroke-width="0.241278" stroke-linejoin="round"/>
<path d="M55.4336 56.4587L54.7902 55.1719L54.7902 56.4587L55.4336 56.4587Z" fill="#FFE493" stroke="#22242D" stroke-width="0.241278" stroke-linejoin="round"/>
<path d="M47.3945 48.8906L46.5903 51.1425L45.9469 52.5902L43.5168 51.6718L47.3945 48.8906Z" fill="#A68A34" stroke="#22242D" stroke-width="0.241278" stroke-linejoin="round"/>
<path d="M46.5977 51.0086L45.9326 49.2193L44.6445 48.3125L43.1084 48.8193L42.7364 49.6772L41.2083 50.1866L43.1823 53.0352L46.007 52.5895L46.5977 51.0086Z" fill="#A68A34" stroke="#22242D" stroke-width="0.241278" stroke-linejoin="round"/>
<path d="M45.6758 51.0131L45.6758 49.1272L44.6474 48.3125L43.1112 48.8193L42.6758 49.6135L40.3837 50.3776L41.3387 52.9881L44.5953 52.4533L45.6758 51.0131Z" fill="#FFE493" stroke="#22242D" stroke-width="0.241278" stroke-linejoin="round"/>
<path d="M40.1566 48.7305L45.6406 51.0657L44.5866 52.4805L42.3581 52.7989L40.1566 48.7305Z" fill="#FFE493" stroke="#22242D" stroke-width="0.241278" stroke-linejoin="round"/>
<path d="M46.4336 50.4587L45.7902 49.1719L45.7902 50.4587L46.4336 50.4587Z" fill="#FFE493" stroke="#22242D" stroke-width="0.241278" stroke-linejoin="round"/>
<path d="M36.3945 44.8906L35.5903 47.1425L34.9469 48.5902L32.5168 47.6718L36.3945 44.8906Z" fill="#A68A34" stroke="#22242D" stroke-width="0.241278" stroke-linejoin="round"/>
<path d="M35.5977 47.0086L34.9326 45.2193L33.6445 44.3125L32.1084 44.8193L31.7364 45.6772L30.2083 46.1866L32.1823 49.0352L35.007 48.5895L35.5977 47.0086Z" fill="#A68A34" stroke="#22242D" stroke-width="0.241278" stroke-linejoin="round"/>
<path d="M34.6758 47.0131L34.6758 45.1272L33.6474 44.3125L32.1112 44.8193L31.6758 45.6135L29.3837 46.3776L30.3387 48.9881L33.5953 48.4533L34.6758 47.0131Z" fill="#FFE493" stroke="#22242D" stroke-width="0.241278" stroke-linejoin="round"/>
<path d="M29.1566 44.7305L34.6406 47.0657L33.5866 48.4805L31.3581 48.7989L29.1566 44.7305Z" fill="#FFE493" stroke="#22242D" stroke-width="0.241278" stroke-linejoin="round"/>
<path d="M35.4336 46.4587L34.7902 45.1719L34.7902 46.4587L35.4336 46.4587Z" fill="#FFE493" stroke="#22242D" stroke-width="0.241278" stroke-linejoin="round"/>
<path d="M46.3945 111.891L45.5903 114.143L44.9469 115.59L42.5168 114.672L46.3945 111.891Z" fill="#A68A34" stroke="#22242D" stroke-width="0.241278" stroke-linejoin="round"/>
<path d="M45.5977 114.009L44.9326 112.219L43.6445 111.312L42.1084 111.819L41.7364 112.677L40.2083 113.187L42.1823 116.035L45.007 115.59L45.5977 114.009Z" fill="#A68A34" stroke="#22242D" stroke-width="0.241278" stroke-linejoin="round"/>
<path d="M44.6758 114.013L44.6758 112.127L43.6474 111.312L42.1112 111.819L41.6758 112.614L39.3837 113.378L40.3387 115.988L43.5953 115.453L44.6758 114.013Z" fill="#FFE493" stroke="#22242D" stroke-width="0.241278" stroke-linejoin="round"/>
<path d="M39.1566 111.73L44.6406 114.066L43.5866 115.481L41.3581 115.799L39.1566 111.73Z" fill="#FFE493" stroke="#22242D" stroke-width="0.241278" stroke-linejoin="round"/>
<path d="M45.4336 113.459L44.7902 112.172L44.7902 113.459L45.4336 113.459Z" fill="#FFE493" stroke="#22242D" stroke-width="0.241278" stroke-linejoin="round"/>
<path d="M37.3945 115.891L36.5903 118.143L35.9469 119.59L33.5168 118.672L37.3945 115.891Z" fill="#A68A34" stroke="#22242D" stroke-width="0.241278" stroke-linejoin="round"/>
<path d="M36.5977 118.009L35.9326 116.219L34.6445 115.312L33.1084 115.819L32.7364 116.677L31.2083 117.187L33.1823 120.035L36.007 119.59L36.5977 118.009Z" fill="#A68A34" stroke="#22242D" stroke-width="0.241278" stroke-linejoin="round"/>
<path d="M35.6758 118.013L35.6758 116.127L34.6474 115.312L33.1112 115.819L32.6758 116.614L30.3837 117.378L31.3387 119.988L34.5953 119.453L35.6758 118.013Z" fill="#FFE493" stroke="#22242D" stroke-width="0.241278" stroke-linejoin="round"/>
<path d="M30.1566 115.73L35.6406 118.066L34.5866 119.481L32.3581 119.799L30.1566 115.73Z" fill="#FFE493" stroke="#22242D" stroke-width="0.241278" stroke-linejoin="round"/>
<path d="M36.4336 117.459L35.7902 116.172L35.7902 117.459L36.4336 117.459Z" fill="#FFE493" stroke="#22242D" stroke-width="0.241278" stroke-linejoin="round"/>
<path d="M42.3945 29.8906L41.5903 32.1425L40.9469 33.5902L38.5168 32.6718L42.3945 29.8906Z" fill="#A68A34" stroke="#22242D" stroke-width="0.241278" stroke-linejoin="round"/>
<path d="M41.5977 32.0086L40.9326 30.2193L39.6445 29.3125L38.1084 29.8193L37.7364 30.6772L36.2083 31.1866L38.1823 34.0352L41.007 33.5895L41.5977 32.0086Z" fill="#A68A34" stroke="#22242D" stroke-width="0.241278" stroke-linejoin="round"/>
<path d="M40.6758 32.0131L40.6758 30.1272L39.6474 29.3125L38.1112 29.8193L37.6758 30.6135L35.3837 31.3776L36.3387 33.9881L39.5953 33.4533L40.6758 32.0131Z" fill="#FFE493" stroke="#22242D" stroke-width="0.241278" stroke-linejoin="round"/>
<path d="M35.1566 29.7305L40.6406 32.0657L39.5866 33.4805L37.3581 33.7989L35.1566 29.7305Z" fill="#FFE493" stroke="#22242D" stroke-width="0.241278" stroke-linejoin="round"/>
<path d="M41.4336 31.4587L40.7902 30.1719L40.7902 31.4587L41.4336 31.4587Z" fill="#FFE493" stroke="#22242D" stroke-width="0.241278" stroke-linejoin="round"/>
<path d="M42.3945 127.891L41.5903 130.143L40.9469 131.59L38.5168 130.672L42.3945 127.891Z" fill="#A68A34" stroke="#22242D" stroke-width="0.241278" stroke-linejoin="round"/>
<path d="M41.5977 130.009L40.9326 128.219L39.6445 127.312L38.1084 127.819L37.7364 128.677L36.2083 129.187L38.1823 132.035L41.007 131.59L41.5977 130.009Z" fill="#A68A34" stroke="#22242D" stroke-width="0.241278" stroke-linejoin="round"/>
<path d="M40.6758 130.013L40.6758 128.127L39.6474 127.312L38.1112 127.819L37.6758 128.614L35.3837 129.378L36.3387 131.988L39.5953 131.453L40.6758 130.013Z" fill="#FFE493" stroke="#22242D" stroke-width="0.241278" stroke-linejoin="round"/>
<path d="M35.1566 127.73L40.6406 130.066L39.5866 131.481L37.3581 131.799L35.1566 127.73Z" fill="#FFE493" stroke="#22242D" stroke-width="0.241278" stroke-linejoin="round"/>
<path d="M41.4336 129.459L40.7902 128.172L40.7902 129.459L41.4336 129.459Z" fill="#FFE493" stroke="#22242D" stroke-width="0.241278" stroke-linejoin="round"/>
<path d="M56.3945 105.891L55.5903 108.143L54.9469 109.59L52.5168 108.672L56.3945 105.891Z" fill="#A68A34" stroke="#22242D" stroke-width="0.241278" stroke-linejoin="round"/>
<path d="M55.5977 108.009L54.9326 106.219L53.6445 105.312L52.1084 105.819L51.7364 106.677L50.2083 107.187L52.1823 110.035L55.007 109.59L55.5977 108.009Z" fill="#A68A34" stroke="#22242D" stroke-width="0.241278" stroke-linejoin="round"/>
<path d="M54.6758 108.013L54.6758 106.127L53.6474 105.312L52.1112 105.819L51.6758 106.614L49.3837 107.378L50.3387 109.988L53.5953 109.453L54.6758 108.013Z" fill="#FFE493" stroke="#22242D" stroke-width="0.241278" stroke-linejoin="round"/>
<path d="M49.1566 105.73L54.6406 108.066L53.5866 109.481L51.3581 109.799L49.1566 105.73Z" fill="#FFE493" stroke="#22242D" stroke-width="0.241278" stroke-linejoin="round"/>
<path d="M55.4336 107.459L54.7902 106.172L54.7902 107.459L55.4336 107.459Z" fill="#FFE493" stroke="#22242D" stroke-width="0.241278" stroke-linejoin="round"/>
<path d="M85.1406 90.3594L83.7114 94.3613L82.568 96.934L78.2494 95.3018L85.1406 90.3594Z" fill="#A68A34" stroke="#22242D" stroke-width="0.428778" stroke-linejoin="round"/>
<path d="M83.7266 94.1232L82.5448 90.9436L80.2556 89.332L77.5258 90.2326L76.8647 91.7572L74.1491 92.6624L77.657 97.7248L82.6768 96.9328L83.7266 94.1232Z" fill="#A68A34" stroke="#22242D" stroke-width="0.428778" stroke-linejoin="round"/>
<path d="M82.0859 94.1312L82.0859 90.7798L80.2583 89.332L77.5285 90.2326L76.7546 91.6441L72.6813 93.0019L74.3785 97.641L80.1658 96.6906L82.0859 94.1312Z" fill="#FFE493" stroke="#22242D" stroke-width="0.428778" stroke-linejoin="round"/>
<path d="M72.2777 90.0742L82.0234 94.2242L80.1503 96.7385L76.19 97.3043L72.2777 90.0742Z" fill="#FFE493" stroke="#22242D" stroke-width="0.428778" stroke-linejoin="round"/>
<path d="M83.4336 93.1462L82.2902 90.8594L82.2902 93.1462L83.4336 93.1462Z" fill="#FFE493" stroke="#22242D" stroke-width="0.428778" stroke-linejoin="round"/>
<path d="M54.207 89H42.807C42.807 81.8 48.607 81.6 48.607 79.8C48.607 79.4 48.407 79.2 47.967 79.2C47.487 79.2 47.027 79.58 46.747 79.94L42.607 78C43.287 76.54 45.427 74.6 48.707 74.6C52.307 74.6 54.407 76.7 54.407 79.2C54.407 82.4 50.807 83.6 49.607 84.6H54.207V89ZM61.4 89.4C57.94 89.4 55.5 86.5 55.5 82C55.5 77.5 57.94 74.6 61.4 74.6C64.86 74.6 67.3 77.5 67.3 82C67.3 86.5 64.86 89.4 61.4 89.4ZM61.4 85C62.08 85 62.3 83.92 62.3 82C62.3 80.08 62.08 79 61.4 79C60.72 79 60.5 80.08 60.5 82C60.5 83.92 60.72 85 61.4 85Z" fill="#EB9244"/>
</g>
<rect x="28.5" y="8.5" width="103" height="143" rx="51.5" stroke="#18181A"/>
<defs>
<clipPath id="clip0_1437_49285">
<rect x="28" y="8" width="104" height="144" rx="52" fill="white"/>
</clipPath>
</defs>
</svg>
