<svg width="160" height="160" viewBox="0 0 160 160" fill="none" xmlns="http://www.w3.org/2000/svg">
<path d="M80.7585 7.02408L85.8424 10.0037C86.4733 10.3735 87.2345 10.4485 87.9255 10.2089L93.493 8.27832C94.0059 8.10046 94.575 8.21364 94.9808 8.57426L99.3857 12.4884C99.9324 12.9742 100.664 13.1963 101.389 13.0961L107.226 12.2888C107.764 12.2144 108.3 12.4364 108.627 12.8693L112.184 17.5676C112.625 18.1507 113.3 18.5113 114.03 18.5544L119.913 18.9014C120.455 18.9333 120.937 19.2556 121.174 19.7441L123.746 25.046C124.065 25.704 124.656 26.1893 125.364 26.374L131.065 27.8619C131.591 27.999 132.001 28.4092 132.138 28.9345L133.626 34.6363C133.811 35.3439 134.296 35.9352 134.954 36.2544L140.256 38.8261C140.744 39.063 141.067 39.5454 141.099 40.0874L141.446 45.9699C141.489 46.6999 141.849 47.3745 142.432 47.8159L147.131 51.3726C147.564 51.7003 147.786 52.2363 147.711 52.7741L146.904 58.6112C146.804 59.3356 147.026 60.0676 147.512 60.6143L151.426 65.0192C151.786 65.425 151.9 65.9941 151.722 66.507L149.791 72.0745C149.552 72.7655 149.627 73.5267 149.996 74.1576L152.976 79.2415C153.25 79.7099 153.25 80.2901 152.976 80.7585L149.996 85.8424C149.627 86.4733 149.552 87.2345 149.791 87.9255L151.722 93.493C151.9 94.0059 151.786 94.575 151.426 94.9808L147.512 99.3857C147.026 99.9324 146.804 100.664 146.904 101.389L147.711 107.226C147.786 107.764 147.564 108.3 147.131 108.627L142.432 112.184C141.849 112.625 141.489 113.3 141.446 114.03L141.099 119.913C141.067 120.455 140.744 120.937 140.256 121.174L134.954 123.746C134.296 124.065 133.811 124.656 133.626 125.364L132.138 131.065C132.001 131.591 131.591 132.001 131.065 132.138L125.364 133.626C124.656 133.811 124.065 134.296 123.746 134.954L121.174 140.256C120.937 140.744 120.455 141.067 119.913 141.099L114.03 141.446C113.3 141.489 112.625 141.849 112.184 142.432L108.627 147.131C108.3 147.564 107.764 147.786 107.226 147.711L101.389 146.904C100.664 146.804 99.9324 147.026 99.3857 147.512L94.9808 151.426C94.575 151.786 94.0059 151.9 93.493 151.722L87.9255 149.791C87.2345 149.552 86.4733 149.627 85.8424 149.996L80.7585 152.976C80.2901 153.25 79.7099 153.25 79.2415 152.976L74.1576 149.996C73.5267 149.627 72.7655 149.552 72.0745 149.791L66.507 151.722C65.9941 151.9 65.425 151.786 65.0192 151.426L60.6143 147.512C60.0676 147.026 59.3356 146.804 58.6112 146.904L52.7741 147.711C52.2363 147.786 51.7003 147.564 51.3726 147.131L47.8159 142.432C47.3745 141.849 46.6999 141.489 45.9699 141.446L40.0874 141.099C39.5454 141.067 39.063 140.744 38.8261 140.256L36.2544 134.954C35.9352 134.296 35.3439 133.811 34.6363 133.626L28.9345 132.138C28.4092 132.001 27.999 131.591 27.8619 131.065L26.374 125.364C26.1893 124.656 25.704 124.065 25.046 123.746L19.7441 121.174C19.2556 120.937 18.9333 120.455 18.9014 119.913L18.5544 114.03C18.5113 113.3 18.1507 112.625 17.5676 112.184L12.8693 108.627C12.4364 108.3 12.2144 107.764 12.2888 107.226L13.0961 101.389C13.1963 100.664 12.9742 99.9324 12.4884 99.3857L8.57426 94.9808C8.21364 94.575 8.10046 94.0059 8.27832 93.493L10.2089 87.9255C10.4485 87.2345 10.3735 86.4733 10.0037 85.8424L7.02408 80.7585C6.74956 80.2901 6.74956 79.7099 7.02408 79.2415L10.0037 74.1576C10.3735 73.5267 10.4485 72.7655 10.2089 72.0745L8.27832 66.507C8.10046 65.9941 8.21364 65.425 8.57426 65.0192L12.4884 60.6143C12.9742 60.0676 13.1963 59.3356 13.0961 58.6112L12.2888 52.7741C12.2144 52.2363 12.4364 51.7003 12.8693 51.3726L17.5676 47.8159C18.1507 47.3745 18.5113 46.6999 18.5544 45.9699L18.9014 40.0874C18.9333 39.5454 19.2556 39.063 19.7441 38.8261L25.046 36.2544C25.704 35.9352 26.1893 35.3439 26.374 34.6363L27.8619 28.9345C27.999 28.4092 28.4092 27.999 28.9345 27.8619L34.6363 26.374C35.3439 26.1893 35.9352 25.704 36.2544 25.046L38.8261 19.7441C39.063 19.2556 39.5454 18.9333 40.0874 18.9014L45.9699 18.5544C46.6999 18.5113 47.3745 18.1507 47.8159 17.5676L51.3726 12.8693C51.7003 12.4364 52.2363 12.2144 52.7741 12.2888L58.6112 13.0961C59.3356 13.1963 60.0676 12.9742 60.6143 12.4884L65.0192 8.57426C65.425 8.21364 65.9941 8.10046 66.507 8.27832L72.0745 10.2089C72.7655 10.4485 73.5267 10.3735 74.1576 10.0037L79.2415 7.02408C79.7099 6.74956 80.2901 6.74956 80.7585 7.02408Z" fill="#F2F4FF" stroke="#18181A"/>
<rect x="14.5" y="14.5" width="131" height="131" rx="65.5" fill="#F9E29C"/>
<rect x="14.5" y="14.5" width="131" height="131" rx="65.5" stroke="#22242D"/>
<circle cx="80" cy="80" r="58.5" stroke="#EDC17E"/>
<circle cx="80" cy="80" r="52.5" stroke="#EFAD60"/>
<circle cx="80" cy="80" r="47.5" stroke="#EB9244"/>
<circle cx="80" cy="80" r="43.5" stroke="#EB9244"/>
<circle cx="80" cy="80" r="39.5" stroke="#EB9244"/>
<circle cx="80" cy="80" r="35.5" stroke="#EB9244"/>
<circle cx="80" cy="80" r="31.5" stroke="#EB9244"/>
<circle cx="80" cy="80" r="27.5" stroke="#EB9244"/>
<circle cx="80" cy="80" r="23.5" stroke="#EB9244"/>
<circle cx="80" cy="80" r="19.5" stroke="#EB9244"/>
<rect x="106.6" y="111.6" width="8.8" height="8.8" rx="4.4" fill="#EB9244"/>
<rect x="106.6" y="111.6" width="8.8" height="8.8" rx="4.4" stroke="#F9E29C" stroke-width="0.8"/>
<rect x="109.398" y="112.801" width="3.2" height="3.2" rx="1.6" fill="#F9E29C"/>
<path d="M107.801 116.194C107.801 116.087 107.888 116 107.995 116H114.007C114.114 116 114.201 116.087 114.201 116.194V116.194C114.201 117.854 112.855 119.2 111.195 119.2H110.807C109.147 119.2 107.801 117.854 107.801 116.194V116.194Z" fill="#F9E29C"/>
<rect x="106.6" y="99.6" width="8.8" height="8.8" rx="4.4" fill="#EB9244"/>
<rect x="106.6" y="99.6" width="8.8" height="8.8" rx="4.4" stroke="#F9E29C" stroke-width="0.8"/>
<rect x="109.398" y="100.801" width="3.2" height="3.2" rx="1.6" fill="#F9E29C"/>
<path d="M107.801 104.194C107.801 104.087 107.888 104 107.995 104H114.007C114.114 104 114.201 104.087 114.201 104.194V104.194C114.201 105.854 112.855 107.2 111.195 107.2H110.807C109.147 107.2 107.801 105.854 107.801 104.194V104.194Z" fill="#F9E29C"/>
<rect x="91.6" y="97.6" width="8.8" height="8.8" rx="4.4" fill="#EB9244"/>
<rect x="91.6" y="97.6" width="8.8" height="8.8" rx="4.4" stroke="#F9E29C" stroke-width="0.8"/>
<rect x="94.3984" y="98.8008" width="3.2" height="3.2" rx="1.6" fill="#F9E29C"/>
<path d="M92.8008 102.194C92.8008 102.087 92.8876 102 92.9947 102H99.0068C99.114 102 99.2008 102.087 99.2008 102.194V102.194C99.2008 103.854 97.8549 105.2 96.1947 105.2H95.8068C94.1466 105.2 92.8008 103.854 92.8008 102.194V102.194Z" fill="#F9E29C"/>
<rect x="54.6" y="46.6" width="8.8" height="8.8" rx="4.4" fill="#EB9244"/>
<rect x="54.6" y="46.6" width="8.8" height="8.8" rx="4.4" stroke="#F9E29C" stroke-width="0.8"/>
<rect x="57.3984" y="47.8008" width="3.2" height="3.2" rx="1.6" fill="#F9E29C"/>
<path d="M55.8008 51.1939C55.8008 51.0868 55.8876 51 55.9947 51H62.0068C62.114 51 62.2008 51.0868 62.2008 51.1939V51.1939C62.2008 52.8541 60.8549 54.2 59.1947 54.2H58.8068C57.1466 54.2 55.8008 52.8541 55.8008 51.1939V51.1939Z" fill="#F9E29C"/>
<rect x="92.6" y="82.6" width="8.8" height="8.8" rx="4.4" fill="#EB9244"/>
<rect x="92.6" y="82.6" width="8.8" height="8.8" rx="4.4" stroke="#F9E29C" stroke-width="0.8"/>
<rect x="95.3984" y="83.8008" width="3.2" height="3.2" rx="1.6" fill="#F9E29C"/>
<path d="M93.8008 87.1939C93.8008 87.0868 93.8876 87 93.9947 87H100.007C100.114 87 100.201 87.0868 100.201 87.1939V87.1939C100.201 88.8541 98.8549 90.2 97.1947 90.2H96.8068C95.1466 90.2 93.8008 88.8541 93.8008 87.1939V87.1939Z" fill="#F9E29C"/>
<rect x="63.6" y="55.6" width="8.8" height="8.8" rx="4.4" fill="#EB9244"/>
<rect x="63.6" y="55.6" width="8.8" height="8.8" rx="4.4" stroke="#F9E29C" stroke-width="0.8"/>
<rect x="66.3984" y="56.8008" width="3.2" height="3.2" rx="1.6" fill="#F9E29C"/>
<path d="M64.8008 60.1939C64.8008 60.0868 64.8876 60 64.9947 60H71.0068C71.114 60 71.2008 60.0868 71.2008 60.1939V60.1939C71.2008 61.8541 69.8549 63.2 68.1947 63.2H67.8068C66.1466 63.2 64.8008 61.8541 64.8008 60.1939V60.1939Z" fill="#F9E29C"/>
<rect x="42.6" y="51.6" width="8.8" height="8.8" rx="4.4" fill="#EB9244"/>
<rect x="42.6" y="51.6" width="8.8" height="8.8" rx="4.4" stroke="#F9E29C" stroke-width="0.8"/>
<rect x="45.3984" y="52.8008" width="3.2" height="3.2" rx="1.6" fill="#F9E29C"/>
<path d="M43.8008 56.1939C43.8008 56.0868 43.8876 56 43.9947 56H50.0068C50.114 56 50.2008 56.0868 50.2008 56.1939V56.1939C50.2008 57.8541 48.8549 59.2 47.1947 59.2H46.8068C45.1466 59.2 43.8008 57.8541 43.8008 56.1939V56.1939Z" fill="#F9E29C"/>
<rect x="50.6" y="59.6" width="8.8" height="8.8" rx="4.4" fill="#EB9244"/>
<rect x="50.6" y="59.6" width="8.8" height="8.8" rx="4.4" stroke="#F9E29C" stroke-width="0.8"/>
<rect x="53.3984" y="60.8008" width="3.2" height="3.2" rx="1.6" fill="#F9E29C"/>
<path d="M51.8008 64.1939C51.8008 64.0868 51.8876 64 51.9947 64H58.0068C58.114 64 58.2008 64.0868 58.2008 64.1939V64.1939C58.2008 65.8541 56.8549 67.2 55.1947 67.2H54.8068C53.1466 67.2 51.8008 65.8541 51.8008 64.1939V64.1939Z" fill="#F9E29C"/>
<rect x="44.6" y="39.6" width="8.8" height="8.8" rx="4.4" fill="#EB9244"/>
<rect x="44.6" y="39.6" width="8.8" height="8.8" rx="4.4" stroke="#F9E29C" stroke-width="0.8"/>
<rect x="47.3984" y="40.8008" width="3.2" height="3.2" rx="1.6" fill="#F9E29C"/>
<path d="M45.8008 44.1939C45.8008 44.0868 45.8876 44 45.9947 44H52.0068C52.114 44 52.2008 44.0868 52.2008 44.1939V44.1939C52.2008 45.8541 50.8549 47.2 49.1947 47.2H48.8068C47.1466 47.2 45.8008 45.8541 45.8008 44.1939V44.1939Z" fill="#F9E29C"/>
<rect x="33.6" y="42.6" width="8.8" height="8.8" rx="4.4" fill="#EFAD60"/>
<rect x="33.6" y="42.6" width="8.8" height="8.8" rx="4.4" stroke="#F9E29C" stroke-width="0.8"/>
<rect x="36.3984" y="43.8008" width="3.2" height="3.2" rx="1.6" fill="#F9E29C"/>
<path d="M34.8008 47.1939C34.8008 47.0868 34.8876 47 34.9947 47H41.0068C41.114 47 41.2008 47.0868 41.2008 47.1939V47.1939C41.2008 48.8541 39.8549 50.2 38.1947 50.2H37.8068C36.1466 50.2 34.8008 48.8541 34.8008 47.1939V47.1939Z" fill="#F9E29C"/>
<rect x="120.6" y="113.6" width="8.8" height="8.8" rx="4.4" fill="#EDC17E"/>
<rect x="120.6" y="113.6" width="8.8" height="8.8" rx="4.4" stroke="#F9E29C" stroke-width="0.8"/>
<rect x="123.398" y="114.801" width="3.2" height="3.2" rx="1.6" fill="#F9E29C"/>
<path d="M121.801 118.194C121.801 118.087 121.888 118 121.995 118H128.007C128.114 118 128.201 118.087 128.201 118.194V118.194C128.201 119.854 126.855 121.2 125.195 121.2H124.807C123.147 121.2 121.801 119.854 121.801 118.194V118.194Z" fill="#F9E29C"/>
<path d="M79.93 83H74.88V81.17H76.33V78.07C76.09 78.28 75.66 78.42 75.13 78.42V76.92C75.98 76.85 76.41 76.34 76.6 76H78.58V81.17H79.93V83ZM83.63 83.2C81.96 83.2 80.73 81.75 80.73 79.5C80.73 77.25 81.96 75.8 83.63 75.8C85.3 75.8 86.53 77.25 86.53 79.5C86.53 81.75 85.3 83.2 83.63 83.2ZM83.63 81.22C84.08 81.22 84.33 80.65 84.33 79.5C84.33 78.34 84.08 77.77 83.63 77.77C83.18 77.77 82.93 78.34 82.93 79.5C82.93 80.65 83.18 81.22 83.63 81.22Z" fill="#BF6719"/>
<mask id="path-47-outside-1_1437_49507" maskUnits="userSpaceOnUse" x="64" y="25" width="34" height="12" fill="black">
<rect fill="white" x="64" y="25" width="34" height="12"/>
<path d="M66.6988 33H65.1988V26H68.1788C69.6288 26 70.6488 27.02 70.6488 28.35C70.6488 29.67 69.6288 30.7 68.1788 30.7H66.6988V33ZM66.6988 27.35V29.35H68.1288C68.6988 29.35 69.1488 28.9 69.1488 28.35C69.1488 27.8 68.6988 27.35 68.1288 27.35H66.6988ZM73.5965 33.1C72.1265 33.1 70.9965 31.97 70.9965 30.57C70.9965 29.17 72.1265 28.05 73.5265 28.05C74.9265 28.05 75.9765 29.1 75.9765 30.47C75.9765 30.69 75.9465 30.9 75.9265 31H72.3965C72.4765 31.47 72.9765 31.95 73.6965 31.95C74.2665 31.95 74.6865 31.69 74.9565 31.45L75.6665 32.3C75.3165 32.67 74.5665 33.1 73.5965 33.1ZM72.3865 30.07H74.6065C74.4865 29.56 74.1065 29.17 73.5265 29.17C72.9165 29.17 72.5365 29.56 72.3865 30.07ZM79.2313 33.1C77.7613 33.1 76.6313 31.97 76.6313 30.57C76.6313 29.17 77.7613 28.05 79.2313 28.05C80.7113 28.05 81.8313 29.17 81.8313 30.57C81.8313 31.97 80.7113 33.1 79.2313 33.1ZM79.2313 31.85C79.9113 31.85 80.4613 31.3 80.4613 30.57C80.4613 29.85 79.9113 29.3 79.2313 29.3C78.5613 29.3 78.0113 29.85 78.0113 30.57C78.0113 31.3 78.5613 31.85 79.2313 31.85ZM84.1797 35.1H82.8297V28.15H84.1797V28.84H84.2097C84.4097 28.5 84.9597 28.05 85.7597 28.05C86.9297 28.05 87.9597 29.07 87.9597 30.57C87.9597 32.07 86.9297 33.1 85.7597 33.1C84.9597 33.1 84.4097 32.65 84.2097 32.31H84.1797V35.1ZM85.3797 31.85C86.0297 31.85 86.5797 31.3 86.5797 30.57C86.5797 29.85 86.0297 29.3 85.3797 29.3C84.7297 29.3 84.1797 29.85 84.1797 30.57C84.1797 31.3 84.7297 31.85 85.3797 31.85ZM90.3625 33H89.0125V26H90.3625V33ZM94.0164 33.1C92.5464 33.1 91.4164 31.97 91.4164 30.57C91.4164 29.17 92.5464 28.05 93.9464 28.05C95.3464 28.05 96.3964 29.1 96.3964 30.47C96.3964 30.69 96.3664 30.9 96.3464 31H92.8164C92.8964 31.47 93.3964 31.95 94.1164 31.95C94.6864 31.95 95.1064 31.69 95.3764 31.45L96.0864 32.3C95.7364 32.67 94.9864 33.1 94.0164 33.1ZM92.8064 30.07H95.0264C94.9064 29.56 94.5264 29.17 93.9464 29.17C93.3364 29.17 92.9564 29.56 92.8064 30.07Z"/>
</mask>
<path d="M66.6988 33H65.1988V26H68.1788C69.6288 26 70.6488 27.02 70.6488 28.35C70.6488 29.67 69.6288 30.7 68.1788 30.7H66.6988V33ZM66.6988 27.35V29.35H68.1288C68.6988 29.35 69.1488 28.9 69.1488 28.35C69.1488 27.8 68.6988 27.35 68.1288 27.35H66.6988ZM73.5965 33.1C72.1265 33.1 70.9965 31.97 70.9965 30.57C70.9965 29.17 72.1265 28.05 73.5265 28.05C74.9265 28.05 75.9765 29.1 75.9765 30.47C75.9765 30.69 75.9465 30.9 75.9265 31H72.3965C72.4765 31.47 72.9765 31.95 73.6965 31.95C74.2665 31.95 74.6865 31.69 74.9565 31.45L75.6665 32.3C75.3165 32.67 74.5665 33.1 73.5965 33.1ZM72.3865 30.07H74.6065C74.4865 29.56 74.1065 29.17 73.5265 29.17C72.9165 29.17 72.5365 29.56 72.3865 30.07ZM79.2313 33.1C77.7613 33.1 76.6313 31.97 76.6313 30.57C76.6313 29.17 77.7613 28.05 79.2313 28.05C80.7113 28.05 81.8313 29.17 81.8313 30.57C81.8313 31.97 80.7113 33.1 79.2313 33.1ZM79.2313 31.85C79.9113 31.85 80.4613 31.3 80.4613 30.57C80.4613 29.85 79.9113 29.3 79.2313 29.3C78.5613 29.3 78.0113 29.85 78.0113 30.57C78.0113 31.3 78.5613 31.85 79.2313 31.85ZM84.1797 35.1H82.8297V28.15H84.1797V28.84H84.2097C84.4097 28.5 84.9597 28.05 85.7597 28.05C86.9297 28.05 87.9597 29.07 87.9597 30.57C87.9597 32.07 86.9297 33.1 85.7597 33.1C84.9597 33.1 84.4097 32.65 84.2097 32.31H84.1797V35.1ZM85.3797 31.85C86.0297 31.85 86.5797 31.3 86.5797 30.57C86.5797 29.85 86.0297 29.3 85.3797 29.3C84.7297 29.3 84.1797 29.85 84.1797 30.57C84.1797 31.3 84.7297 31.85 85.3797 31.85ZM90.3625 33H89.0125V26H90.3625V33ZM94.0164 33.1C92.5464 33.1 91.4164 31.97 91.4164 30.57C91.4164 29.17 92.5464 28.05 93.9464 28.05C95.3464 28.05 96.3964 29.1 96.3964 30.47C96.3964 30.69 96.3664 30.9 96.3464 31H92.8164C92.8964 31.47 93.3964 31.95 94.1164 31.95C94.6864 31.95 95.1064 31.69 95.3764 31.45L96.0864 32.3C95.7364 32.67 94.9864 33.1 94.0164 33.1ZM92.8064 30.07H95.0264C94.9064 29.56 94.5264 29.17 93.9464 29.17C93.3364 29.17 92.9564 29.56 92.8064 30.07Z" fill="#BF6719"/>
<path d="M66.6988 33V34H67.6988V33H66.6988ZM65.1988 33H64.1988V34H65.1988V33ZM65.1988 26V25H64.1988V26H65.1988ZM66.6988 30.7V29.7H65.6988V30.7H66.6988ZM66.6988 27.35V26.35H65.6988V27.35H66.6988ZM66.6988 29.35H65.6988V30.35H66.6988V29.35ZM66.6988 32H65.1988V34H66.6988V32ZM66.1988 33V26H64.1988V33H66.1988ZM65.1988 27H68.1788V25H65.1988V27ZM68.1788 27C69.1098 27 69.6488 27.605 69.6488 28.35H71.6488C71.6488 26.435 70.1478 25 68.1788 25V27ZM69.6488 28.35C69.6488 29.0878 69.107 29.7 68.1788 29.7V31.7C70.1507 31.7 71.6488 30.2522 71.6488 28.35H69.6488ZM68.1788 29.7H66.6988V31.7H68.1788V29.7ZM65.6988 30.7V33H67.6988V30.7H65.6988ZM65.6988 27.35V29.35H67.6988V27.35H65.6988ZM66.6988 30.35H68.1288V28.35H66.6988V30.35ZM68.1288 30.35C69.2382 30.35 70.1488 29.4652 70.1488 28.35H68.1488C68.1488 28.3504 68.1488 28.3498 68.1491 28.3485C68.1493 28.3473 68.1497 28.3462 68.1501 28.3452C68.1509 28.3434 68.1513 28.3434 68.1503 28.3443C68.1494 28.3452 68.1478 28.3465 68.1453 28.3475C68.1441 28.348 68.1424 28.3486 68.1401 28.349C68.1378 28.3495 68.1341 28.35 68.1288 28.35V30.35ZM70.1488 28.35C70.1488 27.2348 69.2382 26.35 68.1288 26.35V28.35C68.1341 28.35 68.1378 28.3505 68.1401 28.351C68.1424 28.3514 68.1441 28.352 68.1453 28.3525C68.1478 28.3535 68.1494 28.3548 68.1503 28.3557C68.1513 28.3566 68.1509 28.3566 68.1501 28.3548C68.1497 28.3538 68.1493 28.3527 68.1491 28.3515C68.1488 28.3502 68.1488 28.3496 68.1488 28.35H70.1488ZM68.1288 26.35H66.6988V28.35H68.1288V26.35ZM75.9265 31V32H76.7463L76.9071 31.1961L75.9265 31ZM72.3965 31V30H71.2119L71.4107 31.1678L72.3965 31ZM74.9565 31.45L75.724 30.8089L75.0629 30.0175L74.2921 30.7026L74.9565 31.45ZM75.6665 32.3L76.393 32.9872L77.0039 32.3413L76.434 31.6589L75.6665 32.3ZM72.3865 30.07L71.4271 29.7878L71.05 31.07H72.3865V30.07ZM74.6065 30.07V31.07H75.8691L75.5799 29.841L74.6065 30.07ZM73.5965 32.1C72.6608 32.1 71.9965 31.3999 71.9965 30.57H69.9965C69.9965 32.5401 71.5921 34.1 73.5965 34.1V32.1ZM71.9965 30.57C71.9965 29.7274 72.6736 29.05 73.5265 29.05V27.05C71.5794 27.05 69.9965 28.6126 69.9965 30.57H71.9965ZM73.5265 29.05C74.3823 29.05 74.9765 29.6604 74.9765 30.47H76.9765C76.9765 28.5396 75.4706 27.05 73.5265 27.05V29.05ZM74.9765 30.47C74.9765 30.5366 74.9718 30.6074 74.9648 30.6725C74.9576 30.7386 74.9494 30.7863 74.9459 30.8039L76.9071 31.1961C76.9375 31.0439 76.9765 30.7674 76.9765 30.47H74.9765ZM75.9265 30H72.3965V32H75.9265V30ZM71.4107 31.1678C71.581 32.1687 72.5418 32.95 73.6965 32.95V30.95C73.5643 30.95 73.4782 30.9077 73.4285 30.8683C73.3685 30.8206 73.3754 30.7914 73.3823 30.8322L71.4107 31.1678ZM73.6965 32.95C74.592 32.95 75.2386 32.5372 75.6208 32.1974L74.2921 30.7026C74.1343 30.8428 73.941 30.95 73.6965 30.95V32.95ZM74.189 32.0911L74.899 32.9411L76.434 31.6589L75.724 30.8089L74.189 32.0911ZM74.94 31.6128C74.7742 31.7881 74.2848 32.1 73.5965 32.1V34.1C74.8481 34.1 75.8588 33.5519 76.393 32.9872L74.94 31.6128ZM72.3865 31.07H74.6065V29.07H72.3865V31.07ZM75.5799 29.841C75.3753 28.9713 74.6589 28.17 73.5265 28.17V30.17C73.5579 30.17 73.5713 30.175 73.5727 30.1755C73.5742 30.1761 73.5748 30.1763 73.5769 30.1781C73.5818 30.1825 73.6131 30.2143 73.6331 30.299L75.5799 29.841ZM73.5265 28.17C72.375 28.17 71.6723 28.9542 71.4271 29.7878L73.3458 30.3522C73.3771 30.2459 73.4176 30.2026 73.4311 30.1912C73.4372 30.186 73.4426 30.1828 73.4507 30.1798C73.459 30.1769 73.4819 30.17 73.5265 30.17V28.17ZM79.2313 32.1C78.2956 32.1 77.6313 31.3999 77.6313 30.57H75.6313C75.6313 32.5401 77.2269 34.1 79.2313 34.1V32.1ZM77.6313 30.57C77.6313 29.7452 78.2904 29.05 79.2313 29.05V27.05C77.2321 27.05 75.6313 28.5948 75.6313 30.57H77.6313ZM79.2313 29.05C80.1796 29.05 80.8313 29.7427 80.8313 30.57H82.8313C82.8313 28.5973 81.2429 27.05 79.2313 27.05V29.05ZM80.8313 30.57C80.8313 31.4024 80.1744 32.1 79.2313 32.1V34.1C81.2481 34.1 82.8313 32.5376 82.8313 30.57H80.8313ZM79.2313 32.85C80.4895 32.85 81.4613 31.826 81.4613 30.57H79.4613C79.4613 30.6782 79.4229 30.747 79.3844 30.7865C79.3455 30.8265 79.2946 30.85 79.2313 30.85V32.85ZM81.4613 30.57C81.4613 29.3188 80.4844 28.3 79.2313 28.3V30.3C79.2949 30.3 79.3468 30.3238 79.3863 30.3642C79.4254 30.4042 79.4613 30.4704 79.4613 30.57H81.4613ZM79.2313 28.3C77.9829 28.3 77.0113 29.3242 77.0113 30.57H79.0113C79.0113 30.3758 79.1396 30.3 79.2313 30.3V28.3ZM77.0113 30.57C77.0113 31.8206 77.9778 32.85 79.2313 32.85V30.85C79.1769 30.85 79.1284 30.8295 79.0888 30.7885C79.0499 30.7483 79.0113 30.6784 79.0113 30.57H77.0113ZM84.1797 35.1V36.1H85.1797V35.1H84.1797ZM82.8297 35.1H81.8297V36.1H82.8297V35.1ZM82.8297 28.15V27.15H81.8297V28.15H82.8297ZM84.1797 28.15H85.1797V27.15H84.1797V28.15ZM84.1797 28.84H83.1797V29.84H84.1797V28.84ZM84.2097 28.84V29.84H84.7816L85.0716 29.347L84.2097 28.84ZM84.2097 32.31L85.0716 31.803L84.7816 31.31H84.2097V32.31ZM84.1797 32.31V31.31H83.1797V32.31H84.1797ZM84.1797 34.1H82.8297V36.1H84.1797V34.1ZM83.8297 35.1V28.15H81.8297V35.1H83.8297ZM82.8297 29.15H84.1797V27.15H82.8297V29.15ZM83.1797 28.15V28.84H85.1797V28.15H83.1797ZM84.1797 29.84H84.2097V27.84H84.1797V29.84ZM85.0716 29.347C85.0711 29.3479 85.0853 29.3248 85.1223 29.2887C85.1578 29.254 85.2066 29.2149 85.2681 29.1786C85.3889 29.1073 85.5523 29.05 85.7597 29.05V27.05C84.5843 27.05 83.7165 27.7061 83.3478 28.333L85.0716 29.347ZM85.7597 29.05C86.2931 29.05 86.9597 29.5341 86.9597 30.57H88.9597C88.9597 28.6059 87.5663 27.05 85.7597 27.05V29.05ZM86.9597 30.57C86.9597 31.6115 86.2881 32.1 85.7597 32.1V34.1C87.5713 34.1 88.9597 32.5285 88.9597 30.57H86.9597ZM85.7597 32.1C85.5523 32.1 85.3889 32.0427 85.2681 31.9714C85.2066 31.9351 85.1578 31.896 85.1223 31.8613C85.0853 31.8252 85.0711 31.8021 85.0716 31.803L83.3478 32.817C83.7165 33.4439 84.5843 34.1 85.7597 34.1V32.1ZM84.2097 31.31H84.1797V33.31H84.2097V31.31ZM83.1797 32.31V35.1H85.1797V32.31H83.1797ZM85.3797 32.85C86.6236 32.85 87.5797 31.8097 87.5797 30.57H85.5797C85.5797 30.7903 85.4357 30.85 85.3797 30.85V32.85ZM87.5797 30.57C87.5797 29.335 86.6186 28.3 85.3797 28.3V30.3C85.4408 30.3 85.5797 30.365 85.5797 30.57H87.5797ZM85.3797 28.3C84.1408 28.3 83.1797 29.335 83.1797 30.57H85.1797C85.1797 30.365 85.3186 30.3 85.3797 30.3V28.3ZM83.1797 30.57C83.1797 31.8097 84.1357 32.85 85.3797 32.85V30.85C85.3236 30.85 85.1797 30.7903 85.1797 30.57H83.1797ZM90.3625 33V34H91.3625V33H90.3625ZM89.0125 33H88.0125V34H89.0125V33ZM89.0125 26V25H88.0125V26H89.0125ZM90.3625 26H91.3625V25H90.3625V26ZM90.3625 32H89.0125V34H90.3625V32ZM90.0125 33V26H88.0125V33H90.0125ZM89.0125 27H90.3625V25H89.0125V27ZM89.3625 26V33H91.3625V26H89.3625ZM96.3464 31V32H97.1662L97.327 31.1961L96.3464 31ZM92.8164 31V30H91.6318L91.8306 31.1678L92.8164 31ZM95.3764 31.45L96.1439 30.8089L95.4828 30.0175L94.712 30.7026L95.3764 31.45ZM96.0864 32.3L96.8129 32.9872L97.4239 32.3413L96.8539 31.6589L96.0864 32.3ZM92.8064 30.07L91.847 29.7878L91.4699 31.07H92.8064V30.07ZM95.0264 30.07V31.07H96.289L95.9998 29.841L95.0264 30.07ZM94.0164 32.1C93.0807 32.1 92.4164 31.3999 92.4164 30.57H90.4164C90.4164 32.5401 92.0121 34.1 94.0164 34.1V32.1ZM92.4164 30.57C92.4164 29.7274 93.0935 29.05 93.9464 29.05V27.05C91.9993 27.05 90.4164 28.6126 90.4164 30.57H92.4164ZM93.9464 29.05C94.8023 29.05 95.3964 29.6604 95.3964 30.47H97.3964C97.3964 28.5396 95.8906 27.05 93.9464 27.05V29.05ZM95.3964 30.47C95.3964 30.5366 95.3917 30.6074 95.3847 30.6725C95.3776 30.7386 95.3693 30.7863 95.3658 30.8039L97.327 31.1961C97.3574 31.0439 97.3964 30.7674 97.3964 30.47H95.3964ZM96.3464 30H92.8164V32H96.3464V30ZM91.8306 31.1678C92.001 32.1687 92.9617 32.95 94.1164 32.95V30.95C93.9843 30.95 93.8981 30.9077 93.8484 30.8683C93.7884 30.8206 93.7953 30.7914 93.8022 30.8322L91.8306 31.1678ZM94.1164 32.95C95.0119 32.95 95.6586 32.5372 96.0408 32.1974L94.712 30.7026C94.5543 30.8428 94.3609 30.95 94.1164 30.95V32.95ZM94.6089 32.0911L95.3189 32.9411L96.8539 31.6589L96.1439 30.8089L94.6089 32.0911ZM95.3599 31.6128C95.1941 31.7881 94.7048 32.1 94.0164 32.1V34.1C95.2681 34.1 96.2787 33.5519 96.8129 32.9872L95.3599 31.6128ZM92.8064 31.07H95.0264V29.07H92.8064V31.07ZM95.9998 29.841C95.7952 28.9713 95.0788 28.17 93.9464 28.17V30.17C93.9779 30.17 93.9912 30.175 93.9927 30.1755C93.9942 30.1761 93.9947 30.1763 93.9968 30.1781C94.0017 30.1825 94.0331 30.2143 94.053 30.299L95.9998 29.841ZM93.9464 28.17C92.7949 28.17 92.0922 28.9542 91.847 29.7878L93.7658 30.3522C93.797 30.2459 93.8375 30.2026 93.851 30.1912C93.8571 30.186 93.8625 30.1828 93.8706 30.1798C93.8789 30.1769 93.9018 30.17 93.9464 30.17V28.17Z" fill="#F9E29C" mask="url(#path-47-outside-1_1437_49507)"/>
<mask id="path-49-outside-2_1437_49507" maskUnits="userSpaceOnUse" x="62" y="123" width="37" height="11" fill="black">
<rect fill="white" x="62" y="123" width="37" height="11"/>
<path d="M65.4342 132H63.9342V125H66.9142C68.3642 125 69.3842 126.02 69.3842 127.35C69.3842 128.67 68.3642 129.7 66.9142 129.7H65.4342V132ZM65.4342 126.35V128.35H66.8642C67.4342 128.35 67.8842 127.9 67.8842 127.35C67.8842 126.8 67.4342 126.35 66.8642 126.35H65.4342ZM71.6846 132H70.3346V127.15H71.6846V127.75H71.7146C71.9146 127.45 72.4146 127.05 73.0846 127.05H73.3146V128.5C73.2246 128.47 73.0446 128.42 72.8646 128.42C72.1846 128.42 71.6846 128.92 71.6846 129.72V132ZM76.015 127.05C77.295 127.05 78.145 127.9 78.145 128.95V132H76.865V131.33H76.835C76.635 131.66 76.105 132.1 75.375 132.1C74.435 132.1 73.765 131.45 73.765 130.7C73.765 129.87 74.315 129.32 75.265 129.14L76.795 128.85C76.775 128.47 76.435 128.15 75.945 128.15C75.425 128.15 75.055 128.45 74.815 128.72L74.045 127.98C74.395 127.56 75.075 127.05 76.015 127.05ZM75.765 131.02C76.345 131.02 76.795 130.57 76.795 129.9V129.74L75.745 129.95C75.365 130.02 75.145 130.25 75.145 130.5C75.145 130.8 75.365 131.02 75.765 131.02ZM80.1271 126.42C79.6971 126.42 79.3471 126.1 79.3471 125.67C79.3471 125.25 79.6971 124.92 80.1271 124.92C80.5471 124.92 80.8971 125.25 80.8971 125.67C80.8971 126.1 80.5471 126.42 80.1271 126.42ZM80.7971 132H79.4471V127.15H80.7971V132ZM83.851 132.1C82.891 132.1 82.111 131.59 81.781 131.2L82.551 130.4C82.771 130.64 83.221 130.97 83.761 130.97C84.191 130.97 84.401 130.79 84.401 130.55C84.401 129.88 82.001 130.17 82.001 128.51C82.001 127.72 82.681 127.05 83.881 127.05C84.771 127.05 85.461 127.45 85.751 127.75L84.981 128.55C84.811 128.39 84.471 128.17 84.031 128.17C83.631 128.17 83.431 128.35 83.431 128.53C83.431 129.19 85.831 128.92 85.831 130.58C85.831 131.4 85.131 132.1 83.851 132.1ZM89.0994 132.1C87.6294 132.1 86.4994 130.97 86.4994 129.57C86.4994 128.17 87.6294 127.05 89.0294 127.05C90.4294 127.05 91.4794 128.1 91.4794 129.47C91.4794 129.69 91.4494 129.9 91.4294 130H87.8994C87.9794 130.47 88.4794 130.95 89.1994 130.95C89.7694 130.95 90.1894 130.69 90.4594 130.45L91.1694 131.3C90.8194 131.67 90.0694 132.1 89.0994 132.1ZM87.8894 129.07H90.1094C89.9894 128.56 89.6094 128.17 89.0294 128.17C88.4194 128.17 88.0394 128.56 87.8894 129.07ZM94.3342 132.1C93.1642 132.1 92.1342 131.07 92.1342 129.57C92.1342 128.07 93.1642 127.05 94.3342 127.05C95.1342 127.05 95.6842 127.5 95.8842 127.84H95.9142V125H97.2642V132H95.9142V131.31H95.8842C95.6842 131.65 95.1342 132.1 94.3342 132.1ZM94.7142 130.85C95.3642 130.85 95.9142 130.3 95.9142 129.57C95.9142 128.85 95.3642 128.3 94.7142 128.3C94.0642 128.3 93.5142 128.85 93.5142 129.57C93.5142 130.3 94.0642 130.85 94.7142 130.85Z"/>
</mask>
<path d="M65.4342 132H63.9342V125H66.9142C68.3642 125 69.3842 126.02 69.3842 127.35C69.3842 128.67 68.3642 129.7 66.9142 129.7H65.4342V132ZM65.4342 126.35V128.35H66.8642C67.4342 128.35 67.8842 127.9 67.8842 127.35C67.8842 126.8 67.4342 126.35 66.8642 126.35H65.4342ZM71.6846 132H70.3346V127.15H71.6846V127.75H71.7146C71.9146 127.45 72.4146 127.05 73.0846 127.05H73.3146V128.5C73.2246 128.47 73.0446 128.42 72.8646 128.42C72.1846 128.42 71.6846 128.92 71.6846 129.72V132ZM76.015 127.05C77.295 127.05 78.145 127.9 78.145 128.95V132H76.865V131.33H76.835C76.635 131.66 76.105 132.1 75.375 132.1C74.435 132.1 73.765 131.45 73.765 130.7C73.765 129.87 74.315 129.32 75.265 129.14L76.795 128.85C76.775 128.47 76.435 128.15 75.945 128.15C75.425 128.15 75.055 128.45 74.815 128.72L74.045 127.98C74.395 127.56 75.075 127.05 76.015 127.05ZM75.765 131.02C76.345 131.02 76.795 130.57 76.795 129.9V129.74L75.745 129.95C75.365 130.02 75.145 130.25 75.145 130.5C75.145 130.8 75.365 131.02 75.765 131.02ZM80.1271 126.42C79.6971 126.42 79.3471 126.1 79.3471 125.67C79.3471 125.25 79.6971 124.92 80.1271 124.92C80.5471 124.92 80.8971 125.25 80.8971 125.67C80.8971 126.1 80.5471 126.42 80.1271 126.42ZM80.7971 132H79.4471V127.15H80.7971V132ZM83.851 132.1C82.891 132.1 82.111 131.59 81.781 131.2L82.551 130.4C82.771 130.64 83.221 130.97 83.761 130.97C84.191 130.97 84.401 130.79 84.401 130.55C84.401 129.88 82.001 130.17 82.001 128.51C82.001 127.72 82.681 127.05 83.881 127.05C84.771 127.05 85.461 127.45 85.751 127.75L84.981 128.55C84.811 128.39 84.471 128.17 84.031 128.17C83.631 128.17 83.431 128.35 83.431 128.53C83.431 129.19 85.831 128.92 85.831 130.58C85.831 131.4 85.131 132.1 83.851 132.1ZM89.0994 132.1C87.6294 132.1 86.4994 130.97 86.4994 129.57C86.4994 128.17 87.6294 127.05 89.0294 127.05C90.4294 127.05 91.4794 128.1 91.4794 129.47C91.4794 129.69 91.4494 129.9 91.4294 130H87.8994C87.9794 130.47 88.4794 130.95 89.1994 130.95C89.7694 130.95 90.1894 130.69 90.4594 130.45L91.1694 131.3C90.8194 131.67 90.0694 132.1 89.0994 132.1ZM87.8894 129.07H90.1094C89.9894 128.56 89.6094 128.17 89.0294 128.17C88.4194 128.17 88.0394 128.56 87.8894 129.07ZM94.3342 132.1C93.1642 132.1 92.1342 131.07 92.1342 129.57C92.1342 128.07 93.1642 127.05 94.3342 127.05C95.1342 127.05 95.6842 127.5 95.8842 127.84H95.9142V125H97.2642V132H95.9142V131.31H95.8842C95.6842 131.65 95.1342 132.1 94.3342 132.1ZM94.7142 130.85C95.3642 130.85 95.9142 130.3 95.9142 129.57C95.9142 128.85 95.3642 128.3 94.7142 128.3C94.0642 128.3 93.5142 128.85 93.5142 129.57C93.5142 130.3 94.0642 130.85 94.7142 130.85Z" fill="#BF6719"/>
<path d="M65.4342 132V133H66.4342V132H65.4342ZM63.9342 132H62.9342V133H63.9342V132ZM63.9342 125V124H62.9342V125H63.9342ZM65.4342 129.7V128.7H64.4342V129.7H65.4342ZM65.4342 126.35V125.35H64.4342V126.35H65.4342ZM65.4342 128.35H64.4342V129.35H65.4342V128.35ZM65.4342 131H63.9342V133H65.4342V131ZM64.9342 132V125H62.9342V132H64.9342ZM63.9342 126H66.9142V124H63.9342V126ZM66.9142 126C67.8452 126 68.3842 126.605 68.3842 127.35H70.3842C70.3842 125.435 68.8832 124 66.9142 124V126ZM68.3842 127.35C68.3842 128.088 67.8423 128.7 66.9142 128.7V130.7C68.886 130.7 70.3842 129.252 70.3842 127.35H68.3842ZM66.9142 128.7H65.4342V130.7H66.9142V128.7ZM64.4342 129.7V132H66.4342V129.7H64.4342ZM64.4342 126.35V128.35H66.4342V126.35H64.4342ZM65.4342 129.35H66.8642V127.35H65.4342V129.35ZM66.8642 129.35C67.9735 129.35 68.8842 128.465 68.8842 127.35H66.8842C66.8842 127.35 66.8842 127.35 66.8844 127.349C66.8847 127.347 66.885 127.346 66.8854 127.345C66.8862 127.343 66.8867 127.343 66.8857 127.344C66.8847 127.345 66.8831 127.346 66.8807 127.347C66.8795 127.348 66.8778 127.349 66.8754 127.349C66.8731 127.349 66.8695 127.35 66.8642 127.35V129.35ZM68.8842 127.35C68.8842 126.235 67.9735 125.35 66.8642 125.35V127.35C66.8695 127.35 66.8731 127.351 66.8754 127.351C66.8778 127.351 66.8795 127.352 66.8807 127.353C66.8831 127.354 66.8847 127.355 66.8857 127.356C66.8867 127.357 66.8862 127.357 66.8854 127.355C66.885 127.354 66.8847 127.353 66.8844 127.351C66.8842 127.35 66.8842 127.35 66.8842 127.35H68.8842ZM66.8642 125.35H65.4342V127.35H66.8642V125.35ZM71.6846 132V133H72.6846V132H71.6846ZM70.3346 132H69.3346V133H70.3346V132ZM70.3346 127.15V126.15H69.3346V127.15H70.3346ZM71.6846 127.15H72.6846V126.15H71.6846V127.15ZM71.6846 127.75H70.6846V128.75H71.6846V127.75ZM71.7146 127.75V128.75H72.2498L72.5466 128.305L71.7146 127.75ZM73.3146 127.05H74.3146V126.05H73.3146V127.05ZM73.3146 128.5L72.9983 129.449L74.3146 129.887V128.5H73.3146ZM71.6846 131H70.3346V133H71.6846V131ZM71.3346 132V127.15H69.3346V132H71.3346ZM70.3346 128.15H71.6846V126.15H70.3346V128.15ZM70.6846 127.15V127.75H72.6846V127.15H70.6846ZM71.6846 128.75H71.7146V126.75H71.6846V128.75ZM72.5466 128.305C72.5577 128.288 72.6185 128.215 72.7303 128.149C72.8335 128.089 72.9528 128.05 73.0846 128.05V126.05C72.0215 126.05 71.2329 126.67 70.8825 127.195L72.5466 128.305ZM73.0846 128.05H73.3146V126.05H73.0846V128.05ZM72.3146 127.05V128.5H74.3146V127.05H72.3146ZM73.6308 127.551C73.5006 127.508 73.202 127.42 72.8646 127.42V129.42C72.864 129.42 72.8693 129.42 72.8807 129.421C72.8919 129.423 72.9056 129.425 72.9212 129.428C72.9538 129.435 72.9826 129.443 72.9983 129.449L73.6308 127.551ZM72.8646 127.42C72.2698 127.42 71.7024 127.644 71.2885 128.088C70.8782 128.527 70.6846 129.11 70.6846 129.72H72.6846C72.6846 129.53 72.741 129.463 72.7506 129.452C72.7567 129.446 72.7794 129.42 72.8646 129.42V127.42ZM70.6846 129.72V132H72.6846V129.72H70.6846ZM78.145 132V133H79.145V132H78.145ZM76.865 132H75.865V133H76.865V132ZM76.865 131.33H77.865V130.33H76.865V131.33ZM76.835 131.33V130.33H76.2718L75.9798 130.812L76.835 131.33ZM75.265 129.14L75.4512 130.123L75.4513 130.123L75.265 129.14ZM76.795 128.85L76.9813 129.833L77.8396 129.67L77.7937 128.797L76.795 128.85ZM74.815 128.72L74.1221 129.441L74.8717 130.161L75.5624 129.384L74.815 128.72ZM74.045 127.98L73.2768 127.34L72.6804 128.055L73.3521 128.701L74.045 127.98ZM76.795 129.74H77.795V128.52L76.5989 128.759L76.795 129.74ZM75.745 129.95L75.9262 130.933L75.9337 130.932L75.9412 130.931L75.745 129.95ZM76.015 128.05C76.8199 128.05 77.145 128.526 77.145 128.95H79.145C79.145 127.274 77.7702 126.05 76.015 126.05V128.05ZM77.145 128.95V132H79.145V128.95H77.145ZM78.145 131H76.865V133H78.145V131ZM77.865 132V131.33H75.865V132H77.865ZM76.865 130.33H76.835V132.33H76.865V130.33ZM75.9798 130.812C75.9799 130.812 75.9788 130.813 75.9763 130.817C75.9738 130.82 75.9702 130.825 75.9654 130.831C75.9557 130.843 75.9421 130.859 75.9244 130.876C75.8885 130.911 75.8412 130.95 75.7843 130.984C75.6715 131.053 75.5341 131.1 75.375 131.1V133.1C76.5042 133.1 77.3362 132.432 77.6902 131.848L75.9798 130.812ZM75.375 131.1C74.8847 131.1 74.765 130.8 74.765 130.7H72.765C72.765 132.1 73.9854 133.1 75.375 133.1V131.1ZM74.765 130.7C74.765 130.523 74.8161 130.435 74.876 130.373C74.9509 130.296 75.1172 130.186 75.4512 130.123L75.0789 128.157C74.4628 128.274 73.8792 128.529 73.4416 128.979C72.989 129.445 72.765 130.047 72.765 130.7H74.765ZM75.4513 130.123L76.9813 129.833L76.6088 127.867L75.0788 128.157L75.4513 130.123ZM77.7937 128.797C77.741 127.796 76.8717 127.15 75.945 127.15V129.15C75.9698 129.15 75.9415 129.156 75.8955 129.117C75.8502 129.078 75.8017 129.003 75.7964 128.903L77.7937 128.797ZM75.945 127.15C75.0058 127.15 74.3855 127.698 74.0676 128.056L75.5624 129.384C75.7246 129.202 75.8443 129.15 75.945 129.15V127.15ZM75.508 127.999L74.738 127.259L73.3521 128.701L74.1221 129.441L75.508 127.999ZM74.8133 128.62C75.0331 128.356 75.4541 128.05 76.015 128.05V126.05C74.696 126.05 73.757 126.764 73.2768 127.34L74.8133 128.62ZM75.765 132.02C76.9521 132.02 77.795 131.066 77.795 129.9H75.795C75.795 129.955 75.7859 129.989 75.7796 130.006C75.7733 130.023 75.7682 130.027 75.7699 130.025C75.7716 130.023 75.7753 130.021 75.7791 130.019C75.783 130.017 75.7796 130.02 75.765 130.02V132.02ZM77.795 129.9V129.74H75.795V129.9H77.795ZM76.5989 128.759L75.5489 128.969L75.9412 130.931L76.9912 130.721L76.5989 128.759ZM75.5639 128.967C74.9209 129.085 74.145 129.581 74.145 130.5H76.145C76.145 130.685 76.0601 130.817 75.9918 130.882C75.9282 130.942 75.8894 130.94 75.9262 130.933L75.5639 128.967ZM74.145 130.5C74.145 130.907 74.302 131.322 74.644 131.623C74.975 131.914 75.3864 132.02 75.765 132.02V130.02C75.7437 130.02 75.8451 130.016 75.9661 130.122C76.098 130.238 76.145 130.393 76.145 130.5H74.145ZM80.7971 132V133H81.7971V132H80.7971ZM79.4471 132H78.4471V133H79.4471V132ZM79.4471 127.15V126.15H78.4471V127.15H79.4471ZM80.7971 127.15H81.7971V126.15H80.7971V127.15ZM80.1271 125.42C80.162 125.42 80.2147 125.434 80.2634 125.48C80.3156 125.53 80.3471 125.602 80.3471 125.67H78.3471C78.3471 126.703 79.1969 127.42 80.1271 127.42V125.42ZM80.3471 125.67C80.3471 125.747 80.3125 125.817 80.2668 125.86C80.2228 125.902 80.1707 125.92 80.1271 125.92V123.92C79.1879 123.92 78.3471 124.656 78.3471 125.67H80.3471ZM80.1271 125.92C80.0294 125.92 79.8971 125.836 79.8971 125.67H81.8971C81.8971 124.664 81.0648 123.92 80.1271 123.92V125.92ZM79.8971 125.67C79.8971 125.603 79.928 125.532 79.9788 125.483C80.026 125.438 80.0813 125.42 80.1271 125.42V127.42C81.0558 127.42 81.8971 126.695 81.8971 125.67H79.8971ZM80.7971 131H79.4471V133H80.7971V131ZM80.4471 132V127.15H78.4471V132H80.4471ZM79.4471 128.15H80.7971V126.15H79.4471V128.15ZM79.7971 127.15V132H81.7971V127.15H79.7971ZM81.781 131.2L81.0605 130.507L80.4345 131.157L81.0176 131.846L81.781 131.2ZM82.551 130.4L83.2881 129.724L82.5688 128.94L81.8305 129.707L82.551 130.4ZM85.751 127.75L86.4715 128.443L87.1404 127.749L86.47 127.055L85.751 127.75ZM84.981 128.55L84.2956 129.278L85.0157 129.956L85.7015 129.243L84.981 128.55ZM83.851 131.1C83.2211 131.1 82.7089 130.748 82.5444 130.554L81.0176 131.846C81.5131 132.432 82.5609 133.1 83.851 133.1V131.1ZM82.5015 131.893L83.2715 131.093L81.8305 129.707L81.0605 130.507L82.5015 131.893ZM81.8138 131.076C82.1346 131.426 82.832 131.97 83.761 131.97V129.97C83.6957 129.97 83.6116 129.95 83.5126 129.896C83.4116 129.841 83.3304 129.77 83.2881 129.724L81.8138 131.076ZM83.761 131.97C84.0981 131.97 84.4861 131.902 84.8189 131.667C85.1873 131.407 85.401 130.999 85.401 130.55H83.401C83.401 130.461 83.4214 130.357 83.4748 130.254C83.5282 130.152 83.6 130.079 83.6655 130.033C83.7858 129.948 83.8538 129.97 83.761 129.97V131.97ZM85.401 130.55C85.401 130.119 85.1906 129.797 84.9691 129.597C84.775 129.421 84.5544 129.318 84.4079 129.258C84.2514 129.193 84.0818 129.139 83.9458 129.095C83.7967 129.048 83.6699 129.008 83.5435 128.962C83.2811 128.866 83.1413 128.784 83.0697 128.715C83.0353 128.681 83.001 128.646 83.001 128.51H81.001C81.001 129.204 81.2667 129.755 81.6822 130.155C82.0607 130.52 82.5209 130.718 82.8584 130.841C83.0321 130.904 83.2052 130.958 83.3374 131C83.4826 131.047 83.5756 131.078 83.6441 131.106C83.7226 131.139 83.6894 131.136 83.6266 131.079C83.5364 130.998 83.401 130.814 83.401 130.55H85.401ZM83.001 128.51C83.001 128.419 83.0338 128.333 83.1306 128.252C83.2353 128.165 83.4637 128.05 83.881 128.05V126.05C83.0983 126.05 82.3866 126.27 81.8514 126.715C81.3082 127.167 81.001 127.811 81.001 128.51H83.001ZM83.881 128.05C84.4932 128.05 84.9257 128.335 85.032 128.445L86.47 127.055C85.9963 126.565 85.0488 126.05 83.881 126.05V128.05ZM85.0305 127.057L84.2605 127.857L85.7015 129.243L86.4715 128.443L85.0305 127.057ZM85.6663 127.822C85.3756 127.548 84.8025 127.17 84.031 127.17V129.17C84.082 129.17 84.1335 129.183 84.1855 129.207C84.2408 129.232 84.2808 129.264 84.2956 129.278L85.6663 127.822ZM84.031 127.17C83.6913 127.17 83.3301 127.245 83.0215 127.454C82.7067 127.666 82.431 128.041 82.431 128.53H84.431C84.431 128.839 84.2553 129.034 84.1404 129.111C84.0318 129.185 83.9707 129.17 84.031 129.17V127.17ZM82.431 128.53C82.431 128.965 82.6461 129.286 82.8654 129.483C83.0582 129.656 83.2772 129.759 83.4225 129.819C83.5777 129.883 83.7465 129.938 83.882 129.982C84.0302 130.03 84.1573 130.071 84.2833 130.118C84.5451 130.215 84.6863 130.299 84.7594 130.37C84.7963 130.406 84.831 130.443 84.831 130.58H86.831C86.831 129.887 86.5656 129.336 86.1525 128.935C85.7756 128.569 85.3169 128.368 84.9787 128.242C84.8047 128.178 84.6317 128.123 84.4987 128.08C84.353 128.032 84.2592 128.001 84.1895 127.972C84.1097 127.939 84.1412 127.941 84.2028 127.996C84.2908 128.075 84.431 128.26 84.431 128.53H82.431ZM84.831 130.58C84.831 130.689 84.7916 130.788 84.6831 130.877C84.5655 130.975 84.3128 131.1 83.851 131.1V133.1C84.6691 133.1 85.4064 132.875 85.9589 132.418C86.5204 131.952 86.831 131.291 86.831 130.58H84.831ZM91.4294 130V131H92.2492L92.41 130.196L91.4294 130ZM87.8994 130V129H86.7148L86.9136 130.168L87.8994 130ZM90.4594 130.45L91.2269 129.809L90.5658 129.017L89.7951 129.703L90.4594 130.45ZM91.1694 131.3L91.8959 131.987L92.5069 131.341L91.9369 130.659L91.1694 131.3ZM87.8894 129.07L86.93 128.788L86.5529 130.07H87.8894V129.07ZM90.1094 129.07V130.07H91.372L91.0828 128.841L90.1094 129.07ZM89.0994 131.1C88.1638 131.1 87.4994 130.4 87.4994 129.57H85.4994C85.4994 131.54 87.0951 133.1 89.0994 133.1V131.1ZM87.4994 129.57C87.4994 128.727 88.1765 128.05 89.0294 128.05V126.05C87.0823 126.05 85.4994 127.613 85.4994 129.57H87.4994ZM89.0294 128.05C89.8853 128.05 90.4794 128.66 90.4794 129.47H92.4794C92.4794 127.54 90.9736 126.05 89.0294 126.05V128.05ZM90.4794 129.47C90.4794 129.537 90.4748 129.607 90.4677 129.673C90.4606 129.739 90.4524 129.786 90.4488 129.804L92.41 130.196C92.4404 130.044 92.4794 129.767 92.4794 129.47H90.4794ZM91.4294 129H87.8994V131H91.4294V129ZM86.9136 130.168C87.084 131.169 88.0447 131.95 89.1994 131.95V129.95C89.0673 129.95 88.9811 129.908 88.9315 129.868C88.8715 129.821 88.8783 129.791 88.8852 129.832L86.9136 130.168ZM89.1994 131.95C90.0949 131.95 90.7416 131.537 91.1238 131.197L89.7951 129.703C89.6373 129.843 89.4439 129.95 89.1994 129.95V131.95ZM89.6919 131.091L90.4019 131.941L91.9369 130.659L91.2269 129.809L89.6919 131.091ZM90.4429 130.613C90.2771 130.788 89.7878 131.1 89.0994 131.1V133.1C90.3511 133.1 91.3617 132.552 91.8959 131.987L90.4429 130.613ZM87.8894 130.07H90.1094V128.07H87.8894V130.07ZM91.0828 128.841C90.8782 127.971 90.1618 127.17 89.0294 127.17V129.17C89.0609 129.17 89.0742 129.175 89.0757 129.176C89.0772 129.176 89.0777 129.176 89.0798 129.178C89.0848 129.183 89.1161 129.214 89.136 129.299L91.0828 128.841ZM89.0294 127.17C87.8779 127.17 87.1752 127.954 86.93 128.788L88.8488 129.352C88.88 129.246 88.9205 129.203 88.934 129.191C88.9401 129.186 88.9455 129.183 88.9536 129.18C88.9619 129.177 88.9848 129.17 89.0294 129.17V127.17ZM95.8842 127.84L95.0222 128.347L95.3122 128.84H95.8842V127.84ZM95.9142 127.84V128.84H96.9142V127.84H95.9142ZM95.9142 125V124H94.9142V125H95.9142ZM97.2642 125H98.2642V124H97.2642V125ZM97.2642 132V133H98.2642V132H97.2642ZM95.9142 132H94.9142V133H95.9142V132ZM95.9142 131.31H96.9142V130.31H95.9142V131.31ZM95.8842 131.31V130.31H95.3122L95.0222 130.803L95.8842 131.31ZM94.3342 131.1C93.8058 131.1 93.1342 130.611 93.1342 129.57H91.1342C91.1342 131.529 92.5226 133.1 94.3342 133.1V131.1ZM93.1342 129.57C93.1342 128.534 93.8007 128.05 94.3342 128.05V126.05C92.5276 126.05 91.1342 127.606 91.1342 129.57H93.1342ZM94.3342 128.05C94.5416 128.05 94.705 128.107 94.8257 128.179C94.8873 128.215 94.9361 128.254 94.9716 128.289C95.0086 128.325 95.0227 128.348 95.0222 128.347L96.7461 127.333C96.3774 126.706 95.5096 126.05 94.3342 126.05V128.05ZM95.8842 128.84H95.9142V126.84H95.8842V128.84ZM96.9142 127.84V125H94.9142V127.84H96.9142ZM95.9142 126H97.2642V124H95.9142V126ZM96.2642 125V132H98.2642V125H96.2642ZM97.2642 131H95.9142V133H97.2642V131ZM96.9142 132V131.31H94.9142V132H96.9142ZM95.9142 130.31H95.8842V132.31H95.9142V130.31ZM95.0222 130.803C95.0227 130.802 95.0086 130.825 94.9716 130.861C94.9361 130.896 94.8873 130.935 94.8257 130.971C94.705 131.043 94.5416 131.1 94.3342 131.1V133.1C95.5096 133.1 96.3774 132.444 96.7461 131.817L95.0222 130.803ZM94.7142 131.85C95.9581 131.85 96.9142 130.81 96.9142 129.57H94.9142C94.9142 129.79 94.7702 129.85 94.7142 129.85V131.85ZM96.9142 129.57C96.9142 128.335 95.9531 127.3 94.7142 127.3V129.3C94.7753 129.3 94.9142 129.365 94.9142 129.57H96.9142ZM94.7142 127.3C93.4753 127.3 92.5142 128.335 92.5142 129.57H94.5142C94.5142 129.365 94.6531 129.3 94.7142 129.3V127.3ZM92.5142 129.57C92.5142 130.81 93.4702 131.85 94.7142 131.85V129.85C94.6581 129.85 94.5142 129.79 94.5142 129.57H92.5142Z" fill="#F9E29C" mask="url(#path-49-outside-2_1437_49507)"/>
</svg>
