<svg width="161" height="160" viewBox="0 0 161 160" fill="none" xmlns="http://www.w3.org/2000/svg">
<mask id="path-1-inside-1_1437_49044" fill="white">
<path fill-rule="evenodd" clip-rule="evenodd" d="M137.967 6H135.802C135.392 7.59584 133.943 8.775 132.219 8.775C130.495 8.775 129.046 7.59584 128.636 6H125.636C125.227 7.59779 123.777 8.77885 122.052 8.77885C120.326 8.77885 118.877 7.59779 118.467 6H115.469C115.06 7.59779 113.61 8.77885 111.884 8.77885C110.159 8.77885 108.709 7.59779 108.3 6H105.302C104.892 7.59779 103.443 8.77885 101.717 8.77885C99.9918 8.77885 98.5422 7.59779 98.1328 6H95.1343C94.7249 7.59779 93.2753 8.77885 91.5499 8.77885C89.8245 8.77885 88.3749 7.59779 87.9655 6H84.966C84.5553 7.59584 83.1067 8.775 81.3826 8.775C79.6586 8.775 78.2099 7.59584 77.7992 6H74.7997C74.3903 7.59779 72.9408 8.77885 71.2153 8.77885C69.4899 8.77885 68.0403 7.59779 67.6309 6H64.6286C64.2192 7.59779 62.7696 8.77885 61.0442 8.77885C59.3187 8.77885 57.8691 7.59779 57.4597 6H54.4613C54.0519 7.59779 52.6023 8.77885 50.8769 8.77885C49.1514 8.77885 47.7018 7.59779 47.2924 6H44.294C43.8846 7.59779 42.435 8.77885 40.7096 8.77885C38.9841 8.77885 37.5346 7.59779 37.1252 6H34.1267C33.7173 7.59779 32.2677 8.77885 30.5423 8.77885C28.8169 8.77885 27.3673 7.59779 26.9579 6H23.9594C23.55 7.59779 22.1004 8.77885 20.375 8.77885C18.6496 8.77885 17.2 7.59779 16.7906 6H15.75H6.5V15.25V15.3704C8.09584 15.7812 9.275 17.2298 9.275 18.9539C9.275 20.6779 8.09584 22.1265 6.5 22.5373V25.5454C8.09584 25.9562 9.275 27.4048 9.275 29.1289C9.275 30.8529 8.09584 32.3015 6.5 32.7123V35.7204C8.09584 36.1312 9.275 37.5798 9.275 39.3039C9.275 41.0279 8.09584 42.4765 6.5 42.8873V45.8954C8.09584 46.3062 9.275 47.7548 9.275 49.4789C9.275 51.2029 8.09584 52.6516 6.5 53.0623V56.0704C8.09584 56.4812 9.275 57.9298 9.275 59.6539C9.275 61.3779 8.09584 62.8265 6.5 63.2373L6.5 66.2454C8.09584 66.6562 9.275 68.1048 9.275 69.8289C9.275 71.5529 8.09584 73.0015 6.5 73.4123L6.5 76.4204C8.09584 76.8312 9.275 78.2798 9.275 80.0039C9.275 81.7279 8.09584 83.1765 6.5 83.5873L6.5 86.5954C8.09584 87.0062 9.275 88.4548 9.275 90.1788C9.275 91.9029 8.09584 93.3515 6.5 93.7623L6.5 96.7704C8.09584 97.1812 9.275 98.6298 9.275 100.354C9.275 102.078 8.09584 103.527 6.5 103.937L6.5 106.945C8.09584 107.356 9.275 108.805 9.275 110.529C9.275 112.253 8.09584 113.702 6.5 114.112L6.5 117.12C8.09584 117.531 9.275 118.98 9.275 120.704C9.275 122.428 8.09584 123.877 6.5 124.287L6.50001 127.295C8.09584 127.706 9.275 129.155 9.275 130.879C9.275 132.603 8.09584 134.052 6.50001 134.462L6.50001 137.467C8.09584 137.877 9.275 139.326 9.275 141.05C9.275 142.774 8.09584 144.223 6.50001 144.633L6.50001 144.75L6.5 154H15.75H15.8665C16.2772 152.404 17.7259 151.225 19.45 151.225C21.1741 151.225 22.6228 152.404 23.0335 154H26.0415C26.4522 152.404 27.9009 151.225 29.625 151.225C31.3491 151.225 32.7978 152.404 33.2085 154H36.2165C36.6272 152.404 38.0759 151.225 39.8 151.225C41.5241 151.225 42.9728 152.404 43.3835 154H46.3915C46.8022 152.404 48.2509 151.225 49.975 151.225C51.6991 151.225 53.1478 152.404 53.5585 154H56.5665C56.9772 152.404 58.4259 151.225 60.15 151.225C61.8741 151.225 63.3228 152.404 63.7335 154H66.7415C67.1522 152.404 68.6009 151.225 70.325 151.225C72.0491 151.225 73.4978 152.404 73.9085 154H76.9165C77.3272 152.404 78.7759 151.225 80.5 151.225C82.2241 151.225 83.6728 152.404 84.0835 154H87.0915C87.5022 152.404 88.9509 151.225 90.675 151.225C92.3991 151.225 93.8478 152.404 94.2585 154H97.2665C97.6772 152.404 99.1259 151.225 100.85 151.225C102.574 151.225 104.023 152.404 104.433 154H107.442C107.852 152.404 109.301 151.225 111.025 151.225C112.749 151.225 114.198 152.404 114.608 154H117.617C118.027 152.404 119.476 151.225 121.2 151.225C122.924 151.225 124.373 152.404 124.783 154H127.792C128.202 152.404 129.651 151.225 131.375 151.225C133.099 151.225 134.548 152.404 134.958 154H137.967C138.377 152.404 139.826 151.225 141.55 151.225C143.274 151.225 144.723 152.404 145.133 154H145.25H154.5V144.75V144.629C152.912 144.213 151.74 142.768 151.74 141.05C151.74 139.331 152.912 137.887 154.5 137.471V134.458C152.912 134.042 151.74 132.597 151.74 130.879C151.74 129.16 152.912 127.716 154.5 127.299V124.283C152.912 123.867 151.74 122.422 151.74 120.704C151.74 118.985 152.912 117.54 154.5 117.124V114.11C152.908 113.697 151.733 112.25 151.733 110.529C151.733 108.808 152.908 107.361 154.5 106.947V103.933C152.912 103.517 151.74 102.072 151.74 100.354C151.74 98.6354 152.912 97.1905 154.5 96.7744V93.7603C152.908 93.3469 151.733 91.9001 151.733 90.1788C151.733 88.4576 152.908 87.0108 154.5 86.5974V83.5833C152.912 83.1672 151.74 81.7223 151.74 80.0039C151.74 78.2854 152.912 76.8405 154.5 76.4244V73.4083C152.912 72.9922 151.74 71.5473 151.74 69.8289C151.74 68.1104 152.912 66.6655 154.5 66.2494V63.2333C152.912 62.8172 151.74 61.3723 151.74 59.6539C151.74 57.9354 152.912 56.4905 154.5 56.0744V53.0603C152.908 52.6469 151.733 51.2001 151.733 49.4789C151.733 47.7576 152.908 46.3108 154.5 45.8974V42.8853C152.908 42.4719 151.733 41.0251 151.733 39.3039C151.733 37.5826 152.908 36.1358 154.5 35.7224V32.7083C152.912 32.2922 151.74 30.8473 151.74 29.1289C151.74 27.4104 152.912 25.9655 154.5 25.5494V22.5353C152.908 22.1219 151.733 20.6751 151.733 18.9539C151.733 17.2326 152.908 15.7858 154.5 15.3724V15.25V6H145.25H145.133C144.723 7.59584 143.274 8.775 141.55 8.775C139.826 8.775 138.377 7.59584 137.967 6Z"/>
</mask>
<path fill-rule="evenodd" clip-rule="evenodd" d="M137.967 6H135.802C135.392 7.59584 133.943 8.775 132.219 8.775C130.495 8.775 129.046 7.59584 128.636 6H125.636C125.227 7.59779 123.777 8.77885 122.052 8.77885C120.326 8.77885 118.877 7.59779 118.467 6H115.469C115.06 7.59779 113.61 8.77885 111.884 8.77885C110.159 8.77885 108.709 7.59779 108.3 6H105.302C104.892 7.59779 103.443 8.77885 101.717 8.77885C99.9918 8.77885 98.5422 7.59779 98.1328 6H95.1343C94.7249 7.59779 93.2753 8.77885 91.5499 8.77885C89.8245 8.77885 88.3749 7.59779 87.9655 6H84.966C84.5553 7.59584 83.1067 8.775 81.3826 8.775C79.6586 8.775 78.2099 7.59584 77.7992 6H74.7997C74.3903 7.59779 72.9408 8.77885 71.2153 8.77885C69.4899 8.77885 68.0403 7.59779 67.6309 6H64.6286C64.2192 7.59779 62.7696 8.77885 61.0442 8.77885C59.3187 8.77885 57.8691 7.59779 57.4597 6H54.4613C54.0519 7.59779 52.6023 8.77885 50.8769 8.77885C49.1514 8.77885 47.7018 7.59779 47.2924 6H44.294C43.8846 7.59779 42.435 8.77885 40.7096 8.77885C38.9841 8.77885 37.5346 7.59779 37.1252 6H34.1267C33.7173 7.59779 32.2677 8.77885 30.5423 8.77885C28.8169 8.77885 27.3673 7.59779 26.9579 6H23.9594C23.55 7.59779 22.1004 8.77885 20.375 8.77885C18.6496 8.77885 17.2 7.59779 16.7906 6H15.75H6.5V15.25V15.3704C8.09584 15.7812 9.275 17.2298 9.275 18.9539C9.275 20.6779 8.09584 22.1265 6.5 22.5373V25.5454C8.09584 25.9562 9.275 27.4048 9.275 29.1289C9.275 30.8529 8.09584 32.3015 6.5 32.7123V35.7204C8.09584 36.1312 9.275 37.5798 9.275 39.3039C9.275 41.0279 8.09584 42.4765 6.5 42.8873V45.8954C8.09584 46.3062 9.275 47.7548 9.275 49.4789C9.275 51.2029 8.09584 52.6516 6.5 53.0623V56.0704C8.09584 56.4812 9.275 57.9298 9.275 59.6539C9.275 61.3779 8.09584 62.8265 6.5 63.2373L6.5 66.2454C8.09584 66.6562 9.275 68.1048 9.275 69.8289C9.275 71.5529 8.09584 73.0015 6.5 73.4123L6.5 76.4204C8.09584 76.8312 9.275 78.2798 9.275 80.0039C9.275 81.7279 8.09584 83.1765 6.5 83.5873L6.5 86.5954C8.09584 87.0062 9.275 88.4548 9.275 90.1788C9.275 91.9029 8.09584 93.3515 6.5 93.7623L6.5 96.7704C8.09584 97.1812 9.275 98.6298 9.275 100.354C9.275 102.078 8.09584 103.527 6.5 103.937L6.5 106.945C8.09584 107.356 9.275 108.805 9.275 110.529C9.275 112.253 8.09584 113.702 6.5 114.112L6.5 117.12C8.09584 117.531 9.275 118.98 9.275 120.704C9.275 122.428 8.09584 123.877 6.5 124.287L6.50001 127.295C8.09584 127.706 9.275 129.155 9.275 130.879C9.275 132.603 8.09584 134.052 6.50001 134.462L6.50001 137.467C8.09584 137.877 9.275 139.326 9.275 141.05C9.275 142.774 8.09584 144.223 6.50001 144.633L6.50001 144.75L6.5 154H15.75H15.8665C16.2772 152.404 17.7259 151.225 19.45 151.225C21.1741 151.225 22.6228 152.404 23.0335 154H26.0415C26.4522 152.404 27.9009 151.225 29.625 151.225C31.3491 151.225 32.7978 152.404 33.2085 154H36.2165C36.6272 152.404 38.0759 151.225 39.8 151.225C41.5241 151.225 42.9728 152.404 43.3835 154H46.3915C46.8022 152.404 48.2509 151.225 49.975 151.225C51.6991 151.225 53.1478 152.404 53.5585 154H56.5665C56.9772 152.404 58.4259 151.225 60.15 151.225C61.8741 151.225 63.3228 152.404 63.7335 154H66.7415C67.1522 152.404 68.6009 151.225 70.325 151.225C72.0491 151.225 73.4978 152.404 73.9085 154H76.9165C77.3272 152.404 78.7759 151.225 80.5 151.225C82.2241 151.225 83.6728 152.404 84.0835 154H87.0915C87.5022 152.404 88.9509 151.225 90.675 151.225C92.3991 151.225 93.8478 152.404 94.2585 154H97.2665C97.6772 152.404 99.1259 151.225 100.85 151.225C102.574 151.225 104.023 152.404 104.433 154H107.442C107.852 152.404 109.301 151.225 111.025 151.225C112.749 151.225 114.198 152.404 114.608 154H117.617C118.027 152.404 119.476 151.225 121.2 151.225C122.924 151.225 124.373 152.404 124.783 154H127.792C128.202 152.404 129.651 151.225 131.375 151.225C133.099 151.225 134.548 152.404 134.958 154H137.967C138.377 152.404 139.826 151.225 141.55 151.225C143.274 151.225 144.723 152.404 145.133 154H145.25H154.5V144.75V144.629C152.912 144.213 151.74 142.768 151.74 141.05C151.74 139.331 152.912 137.887 154.5 137.471V134.458C152.912 134.042 151.74 132.597 151.74 130.879C151.74 129.16 152.912 127.716 154.5 127.299V124.283C152.912 123.867 151.74 122.422 151.74 120.704C151.74 118.985 152.912 117.54 154.5 117.124V114.11C152.908 113.697 151.733 112.25 151.733 110.529C151.733 108.808 152.908 107.361 154.5 106.947V103.933C152.912 103.517 151.74 102.072 151.74 100.354C151.74 98.6354 152.912 97.1905 154.5 96.7744V93.7603C152.908 93.3469 151.733 91.9001 151.733 90.1788C151.733 88.4576 152.908 87.0108 154.5 86.5974V83.5833C152.912 83.1672 151.74 81.7223 151.74 80.0039C151.74 78.2854 152.912 76.8405 154.5 76.4244V73.4083C152.912 72.9922 151.74 71.5473 151.74 69.8289C151.74 68.1104 152.912 66.6655 154.5 66.2494V63.2333C152.912 62.8172 151.74 61.3723 151.74 59.6539C151.74 57.9354 152.912 56.4905 154.5 56.0744V53.0603C152.908 52.6469 151.733 51.2001 151.733 49.4789C151.733 47.7576 152.908 46.3108 154.5 45.8974V42.8853C152.908 42.4719 151.733 41.0251 151.733 39.3039C151.733 37.5826 152.908 36.1358 154.5 35.7224V32.7083C152.912 32.2922 151.74 30.8473 151.74 29.1289C151.74 27.4104 152.912 25.9655 154.5 25.5494V22.5353C152.908 22.1219 151.733 20.6751 151.733 18.9539C151.733 17.2326 152.908 15.7858 154.5 15.3724V15.25V6H145.25H145.133C144.723 7.59584 143.274 8.775 141.55 8.775C139.826 8.775 138.377 7.59584 137.967 6Z" fill="#F2F4FF"/>
<path d="M135.802 6V5.075H135.085L134.907 5.76944L135.802 6ZM137.967 6L138.862 5.76944L138.684 5.075H137.967V6ZM128.636 6L129.531 5.76944L129.353 5.075H128.636V6ZM125.636 6V5.075H124.918L124.74 5.7704L125.636 6ZM118.467 6L119.363 5.7704L119.185 5.075H118.467V6ZM115.469 6V5.075H114.751L114.573 5.7704L115.469 6ZM108.3 6L109.196 5.7704L109.018 5.075H108.3V6ZM105.302 6V5.075H104.584L104.406 5.7704L105.302 6ZM98.1328 6L99.0288 5.7704L98.8506 5.075H98.1328V6ZM95.1343 6V5.075H94.4165L94.2383 5.7704L95.1343 6ZM87.9655 6L88.8615 5.7704L88.6833 5.075H87.9655V6ZM84.966 6V5.075H84.249L84.0702 5.76944L84.966 6ZM77.7992 6L78.695 5.76943L78.5162 5.075H77.7992V6ZM74.7997 6V5.075H74.0819L73.9037 5.7704L74.7997 6ZM67.6309 6L68.5269 5.77041L68.3488 5.075H67.6309V6ZM64.6286 6V5.075H63.9107L63.7325 5.77041L64.6286 6ZM57.4597 6L58.3558 5.77041L58.1776 5.075H57.4597V6ZM54.4613 6V5.075H53.7434L53.5652 5.77041L54.4613 6ZM47.2924 6L48.1885 5.77041L48.0103 5.075H47.2924V6ZM44.294 6V5.075H43.5761L43.398 5.77041L44.294 6ZM37.1252 6L38.0212 5.77041L37.843 5.075H37.1252V6ZM34.1267 6V5.075H33.4088L33.2307 5.77041L34.1267 6ZM26.9579 6L27.8539 5.77041L27.6757 5.075H26.9579V6ZM23.9594 6V5.075H23.2416L23.0634 5.77041L23.9594 6ZM16.7906 6L17.6866 5.77041L17.5084 5.075H16.7906V6ZM6.5 6V5.075H5.575V6H6.5ZM6.5 15.3704H5.575V16.0875L6.26944 16.2662L6.5 15.3704ZM9.275 18.9539L10.2 18.9539L10.2 18.9539L9.275 18.9539ZM6.5 22.5373L6.26944 21.6415L5.575 21.8202V22.5373H6.5ZM6.5 25.5454H5.575V26.2625L6.26944 26.4412L6.5 25.5454ZM9.275 29.1289L10.2 29.1289L10.2 29.1289L9.275 29.1289ZM6.5 32.7123L6.26944 31.8165L5.575 31.9952V32.7123H6.5ZM6.5 35.7204H5.575V36.4375L6.26944 36.6162L6.5 35.7204ZM9.275 39.3039L10.2 39.3039L10.2 39.3039L9.275 39.3039ZM6.5 42.8873L6.26944 41.9915L5.575 42.1702V42.8873H6.5ZM6.5 45.8954H5.575V46.6125L6.26944 46.7912L6.5 45.8954ZM9.275 49.4789L8.35 49.4789L8.35 49.4789L9.275 49.4789ZM6.5 53.0623L6.26944 52.1665L5.575 52.3452V53.0623H6.5ZM6.5 56.0704H5.575V56.7875L6.26944 56.9662L6.5 56.0704ZM9.275 59.6539L8.35 59.6539L8.35 59.6539L9.275 59.6539ZM6.5 63.2373L6.26944 62.3415L5.575 62.5202L5.575 63.2373L6.5 63.2373ZM6.5 66.2454L5.575 66.2454L5.575 66.9625L6.26944 67.1412L6.5 66.2454ZM9.275 69.8289L8.35 69.8289L8.35 69.8289L9.275 69.8289ZM6.5 73.4123L6.26944 72.5165L5.575 72.6952L5.575 73.4123L6.5 73.4123ZM6.5 76.4204L5.575 76.4204L5.575 77.1375L6.26944 77.3162L6.5 76.4204ZM9.275 80.0039L8.35 80.0039L8.35 80.0039L9.275 80.0039ZM6.5 83.5873L6.26944 82.6915L5.575 82.8702L5.575 83.5873L6.5 83.5873ZM6.5 86.5954L5.575 86.5954L5.575 87.3125L6.26944 87.4912L6.5 86.5954ZM6.5 93.7623L6.26944 92.8665L5.575 93.0452L5.575 93.7623L6.5 93.7623ZM6.5 96.7704L5.575 96.7704L5.575 97.4875L6.26944 97.6662L6.5 96.7704ZM6.5 103.937L6.26944 103.041L5.575 103.22L5.575 103.937L6.5 103.937ZM6.5 106.945L5.575 106.945L5.575 107.662L6.26944 107.841L6.5 106.945ZM6.5 114.112L6.26944 113.216L5.575 113.395L5.575 114.112L6.5 114.112ZM6.5 117.12L5.575 117.12L5.575 117.837L6.26944 118.016L6.5 117.12ZM6.5 124.287L6.26944 123.391L5.575 123.57L5.575 124.287L6.5 124.287ZM6.50001 127.295L5.57501 127.295L5.57501 128.012L6.26944 128.191L6.50001 127.295ZM6.50001 134.462L6.26944 133.566L5.57501 133.745L5.57501 134.462L6.50001 134.462ZM6.50001 137.467L5.57501 137.467L5.57501 138.184L6.26944 138.362L6.50001 137.467ZM9.275 141.05L10.2 141.05L10.2 141.05L9.275 141.05ZM6.50001 144.633L6.26944 143.738L5.57501 143.916L5.57501 144.633L6.50001 144.633ZM6.50001 144.75L7.42501 144.75L7.42501 144.75L6.50001 144.75ZM6.5 154L5.575 154L5.575 154.925H6.5V154ZM15.8665 154V154.925H16.5836L16.7624 154.231L15.8665 154ZM23.0335 154L22.1376 154.231L22.3164 154.925H23.0335V154ZM26.0415 154V154.925H26.7586L26.9374 154.231L26.0415 154ZM33.2085 154L32.3126 154.231L32.4914 154.925H33.2085V154ZM36.2165 154V154.925H36.9336L37.1124 154.231L36.2165 154ZM43.3835 154L42.4876 154.231L42.6664 154.925H43.3835V154ZM46.3915 154V154.925H47.1086L47.2874 154.231L46.3915 154ZM53.5585 154L52.6626 154.231L52.8414 154.925H53.5585V154ZM56.5665 154V154.925H57.2836L57.4624 154.231L56.5665 154ZM63.7335 154L62.8377 154.231L63.0164 154.925H63.7335V154ZM66.7415 154V154.925H67.4586L67.6374 154.231L66.7415 154ZM73.9085 154L73.0127 154.231L73.1914 154.925H73.9085V154ZM76.9165 154V154.925H77.6336L77.8123 154.231L76.9165 154ZM84.0835 154L83.1876 154.231L83.3664 154.925H84.0835V154ZM87.0915 154V154.925H87.8086L87.9873 154.231L87.0915 154ZM94.2585 154L93.3626 154.231L93.5414 154.925H94.2585V154ZM97.2665 154V154.925H97.9836L98.1624 154.231L97.2665 154ZM104.433 154L103.538 154.231L103.716 154.925H104.433V154ZM107.442 154V154.925H108.159L108.337 154.231L107.442 154ZM114.608 154L113.713 154.231L113.891 154.925H114.608V154ZM117.617 154V154.925H118.334L118.512 154.231L117.617 154ZM124.783 154L123.888 154.231L124.066 154.925H124.783V154ZM127.792 154V154.925H128.509L128.687 154.231L127.792 154ZM134.958 154L134.063 154.231L134.241 154.925H134.958V154ZM137.967 154V154.925H138.684L138.862 154.231L137.967 154ZM145.133 154L144.238 154.231L144.416 154.925H145.133V154ZM154.5 154V154.925H155.425V154H154.5ZM154.5 144.629H155.425V143.916L154.734 143.735L154.5 144.629ZM154.5 137.471L154.734 138.365L155.425 138.184V137.471H154.5ZM154.5 134.458H155.425V133.744L154.734 133.563L154.5 134.458ZM154.5 127.299L154.734 128.194L155.425 128.013V127.299H154.5ZM154.5 124.283H155.425V123.569L154.734 123.388L154.5 124.283ZM154.5 117.124L154.734 118.019L155.425 117.838V117.124H154.5ZM154.5 114.11H155.425V113.395L154.733 113.215L154.5 114.11ZM154.5 106.947L154.733 107.843L155.425 107.663V106.947H154.5ZM154.5 103.933H155.425V103.219L154.734 103.038L154.5 103.933ZM154.5 96.7744L154.734 97.6692L155.425 97.4883V96.7744H154.5ZM154.5 93.7603H155.425V93.0448L154.733 92.865L154.5 93.7603ZM154.5 86.5974L154.733 87.4927L155.425 87.3129V86.5974H154.5ZM154.5 83.5833H155.425V82.8694L154.734 82.6885L154.5 83.5833ZM154.5 76.4244L154.734 77.3192L155.425 77.1383V76.4244H154.5ZM154.5 73.4083H155.425V72.6944L154.734 72.5135L154.5 73.4083ZM154.5 66.2494L154.734 67.1442L155.425 66.9633V66.2494H154.5ZM154.5 63.2333H155.425V62.5194L154.734 62.3385L154.5 63.2333ZM154.5 56.0744L154.734 56.9692L155.425 56.7883V56.0744H154.5ZM154.5 53.0603H155.425V52.3448L154.733 52.165L154.5 53.0603ZM154.5 45.8974L154.733 46.7927L155.425 46.6129V45.8974H154.5ZM154.5 42.8853H155.425V42.1698L154.733 41.99L154.5 42.8853ZM154.5 35.7224L154.733 36.6177L155.425 36.4379V35.7224H154.5ZM154.5 32.7083H155.425V31.9944L154.734 31.8135L154.5 32.7083ZM154.5 25.5494L154.734 26.4442L155.425 26.2633V25.5494H154.5ZM154.5 22.5353H155.425V21.8198L154.733 21.64L154.5 22.5353ZM154.5 15.3724L154.733 16.2677L155.425 16.0879V15.3724H154.5ZM154.5 6H155.425V5.075H154.5V6ZM145.133 6V5.075H144.416L144.238 5.76944L145.133 6ZM135.802 6.925H137.967V5.075H135.802V6.925ZM132.219 9.7C134.375 9.7 136.185 8.22516 136.698 6.23056L134.907 5.76944C134.599 6.96651 133.511 7.85 132.219 7.85V9.7ZM127.74 6.23056C128.253 8.22516 130.063 9.7 132.219 9.7V7.85C130.927 7.85 129.84 6.96651 129.531 5.76944L127.74 6.23056ZM125.636 6.925H128.636V5.075H125.636V6.925ZM122.052 9.70385C124.21 9.70385 126.021 8.22665 126.532 6.2296L124.74 5.7704C124.433 6.96894 123.345 7.85385 122.052 7.85385V9.70385ZM117.571 6.2296C118.083 8.22664 119.894 9.70385 122.052 9.70385V7.85385C120.759 7.85385 119.67 6.96894 119.363 5.7704L117.571 6.2296ZM115.469 6.925H118.467V5.075H115.469V6.925ZM111.884 9.70385C114.043 9.70385 115.853 8.22665 116.365 6.2296L114.573 5.7704C114.266 6.96894 113.177 7.85385 111.884 7.85385V9.70385ZM107.404 6.2296C107.916 8.22664 109.726 9.70385 111.884 9.70385V7.85385C110.592 7.85385 109.503 6.96894 109.196 5.7704L107.404 6.2296ZM105.302 6.925H108.3V5.075H105.302V6.925ZM101.717 9.70385C103.875 9.70385 105.686 8.22665 106.198 6.2296L104.406 5.7704C104.098 6.96894 103.01 7.85385 101.717 7.85385V9.70385ZM97.2367 6.2296C97.7484 8.22664 99.5591 9.70385 101.717 9.70385V7.85385C100.424 7.85385 99.3359 6.96894 99.0288 5.7704L97.2367 6.2296ZM95.1343 6.925H98.1328V5.075H95.1343V6.925ZM91.5499 9.70385C93.708 9.70385 95.5187 8.22665 96.0304 6.2296L94.2383 5.7704C93.9312 6.96894 92.8427 7.85385 91.5499 7.85385V9.70385ZM87.0694 6.2296C87.5811 8.22664 89.3918 9.70385 91.5499 9.70385V7.85385C90.2571 7.85385 89.1686 6.96894 88.8615 5.7704L87.0694 6.2296ZM84.966 6.925H87.9655V5.075H84.966V6.925ZM81.3826 9.7C83.5389 9.7 85.3485 8.22516 85.8618 6.23056L84.0702 5.76944C83.7621 6.96651 82.6744 7.85 81.3826 7.85V9.7ZM76.9034 6.23057C77.4167 8.22516 79.2263 9.7 81.3826 9.7V7.85C80.0908 7.85 79.0031 6.96651 78.695 5.76943L76.9034 6.23057ZM74.7997 6.925H77.7992V5.075H74.7997V6.925ZM71.2153 9.70385C73.3734 9.70385 75.1841 8.22664 75.6958 6.2296L73.9037 5.7704C73.5966 6.96894 72.5081 7.85385 71.2153 7.85385V9.70385ZM66.7348 6.22959C67.2465 8.22665 69.0573 9.70385 71.2153 9.70385V7.85385C69.9225 7.85385 68.834 6.96893 68.5269 5.77041L66.7348 6.22959ZM64.6286 6.925H67.6309V5.075H64.6286V6.925ZM61.0442 9.70385C63.2022 9.70385 65.0129 8.22665 65.5246 6.22959L63.7325 5.77041C63.4254 6.96893 62.337 7.85385 61.0442 7.85385V9.70385ZM56.5637 6.22959C57.0754 8.22665 58.8861 9.70385 61.0442 9.70385V7.85385C59.7514 7.85385 58.6629 6.96893 58.3558 5.77041L56.5637 6.22959ZM54.4613 6.925H57.4597V5.075H54.4613V6.925ZM50.8769 9.70385C53.0349 9.70385 54.8457 8.22665 55.3573 6.22959L53.5652 5.77041C53.2581 6.96893 52.1697 7.85385 50.8769 7.85385V9.70385ZM46.3964 6.22959C46.9081 8.22665 48.7188 9.70385 50.8769 9.70385V7.85385C49.5841 7.85385 48.4956 6.96893 48.1885 5.77041L46.3964 6.22959ZM44.294 6.925H47.2924V5.075H44.294V6.925ZM40.7096 9.70385C42.8676 9.70385 44.6784 8.22665 45.1901 6.22959L43.398 5.77041C43.0909 6.96893 42.0024 7.85385 40.7096 7.85385V9.70385ZM36.2291 6.22959C36.7408 8.22665 38.5515 9.70385 40.7096 9.70385V7.85385C39.4168 7.85385 38.3283 6.96893 38.0212 5.77041L36.2291 6.22959ZM34.1267 6.925H37.1252V5.075H34.1267V6.925ZM30.5423 9.70385C32.7004 9.70385 34.5111 8.22665 35.0228 6.22959L33.2307 5.77041C32.9236 6.96893 31.8351 7.85385 30.5423 7.85385V9.70385ZM26.0618 6.22959C26.5735 8.22665 28.3842 9.70385 30.5423 9.70385V7.85385C29.2495 7.85385 28.161 6.96894 27.8539 5.77041L26.0618 6.22959ZM23.9594 6.925H26.9579V5.075H23.9594V6.925ZM20.375 9.70385C22.5331 9.70385 24.3438 8.22665 24.8555 6.22959L23.0634 5.77041C22.7563 6.96894 21.6678 7.85385 20.375 7.85385V9.70385ZM15.8945 6.22959C16.4062 8.22665 18.2169 9.70385 20.375 9.70385V7.85385C19.0822 7.85385 17.9937 6.96894 17.6866 5.77041L15.8945 6.22959ZM15.75 6.925H16.7906V5.075H15.75V6.925ZM6.5 6.925H15.75V5.075H6.5V6.925ZM7.425 15.25V6H5.575V15.25H7.425ZM7.425 15.3704V15.25H5.575V15.3704H7.425ZM10.2 18.9539C10.2 16.7975 8.72516 14.988 6.73056 14.4746L6.26944 16.2662C7.46651 16.5743 8.35 17.6621 8.35 18.9539L10.2 18.9539ZM6.73056 23.4331C8.72516 22.9197 10.2 21.1102 10.2 18.9539H8.35C8.35 20.2456 7.46651 21.3334 6.26944 21.6415L6.73056 23.4331ZM7.425 25.5454V22.5373H5.575V25.5454H7.425ZM10.2 29.1289C10.2 26.9725 8.72516 25.163 6.73056 24.6496L6.26944 26.4412C7.46651 26.7493 8.35 27.8371 8.35 29.1289L10.2 29.1289ZM6.73056 33.6081C8.72516 33.0947 10.2 31.2852 10.2 29.1289H8.35C8.35 30.4206 7.46651 31.5084 6.26944 31.8165L6.73056 33.6081ZM7.425 35.7204V32.7123H5.575V35.7204H7.425ZM10.2 39.3039C10.2 37.1475 8.72516 35.338 6.73056 34.8246L6.26944 36.6162C7.46651 36.9243 8.35 38.0121 8.35 39.3039L10.2 39.3039ZM6.73056 43.7831C8.72516 43.2697 10.2 41.4602 10.2 39.3039H8.35C8.35 40.5956 7.46651 41.6834 6.26944 41.9915L6.73056 43.7831ZM7.425 45.8954V42.8873H5.575V45.8954H7.425ZM10.2 49.4789C10.2 47.3225 8.72516 45.513 6.73056 44.9996L6.26944 46.7912C7.46651 47.0993 8.35 48.1871 8.35 49.4789H10.2ZM6.73056 53.9581C8.72516 53.4447 10.2 51.6352 10.2 49.4789L8.35 49.4789C8.35 50.7706 7.46651 51.8584 6.26944 52.1665L6.73056 53.9581ZM7.425 56.0704V53.0623H5.575V56.0704H7.425ZM10.2 59.6539C10.2 57.4975 8.72516 55.688 6.73056 55.1746L6.26944 56.9662C7.46651 57.2743 8.35 58.3621 8.35 59.6539H10.2ZM6.73057 64.1331C8.72516 63.6197 10.2 61.8102 10.2 59.6539L8.35 59.6539C8.35 60.9456 7.46651 62.0334 6.26944 62.3415L6.73057 64.1331ZM7.425 66.2454L7.425 63.2373L5.575 63.2373L5.575 66.2454L7.425 66.2454ZM10.2 69.8289C10.2 67.6725 8.72516 65.863 6.73057 65.3496L6.26944 67.1412C7.46651 67.4493 8.35 68.5371 8.35 69.8289H10.2ZM6.73057 74.3081C8.72516 73.7947 10.2 71.9852 10.2 69.8289L8.35 69.8289C8.35 71.1206 7.46651 72.2084 6.26944 72.5165L6.73057 74.3081ZM7.425 76.4204L7.425 73.4123L5.575 73.4123L5.575 76.4204L7.425 76.4204ZM10.2 80.0039C10.2 77.8475 8.72516 76.038 6.73057 75.5246L6.26944 77.3162C7.46651 77.6243 8.35 78.7121 8.35 80.0039H10.2ZM6.73057 84.4831C8.72516 83.9697 10.2 82.1602 10.2 80.0039L8.35 80.0039C8.35 81.2956 7.46651 82.3834 6.26944 82.6915L6.73057 84.4831ZM7.425 86.5954L7.425 83.5873L5.575 83.5873L5.575 86.5954L7.425 86.5954ZM10.2 90.1788C10.2 88.0225 8.72516 86.213 6.73057 85.6996L6.26944 87.4912C7.46651 87.7993 8.35 88.8871 8.35 90.1788H10.2ZM6.73057 94.6581C8.72516 94.1447 10.2 92.3352 10.2 90.1788H8.35C8.35 91.4706 7.46651 92.5584 6.26944 92.8665L6.73057 94.6581ZM7.425 96.7704L7.425 93.7623L5.575 93.7623L5.575 96.7704L7.425 96.7704ZM10.2 100.354C10.2 98.1975 8.72516 96.388 6.73057 95.8746L6.26944 97.6662C7.46651 97.9743 8.35 99.0621 8.35 100.354H10.2ZM6.73057 104.833C8.72516 104.32 10.2 102.51 10.2 100.354H8.35C8.35 101.646 7.46651 102.733 6.26944 103.041L6.73057 104.833ZM7.425 106.945L7.425 103.937L5.575 103.937L5.575 106.945L7.425 106.945ZM10.2 110.529C10.2 108.373 8.72516 106.563 6.73057 106.05L6.26944 107.841C7.46651 108.149 8.35 109.237 8.35 110.529H10.2ZM6.73057 115.008C8.72516 114.495 10.2 112.685 10.2 110.529H8.35C8.35 111.821 7.46651 112.908 6.26944 113.216L6.73057 115.008ZM7.425 117.12L7.425 114.112L5.575 114.112L5.575 117.12L7.425 117.12ZM10.2 120.704C10.2 118.548 8.72516 116.738 6.73057 116.225L6.26944 118.016C7.46651 118.324 8.35 119.412 8.35 120.704H10.2ZM6.73057 125.183C8.72516 124.67 10.2 122.86 10.2 120.704H8.35C8.35 121.996 7.46651 123.083 6.26944 123.391L6.73057 125.183ZM7.42501 127.295L7.425 124.287L5.575 124.287L5.57501 127.295L7.42501 127.295ZM10.2 130.879C10.2 128.723 8.72516 126.913 6.73057 126.4L6.26944 128.191C7.46651 128.499 8.35 129.587 8.35 130.879H10.2ZM6.73057 135.358C8.72516 134.845 10.2 133.035 10.2 130.879H8.35C8.35 132.171 7.46651 133.258 6.26944 133.566L6.73057 135.358ZM7.42501 137.467L7.42501 134.462L5.57501 134.462L5.57501 137.467L7.42501 137.467ZM10.2 141.05C10.2 138.894 8.72516 137.084 6.73057 136.571L6.26944 138.362C7.46651 138.67 8.35 139.758 8.35 141.05L10.2 141.05ZM6.73057 145.529C8.72517 145.016 10.2 143.206 10.2 141.05H8.35C8.35 142.342 7.46651 143.43 6.26944 143.738L6.73057 145.529ZM7.42501 144.75L7.42501 144.633L5.57501 144.633L5.57501 144.75L7.42501 144.75ZM7.425 154L7.42501 144.75L5.57501 144.75L5.575 154L7.425 154ZM15.75 153.075H6.5V154.925H15.75V153.075ZM15.8665 153.075H15.75V154.925H15.8665V153.075ZM19.45 150.3C17.2936 150.3 15.484 151.775 14.9707 153.769L16.7624 154.231C17.0704 153.033 18.1582 152.15 19.45 152.15V150.3ZM23.9293 153.769C23.416 151.775 21.6064 150.3 19.45 150.3V152.15C20.7418 152.15 21.8296 153.033 22.1376 154.231L23.9293 153.769ZM26.0415 153.075H23.0335V154.925H26.0415V153.075ZM29.625 150.3C27.4686 150.3 25.659 151.775 25.1457 153.769L26.9374 154.231C27.2454 153.033 28.3332 152.15 29.625 152.15V150.3ZM34.1043 153.769C33.591 151.775 31.7814 150.3 29.625 150.3V152.15C30.9168 152.15 32.0046 153.033 32.3126 154.231L34.1043 153.769ZM36.2165 153.075H33.2085V154.925H36.2165V153.075ZM39.8 150.3C37.6436 150.3 35.834 151.775 35.3207 153.769L37.1124 154.231C37.4204 153.033 38.5082 152.15 39.8 152.15V150.3ZM44.2793 153.769C43.766 151.775 41.9564 150.3 39.8 150.3V152.15C41.0918 152.15 42.1796 153.033 42.4876 154.231L44.2793 153.769ZM46.3915 153.075H43.3835V154.925H46.3915V153.075ZM49.975 150.3C47.8186 150.3 46.009 151.775 45.4957 153.769L47.2874 154.231C47.5954 153.033 48.6832 152.15 49.975 152.15V150.3ZM54.4543 153.769C53.941 151.775 52.1314 150.3 49.975 150.3V152.15C51.2668 152.15 52.3546 153.033 52.6626 154.231L54.4543 153.769ZM56.5665 153.075H53.5585V154.925H56.5665V153.075ZM60.15 150.3C57.9936 150.3 56.184 151.775 55.6707 153.769L57.4624 154.231C57.7704 153.033 58.8582 152.15 60.15 152.15V150.3ZM64.6293 153.769C64.116 151.775 62.3064 150.3 60.15 150.3V152.15C61.4418 152.15 62.5296 153.033 62.8377 154.231L64.6293 153.769ZM66.7415 153.075H63.7335V154.925H66.7415V153.075ZM70.325 150.3C68.1686 150.3 66.359 151.775 65.8457 153.769L67.6374 154.231C67.9454 153.033 69.0332 152.15 70.325 152.15V150.3ZM74.8043 153.769C74.2909 151.775 72.4814 150.3 70.325 150.3V152.15C71.6168 152.15 72.7046 153.033 73.0127 154.231L74.8043 153.769ZM76.9165 153.075H73.9085V154.925H76.9165V153.075ZM80.5 150.3C78.3436 150.3 76.534 151.775 76.0207 153.769L77.8123 154.231C78.1204 153.033 79.2082 152.15 80.5 152.15V150.3ZM84.9793 153.769C84.4659 151.775 82.6564 150.3 80.5 150.3V152.15C81.7918 152.15 82.8796 153.033 83.1876 154.231L84.9793 153.769ZM87.0915 153.075H84.0835V154.925H87.0915V153.075ZM90.675 150.3C88.5186 150.3 86.709 151.775 86.1957 153.769L87.9873 154.231C88.2954 153.033 89.3832 152.15 90.675 152.15V150.3ZM95.1543 153.769C94.6409 151.775 92.8314 150.3 90.675 150.3V152.15C91.9668 152.15 93.0546 153.033 93.3626 154.231L95.1543 153.769ZM97.2665 153.075H94.2585V154.925H97.2665V153.075ZM100.85 150.3C98.6936 150.3 96.8841 151.775 96.3707 153.769L98.1624 154.231C98.4704 153.033 99.5582 152.15 100.85 152.15V150.3ZM105.329 153.769C104.816 151.775 103.006 150.3 100.85 150.3V152.15C102.142 152.15 103.23 153.033 103.538 154.231L105.329 153.769ZM107.442 153.075H104.433V154.925H107.442V153.075ZM111.025 150.3C108.869 150.3 107.059 151.775 106.546 153.769L108.337 154.231C108.645 153.033 109.733 152.15 111.025 152.15V150.3ZM115.504 153.769C114.991 151.775 113.181 150.3 111.025 150.3V152.15C112.317 152.15 113.405 153.033 113.713 154.231L115.504 153.769ZM117.617 153.075H114.608V154.925H117.617V153.075ZM121.2 150.3C119.044 150.3 117.234 151.775 116.721 153.769L118.512 154.231C118.82 153.033 119.908 152.15 121.2 152.15V150.3ZM125.679 153.769C125.166 151.775 123.356 150.3 121.2 150.3V152.15C122.492 152.15 123.58 153.033 123.888 154.231L125.679 153.769ZM127.792 153.075H124.783V154.925H127.792V153.075ZM131.375 150.3C129.219 150.3 127.409 151.775 126.896 153.769L128.687 154.231C128.995 153.033 130.083 152.15 131.375 152.15V150.3ZM135.854 153.769C135.341 151.775 133.531 150.3 131.375 150.3V152.15C132.667 152.15 133.755 153.033 134.063 154.231L135.854 153.769ZM137.967 153.075H134.958V154.925H137.967V153.075ZM141.55 150.3C139.394 150.3 137.584 151.775 137.071 153.769L138.862 154.231C139.17 153.033 140.258 152.15 141.55 152.15V150.3ZM146.029 153.769C145.516 151.775 143.706 150.3 141.55 150.3V152.15C142.842 152.15 143.93 153.033 144.238 154.231L146.029 153.769ZM145.25 153.075H145.133V154.925H145.25V153.075ZM154.5 153.075H145.25V154.925H154.5V153.075ZM153.575 144.75V154H155.425V144.75H153.575ZM153.575 144.629V144.75H155.425V144.629H153.575ZM150.815 141.05C150.815 143.199 152.281 145.004 154.266 145.524L154.734 143.735C153.543 143.423 152.665 142.338 152.665 141.05H150.815ZM154.266 136.576C152.281 137.096 150.815 138.901 150.815 141.05H152.665C152.665 139.762 153.543 138.677 154.734 138.365L154.266 136.576ZM153.575 134.458V137.471H155.425V134.458H153.575ZM150.815 130.879C150.815 133.028 152.281 134.833 154.266 135.353L154.734 133.563C153.543 133.251 152.665 132.166 152.665 130.879H150.815ZM154.266 126.405C152.281 126.925 150.815 128.729 150.815 130.879H152.665C152.665 129.591 153.543 128.506 154.734 128.194L154.266 126.405ZM153.575 124.283V127.299H155.425V124.283H153.575ZM150.815 120.704C150.815 122.853 152.281 124.658 154.266 125.178L154.734 123.388C153.543 123.076 152.665 121.991 152.665 120.704H150.815ZM154.266 116.23C152.281 116.75 150.815 118.554 150.815 120.704H152.665C152.665 119.416 153.543 118.331 154.734 118.019L154.266 116.23ZM153.575 114.11V117.124H155.425V114.11H153.575ZM150.808 110.529C150.808 112.682 152.278 114.489 154.267 115.006L154.733 113.215C153.538 112.905 152.658 111.819 152.658 110.529H150.808ZM154.267 106.052C152.278 106.569 150.808 108.376 150.808 110.529H152.658C152.658 109.239 153.538 108.153 154.733 107.843L154.267 106.052ZM153.575 103.933V106.947H155.425V103.933H153.575ZM150.815 100.354C150.815 102.503 152.281 104.308 154.266 104.828L154.734 103.038C153.543 102.726 152.665 101.641 152.665 100.354H150.815ZM154.266 95.8796C152.281 96.3997 150.815 98.2045 150.815 100.354H152.665C152.665 99.0663 153.543 97.9813 154.734 97.6692L154.266 95.8796ZM153.575 93.7603V96.7744H155.425V93.7603H153.575ZM150.808 90.1788C150.808 92.3317 152.278 94.1389 154.267 94.6556L154.733 92.865C153.538 92.5549 152.658 91.4685 152.658 90.1788H150.808ZM154.267 85.7021C152.278 86.2188 150.808 88.026 150.808 90.1788H152.658C152.658 88.8892 153.538 87.8028 154.733 87.4927L154.267 85.7021ZM153.575 83.5833V86.5974H155.425V83.5833H153.575ZM150.815 80.0039C150.815 82.1532 152.281 83.958 154.266 84.4781L154.734 82.6885C153.543 82.3764 152.665 81.2914 152.665 80.0039H150.815ZM154.266 75.5296C152.281 76.0497 150.815 77.8545 150.815 80.0039H152.665C152.665 78.7163 153.543 77.6313 154.734 77.3192L154.266 75.5296ZM153.575 73.4083V76.4244H155.425V73.4083H153.575ZM150.815 69.8289C150.815 71.9783 152.281 73.783 154.266 74.3031L154.734 72.5135C153.543 72.2014 152.665 71.1164 152.665 69.8289H150.815ZM154.266 65.3546C152.281 65.8747 150.815 67.6795 150.815 69.8289H152.665C152.665 68.5413 153.543 67.4563 154.734 67.1442L154.266 65.3546ZM153.575 63.2333V66.2494H155.425V63.2333H153.575ZM150.815 59.6539C150.815 61.8033 152.281 63.608 154.266 64.1281L154.734 62.3385C153.543 62.0264 152.665 60.9414 152.665 59.6539H150.815ZM154.266 55.1796C152.281 55.6997 150.815 57.5045 150.815 59.6539H152.665C152.665 58.3663 153.543 57.2813 154.734 56.9692L154.266 55.1796ZM153.575 53.0603V56.0744H155.425V53.0603H153.575ZM150.808 49.4789C150.808 51.6317 152.278 53.4389 154.267 53.9556L154.733 52.165C153.538 51.8549 152.658 50.7685 152.658 49.4789H150.808ZM154.267 45.0021C152.278 45.5188 150.808 47.326 150.808 49.4789H152.658C152.658 48.1892 153.538 47.1028 154.733 46.7927L154.267 45.0021ZM153.575 42.8853V45.8974H155.425V42.8853H153.575ZM150.808 39.3039C150.808 41.4567 152.278 43.2639 154.267 43.7806L154.733 41.99C153.538 41.6799 152.658 40.5935 152.658 39.3039H150.808ZM154.267 34.8271C152.278 35.3438 150.808 37.151 150.808 39.3039H152.658C152.658 38.0142 153.538 36.9278 154.733 36.6177L154.267 34.8271ZM153.575 32.7083V35.7224H155.425V32.7083H153.575ZM150.815 29.1289C150.815 31.2783 152.281 33.0831 154.266 33.6031L154.734 31.8135C153.543 31.5014 152.665 30.4164 152.665 29.1289H150.815ZM154.266 24.6546C152.281 25.1747 150.815 26.9795 150.815 29.1289H152.665C152.665 27.8413 153.543 26.7563 154.734 26.4442L154.266 24.6546ZM153.575 22.5353V25.5494H155.425V22.5353H153.575ZM150.808 18.9539C150.808 21.1067 152.278 22.9139 154.267 23.4306L154.733 21.64C153.538 21.3299 152.658 20.2435 152.658 18.9539H150.808ZM154.267 14.4771C152.278 14.9938 150.808 16.801 150.808 18.9539H152.658C152.658 17.6642 153.538 16.5778 154.733 16.2677L154.267 14.4771ZM153.575 15.25V15.3724H155.425V15.25H153.575ZM153.575 6V15.25H155.425V6H153.575ZM145.25 6.925H154.5V5.075H145.25V6.925ZM145.133 6.925H145.25V5.075H145.133V6.925ZM141.55 9.7C143.706 9.7 145.516 8.22516 146.029 6.23056L144.238 5.76944C143.93 6.96651 142.842 7.85 141.55 7.85V9.7ZM137.071 6.23056C137.584 8.22516 139.394 9.7 141.55 9.7V7.85C140.258 7.85 139.17 6.96651 138.862 5.76944L137.071 6.23056Z" fill="#18181A" mask="url(#path-1-inside-1_1437_49044)"/>
<rect x="14" y="13.5" width="133" height="133" fill="#EB9244"/>
<rect x="14" y="13.5" width="133" height="133" stroke="#22242D"/>
<path d="M31.468 37H18.388C18.388 28.6 25.708 28.36 25.708 25.768C25.708 25.096 25.252 24.64 24.484 24.64C23.596 24.64 22.924 25.336 22.588 25.84L18.196 23.8C18.94 22.048 21.34 19.72 25.108 19.72C29.068 19.72 31.588 22.24 31.588 25.24C31.588 29.32 27.148 30.448 25.588 32.2H31.468V37ZM40.012 37.48C35.452 37.48 32.98 35.008 32.98 32.248C32.98 30.136 34.588 28.624 36.028 28.048C34.924 27.544 33.58 26.296 33.58 24.448C33.58 22.048 35.932 19.72 40.012 19.72C44.092 19.72 46.42 22.048 46.42 24.448C46.42 26.296 45.1 27.544 43.996 28.048C45.412 28.624 47.02 30.136 47.02 32.248C47.02 35.008 44.572 37.48 40.012 37.48ZM40.012 26.44C40.732 26.44 41.332 25.888 41.332 25.168C41.332 24.448 40.732 23.92 40.012 23.92C39.292 23.92 38.692 24.448 38.692 25.168C38.692 25.888 39.292 26.44 40.012 26.44ZM40.012 33.28C40.9 33.28 41.62 32.68 41.62 31.768C41.62 30.88 40.9 30.28 40.012 30.28C39.1 30.28 38.38 30.88 38.38 31.768C38.38 32.68 39.1 33.28 40.012 33.28Z" fill="#F9E29C"/>
<path d="M33 130.875L30.75 136.125L24.7508 136.603L33 130.875Z" fill="#A68A34" stroke="#22242D" stroke-width="0.375" stroke-linejoin="round"/>
<path d="M30.75 136.125L29.1243 132.246L26.6448 130.5L23.6881 131.475L22.972 133.127L20.0307 134.107L24.75 139.5L29.4993 138.75L30.75 136.125Z" fill="#A68A34" stroke="#22242D" stroke-width="0.375" stroke-linejoin="round"/>
<path d="M30.75 135L28.5 132L28.5 135L30.75 135Z" fill="#FFE493" stroke="#22242D" stroke-width="0.375" stroke-linejoin="round"/>
<path d="M28.623 135.698L28.623 132.068L26.6435 130.5L23.6868 131.475L22.8486 133.004L18.4367 134.475L20.275 139.5L26.5433 138.47L28.623 135.698Z" fill="#FFE493" stroke="#22242D" stroke-width="0.375" stroke-linejoin="round"/>
<path d="M17.9999 131.301L28.5557 135.796L26.5268 138.519L22.2374 139.132L17.9999 131.301Z" fill="#FFE493" stroke="#22242D" stroke-width="0.375" stroke-linejoin="round"/>
<path d="M55 130.875L52.75 136.125L46.7508 136.603L55 130.875Z" fill="#A68A34" stroke="#22242D" stroke-width="0.375" stroke-linejoin="round"/>
<path d="M52.75 136.125L51.1243 132.246L48.6448 130.5L45.6881 131.475L44.972 133.127L42.0307 134.107L46.75 139.5L51.4993 138.75L52.75 136.125Z" fill="#A68A34" stroke="#22242D" stroke-width="0.375" stroke-linejoin="round"/>
<path d="M52.75 135L50.5 132L50.5 135L52.75 135Z" fill="#FFE493" stroke="#22242D" stroke-width="0.375" stroke-linejoin="round"/>
<path d="M50.623 135.698L50.623 132.068L48.6435 130.5L45.6868 131.475L44.8486 133.004L40.4367 134.475L42.275 139.5L48.5433 138.47L50.623 135.698Z" fill="#FFE493" stroke="#22242D" stroke-width="0.375" stroke-linejoin="round"/>
<path d="M39.9999 131.301L50.5557 135.796L48.5268 138.519L44.2374 139.132L39.9999 131.301Z" fill="#FFE493" stroke="#22242D" stroke-width="0.375" stroke-linejoin="round"/>
<path d="M77 130.875L74.75 136.125L68.7508 136.603L77 130.875Z" fill="#A68A34" stroke="#22242D" stroke-width="0.375" stroke-linejoin="round"/>
<path d="M74.75 136.125L73.1243 132.246L70.6448 130.5L67.6881 131.475L66.972 133.127L64.0307 134.107L68.75 139.5L73.4993 138.75L74.75 136.125Z" fill="#A68A34" stroke="#22242D" stroke-width="0.375" stroke-linejoin="round"/>
<path d="M74.75 135L72.5 132L72.5 135L74.75 135Z" fill="#FFE493" stroke="#22242D" stroke-width="0.375" stroke-linejoin="round"/>
<path d="M72.623 135.698L72.623 132.068L70.6435 130.5L67.6868 131.475L66.8486 133.004L62.4367 134.475L64.275 139.5L70.5433 138.47L72.623 135.698Z" fill="#FFE493" stroke="#22242D" stroke-width="0.375" stroke-linejoin="round"/>
<path d="M61.9999 131.301L72.5557 135.796L70.5268 138.519L66.2374 139.132L61.9999 131.301Z" fill="#FFE493" stroke="#22242D" stroke-width="0.375" stroke-linejoin="round"/>
<path d="M99 130.875L96.75 136.125L90.7508 136.603L99 130.875Z" fill="#A68A34" stroke="#22242D" stroke-width="0.375" stroke-linejoin="round"/>
<path d="M96.75 136.125L95.1243 132.246L92.6448 130.5L89.6881 131.475L88.972 133.127L86.0307 134.107L90.75 139.5L95.4993 138.75L96.75 136.125Z" fill="#A68A34" stroke="#22242D" stroke-width="0.375" stroke-linejoin="round"/>
<path d="M96.75 135L94.5 132L94.5 135L96.75 135Z" fill="#FFE493" stroke="#22242D" stroke-width="0.375" stroke-linejoin="round"/>
<path d="M94.623 135.698L94.623 132.068L92.6435 130.5L89.6868 131.475L88.8486 133.004L84.4367 134.475L86.275 139.5L92.5433 138.47L94.623 135.698Z" fill="#FFE493" stroke="#22242D" stroke-width="0.375" stroke-linejoin="round"/>
<path d="M83.9999 131.301L94.5557 135.796L92.5268 138.519L88.2374 139.132L83.9999 131.301Z" fill="#FFE493" stroke="#22242D" stroke-width="0.375" stroke-linejoin="round"/>
<path d="M121 130.875L118.75 136.125L112.751 136.603L121 130.875Z" fill="#A68A34" stroke="#22242D" stroke-width="0.375" stroke-linejoin="round"/>
<path d="M118.75 136.125L117.124 132.246L114.645 130.5L111.688 131.475L110.972 133.127L108.031 134.107L112.75 139.5L117.499 138.75L118.75 136.125Z" fill="#A68A34" stroke="#22242D" stroke-width="0.375" stroke-linejoin="round"/>
<path d="M118.75 135L116.5 132L116.5 135L118.75 135Z" fill="#FFE493" stroke="#22242D" stroke-width="0.375" stroke-linejoin="round"/>
<path d="M116.623 135.698L116.623 132.068L114.644 130.5L111.687 131.475L110.849 133.004L106.437 134.475L108.275 139.5L114.543 138.47L116.623 135.698Z" fill="#FFE493" stroke="#22242D" stroke-width="0.375" stroke-linejoin="round"/>
<path d="M106 131.301L116.556 135.796L114.527 138.519L110.237 139.132L106 131.301Z" fill="#FFE493" stroke="#22242D" stroke-width="0.375" stroke-linejoin="round"/>
<path d="M143 130.875L140.75 136.125L134.751 136.603L143 130.875Z" fill="#A68A34" stroke="#22242D" stroke-width="0.375" stroke-linejoin="round"/>
<path d="M140.75 136.125L139.124 132.246L136.645 130.5L133.688 131.475L132.972 133.127L130.031 134.107L134.75 139.5L139.499 138.75L140.75 136.125Z" fill="#A68A34" stroke="#22242D" stroke-width="0.375" stroke-linejoin="round"/>
<path d="M140.75 135L138.5 132L138.5 135L140.75 135Z" fill="#FFE493" stroke="#22242D" stroke-width="0.375" stroke-linejoin="round"/>
<path d="M138.623 135.698L138.623 132.068L136.644 130.5L133.687 131.475L132.849 133.004L128.437 134.475L130.275 139.5L136.543 138.47L138.623 135.698Z" fill="#FFE493" stroke="#22242D" stroke-width="0.375" stroke-linejoin="round"/>
<path d="M128 131.301L138.556 135.796L136.527 138.519L132.237 139.132L128 131.301Z" fill="#FFE493" stroke="#22242D" stroke-width="0.375" stroke-linejoin="round"/>
<path d="M33 110.875L30.75 116.125L24.7508 116.603L33 110.875Z" fill="#A68A34" stroke="#22242D" stroke-width="0.375" stroke-linejoin="round"/>
<path d="M30.75 116.125L29.1243 112.246L26.6448 110.5L23.6881 111.475L22.972 113.127L20.0307 114.107L24.75 119.5L29.4993 118.75L30.75 116.125Z" fill="#A68A34" stroke="#22242D" stroke-width="0.375" stroke-linejoin="round"/>
<path d="M30.75 115L28.5 112L28.5 115L30.75 115Z" fill="#FFE493" stroke="#22242D" stroke-width="0.375" stroke-linejoin="round"/>
<path d="M28.623 115.698L28.623 112.068L26.6435 110.5L23.6868 111.475L22.8486 113.004L18.4367 114.475L20.275 119.5L26.5433 118.47L28.623 115.698Z" fill="#FFE493" stroke="#22242D" stroke-width="0.375" stroke-linejoin="round"/>
<path d="M17.9999 111.301L28.5557 115.796L26.5268 118.519L22.2374 119.132L17.9999 111.301Z" fill="#FFE493" stroke="#22242D" stroke-width="0.375" stroke-linejoin="round"/>
<path d="M55 110.875L52.75 116.125L46.7508 116.603L55 110.875Z" fill="#A68A34" stroke="#22242D" stroke-width="0.375" stroke-linejoin="round"/>
<path d="M52.75 116.125L51.1243 112.246L48.6448 110.5L45.6881 111.475L44.972 113.127L42.0307 114.107L46.75 119.5L51.4993 118.75L52.75 116.125Z" fill="#A68A34" stroke="#22242D" stroke-width="0.375" stroke-linejoin="round"/>
<path d="M52.75 115L50.5 112L50.5 115L52.75 115Z" fill="#FFE493" stroke="#22242D" stroke-width="0.375" stroke-linejoin="round"/>
<path d="M50.623 115.698L50.623 112.068L48.6435 110.5L45.6868 111.475L44.8486 113.004L40.4367 114.475L42.275 119.5L48.5433 118.47L50.623 115.698Z" fill="#FFE493" stroke="#22242D" stroke-width="0.375" stroke-linejoin="round"/>
<path d="M39.9999 111.301L50.5557 115.796L48.5268 118.519L44.2374 119.132L39.9999 111.301Z" fill="#FFE493" stroke="#22242D" stroke-width="0.375" stroke-linejoin="round"/>
<path d="M77 110.875L74.75 116.125L68.7508 116.603L77 110.875Z" fill="#A68A34" stroke="#22242D" stroke-width="0.375" stroke-linejoin="round"/>
<path d="M74.75 116.125L73.1243 112.246L70.6448 110.5L67.6881 111.475L66.972 113.127L64.0307 114.107L68.75 119.5L73.4993 118.75L74.75 116.125Z" fill="#A68A34" stroke="#22242D" stroke-width="0.375" stroke-linejoin="round"/>
<path d="M74.75 115L72.5 112L72.5 115L74.75 115Z" fill="#FFE493" stroke="#22242D" stroke-width="0.375" stroke-linejoin="round"/>
<path d="M72.623 115.698L72.623 112.068L70.6435 110.5L67.6868 111.475L66.8486 113.004L62.4367 114.475L64.275 119.5L70.5433 118.47L72.623 115.698Z" fill="#FFE493" stroke="#22242D" stroke-width="0.375" stroke-linejoin="round"/>
<path d="M61.9999 111.301L72.5557 115.796L70.5268 118.519L66.2374 119.132L61.9999 111.301Z" fill="#FFE493" stroke="#22242D" stroke-width="0.375" stroke-linejoin="round"/>
<path d="M99 110.875L96.75 116.125L90.7508 116.603L99 110.875Z" fill="#A68A34" stroke="#22242D" stroke-width="0.375" stroke-linejoin="round"/>
<path d="M96.75 116.125L95.1243 112.246L92.6448 110.5L89.6881 111.475L88.972 113.127L86.0307 114.107L90.75 119.5L95.4993 118.75L96.75 116.125Z" fill="#A68A34" stroke="#22242D" stroke-width="0.375" stroke-linejoin="round"/>
<path d="M96.75 115L94.5 112L94.5 115L96.75 115Z" fill="#FFE493" stroke="#22242D" stroke-width="0.375" stroke-linejoin="round"/>
<path d="M94.623 115.698L94.623 112.068L92.6435 110.5L89.6868 111.475L88.8486 113.004L84.4367 114.475L86.275 119.5L92.5433 118.47L94.623 115.698Z" fill="#FFE493" stroke="#22242D" stroke-width="0.375" stroke-linejoin="round"/>
<path d="M83.9999 111.301L94.5557 115.796L92.5268 118.519L88.2374 119.132L83.9999 111.301Z" fill="#FFE493" stroke="#22242D" stroke-width="0.375" stroke-linejoin="round"/>
<path d="M121 110.875L118.75 116.125L112.751 116.603L121 110.875Z" fill="#A68A34" stroke="#22242D" stroke-width="0.375" stroke-linejoin="round"/>
<path d="M118.75 116.125L117.124 112.246L114.645 110.5L111.688 111.475L110.972 113.127L108.031 114.107L112.75 119.5L117.499 118.75L118.75 116.125Z" fill="#A68A34" stroke="#22242D" stroke-width="0.375" stroke-linejoin="round"/>
<path d="M118.75 115L116.5 112L116.5 115L118.75 115Z" fill="#FFE493" stroke="#22242D" stroke-width="0.375" stroke-linejoin="round"/>
<path d="M116.623 115.698L116.623 112.068L114.644 110.5L111.687 111.475L110.849 113.004L106.437 114.475L108.275 119.5L114.543 118.47L116.623 115.698Z" fill="#FFE493" stroke="#22242D" stroke-width="0.375" stroke-linejoin="round"/>
<path d="M106 111.301L116.556 115.796L114.527 118.519L110.237 119.132L106 111.301Z" fill="#FFE493" stroke="#22242D" stroke-width="0.375" stroke-linejoin="round"/>
<path d="M143 110.875L140.75 116.125L134.751 116.603L143 110.875Z" fill="#A68A34" stroke="#22242D" stroke-width="0.375" stroke-linejoin="round"/>
<path d="M140.75 116.125L139.124 112.246L136.645 110.5L133.688 111.475L132.972 113.127L130.031 114.107L134.75 119.5L139.499 118.75L140.75 116.125Z" fill="#A68A34" stroke="#22242D" stroke-width="0.375" stroke-linejoin="round"/>
<path d="M140.75 115L138.5 112L138.5 115L140.75 115Z" fill="#FFE493" stroke="#22242D" stroke-width="0.375" stroke-linejoin="round"/>
<path d="M138.623 115.698L138.623 112.068L136.644 110.5L133.687 111.475L132.849 113.004L128.437 114.475L130.275 119.5L136.543 118.47L138.623 115.698Z" fill="#FFE493" stroke="#22242D" stroke-width="0.375" stroke-linejoin="round"/>
<path d="M128 111.301L138.556 115.796L136.527 118.519L132.237 119.132L128 111.301Z" fill="#FFE493" stroke="#22242D" stroke-width="0.375" stroke-linejoin="round"/>
<path d="M33 90.875L30.75 96.125L24.7508 96.6033L33 90.875Z" fill="#A68A34" stroke="#22242D" stroke-width="0.375" stroke-linejoin="round"/>
<path d="M30.75 96.125L29.1243 92.2455L26.6448 90.5L23.6881 91.4754L22.972 93.1268L20.0307 94.1072L24.75 99.5L29.4993 98.75L30.75 96.125Z" fill="#A68A34" stroke="#22242D" stroke-width="0.375" stroke-linejoin="round"/>
<path d="M30.75 95L28.5 92L28.5 95L30.75 95Z" fill="#FFE493" stroke="#22242D" stroke-width="0.375" stroke-linejoin="round"/>
<path d="M28.623 95.6981L28.623 92.0681L26.6435 90.5L23.6868 91.4754L22.8486 93.0042L18.4367 94.4749L20.275 99.4996L26.5433 98.4703L28.623 95.6981Z" fill="#FFE493" stroke="#22242D" stroke-width="0.375" stroke-linejoin="round"/>
<path d="M17.9999 91.3013L28.5557 95.7961L26.5268 98.5195L22.2374 99.1323L17.9999 91.3013Z" fill="#FFE493" stroke="#22242D" stroke-width="0.375" stroke-linejoin="round"/>
<path d="M55 90.875L52.75 96.125L46.7508 96.6033L55 90.875Z" fill="#A68A34" stroke="#22242D" stroke-width="0.375" stroke-linejoin="round"/>
<path d="M52.75 96.125L51.1243 92.2455L48.6448 90.5L45.6881 91.4754L44.972 93.1268L42.0307 94.1072L46.75 99.5L51.4993 98.75L52.75 96.125Z" fill="#A68A34" stroke="#22242D" stroke-width="0.375" stroke-linejoin="round"/>
<path d="M52.75 95L50.5 92L50.5 95L52.75 95Z" fill="#FFE493" stroke="#22242D" stroke-width="0.375" stroke-linejoin="round"/>
<path d="M50.623 95.6981L50.623 92.0681L48.6435 90.5L45.6868 91.4754L44.8486 93.0042L40.4367 94.4749L42.275 99.4996L48.5433 98.4703L50.623 95.6981Z" fill="#FFE493" stroke="#22242D" stroke-width="0.375" stroke-linejoin="round"/>
<path d="M39.9999 91.3013L50.5557 95.7961L48.5268 98.5195L44.2374 99.1323L39.9999 91.3013Z" fill="#FFE493" stroke="#22242D" stroke-width="0.375" stroke-linejoin="round"/>
<path d="M77 90.875L74.75 96.125L68.7508 96.6033L77 90.875Z" fill="#A68A34" stroke="#22242D" stroke-width="0.375" stroke-linejoin="round"/>
<path d="M74.75 96.125L73.1243 92.2455L70.6448 90.5L67.6881 91.4754L66.972 93.1268L64.0307 94.1072L68.75 99.5L73.4993 98.75L74.75 96.125Z" fill="#A68A34" stroke="#22242D" stroke-width="0.375" stroke-linejoin="round"/>
<path d="M74.75 95L72.5 92L72.5 95L74.75 95Z" fill="#FFE493" stroke="#22242D" stroke-width="0.375" stroke-linejoin="round"/>
<path d="M72.623 95.6981L72.623 92.0681L70.6435 90.5L67.6868 91.4754L66.8486 93.0042L62.4367 94.4749L64.275 99.4996L70.5433 98.4703L72.623 95.6981Z" fill="#FFE493" stroke="#22242D" stroke-width="0.375" stroke-linejoin="round"/>
<path d="M61.9999 91.3013L72.5557 95.7961L70.5268 98.5195L66.2374 99.1323L61.9999 91.3013Z" fill="#FFE493" stroke="#22242D" stroke-width="0.375" stroke-linejoin="round"/>
<path d="M99 90.875L96.75 96.125L90.7508 96.6033L99 90.875Z" fill="#A68A34" stroke="#22242D" stroke-width="0.375" stroke-linejoin="round"/>
<path d="M96.75 96.125L95.1243 92.2455L92.6448 90.5L89.6881 91.4754L88.972 93.1268L86.0307 94.1072L90.75 99.5L95.4993 98.75L96.75 96.125Z" fill="#A68A34" stroke="#22242D" stroke-width="0.375" stroke-linejoin="round"/>
<path d="M96.75 95L94.5 92L94.5 95L96.75 95Z" fill="#FFE493" stroke="#22242D" stroke-width="0.375" stroke-linejoin="round"/>
<path d="M94.623 95.6981L94.623 92.0681L92.6435 90.5L89.6868 91.4754L88.8486 93.0042L84.4367 94.4749L86.275 99.4996L92.5433 98.4703L94.623 95.6981Z" fill="#FFE493" stroke="#22242D" stroke-width="0.375" stroke-linejoin="round"/>
<path d="M83.9999 91.3013L94.5557 95.7961L92.5268 98.5195L88.2374 99.1323L83.9999 91.3013Z" fill="#FFE493" stroke="#22242D" stroke-width="0.375" stroke-linejoin="round"/>
<path d="M121 90.875L118.75 96.125L112.751 96.6033L121 90.875Z" fill="#A68A34" stroke="#22242D" stroke-width="0.375" stroke-linejoin="round"/>
<path d="M118.75 96.125L117.124 92.2455L114.645 90.5L111.688 91.4754L110.972 93.1268L108.031 94.1072L112.75 99.5L117.499 98.75L118.75 96.125Z" fill="#A68A34" stroke="#22242D" stroke-width="0.375" stroke-linejoin="round"/>
<path d="M118.75 95L116.5 92L116.5 95L118.75 95Z" fill="#FFE493" stroke="#22242D" stroke-width="0.375" stroke-linejoin="round"/>
<path d="M116.623 95.6981L116.623 92.0681L114.644 90.5L111.687 91.4754L110.849 93.0042L106.437 94.4749L108.275 99.4996L114.543 98.4703L116.623 95.6981Z" fill="#FFE493" stroke="#22242D" stroke-width="0.375" stroke-linejoin="round"/>
<path d="M106 91.3013L116.556 95.7961L114.527 98.5195L110.237 99.1323L106 91.3013Z" fill="#FFE493" stroke="#22242D" stroke-width="0.375" stroke-linejoin="round"/>
<path d="M143 90.875L140.75 96.125L134.751 96.6033L143 90.875Z" fill="#A68A34" stroke="#22242D" stroke-width="0.375" stroke-linejoin="round"/>
<path d="M140.75 96.125L139.124 92.2455L136.645 90.5L133.688 91.4754L132.972 93.1268L130.031 94.1072L134.75 99.5L139.499 98.75L140.75 96.125Z" fill="#A68A34" stroke="#22242D" stroke-width="0.375" stroke-linejoin="round"/>
<path d="M140.75 95L138.5 92L138.5 95L140.75 95Z" fill="#FFE493" stroke="#22242D" stroke-width="0.375" stroke-linejoin="round"/>
<path d="M138.623 95.6981L138.623 92.0681L136.644 90.5L133.687 91.4754L132.849 93.0042L128.437 94.4749L130.275 99.4996L136.543 98.4703L138.623 95.6981Z" fill="#FFE493" stroke="#22242D" stroke-width="0.375" stroke-linejoin="round"/>
<path d="M128 91.3013L138.556 95.7961L136.527 98.5195L132.237 99.1323L128 91.3013Z" fill="#FFE493" stroke="#22242D" stroke-width="0.375" stroke-linejoin="round"/>
<path d="M33 70.875L30.75 76.125L24.7508 76.6033L33 70.875Z" fill="#A68A34" stroke="#22242D" stroke-width="0.375" stroke-linejoin="round"/>
<path d="M30.75 76.125L29.1243 72.2455L26.6448 70.5L23.6881 71.4754L22.972 73.1268L20.0307 74.1072L24.75 79.5L29.4993 78.75L30.75 76.125Z" fill="#A68A34" stroke="#22242D" stroke-width="0.375" stroke-linejoin="round"/>
<path d="M30.75 75L28.5 72L28.5 75L30.75 75Z" fill="#FFE493" stroke="#22242D" stroke-width="0.375" stroke-linejoin="round"/>
<path d="M28.623 75.6981L28.623 72.0681L26.6435 70.5L23.6868 71.4754L22.8486 73.0042L18.4367 74.4749L20.275 79.4996L26.5433 78.4703L28.623 75.6981Z" fill="#FFE493" stroke="#22242D" stroke-width="0.375" stroke-linejoin="round"/>
<path d="M17.9999 71.3013L28.5557 75.7961L26.5268 78.5195L22.2374 79.1323L17.9999 71.3013Z" fill="#FFE493" stroke="#22242D" stroke-width="0.375" stroke-linejoin="round"/>
<path d="M55 70.875L52.75 76.125L46.7508 76.6033L55 70.875Z" fill="#A68A34" stroke="#22242D" stroke-width="0.375" stroke-linejoin="round"/>
<path d="M52.75 76.125L51.1243 72.2455L48.6448 70.5L45.6881 71.4754L44.972 73.1268L42.0307 74.1072L46.75 79.5L51.4993 78.75L52.75 76.125Z" fill="#A68A34" stroke="#22242D" stroke-width="0.375" stroke-linejoin="round"/>
<path d="M52.75 75L50.5 72L50.5 75L52.75 75Z" fill="#FFE493" stroke="#22242D" stroke-width="0.375" stroke-linejoin="round"/>
<path d="M50.623 75.6981L50.623 72.0681L48.6435 70.5L45.6868 71.4754L44.8486 73.0042L40.4367 74.4749L42.275 79.4996L48.5433 78.4703L50.623 75.6981Z" fill="#FFE493" stroke="#22242D" stroke-width="0.375" stroke-linejoin="round"/>
<path d="M39.9999 71.3013L50.5557 75.7961L48.5268 78.5195L44.2374 79.1323L39.9999 71.3013Z" fill="#FFE493" stroke="#22242D" stroke-width="0.375" stroke-linejoin="round"/>
<path d="M77 70.875L74.75 76.125L68.7508 76.6033L77 70.875Z" fill="#A68A34" stroke="#22242D" stroke-width="0.375" stroke-linejoin="round"/>
<path d="M74.75 76.125L73.1243 72.2455L70.6448 70.5L67.6881 71.4754L66.972 73.1268L64.0307 74.1072L68.75 79.5L73.4993 78.75L74.75 76.125Z" fill="#A68A34" stroke="#22242D" stroke-width="0.375" stroke-linejoin="round"/>
<path d="M74.75 75L72.5 72L72.5 75L74.75 75Z" fill="#FFE493" stroke="#22242D" stroke-width="0.375" stroke-linejoin="round"/>
<path d="M72.623 75.6981L72.623 72.0681L70.6435 70.5L67.6868 71.4754L66.8486 73.0042L62.4367 74.4749L64.275 79.4996L70.5433 78.4703L72.623 75.6981Z" fill="#FFE493" stroke="#22242D" stroke-width="0.375" stroke-linejoin="round"/>
<path d="M61.9999 71.3013L72.5557 75.7961L70.5268 78.5195L66.2374 79.1323L61.9999 71.3013Z" fill="#FFE493" stroke="#22242D" stroke-width="0.375" stroke-linejoin="round"/>
<path d="M99 70.875L96.75 76.125L90.7508 76.6033L99 70.875Z" fill="#A68A34" stroke="#22242D" stroke-width="0.375" stroke-linejoin="round"/>
<path d="M96.75 76.125L95.1243 72.2455L92.6448 70.5L89.6881 71.4754L88.972 73.1268L86.0307 74.1072L90.75 79.5L95.4993 78.75L96.75 76.125Z" fill="#A68A34" stroke="#22242D" stroke-width="0.375" stroke-linejoin="round"/>
<path d="M96.75 75L94.5 72L94.5 75L96.75 75Z" fill="#FFE493" stroke="#22242D" stroke-width="0.375" stroke-linejoin="round"/>
<path d="M94.623 75.6981L94.623 72.0681L92.6435 70.5L89.6868 71.4754L88.8486 73.0042L84.4367 74.4749L86.275 79.4996L92.5433 78.4703L94.623 75.6981Z" fill="#FFE493" stroke="#22242D" stroke-width="0.375" stroke-linejoin="round"/>
<path d="M83.9999 71.3013L94.5557 75.7961L92.5268 78.5195L88.2374 79.1323L83.9999 71.3013Z" fill="#FFE493" stroke="#22242D" stroke-width="0.375" stroke-linejoin="round"/>
<path d="M121 70.875L118.75 76.125L112.751 76.6033L121 70.875Z" fill="#A68A34" stroke="#22242D" stroke-width="0.375" stroke-linejoin="round"/>
<path d="M118.75 76.125L117.124 72.2455L114.645 70.5L111.688 71.4754L110.972 73.1268L108.031 74.1072L112.75 79.5L117.499 78.75L118.75 76.125Z" fill="#A68A34" stroke="#22242D" stroke-width="0.375" stroke-linejoin="round"/>
<path d="M118.75 75L116.5 72L116.5 75L118.75 75Z" fill="#FFE493" stroke="#22242D" stroke-width="0.375" stroke-linejoin="round"/>
<path d="M116.623 75.6981L116.623 72.0681L114.644 70.5L111.687 71.4754L110.849 73.0042L106.437 74.4749L108.275 79.4996L114.543 78.4703L116.623 75.6981Z" fill="#FFE493" stroke="#22242D" stroke-width="0.375" stroke-linejoin="round"/>
<path d="M106 71.3013L116.556 75.7961L114.527 78.5195L110.237 79.1323L106 71.3013Z" fill="#FFE493" stroke="#22242D" stroke-width="0.375" stroke-linejoin="round"/>
<path d="M143 70.875L140.75 76.125L134.751 76.6033L143 70.875Z" fill="#A68A34" stroke="#22242D" stroke-width="0.375" stroke-linejoin="round"/>
<path d="M140.75 76.125L139.124 72.2455L136.645 70.5L133.688 71.4754L132.972 73.1268L130.031 74.1072L134.75 79.5L139.499 78.75L140.75 76.125Z" fill="#A68A34" stroke="#22242D" stroke-width="0.375" stroke-linejoin="round"/>
<path d="M140.75 75L138.5 72L138.5 75L140.75 75Z" fill="#FFE493" stroke="#22242D" stroke-width="0.375" stroke-linejoin="round"/>
<path d="M138.623 75.6981L138.623 72.0681L136.644 70.5L133.687 71.4754L132.849 73.0042L128.437 74.4749L130.275 79.4996L136.543 78.4703L138.623 75.6981Z" fill="#FFE493" stroke="#22242D" stroke-width="0.375" stroke-linejoin="round"/>
<path d="M128 71.3013L138.556 75.7961L136.527 78.5195L132.237 79.1323L128 71.3013Z" fill="#FFE493" stroke="#22242D" stroke-width="0.375" stroke-linejoin="round"/>
<path d="M33 50.875L30.75 56.125L24.7508 56.6033L33 50.875Z" fill="#A68A34" stroke="#22242D" stroke-width="0.375" stroke-linejoin="round"/>
<path d="M30.75 56.125L29.1243 52.2455L26.6448 50.5L23.6881 51.4754L22.972 53.1268L20.0307 54.1072L24.75 59.5L29.4993 58.75L30.75 56.125Z" fill="#A68A34" stroke="#22242D" stroke-width="0.375" stroke-linejoin="round"/>
<path d="M30.75 55L28.5 52L28.5 55L30.75 55Z" fill="#FFE493" stroke="#22242D" stroke-width="0.375" stroke-linejoin="round"/>
<path d="M28.623 55.6981L28.623 52.0681L26.6435 50.5L23.6868 51.4754L22.8486 53.0042L18.4367 54.4749L20.275 59.4996L26.5433 58.4703L28.623 55.6981Z" fill="#FFE493" stroke="#22242D" stroke-width="0.375" stroke-linejoin="round"/>
<path d="M17.9999 51.3013L28.5557 55.7961L26.5268 58.5195L22.2374 59.1323L17.9999 51.3013Z" fill="#FFE493" stroke="#22242D" stroke-width="0.375" stroke-linejoin="round"/>
<path d="M55 50.875L52.75 56.125L46.7508 56.6033L55 50.875Z" fill="#A68A34" stroke="#22242D" stroke-width="0.375" stroke-linejoin="round"/>
<path d="M52.75 56.125L51.1243 52.2455L48.6448 50.5L45.6881 51.4754L44.972 53.1268L42.0307 54.1072L46.75 59.5L51.4993 58.75L52.75 56.125Z" fill="#A68A34" stroke="#22242D" stroke-width="0.375" stroke-linejoin="round"/>
<path d="M52.75 55L50.5 52L50.5 55L52.75 55Z" fill="#FFE493" stroke="#22242D" stroke-width="0.375" stroke-linejoin="round"/>
<path d="M50.623 55.6981L50.623 52.0681L48.6435 50.5L45.6868 51.4754L44.8486 53.0042L40.4367 54.4749L42.275 59.4996L48.5433 58.4703L50.623 55.6981Z" fill="#FFE493" stroke="#22242D" stroke-width="0.375" stroke-linejoin="round"/>
<path d="M39.9999 51.3013L50.5557 55.7961L48.5268 58.5195L44.2374 59.1323L39.9999 51.3013Z" fill="#FFE493" stroke="#22242D" stroke-width="0.375" stroke-linejoin="round"/>
<path d="M77 50.875L74.75 56.125L68.7508 56.6033L77 50.875Z" fill="#A68A34" stroke="#22242D" stroke-width="0.375" stroke-linejoin="round"/>
<path d="M74.75 56.125L73.1243 52.2455L70.6448 50.5L67.6881 51.4754L66.972 53.1268L64.0307 54.1072L68.75 59.5L73.4993 58.75L74.75 56.125Z" fill="#A68A34" stroke="#22242D" stroke-width="0.375" stroke-linejoin="round"/>
<path d="M74.75 55L72.5 52L72.5 55L74.75 55Z" fill="#FFE493" stroke="#22242D" stroke-width="0.375" stroke-linejoin="round"/>
<path d="M72.623 55.6981L72.623 52.0681L70.6435 50.5L67.6868 51.4754L66.8486 53.0042L62.4367 54.4749L64.275 59.4996L70.5433 58.4703L72.623 55.6981Z" fill="#FFE493" stroke="#22242D" stroke-width="0.375" stroke-linejoin="round"/>
<path d="M61.9999 51.3013L72.5557 55.7961L70.5268 58.5195L66.2374 59.1323L61.9999 51.3013Z" fill="#FFE493" stroke="#22242D" stroke-width="0.375" stroke-linejoin="round"/>
<path d="M99 50.875L96.75 56.125L90.7508 56.6033L99 50.875Z" fill="#A68A34" stroke="#22242D" stroke-width="0.375" stroke-linejoin="round"/>
<path d="M96.75 56.125L95.1243 52.2455L92.6448 50.5L89.6881 51.4754L88.972 53.1268L86.0307 54.1072L90.75 59.5L95.4993 58.75L96.75 56.125Z" fill="#A68A34" stroke="#22242D" stroke-width="0.375" stroke-linejoin="round"/>
<path d="M96.75 55L94.5 52L94.5 55L96.75 55Z" fill="#FFE493" stroke="#22242D" stroke-width="0.375" stroke-linejoin="round"/>
<path d="M94.623 55.6981L94.623 52.0681L92.6435 50.5L89.6868 51.4754L88.8486 53.0042L84.4367 54.4749L86.275 59.4996L92.5433 58.4703L94.623 55.6981Z" fill="#FFE493" stroke="#22242D" stroke-width="0.375" stroke-linejoin="round"/>
<path d="M83.9999 51.3013L94.5557 55.7961L92.5268 58.5195L88.2374 59.1323L83.9999 51.3013Z" fill="#FFE493" stroke="#22242D" stroke-width="0.375" stroke-linejoin="round"/>
<path d="M59.2333 37H57.2533V26.2H53.4733V24.4H63.0133V26.2H59.2333V37ZM67.5266 37.18C65.0066 37.18 63.0266 35.2 63.0266 32.68C63.0266 30.16 65.0066 28.18 67.5266 28.18C70.0466 28.18 72.0266 30.16 72.0266 32.68C72.0266 35.2 70.0466 37.18 67.5266 37.18ZM67.5266 35.47C69.0566 35.47 70.2266 34.3 70.2266 32.68C70.2266 31.06 69.0566 29.89 67.5266 29.89C65.9966 29.89 64.8266 31.06 64.8266 32.68C64.8266 34.3 65.9966 35.47 67.5266 35.47ZM75.808 40.78H74.008V28.36H75.808V29.584H75.826C76.222 28.972 77.302 28.18 78.778 28.18C80.938 28.18 82.828 30.07 82.828 32.68C82.828 35.29 80.938 37.18 78.778 37.18C77.302 37.18 76.222 36.388 75.826 35.776H75.808V40.78ZM78.418 35.47C79.858 35.47 81.028 34.3 81.028 32.68C81.028 31.06 79.858 29.89 78.418 29.89C76.978 29.89 75.808 31.06 75.808 32.68C75.808 34.3 76.978 35.47 78.418 35.47ZM91.7395 37.18C90.1015 37.18 88.8415 36.262 88.3195 35.56L89.4895 34.39C89.9035 34.894 90.7675 35.56 91.7575 35.56C92.7655 35.56 93.2695 35.074 93.2695 34.498C93.2695 33.04 88.6795 33.76 88.6795 30.7C88.6795 29.35 89.8495 28.18 91.8295 28.18C93.3415 28.18 94.4215 28.846 94.8895 29.35L93.7195 30.52C93.3775 30.214 92.6755 29.8 91.8295 29.8C90.9295 29.8 90.4795 30.25 90.4795 30.7C90.4795 32.14 95.0695 31.42 95.0695 34.48C95.0695 35.92 93.8095 37.18 91.7395 37.18ZM101.013 37.18C98.493 37.18 96.513 35.2 96.513 32.68C96.513 30.16 98.493 28.18 100.923 28.18C103.353 28.18 105.153 29.98 105.153 32.41C105.153 32.806 105.099 33.148 105.063 33.31H98.403C98.583 34.48 99.663 35.47 101.103 35.47C102.219 35.47 102.993 34.93 103.533 34.426L104.703 35.578C104.145 36.28 102.849 37.18 101.013 37.18ZM98.367 31.87H103.281C103.029 30.646 102.219 29.8 100.923 29.8C99.537 29.8 98.709 30.646 98.367 31.87ZM108.837 37H107.037V28.36H108.837V29.584H108.855C109.251 28.972 110.241 28.18 111.537 28.18C113.517 28.18 114.957 29.62 114.957 31.96V37H113.157V31.96C113.157 30.7 112.347 29.89 111.177 29.89C109.827 29.89 108.837 30.88 108.837 32.32V37ZM120.901 37.18C118.741 37.18 116.851 35.29 116.851 32.68C116.851 30.07 118.741 28.18 120.901 28.18C122.377 28.18 123.457 28.972 123.853 29.584H123.871V24.4H125.671V37H123.871V35.776H123.853C123.457 36.388 122.377 37.18 120.901 37.18ZM121.261 35.47C122.701 35.47 123.871 34.3 123.871 32.68C123.871 31.06 122.701 29.89 121.261 29.89C119.821 29.89 118.651 31.06 118.651 32.68C118.651 34.3 119.821 35.47 121.261 35.47ZM132.249 37.18C129.729 37.18 127.749 35.2 127.749 32.68C127.749 30.16 129.729 28.18 132.159 28.18C134.589 28.18 136.389 29.98 136.389 32.41C136.389 32.806 136.335 33.148 136.299 33.31H129.639C129.819 34.48 130.899 35.47 132.339 35.47C133.455 35.47 134.229 34.93 134.769 34.426L135.939 35.578C135.381 36.28 134.085 37.18 132.249 37.18ZM129.603 31.87H134.517C134.265 30.646 133.455 29.8 132.159 29.8C130.773 29.8 129.945 30.646 129.603 31.87ZM140.074 37H138.274V28.36H140.074V29.494H140.11C140.488 28.936 141.442 28.18 142.684 28.18H143.134V30.07C142.972 30.034 142.684 29.98 142.414 29.98C141.154 29.98 140.074 31.06 140.074 32.59V37Z" fill="#F9E29C"/>
</svg>
