<svg width="160" height="160" viewBox="0 0 160 160" fill="none" xmlns="http://www.w3.org/2000/svg">
<mask id="path-1-inside-1_1220_6698" fill="white">
<path fill-rule="evenodd" clip-rule="evenodd" d="M79.9969 0L83.9861 2.30316C83.7444 2.81829 83.6094 3.39337 83.6094 4C83.6094 6.20914 85.4002 8 87.6094 8C88.9672 8 90.1669 7.32349 90.89 6.28915L94.8668 8.58515C94.7004 9.02501 94.6094 9.50187 94.6094 10C94.6094 12.2091 96.4002 14 98.6094 14C99.8572 14 100.972 13.4286 101.705 12.5333L105.769 14.8793C105.665 15.2349 105.609 15.6109 105.609 16C105.609 18.2091 107.4 20 109.609 20C110.746 20 111.771 19.5262 112.499 18.7654L116.692 21.1861C116.638 21.4489 116.609 21.7211 116.609 22C116.609 24.2091 118.4 26 120.609 26C121.632 26 122.565 25.6163 123.272 24.985L127.851 27.6284C127.695 28.0562 127.609 28.5182 127.609 29C127.609 31.2091 129.4 33 131.609 33C132.841 33 133.942 32.4437 134.676 31.5688L139.082 34.1127C138.78 34.6749 138.609 35.3175 138.609 36C138.609 38.2091 140.4 40 142.609 40C144.044 40 145.301 39.2452 146.007 38.1112L149.279 40V46.0135C147.225 46.1819 145.61 47.9024 145.61 50C145.61 52.0976 147.225 53.8181 149.279 53.9865V58.0135C147.225 58.1819 145.61 59.9024 145.61 62C145.61 64.0976 147.225 65.8181 149.279 65.9865V70.0135C147.225 70.1819 145.61 71.9024 145.61 74C145.61 76.0976 147.225 77.8181 149.279 77.9865V82.0135C147.225 82.1819 145.61 83.9024 145.61 86C145.61 88.0976 147.225 89.8181 149.279 89.9865V94.0135C147.225 94.1819 145.61 95.9024 145.61 98C145.61 100.098 147.225 101.818 149.279 101.986V106.014C147.225 106.182 145.61 107.902 145.61 110C145.61 112.098 147.225 113.818 149.279 113.986V120L146.007 121.889C145.301 120.755 144.044 120 142.609 120C140.4 120 138.609 121.791 138.609 124C138.609 124.683 138.78 125.325 139.082 125.887L134.676 128.431C133.942 127.556 132.841 127 131.609 127C129.4 127 127.609 128.791 127.609 131C127.609 131.482 127.695 131.944 127.851 132.372L123.864 134.674C123.138 133.66 121.951 133 120.609 133C118.4 133 116.609 134.791 116.609 137C116.609 137.59 116.737 138.151 116.967 138.655L113.031 140.928C112.33 139.772 111.06 139 109.609 139C107.4 139 105.609 140.791 105.609 143C105.609 143.699 105.789 144.356 106.103 144.927L102.18 147.193C101.52 145.892 100.169 145 98.6102 145C96.401 145 94.6102 146.791 94.6102 149C94.6102 149.807 94.8493 150.559 95.2607 151.187L91.3071 153.47C90.7064 152.02 89.2774 151 87.6102 151C85.401 151 83.6102 152.791 83.6102 155C83.6102 155.917 83.9186 156.762 84.4374 157.436L79.9969 160L75.0043 157.118C75.3883 156.503 75.6102 155.778 75.6102 155C75.6102 152.791 73.8193 151 71.6102 151C70.0809 151 68.7521 151.858 68.079 153.119L64.1555 150.854C64.4459 150.3 64.6102 149.669 64.6102 149C64.6102 146.791 62.8193 145 60.6102 145C59.1895 145 57.9418 145.741 57.2322 146.857L53.2865 144.579C53.4948 144.094 53.6102 143.561 53.6102 143C53.6102 140.791 51.8193 139 49.6102 139C48.2988 139 47.1349 139.631 46.4054 140.606L42.3963 138.291C42.5345 137.886 42.6094 137.452 42.6094 137C42.6094 134.791 40.8185 133 38.6094 133C37.4087 133 36.3317 133.529 35.5985 134.367L31.4854 131.992C31.5664 131.675 31.6094 131.342 31.6094 131C31.6094 128.791 29.8185 127 27.6094 127C26.5211 127 25.5344 127.435 24.8132 128.14L20.3044 125.537C20.5014 125.063 20.6102 124.544 20.6102 124C20.6102 121.791 18.8193 120 16.6102 120C15.3153 120 14.1641 120.615 13.4331 121.569L10.7148 120V113.999C12.8756 113.943 14.6102 112.174 14.6102 110C14.6102 107.826 12.8756 106.057 10.7148 106.001V101.999C12.8756 101.943 14.6102 100.174 14.6102 98C14.6102 95.8259 12.8756 94.0569 10.7148 94.0013V89.9987C12.8756 89.9431 14.6102 88.1741 14.6102 86C14.6102 83.8259 12.8756 82.0569 10.7148 82.0013V77.9987C12.8756 77.9431 14.6102 76.1741 14.6102 74C14.6102 71.8259 12.8756 70.0569 10.7148 70.0013V65.9987C12.8756 65.9431 14.6102 64.1741 14.6102 62C14.6102 59.8259 12.8756 58.0569 10.7148 58.0013V53.9987C12.8756 53.9431 14.6102 52.1741 14.6102 50C14.6102 47.8259 12.8756 46.0569 10.7148 46.0013V40L14.6721 37.7153C15.4028 38.5053 16.4483 39 17.6094 39C19.8185 39 21.6094 37.2091 21.6094 35C21.6094 34.5868 21.5467 34.1883 21.4304 33.8134L25.4717 31.4801C26.2043 32.406 27.3379 33 28.6102 33C30.8193 33 32.6102 31.2091 32.6102 29C32.6102 28.4778 32.5101 27.9789 32.3281 27.5216L36.8603 24.9049C37.5771 25.5837 38.545 26 39.6102 26C41.8193 26 43.6102 24.2091 43.6102 22C43.6102 21.68 43.5726 21.3688 43.5016 21.0706L47.6412 18.6806C48.3732 19.4908 49.4322 20 50.6102 20C52.8193 20 54.6102 18.2091 54.6102 16C54.6102 15.5703 54.5424 15.1565 54.417 14.7685L58.4433 12.4439C59.1749 13.3905 60.3213 14 61.6102 14C63.8193 14 65.6102 12.2091 65.6102 10C65.6102 9.46152 65.5038 8.94789 65.3108 8.47899L69.266 6.19548C69.981 7.28246 71.2118 8 72.6102 8C74.8193 8 76.6102 6.20914 76.6102 4C76.6102 3.35311 76.4566 2.74209 76.1839 2.2014L79.9969 0Z"/>
</mask>
<path fill-rule="evenodd" clip-rule="evenodd" d="M79.9969 0L83.9861 2.30316C83.7444 2.81829 83.6094 3.39337 83.6094 4C83.6094 6.20914 85.4002 8 87.6094 8C88.9672 8 90.1669 7.32349 90.89 6.28915L94.8668 8.58515C94.7004 9.02501 94.6094 9.50187 94.6094 10C94.6094 12.2091 96.4002 14 98.6094 14C99.8572 14 100.972 13.4286 101.705 12.5333L105.769 14.8793C105.665 15.2349 105.609 15.6109 105.609 16C105.609 18.2091 107.4 20 109.609 20C110.746 20 111.771 19.5262 112.499 18.7654L116.692 21.1861C116.638 21.4489 116.609 21.7211 116.609 22C116.609 24.2091 118.4 26 120.609 26C121.632 26 122.565 25.6163 123.272 24.985L127.851 27.6284C127.695 28.0562 127.609 28.5182 127.609 29C127.609 31.2091 129.4 33 131.609 33C132.841 33 133.942 32.4437 134.676 31.5688L139.082 34.1127C138.78 34.6749 138.609 35.3175 138.609 36C138.609 38.2091 140.4 40 142.609 40C144.044 40 145.301 39.2452 146.007 38.1112L149.279 40V46.0135C147.225 46.1819 145.61 47.9024 145.61 50C145.61 52.0976 147.225 53.8181 149.279 53.9865V58.0135C147.225 58.1819 145.61 59.9024 145.61 62C145.61 64.0976 147.225 65.8181 149.279 65.9865V70.0135C147.225 70.1819 145.61 71.9024 145.61 74C145.61 76.0976 147.225 77.8181 149.279 77.9865V82.0135C147.225 82.1819 145.61 83.9024 145.61 86C145.61 88.0976 147.225 89.8181 149.279 89.9865V94.0135C147.225 94.1819 145.61 95.9024 145.61 98C145.61 100.098 147.225 101.818 149.279 101.986V106.014C147.225 106.182 145.61 107.902 145.61 110C145.61 112.098 147.225 113.818 149.279 113.986V120L146.007 121.889C145.301 120.755 144.044 120 142.609 120C140.4 120 138.609 121.791 138.609 124C138.609 124.683 138.78 125.325 139.082 125.887L134.676 128.431C133.942 127.556 132.841 127 131.609 127C129.4 127 127.609 128.791 127.609 131C127.609 131.482 127.695 131.944 127.851 132.372L123.864 134.674C123.138 133.66 121.951 133 120.609 133C118.4 133 116.609 134.791 116.609 137C116.609 137.59 116.737 138.151 116.967 138.655L113.031 140.928C112.33 139.772 111.06 139 109.609 139C107.4 139 105.609 140.791 105.609 143C105.609 143.699 105.789 144.356 106.103 144.927L102.18 147.193C101.52 145.892 100.169 145 98.6102 145C96.401 145 94.6102 146.791 94.6102 149C94.6102 149.807 94.8493 150.559 95.2607 151.187L91.3071 153.47C90.7064 152.02 89.2774 151 87.6102 151C85.401 151 83.6102 152.791 83.6102 155C83.6102 155.917 83.9186 156.762 84.4374 157.436L79.9969 160L75.0043 157.118C75.3883 156.503 75.6102 155.778 75.6102 155C75.6102 152.791 73.8193 151 71.6102 151C70.0809 151 68.7521 151.858 68.079 153.119L64.1555 150.854C64.4459 150.3 64.6102 149.669 64.6102 149C64.6102 146.791 62.8193 145 60.6102 145C59.1895 145 57.9418 145.741 57.2322 146.857L53.2865 144.579C53.4948 144.094 53.6102 143.561 53.6102 143C53.6102 140.791 51.8193 139 49.6102 139C48.2988 139 47.1349 139.631 46.4054 140.606L42.3963 138.291C42.5345 137.886 42.6094 137.452 42.6094 137C42.6094 134.791 40.8185 133 38.6094 133C37.4087 133 36.3317 133.529 35.5985 134.367L31.4854 131.992C31.5664 131.675 31.6094 131.342 31.6094 131C31.6094 128.791 29.8185 127 27.6094 127C26.5211 127 25.5344 127.435 24.8132 128.14L20.3044 125.537C20.5014 125.063 20.6102 124.544 20.6102 124C20.6102 121.791 18.8193 120 16.6102 120C15.3153 120 14.1641 120.615 13.4331 121.569L10.7148 120V113.999C12.8756 113.943 14.6102 112.174 14.6102 110C14.6102 107.826 12.8756 106.057 10.7148 106.001V101.999C12.8756 101.943 14.6102 100.174 14.6102 98C14.6102 95.8259 12.8756 94.0569 10.7148 94.0013V89.9987C12.8756 89.9431 14.6102 88.1741 14.6102 86C14.6102 83.8259 12.8756 82.0569 10.7148 82.0013V77.9987C12.8756 77.9431 14.6102 76.1741 14.6102 74C14.6102 71.8259 12.8756 70.0569 10.7148 70.0013V65.9987C12.8756 65.9431 14.6102 64.1741 14.6102 62C14.6102 59.8259 12.8756 58.0569 10.7148 58.0013V53.9987C12.8756 53.9431 14.6102 52.1741 14.6102 50C14.6102 47.8259 12.8756 46.0569 10.7148 46.0013V40L14.6721 37.7153C15.4028 38.5053 16.4483 39 17.6094 39C19.8185 39 21.6094 37.2091 21.6094 35C21.6094 34.5868 21.5467 34.1883 21.4304 33.8134L25.4717 31.4801C26.2043 32.406 27.3379 33 28.6102 33C30.8193 33 32.6102 31.2091 32.6102 29C32.6102 28.4778 32.5101 27.9789 32.3281 27.5216L36.8603 24.9049C37.5771 25.5837 38.545 26 39.6102 26C41.8193 26 43.6102 24.2091 43.6102 22C43.6102 21.68 43.5726 21.3688 43.5016 21.0706L47.6412 18.6806C48.3732 19.4908 49.4322 20 50.6102 20C52.8193 20 54.6102 18.2091 54.6102 16C54.6102 15.5703 54.5424 15.1565 54.417 14.7685L58.4433 12.4439C59.1749 13.3905 60.3213 14 61.6102 14C63.8193 14 65.6102 12.2091 65.6102 10C65.6102 9.46152 65.5038 8.94789 65.3108 8.47899L69.266 6.19548C69.981 7.28246 71.2118 8 72.6102 8C74.8193 8 76.6102 6.20914 76.6102 4C76.6102 3.35311 76.4566 2.74209 76.1839 2.2014L79.9969 0Z" fill="white"/>
<path d="M83.9861 2.30316L84.8914 2.72788L85.2815 1.89637L84.4861 1.43714L83.9861 2.30316ZM79.9969 0L80.4969 -0.866025L79.9969 -1.1547L79.4969 -0.866026L79.9969 0ZM90.89 6.28915L91.39 5.42312L90.5958 4.96461L90.0704 5.7162L90.89 6.28915ZM94.8668 8.58515L95.8021 8.93894L96.1028 8.14405L95.3668 7.71913L94.8668 8.58515ZM101.705 12.5333L102.205 11.6672L101.47 11.2426L100.932 11.8995L101.705 12.5333ZM105.769 14.8793L106.729 15.1589L106.948 14.4056L106.269 14.0132L105.769 14.8793ZM112.499 18.7654L112.999 17.8994L112.32 17.5069L111.777 18.0739L112.499 18.7654ZM116.692 21.1861L117.672 21.3885L117.818 20.6812L117.192 20.32L116.692 21.1861ZM123.272 24.985L123.772 24.1189L123.146 23.7573L122.606 24.239L123.272 24.985ZM127.851 27.6284L128.79 27.9713L129.078 27.1823L128.351 26.7624L127.851 27.6284ZM134.676 31.5688L135.176 30.7028L134.449 30.2831L133.909 30.9262L134.676 31.5688ZM139.082 34.1127L139.963 34.5852L140.421 33.7311L139.582 33.2466L139.082 34.1127ZM146.007 38.1112L146.507 37.2452L145.67 36.7616L145.159 37.5827L146.007 38.1112ZM149.279 40H150.279V39.4226L149.779 39.134L149.279 40ZM149.279 46.0135L149.361 47.0102L150.279 46.9349V46.0135H149.279ZM149.279 53.9865H150.279V53.0651L149.361 52.9898L149.279 53.9865ZM149.279 58.0135L149.361 59.0102L150.279 58.9349V58.0135H149.279ZM149.279 65.9865H150.279V65.0651L149.361 64.9898L149.279 65.9865ZM149.279 70.0135L149.361 71.0102L150.279 70.9349V70.0135H149.279ZM149.279 77.9865H150.279V77.0651L149.361 76.9898L149.279 77.9865ZM149.279 82.0135L149.361 83.0102L150.279 82.9349V82.0135H149.279ZM149.279 89.9865H150.279V89.0651L149.361 88.9898L149.279 89.9865ZM149.279 94.0135L149.361 95.0102L150.279 94.9349V94.0135H149.279ZM149.279 101.986H150.279V101.065L149.361 100.99L149.279 101.986ZM149.279 106.014L149.361 107.01L150.279 106.935V106.014H149.279ZM149.279 113.986H150.279V113.065L149.361 112.99L149.279 113.986ZM149.279 120L149.779 120.866L150.279 120.577V120H149.279ZM146.007 121.889L145.159 122.417L145.67 123.238L146.507 122.755L146.007 121.889ZM139.082 125.887L139.582 126.753L140.421 126.269L139.963 125.415L139.082 125.887ZM134.676 128.431L133.909 129.074L134.449 129.717L135.176 129.297L134.676 128.431ZM127.851 132.372L128.351 133.238L129.078 132.818L128.79 132.029L127.851 132.372ZM123.864 134.674L123.051 135.256L123.578 135.993L124.364 135.54L123.864 134.674ZM116.967 138.655L117.467 139.521L118.253 139.067L117.877 138.241L116.967 138.655ZM113.031 140.928L112.176 141.446L112.684 142.283L113.531 141.794L113.031 140.928ZM106.103 144.927L106.603 145.793L107.452 145.303L106.979 144.445L106.103 144.927ZM102.18 147.193L101.288 147.645L101.765 148.587L102.68 148.059L102.18 147.193ZM95.2607 151.187L95.7607 152.053L96.6765 151.525L96.0975 150.64L95.2607 151.187ZM91.3071 153.47L90.3833 153.853L90.8197 154.906L91.8071 154.336L91.3071 153.47ZM84.4374 157.436L84.9374 158.302L85.926 157.732L85.2301 156.827L84.4374 157.436ZM79.9969 160L79.4969 160.866L79.9969 161.155L80.4969 160.866L79.9969 160ZM75.0043 157.118L74.1564 156.587L73.6073 157.466L74.5043 157.984L75.0043 157.118ZM68.079 153.119L67.579 153.985L68.4744 154.502L68.9612 153.59L68.079 153.119ZM64.1555 150.854L63.2697 150.39L62.8242 151.24L63.6555 151.72L64.1555 150.854ZM57.2322 146.857L56.7322 147.723L57.562 148.202L58.0761 147.393L57.2322 146.857ZM53.2865 144.579L52.3679 144.184L52.0167 145L52.7865 145.445L53.2865 144.579ZM46.4054 140.606L45.9054 141.472L46.6742 141.916L47.2061 141.205L46.4054 140.606ZM42.3963 138.291L41.4498 137.969L41.1847 138.746L41.8964 139.157L42.3963 138.291ZM35.5985 134.367L35.0985 135.233L35.8099 135.643L36.3509 135.025L35.5985 134.367ZM31.4854 131.992L30.5165 131.745L30.3291 132.479L30.9854 132.858L31.4854 131.992ZM24.8132 128.14L24.3132 129.006L24.97 129.385L25.5123 128.855L24.8132 128.14ZM20.3044 125.537L19.3812 125.152L19.0435 125.963L19.8044 126.403L20.3044 125.537ZM13.4331 121.569L12.9331 122.435L13.6931 122.874L14.2269 122.178L13.4331 121.569ZM10.7148 120H9.71484V120.577L10.2148 120.866L10.7148 120ZM10.7148 113.999L10.6892 112.999L9.71484 113.024V113.999H10.7148ZM10.7148 106.001H9.71484V106.976L10.6892 107.001L10.7148 106.001ZM10.7148 101.999L10.6892 100.999L9.71484 101.024V101.999H10.7148ZM10.7148 94.0013H9.71484V94.976L10.6892 95.001L10.7148 94.0013ZM10.7148 89.9987L10.6892 88.999L9.71484 89.024V89.9987H10.7148ZM10.7148 82.0013H9.71484V82.976L10.6892 83.001L10.7148 82.0013ZM10.7148 77.9987L10.6892 76.999L9.71484 77.024V77.9987H10.7148ZM10.7148 70.0013H9.71484V70.976L10.6892 71.001L10.7148 70.0013ZM10.7148 65.9987L10.6892 64.999L9.71484 65.024V65.9987H10.7148ZM10.7148 58.0013H9.71484V58.976L10.6892 59.001L10.7148 58.0013ZM10.7148 53.9987L10.6892 52.999L9.71484 53.024V53.9987H10.7148ZM10.7148 46.0013H9.71484V46.976L10.6892 47.001L10.7148 46.0013ZM10.7148 40L10.2148 39.134L9.71484 39.4226V40H10.7148ZM14.6721 37.7153L15.4063 37.0363L14.8639 36.4498L14.1721 36.8492L14.6721 37.7153ZM21.4304 33.8134L20.9304 32.9473L20.2387 33.3467L20.4753 34.1096L21.4304 33.8134ZM25.4717 31.4801L26.2558 30.8596L25.7198 30.1822L24.9717 30.6141L25.4717 31.4801ZM32.3281 27.5216L31.8281 26.6556L31.0792 27.0879L31.399 27.8914L32.3281 27.5216ZM36.8603 24.9049L37.5479 24.1788L37.0063 23.6659L36.3603 24.0389L36.8603 24.9049ZM43.5016 21.0706L43.0016 20.2045L42.3563 20.5771L42.5288 21.302L43.5016 21.0706ZM47.6412 18.6806L48.3832 18.0102L47.8413 17.4103L47.1412 17.8145L47.6412 18.6806ZM54.417 14.7685L53.917 13.9025L53.2168 14.3068L53.4655 15.0761L54.417 14.7685ZM58.4433 12.4439L59.2346 11.8324L58.7002 11.141L57.9433 11.5779L58.4433 12.4439ZM65.3108 8.47899L64.8108 7.61297L64.0532 8.05041L64.386 8.8595L65.3108 8.47899ZM69.266 6.19548L70.1014 5.6459L69.583 4.85777L68.766 5.32945L69.266 6.19548ZM76.1839 2.2014L75.6839 1.33537L74.8656 1.80787L75.291 2.65165L76.1839 2.2014ZM84.4861 1.43714L80.4969 -0.866025L79.4969 0.866025L83.4861 3.16919L84.4861 1.43714ZM84.6094 4C84.6094 3.54319 84.7108 3.11285 84.8914 2.72788L83.0807 1.87844C82.778 2.52372 82.6094 3.24355 82.6094 4H84.6094ZM87.6094 7C85.9525 7 84.6094 5.65685 84.6094 4H82.6094C82.6094 6.76142 84.848 9 87.6094 9V7ZM90.0704 5.7162C89.5264 6.49439 88.6269 7 87.6094 7V9C89.3074 9 90.8074 8.15259 91.7096 6.8621L90.0704 5.7162ZM95.3668 7.71913L91.39 5.42312L90.39 7.15518L94.3668 9.45118L95.3668 7.71913ZM95.6094 10C95.6094 9.62458 95.6779 9.26748 95.8021 8.93894L93.9315 8.23137C93.723 8.78255 93.6094 9.37917 93.6094 10H95.6094ZM98.6094 13C96.9525 13 95.6094 11.6569 95.6094 10H93.6094C93.6094 12.7614 95.848 15 98.6094 15V13ZM100.932 11.8995C100.38 12.573 99.5449 13 98.6094 13V15C100.17 15 101.563 14.2843 102.479 13.167L100.932 11.8995ZM106.269 14.0132L102.205 11.6672L101.205 13.3993L105.269 15.7453L106.269 14.0132ZM106.609 16C106.609 15.7066 106.651 15.4246 106.729 15.1589L104.808 14.5996C104.679 15.0451 104.609 15.5153 104.609 16H106.609ZM109.609 19C107.953 19 106.609 17.6569 106.609 16H104.609C104.609 18.7614 106.848 21 109.609 21V19ZM111.777 18.0739C111.23 18.6458 110.462 19 109.609 19V21C111.03 21 112.313 20.4065 113.222 19.4568L111.777 18.0739ZM117.192 20.32L112.999 17.8994L111.999 19.6314L116.192 22.0521L117.192 20.32ZM117.609 22C117.609 21.7895 117.631 21.5851 117.672 21.3885L115.713 20.9837C115.645 21.3126 115.609 21.6527 115.609 22H117.609ZM120.609 25C118.953 25 117.609 23.6569 117.609 22H115.609C115.609 24.7614 117.848 27 120.609 27V25ZM122.606 24.239C122.075 24.713 121.377 25 120.609 25V27C121.887 27 123.055 26.5195 123.938 25.731L122.606 24.239ZM128.351 26.7624L123.772 24.1189L122.772 25.851L127.351 28.4944L128.351 26.7624ZM128.609 29C128.609 28.6368 128.673 28.2908 128.79 27.9713L126.911 27.2855C126.716 27.8216 126.609 28.3995 126.609 29H128.609ZM131.609 32C129.953 32 128.609 30.6569 128.609 29H126.609C126.609 31.7614 128.848 34 131.609 34V32ZM133.909 30.9262C133.358 31.5843 132.532 32 131.609 32V34C133.149 34 134.526 33.3032 135.442 32.2114L133.909 30.9262ZM139.582 33.2466L135.176 30.7028L134.176 32.4348L138.582 34.9787L139.582 33.2466ZM139.609 36C139.609 35.4863 139.738 35.0056 139.963 34.5852L138.2 33.6401C137.823 34.3441 137.609 35.1486 137.609 36H139.609ZM142.609 39C140.953 39 139.609 37.6569 139.609 36H137.609C137.609 38.7614 139.848 41 142.609 41V39ZM145.159 37.5827C144.627 38.4358 143.684 39 142.609 39V41C144.403 41 145.975 40.0547 146.856 38.6398L145.159 37.5827ZM149.779 39.134L146.507 37.2452L145.507 38.9772L148.779 40.866L149.779 39.134ZM150.279 46.0135V40H148.279V46.0135H150.279ZM146.61 50C146.61 48.4273 147.821 47.1364 149.361 47.0102L149.197 45.0169C146.628 45.2274 144.61 47.3775 144.61 50H146.61ZM149.361 52.9898C147.821 52.8636 146.61 51.5727 146.61 50H144.61C144.61 52.6225 146.628 54.7726 149.197 54.9831L149.361 52.9898ZM150.279 58.0135V53.9865H148.279V58.0135H150.279ZM146.61 62C146.61 60.4273 147.821 59.1364 149.361 59.0102L149.197 57.0169C146.628 57.2274 144.61 59.3775 144.61 62H146.61ZM149.361 64.9898C147.821 64.8636 146.61 63.5727 146.61 62H144.61C144.61 64.6225 146.628 66.7726 149.197 66.9831L149.361 64.9898ZM150.279 70.0135V65.9865H148.279V70.0135H150.279ZM146.61 74C146.61 72.4273 147.821 71.1364 149.361 71.0102L149.197 69.0169C146.628 69.2274 144.61 71.3775 144.61 74H146.61ZM149.361 76.9898C147.821 76.8636 146.61 75.5727 146.61 74H144.61C144.61 76.6225 146.628 78.7726 149.197 78.9831L149.361 76.9898ZM150.279 82.0135V77.9865H148.279V82.0135H150.279ZM146.61 86C146.61 84.4273 147.821 83.1364 149.361 83.0102L149.197 81.0169C146.628 81.2274 144.61 83.3775 144.61 86H146.61ZM149.361 88.9898C147.821 88.8636 146.61 87.5727 146.61 86H144.61C144.61 88.6225 146.628 90.7726 149.197 90.9831L149.361 88.9898ZM150.279 94.0135V89.9865H148.279V94.0135H150.279ZM146.61 98C146.61 96.4273 147.821 95.1364 149.361 95.0102L149.197 93.0169C146.628 93.2274 144.61 95.3775 144.61 98H146.61ZM149.361 100.99C147.821 100.864 146.61 99.5727 146.61 98H144.61C144.61 100.623 146.628 102.773 149.197 102.983L149.361 100.99ZM150.279 106.014V101.986H148.279V106.014H150.279ZM146.61 110C146.61 108.427 147.821 107.136 149.361 107.01L149.197 105.017C146.628 105.227 144.61 107.377 144.61 110H146.61ZM149.361 112.99C147.821 112.864 146.61 111.573 146.61 110H144.61C144.61 112.623 146.628 114.773 149.197 114.983L149.361 112.99ZM150.279 120V113.986H148.279V120H150.279ZM146.507 122.755L149.779 120.866L148.779 119.134L145.507 121.023L146.507 122.755ZM142.609 121C143.684 121 144.627 121.564 145.159 122.417L146.856 121.36C145.975 119.945 144.403 119 142.609 119V121ZM139.609 124C139.609 122.343 140.953 121 142.609 121V119C139.848 119 137.609 121.239 137.609 124H139.609ZM139.963 125.415C139.738 124.994 139.609 124.514 139.609 124H137.609C137.609 124.851 137.823 125.656 138.2 126.36L139.963 125.415ZM135.176 129.297L139.582 126.753L138.582 125.021L134.176 127.565L135.176 129.297ZM131.609 128C132.532 128 133.358 128.416 133.909 129.074L135.442 127.789C134.526 126.697 133.149 126 131.609 126V128ZM128.609 131C128.609 129.343 129.953 128 131.609 128V126C128.848 126 126.609 128.239 126.609 131H128.609ZM128.79 132.029C128.673 131.709 128.609 131.363 128.609 131H126.609C126.609 131.6 126.716 132.178 126.911 132.714L128.79 132.029ZM124.364 135.54L128.351 133.238L127.351 131.506L123.364 133.808L124.364 135.54ZM120.609 134C121.615 134 122.505 134.493 123.051 135.256L124.677 134.091C123.771 132.827 122.287 132 120.609 132V134ZM117.609 137C117.609 135.343 118.953 134 120.609 134V132C117.848 132 115.609 134.239 115.609 137H117.609ZM117.877 138.241C117.705 137.864 117.609 137.445 117.609 137H115.609C115.609 137.736 115.769 138.438 116.057 139.07L117.877 138.241ZM113.531 141.794L117.467 139.521L116.467 137.789L112.531 140.062L113.531 141.794ZM109.609 140C110.696 140 111.649 140.577 112.176 141.446L113.886 140.409C113.011 138.967 111.424 138 109.609 138V140ZM106.609 143C106.609 141.343 107.953 140 109.609 140V138C106.848 138 104.609 140.239 104.609 143H106.609ZM106.979 144.445C106.744 144.017 106.609 143.526 106.609 143H104.609C104.609 143.872 104.833 144.694 105.228 145.41L106.979 144.445ZM102.68 148.059L106.603 145.793L105.603 144.061L101.68 146.327L102.68 148.059ZM98.6102 146C99.7778 146 100.791 146.667 101.288 147.645L103.071 146.74C102.248 145.116 100.56 144 98.6102 144V146ZM95.6102 149C95.6102 147.343 96.9533 146 98.6102 146V144C95.8487 144 93.6102 146.239 93.6102 149H95.6102ZM96.0975 150.64C95.7894 150.169 95.6102 149.607 95.6102 149H93.6102C93.6102 150.008 93.9093 150.949 94.424 151.735L96.0975 150.64ZM91.8071 154.336L95.7607 152.053L94.7607 150.321L90.8071 152.604L91.8071 154.336ZM87.6102 152C88.859 152 89.9319 152.763 90.3833 153.853L92.231 153.087C91.4808 151.277 89.6958 150 87.6102 150V152ZM84.6102 155C84.6102 153.343 85.9533 152 87.6102 152V150C84.8487 150 82.6102 152.239 82.6102 155H84.6102ZM85.2301 156.827C84.841 156.321 84.6102 155.689 84.6102 155H82.6102C82.6102 156.145 82.9962 157.203 83.6447 158.046L85.2301 156.827ZM80.4969 160.866L84.9374 158.302L83.9374 156.57L79.4969 159.134L80.4969 160.866ZM74.5043 157.984L79.4969 160.866L80.4969 159.134L75.5043 156.252L74.5043 157.984ZM74.6102 155C74.6102 155.585 74.4439 156.128 74.1564 156.587L75.8522 157.648C76.3327 156.879 76.6102 155.97 76.6102 155H74.6102ZM71.6102 152C73.267 152 74.6102 153.343 74.6102 155H76.6102C76.6102 152.239 74.3716 150 71.6102 150V152ZM68.9612 153.59C69.4674 152.642 70.4646 152 71.6102 152V150C69.6972 150 68.0368 151.075 67.1968 152.648L68.9612 153.59ZM63.6555 151.72L67.579 153.985L68.579 152.253L64.6555 149.988L63.6555 151.72ZM63.6102 149C63.6102 149.504 63.4869 149.975 63.2697 150.39L65.0412 151.318C65.4049 150.624 65.6102 149.835 65.6102 149H63.6102ZM60.6102 146C62.267 146 63.6102 147.343 63.6102 149H65.6102C65.6102 146.239 63.3716 144 60.6102 144V146ZM58.0761 147.393C58.6099 146.554 59.5457 146 60.6102 146V144C58.8333 144 57.2737 144.928 56.3883 146.32L58.0761 147.393ZM52.7865 145.445L56.7322 147.723L57.7322 145.991L53.7865 143.713L52.7865 145.445ZM52.6102 143C52.6102 143.422 52.5235 143.822 52.3679 144.184L54.2052 144.974C54.4661 144.367 54.6102 143.699 54.6102 143H52.6102ZM49.6102 140C51.267 140 52.6102 141.343 52.6102 143H54.6102C54.6102 140.239 52.3716 138 49.6102 138V140ZM47.2061 141.205C47.7549 140.472 48.6273 140 49.6102 140V138C47.9703 138 46.5149 138.79 45.6047 140.007L47.2061 141.205ZM41.8964 139.157L45.9054 141.472L46.9054 139.74L42.8963 137.425L41.8964 139.157ZM41.6094 137C41.6094 137.341 41.553 137.666 41.4498 137.969L43.3429 138.614C43.5159 138.106 43.6094 137.563 43.6094 137H41.6094ZM38.6094 134C40.2662 134 41.6094 135.343 41.6094 137H43.6094C43.6094 134.239 41.3708 132 38.6094 132V134ZM36.3509 135.025C36.9023 134.395 37.7091 134 38.6094 134V132C37.1084 132 35.761 132.663 34.846 133.708L36.3509 135.025ZM30.9854 132.858L35.0985 135.233L36.0985 133.501L31.9854 131.126L30.9854 132.858ZM30.6094 131C30.6094 131.258 30.577 131.508 30.5165 131.745L32.4544 132.239C32.5558 131.842 32.6094 131.426 32.6094 131H30.6094ZM27.6094 128C29.2662 128 30.6094 129.343 30.6094 131H32.6094C32.6094 128.239 30.3708 126 27.6094 126V128ZM25.5123 128.855C26.0542 128.325 26.7928 128 27.6094 128V126C26.2494 126 25.0145 126.544 24.1141 127.425L25.5123 128.855ZM19.8044 126.403L24.3132 129.006L25.3132 127.274L20.8044 124.671L19.8044 126.403ZM19.6102 124C19.6102 124.41 19.5284 124.799 19.3812 125.152L21.2276 125.921C21.4744 125.328 21.6102 124.679 21.6102 124H19.6102ZM16.6102 121C18.267 121 19.6102 122.343 19.6102 124H21.6102C21.6102 121.239 19.3716 119 16.6102 119V121ZM14.2269 122.178C14.7768 121.46 15.6396 121 16.6102 121V119C14.991 119 13.5515 119.771 12.6393 120.961L14.2269 122.178ZM10.2148 120.866L12.9331 122.435L13.9331 120.703L11.2148 119.134L10.2148 120.866ZM9.71484 113.999V120H11.7148V113.999H9.71484ZM13.6102 110C13.6102 111.63 12.3092 112.957 10.6892 112.999L10.7405 114.998C13.442 114.929 15.6102 112.718 15.6102 110H13.6102ZM10.6892 107.001C12.3092 107.043 13.6102 108.37 13.6102 110H15.6102C15.6102 107.282 13.442 105.071 10.7405 105.002L10.6892 107.001ZM9.71484 101.999V106.001H11.7148V101.999H9.71484ZM13.6102 98C13.6102 99.6304 12.3092 100.957 10.6892 100.999L10.7405 102.998C13.442 102.929 15.6102 100.718 15.6102 98H13.6102ZM10.6892 95.001C12.3092 95.0426 13.6102 96.3696 13.6102 98H15.6102C15.6102 95.2822 13.442 93.0711 10.7405 93.0017L10.6892 95.001ZM9.71484 89.9987V94.0013H11.7148V89.9987H9.71484ZM13.6102 86C13.6102 87.6304 12.3092 88.9574 10.6892 88.999L10.7405 90.9983C13.442 90.9289 15.6102 88.7178 15.6102 86H13.6102ZM10.6892 83.001C12.3092 83.0426 13.6102 84.3696 13.6102 86H15.6102C15.6102 83.2822 13.442 81.0711 10.7405 81.0017L10.6892 83.001ZM9.71484 77.9987V82.0013H11.7148V77.9987H9.71484ZM13.6102 74C13.6102 75.6304 12.3092 76.9574 10.6892 76.999L10.7405 78.9983C13.442 78.9289 15.6102 76.7178 15.6102 74H13.6102ZM10.6892 71.001C12.3092 71.0426 13.6102 72.3696 13.6102 74H15.6102C15.6102 71.2822 13.442 69.0711 10.7405 69.0017L10.6892 71.001ZM9.71484 65.9987V70.0013H11.7148V65.9987H9.71484ZM13.6102 62C13.6102 63.6305 12.3092 64.9574 10.6892 64.999L10.7405 66.9983C13.442 66.9289 15.6102 64.7178 15.6102 62H13.6102ZM10.6892 59.001C12.3092 59.0426 13.6102 60.3695 13.6102 62H15.6102C15.6102 59.2822 13.442 57.0711 10.7405 57.0017L10.6892 59.001ZM9.71484 53.9987V58.0013H11.7148V53.9987H9.71484ZM13.6102 50C13.6102 51.6305 12.3092 52.9574 10.6892 52.999L10.7405 54.9983C13.442 54.9289 15.6102 52.7178 15.6102 50H13.6102ZM10.6892 47.001C12.3092 47.0426 13.6102 48.3695 13.6102 50H15.6102C15.6102 47.2822 13.442 45.0711 10.7405 45.0017L10.6892 47.001ZM9.71484 40V46.0013H11.7148V40H9.71484ZM14.1721 36.8492L10.2148 39.134L11.2148 40.866L15.1721 38.5813L14.1721 36.8492ZM17.6094 38C16.7386 38 15.9556 37.6303 15.4063 37.0363L13.938 38.3943C14.85 39.3804 16.1581 40 17.6094 40V38ZM20.6094 35C20.6094 36.6569 19.2662 38 17.6094 38V40C20.3708 40 22.6094 37.7614 22.6094 35H20.6094ZM20.4753 34.1096C20.5622 34.3897 20.6094 34.6884 20.6094 35H22.6094C22.6094 34.4852 22.5313 33.9869 22.3855 33.5171L20.4753 34.1096ZM24.9717 30.6141L20.9304 32.9473L21.9304 34.6794L25.9717 32.3462L24.9717 30.6141ZM28.6102 32C27.6564 32 26.807 31.5561 26.2558 30.8596L24.6875 32.1007C25.6016 33.2559 27.0193 34 28.6102 34V32ZM31.6102 29C31.6102 30.6569 30.267 32 28.6102 32V34C31.3716 34 33.6102 31.7614 33.6102 29H31.6102ZM31.399 27.8914C31.5349 28.233 31.6102 28.6065 31.6102 29H33.6102C33.6102 28.3491 33.4853 27.7249 33.2572 27.1518L31.399 27.8914ZM36.3603 24.0389L31.8281 26.6556L32.8281 28.3876L37.3603 25.7709L36.3603 24.0389ZM39.6102 25C38.8109 25 38.0864 24.6887 37.5479 24.1788L36.1727 25.631C37.0679 26.4786 38.2792 27 39.6102 27V25ZM42.6102 22C42.6102 23.6569 41.267 25 39.6102 25V27C42.3716 27 44.6102 24.7614 44.6102 22H42.6102ZM42.5288 21.302C42.5818 21.525 42.6102 21.7586 42.6102 22H44.6102C44.6102 21.6015 44.5633 21.2126 44.4744 20.8391L42.5288 21.302ZM47.1412 17.8145L43.0016 20.2045L44.0016 21.9366L48.1412 19.5466L47.1412 17.8145ZM50.6102 19C49.7268 19 48.9336 18.6194 48.3832 18.0102L46.8992 19.3509C47.8128 20.3622 49.1377 21 50.6102 21V19ZM53.6102 16C53.6102 17.6569 52.267 19 50.6102 19V21C53.3716 21 55.6102 18.7614 55.6102 16H53.6102ZM53.4655 15.0761C53.5592 15.3659 53.6102 15.676 53.6102 16H55.6102C55.6102 15.4646 55.5257 14.9471 55.3685 14.461L53.4655 15.0761ZM57.9433 11.5779L53.917 13.9025L54.917 15.6346L58.9433 13.31L57.9433 11.5779ZM61.6102 13C60.6441 13 59.7849 12.5445 59.2346 11.8324L57.6521 13.0555C58.5649 14.2364 59.9986 15 61.6102 15V13ZM64.6102 10C64.6102 11.6569 63.267 13 61.6102 13V15C64.3716 15 66.6102 12.7614 66.6102 10H64.6102ZM64.386 8.8595C64.5302 9.20978 64.6102 9.5943 64.6102 10H66.6102C66.6102 9.32874 66.4773 8.686 66.2356 8.09849L64.386 8.8595ZM68.766 5.32945L64.8108 7.61297L65.8108 9.34502L69.766 7.06151L68.766 5.32945ZM72.6102 7C71.5624 7 70.6394 6.46367 70.1014 5.6459L68.4306 6.74507C69.3227 8.10124 70.8612 9 72.6102 9V7ZM75.6102 4C75.6102 5.65685 74.267 7 72.6102 7V9C75.3716 9 77.6102 6.76142 77.6102 4H75.6102ZM75.291 2.65165C75.4949 3.05589 75.6102 3.51305 75.6102 4H77.6102C77.6102 3.19318 77.4183 2.42829 77.0768 1.75114L75.291 2.65165ZM79.4969 -0.866026L75.6839 1.33537L76.6839 3.06742L80.4969 0.866026L79.4969 -0.866026Z" fill="#18181A" mask="url(#path-1-inside-1_1220_6698)"/>
<path d="M19.8782 44.2887L80 9.57735L140.122 44.2887V113.711L80 148.423L19.8782 113.711V44.2887Z" fill="#EB9244" stroke="#22242D"/>
<path d="M80 21L131.095 50.5V109.5L80 139L28.9045 109.5V50.5L80 21Z" fill="#FCCD56"/>
<path d="M43.3089 53.9751C41.7778 54.8591 40.297 54.7383 39.5022 54.4016L39.9625 52.7549C40.5437 52.9296 41.4537 53.0497 42.3206 52.5492C43.165 52.0617 43.3328 51.3644 43.0663 50.9028C42.2603 49.5068 38.7774 52.4183 37.1719 49.6375C36.4049 48.309 37.0103 46.6535 38.6428 45.711C39.96 44.9505 41.2922 45.022 41.9545 45.2851L41.4942 46.9319C41.068 46.8177 40.2888 46.7421 39.6133 47.1321C38.8365 47.5806 38.6925 48.1892 38.933 48.6057C39.739 50.0018 43.2331 47.0838 44.8386 49.8646C45.5926 51.1705 45.1215 52.9286 43.3089 53.9751ZM50.0024 50.0356C48.3474 50.9911 46.3408 50.4534 45.4308 48.8772C44.5208 47.301 45.0649 45.3056 46.6411 44.3956C48.2173 43.4856 50.0819 43.9852 50.9724 45.5276C51.1154 45.7753 51.2181 46.0312 51.2606 46.1568L47.2864 48.4513C47.682 48.9285 48.5569 49.1439 49.3675 48.6759C50.0092 48.3054 50.3131 47.7396 50.4611 47.2939L51.8129 47.7894C51.6594 48.4335 51.0945 49.4051 50.0024 50.0356ZM46.6707 47.4108L49.17 45.9678C48.7034 45.4716 48.0221 45.2795 47.3691 45.6565C46.6824 46.053 46.508 46.7391 46.6707 47.4108ZM55.2117 46.8779L53.6918 47.7554L50.5393 42.2951L52.0592 41.4176L52.5077 42.1944L52.5415 42.1749C52.5456 41.6621 52.8386 40.8175 53.6604 40.343C54.8425 39.6605 56.2099 40.0269 57.0549 41.4905L58.9269 44.7329L57.4071 45.6104L55.6521 42.5706C55.2621 41.8951 54.5985 41.7078 54.0018 42.0523C53.3263 42.4423 53.1122 43.2414 53.5542 44.007L55.2117 46.8779ZM62.5405 42.7217C61.4146 43.3717 60.2959 43.0719 59.5679 41.811L58.3329 39.6719L57.4322 40.1919L56.6197 38.7846L57.1038 38.5051C57.4641 38.2971 57.5592 37.9419 57.3122 37.5141L56.6817 36.4221L58.0327 35.6421L59.0402 37.3871L60.2224 36.7046L61.0349 38.1119L59.8527 38.7944L60.9577 40.7083C61.2502 41.2149 61.6522 41.3131 62.1025 41.0531C62.3502 40.9101 62.5299 40.7013 62.6099 40.58L63.4224 41.9873C63.2813 42.1588 62.9458 42.4877 62.5405 42.7217ZM69.1371 38.9131C68.0113 39.5631 66.8925 39.2633 66.1645 38.0024L64.9295 35.8633L64.0289 36.3833L63.2164 34.976L63.7005 34.6965C64.0607 34.4885 64.1559 34.1333 63.9089 33.7055L63.2784 32.6135L64.6294 31.8335L65.6369 33.5785L66.819 32.896L67.6315 34.3033L66.4494 34.9858L67.5544 36.8997C67.8469 37.4063 68.2488 37.5045 68.6992 37.2445C68.9469 37.1015 69.1265 36.8927 69.2066 36.7714L70.0191 38.1787C69.878 38.3503 69.5424 38.6791 69.1371 38.9131ZM73.8054 36.2929C72.1505 37.2484 70.1438 36.7107 69.2338 35.1345C68.3238 33.5584 68.868 31.5629 70.5229 30.6074C72.1892 29.6454 74.1781 30.1784 75.0881 31.7545C75.9981 33.3307 75.4717 35.3309 73.8054 36.2929ZM72.9929 34.8856C73.7585 34.4436 74.0202 33.4669 73.5457 32.645C73.0777 31.8344 72.101 31.5727 71.3354 32.0147C70.5811 32.4502 70.3194 33.4269 70.7874 34.2375C71.2619 35.0594 72.2386 35.3211 72.9929 34.8856Z" fill="#EB9244"/>
<path d="M79.2568 139.432C78.1309 140.082 77.0122 139.783 76.2842 138.522L75.0492 136.383L74.1485 136.903L73.336 135.495L73.8201 135.216C74.1804 135.008 74.2755 134.653 74.0285 134.225L73.398 133.133L74.749 132.353L75.7565 134.098L76.9387 133.415L77.7512 134.823L76.569 135.505L77.674 137.419C77.9665 137.926 78.3685 138.024 78.8188 137.764C79.0665 137.621 79.2462 137.412 79.3262 137.291L80.1387 138.698C79.9976 138.87 79.6621 139.198 79.2568 139.432ZM83.9251 136.812C82.2701 137.768 80.2634 137.23 79.3534 135.654C78.4434 134.078 78.9876 132.082 80.5637 131.172C82.1399 130.262 84.0045 130.762 84.895 132.304C85.038 132.552 85.1408 132.808 85.1832 132.933L81.2091 135.228C81.6046 135.705 82.4795 135.92 83.2901 135.452C83.9319 135.082 84.2357 134.516 84.3837 134.071L85.7355 134.566C85.582 135.21 85.0171 136.182 83.9251 136.812ZM80.5933 134.187L83.0926 132.744C82.626 132.248 81.9447 132.056 81.2917 132.433C80.605 132.83 80.4307 133.516 80.5933 134.187ZM86.5923 127.692C88.0334 126.86 89.5428 127.264 90.2253 128.446L92.2078 131.88L90.7668 132.712L90.3313 131.958L90.2975 131.977C90.2868 132.479 89.9761 133.319 89.1543 133.793C88.096 134.404 86.9192 134.108 86.4317 133.263C85.8922 132.329 86.1539 131.352 87.1064 130.532L88.6405 129.211C88.371 128.796 87.7802 128.657 87.2285 128.976C86.6431 129.314 86.4215 129.892 86.3268 130.352L84.9789 130.019C85.1 129.319 85.534 128.303 86.5923 127.692ZM88.8914 132.324C89.5443 131.947 89.7585 131.148 89.323 130.393L89.219 130.213L88.1733 131.132C87.791 131.458 87.6928 131.86 87.8553 132.141C88.0503 132.479 88.441 132.584 88.8914 132.324ZM95.1373 130.189L93.6174 131.066L90.4649 125.606L91.9848 124.728L92.4333 125.505L92.4671 125.486C92.4262 124.999 92.6741 124.18 93.4734 123.719C94.284 123.251 95.146 123.444 95.5714 123.738L95.6164 123.712C95.6076 123.177 95.9728 122.276 96.9298 121.723C97.9768 121.119 99.3507 121.496 100.189 122.949L102.061 126.191L100.541 127.069L98.7538 123.973C98.3638 123.297 97.7553 123.153 97.2486 123.446C96.6632 123.784 96.4729 124.494 96.9149 125.26L98.6049 128.187L97.085 129.064L95.2975 125.968C94.9075 125.293 94.2989 125.149 93.7923 125.441C93.1956 125.786 93.0053 126.496 93.4473 127.262L95.1373 130.189ZM104.988 124.501L103.468 125.379L100.316 119.918L101.836 119.041L102.284 119.818L102.318 119.798C102.277 119.311 102.525 118.493 103.324 118.031C104.135 117.563 104.997 117.756 105.422 118.051L105.467 118.025C105.459 117.49 105.824 116.588 106.781 116.036C107.828 115.431 109.202 115.809 110.04 117.261L111.912 120.504L110.392 121.381L108.605 118.285C108.215 117.61 107.606 117.466 107.1 117.758C106.514 118.096 106.324 118.806 106.766 119.572L108.456 122.499L106.936 123.377L105.149 120.281C104.759 119.605 104.15 119.461 103.643 119.754C103.047 120.098 102.856 120.808 103.298 121.574L104.988 124.501ZM112.297 112.851C113.738 112.019 115.248 112.423 115.93 113.605L117.913 117.039L116.472 117.871L116.036 117.117L116.003 117.136C115.992 117.638 115.681 118.478 114.859 118.952C113.801 119.563 112.624 119.267 112.137 118.423C111.597 117.488 111.859 116.511 112.811 115.691L114.346 114.37C114.076 113.955 113.485 113.816 112.934 114.135C112.348 114.473 112.127 115.051 112.032 115.511L110.684 115.178C110.805 114.478 111.239 113.462 112.297 112.851ZM114.596 117.483C115.249 117.106 115.464 116.307 115.028 115.552L114.924 115.372L113.878 116.291C113.496 116.617 113.398 117.019 113.56 117.3C113.755 117.638 114.146 117.743 114.596 117.483ZM121.53 115.026C120.405 115.676 119.286 115.376 118.558 114.115L117.323 111.976L116.422 112.496L115.61 111.089L116.094 110.809C116.454 110.601 116.549 110.246 116.302 109.818L115.672 108.726L117.023 107.946L118.03 109.691L119.212 109.009L120.025 110.416L118.843 111.098L119.948 113.012C120.24 113.519 120.642 113.617 121.093 113.357C121.34 113.214 121.52 113.005 121.6 112.884L122.412 114.291C122.271 114.463 121.936 114.792 121.53 115.026ZM126.199 112.405C124.544 113.361 122.537 112.823 121.627 111.247C120.717 109.671 121.261 107.675 122.837 106.765C124.414 105.855 126.278 106.355 127.169 107.898C127.312 108.145 127.414 108.401 127.457 108.527L123.483 110.821C123.878 111.298 124.753 111.514 125.564 111.046C126.206 110.675 126.509 110.11 126.657 109.664L128.009 110.159C127.856 110.803 127.291 111.775 126.199 112.405ZM122.867 109.781L125.366 108.338C124.9 107.841 124.218 107.649 123.565 108.026C122.879 108.423 122.704 109.109 122.867 109.781ZM131.867 109.133C130.786 109.757 129.577 109.69 128.952 109.465L129.298 108.064C129.702 108.191 130.423 108.27 131.031 107.919C131.515 107.64 131.635 107.301 131.479 107.03C131.043 106.276 128.53 108.162 127.451 106.294C126.937 105.404 127.267 104.208 128.618 103.428C129.62 102.849 130.657 102.851 131.179 103L130.832 104.402C130.536 104.332 130.011 104.305 129.515 104.591C129.065 104.851 128.957 105.184 129.074 105.387C129.503 106.13 132.029 104.266 133.108 106.135C133.641 107.058 133.308 108.301 131.867 109.133Z" fill="#EB9244"/>
<path d="M80 43L112.043 61.5V98.5L80 117L47.9571 98.5V61.5L80 43Z" fill="#FAE6AB"/>
<path d="M78.807 87H68.407V83H71.107V77.56C70.667 77.98 69.807 78.28 68.807 78.28V74.9C70.487 74.68 71.367 73.68 71.707 73H76.307V83H78.807V87ZM92 87H80.6C80.6 79.8 86.4 79.6 86.4 77.8C86.4 77.4 86.2 77.2 85.76 77.2C85.28 77.2 84.82 77.58 84.54 77.94L80.4 76C81.08 74.54 83.22 72.6 86.5 72.6C90.1 72.6 92.2 74.7 92.2 77.2C92.2 80.4 88.6 81.6 87.4 82.6H92V87Z" fill="#EB9244"/>
<path d="M79.1984 26.5L86.7617 33.61L85.4593 36.2148L79.1984 36.2148L79.1984 26.5Z" fill="#C2B197" stroke="#22242D" stroke-width="0.6"/>
<path d="M86.8125 33.6127L86.0767 29.6649L83.2345 27.6641L79.8452 28.7822L81.0298 36.177L85.5883 36.177L86.8125 33.6127Z" fill="#C2B197" stroke="#22242D" stroke-width="0.6"/>
<path d="M85.5039 33.6226L85.5039 29.4615L83.2348 27.6641L79.8454 28.7822L78.7509 29.4615L73.8668 29.4615L75.9832 36.5054L83.1199 36.8004L85.5039 33.6226Z" fill="#F9E29C" stroke="#22242D" stroke-width="0.6"/>
<path d="M76.202 26.5L85.4258 33.7359L82.9838 36.6663L77.102 36.6663L76.202 26.5Z" fill="#F9E29C" stroke="#22242D" stroke-width="0.6"/>
<path d="M87.9023 32.3945L85.5023 29.3945L85.5023 32.3945L87.9023 32.3945Z" fill="#F9E29C" stroke="#22242D" stroke-width="0.6" stroke-linejoin="round"/>
<path d="M120.198 50.5L127.762 57.61L126.459 60.2148L120.198 60.2148L120.198 50.5Z" fill="#C2B197" stroke="#22242D" stroke-width="0.6"/>
<path d="M127.812 57.6127L127.077 53.6649L124.235 51.6641L120.845 52.7822L122.03 60.177L126.588 60.177L127.812 57.6127Z" fill="#C2B197" stroke="#22242D" stroke-width="0.6"/>
<path d="M126.504 57.6226L126.504 53.4615L124.235 51.6641L120.845 52.7822L119.751 53.4615L114.867 53.4615L116.983 60.5054L124.12 60.8004L126.504 57.6226Z" fill="#F9E29C" stroke="#22242D" stroke-width="0.6"/>
<path d="M117.202 50.5L126.426 57.7359L123.984 60.6663L118.102 60.6663L117.202 50.5Z" fill="#F9E29C" stroke="#22242D" stroke-width="0.6"/>
<path d="M128.902 56.3945L126.502 53.3945L126.502 56.3945L128.902 56.3945Z" fill="#F9E29C" stroke="#22242D" stroke-width="0.6" stroke-linejoin="round"/>
<path d="M119.198 98.5L126.762 105.61L125.459 108.215L119.198 108.215L119.198 98.5Z" fill="#C2B197" stroke="#22242D" stroke-width="0.6"/>
<path d="M126.812 105.613L126.077 101.665L123.235 99.6641L119.845 100.782L121.03 108.177L125.588 108.177L126.812 105.613Z" fill="#C2B197" stroke="#22242D" stroke-width="0.6"/>
<path d="M125.504 105.623L125.504 101.462L123.235 99.6641L119.845 100.782L118.751 101.462L113.867 101.462L115.983 108.505L123.12 108.8L125.504 105.623Z" fill="#F9E29C" stroke="#22242D" stroke-width="0.6"/>
<path d="M116.202 98.5L125.426 105.736L122.984 108.666L117.102 108.666L116.202 98.5Z" fill="#F9E29C" stroke="#22242D" stroke-width="0.6"/>
<path d="M127.902 104.395L125.502 101.395L125.502 104.395L127.902 104.395Z" fill="#F9E29C" stroke="#22242D" stroke-width="0.6" stroke-linejoin="round"/>
<path d="M37.1984 97.5L44.7617 104.61L43.4593 107.215L37.1984 107.215L37.1984 97.5Z" fill="#C2B197" stroke="#22242D" stroke-width="0.6"/>
<path d="M44.8125 104.613L44.0767 100.665L41.2345 98.6641L37.8452 99.7822L39.0298 107.177L43.5883 107.177L44.8125 104.613Z" fill="#C2B197" stroke="#22242D" stroke-width="0.6"/>
<path d="M43.5039 104.623L43.5039 100.462L41.2348 98.6641L37.8454 99.7822L36.7509 100.462L31.8668 100.462L33.9832 107.505L41.1199 107.8L43.5039 104.623Z" fill="#F9E29C" stroke="#22242D" stroke-width="0.6"/>
<path d="M34.202 97.5L43.4258 104.736L40.9838 107.666L35.102 107.666L34.202 97.5Z" fill="#F9E29C" stroke="#22242D" stroke-width="0.6"/>
<path d="M45.9023 103.395L43.5023 100.395L43.5023 103.395L45.9023 103.395Z" fill="#F9E29C" stroke="#22242D" stroke-width="0.6" stroke-linejoin="round"/>
<path d="M37.1984 50.5L44.7617 57.61L43.4593 60.2148L37.1984 60.2148L37.1984 50.5Z" fill="#C2B197" stroke="#22242D" stroke-width="0.6"/>
<path d="M44.8125 57.6127L44.0767 53.6649L41.2345 51.6641L37.8452 52.7822L39.0298 60.177L43.5883 60.177L44.8125 57.6127Z" fill="#C2B197" stroke="#22242D" stroke-width="0.6"/>
<path d="M43.5039 57.6226L43.5039 53.4615L41.2348 51.6641L37.8454 52.7822L36.7509 53.4615L31.8668 53.4615L33.9832 60.5054L41.1199 60.8004L43.5039 57.6226Z" fill="#F9E29C" stroke="#22242D" stroke-width="0.6"/>
<path d="M34.202 50.5L43.4258 57.7359L40.9838 60.6663L35.102 60.6663L34.202 50.5Z" fill="#F9E29C" stroke="#22242D" stroke-width="0.6"/>
<path d="M45.9023 56.3945L43.5023 53.3945L43.5023 56.3945L45.9023 56.3945Z" fill="#F9E29C" stroke="#22242D" stroke-width="0.6" stroke-linejoin="round"/>
<path d="M55.1984 62.5L62.7617 69.61L61.4593 72.2148L55.1984 72.2148L55.1984 62.5Z" fill="#C2B197" stroke="#22242D" stroke-width="0.6"/>
<path d="M62.8125 69.6127L62.0767 65.6649L59.2345 63.6641L55.8452 64.7822L57.0298 72.177L61.5883 72.177L62.8125 69.6127Z" fill="#C2B197" stroke="#22242D" stroke-width="0.6"/>
<path d="M61.5039 69.6226L61.5039 65.4615L59.2348 63.6641L55.8454 64.7822L54.7509 65.4615L49.8668 65.4615L51.9832 72.5054L59.1199 72.8004L61.5039 69.6226Z" fill="#F9E29C" stroke="#22242D" stroke-width="0.6"/>
<path d="M52.202 62.5L61.4258 69.7359L58.9838 72.6663L53.102 72.6663L52.202 62.5Z" fill="#F9E29C" stroke="#22242D" stroke-width="0.6"/>
<path d="M63.9023 68.3945L61.5023 65.3945L61.5023 68.3945L63.9023 68.3945Z" fill="#F9E29C" stroke="#22242D" stroke-width="0.6" stroke-linejoin="round"/>
<path d="M79.1984 49.5L86.7617 56.61L85.4593 59.2148L79.1984 59.2148L79.1984 49.5Z" fill="#C2B197" stroke="#22242D" stroke-width="0.6"/>
<path d="M86.8125 56.6127L86.0767 52.6649L83.2345 50.6641L79.8452 51.7822L81.0298 59.177L85.5883 59.177L86.8125 56.6127Z" fill="#C2B197" stroke="#22242D" stroke-width="0.6"/>
<path d="M85.5039 56.6226L85.5039 52.4615L83.2348 50.6641L79.8454 51.7822L78.7509 52.4615L73.8668 52.4615L75.9832 59.5054L83.1199 59.8004L85.5039 56.6226Z" fill="#F9E29C" stroke="#22242D" stroke-width="0.6"/>
<path d="M76.202 49.5L85.4258 56.7359L82.9838 59.6663L77.102 59.6663L76.202 49.5Z" fill="#F9E29C" stroke="#22242D" stroke-width="0.6"/>
<path d="M87.9023 55.3945L85.5023 52.3945L85.5023 55.3945L87.9023 55.3945Z" fill="#F9E29C" stroke="#22242D" stroke-width="0.6" stroke-linejoin="round"/>
<path d="M101.198 60.5L108.762 67.61L107.459 70.2148L101.198 70.2148L101.198 60.5Z" fill="#C2B197" stroke="#22242D" stroke-width="0.6"/>
<path d="M108.812 67.6127L108.077 63.6649L105.235 61.6641L101.845 62.7822L103.03 70.177L107.588 70.177L108.812 67.6127Z" fill="#C2B197" stroke="#22242D" stroke-width="0.6"/>
<path d="M107.504 67.6226L107.504 63.4615L105.235 61.6641L101.845 62.7822L100.751 63.4615L95.8668 63.4615L97.9832 70.5054L105.12 70.8004L107.504 67.6226Z" fill="#F9E29C" stroke="#22242D" stroke-width="0.6"/>
<path d="M98.202 60.5L107.426 67.7359L104.984 70.6663L99.102 70.6663L98.202 60.5Z" fill="#F9E29C" stroke="#22242D" stroke-width="0.6"/>
<path d="M109.902 66.3945L107.502 63.3945L107.502 66.3945L109.902 66.3945Z" fill="#F9E29C" stroke="#22242D" stroke-width="0.6" stroke-linejoin="round"/>
<path d="M56.1984 87.5L63.7617 94.61L62.4593 97.2148L56.1984 97.2148L56.1984 87.5Z" fill="#C2B197" stroke="#22242D" stroke-width="0.6"/>
<path d="M63.8125 94.6127L63.0767 90.6649L60.2345 88.6641L56.8452 89.7822L58.0298 97.177L62.5883 97.177L63.8125 94.6127Z" fill="#C2B197" stroke="#22242D" stroke-width="0.6"/>
<path d="M62.5039 94.6226L62.5039 90.4615L60.2348 88.6641L56.8454 89.7822L55.7509 90.4615L50.8668 90.4615L52.9832 97.5054L60.1199 97.8004L62.5039 94.6226Z" fill="#F9E29C" stroke="#22242D" stroke-width="0.6"/>
<path d="M53.202 87.5L62.4258 94.7359L59.9838 97.6663L54.102 97.6663L53.202 87.5Z" fill="#F9E29C" stroke="#22242D" stroke-width="0.6"/>
<path d="M64.9023 93.3945L62.5023 90.3945L62.5023 93.3945L64.9023 93.3945Z" fill="#F9E29C" stroke="#22242D" stroke-width="0.6" stroke-linejoin="round"/>
<path d="M79.1984 99.5L86.7617 106.61L85.4593 109.215L79.1984 109.215L79.1984 99.5Z" fill="#C2B197" stroke="#22242D" stroke-width="0.6"/>
<path d="M86.8125 106.613L86.0767 102.665L83.2345 100.664L79.8452 101.782L81.0298 109.177L85.5883 109.177L86.8125 106.613Z" fill="#C2B197" stroke="#22242D" stroke-width="0.6"/>
<path d="M85.5039 106.623L85.5039 102.462L83.2348 100.664L79.8454 101.782L78.7509 102.462L73.8668 102.462L75.9832 109.505L83.1199 109.8L85.5039 106.623Z" fill="#F9E29C" stroke="#22242D" stroke-width="0.6"/>
<path d="M76.202 99.5L85.4258 106.736L82.9838 109.666L77.102 109.666L76.202 99.5Z" fill="#F9E29C" stroke="#22242D" stroke-width="0.6"/>
<path d="M87.9023 105.395L85.5023 102.395L85.5023 105.395L87.9023 105.395Z" fill="#F9E29C" stroke="#22242D" stroke-width="0.6" stroke-linejoin="round"/>
<path d="M101.198 87.5L108.762 94.61L107.459 97.2148L101.198 97.2148L101.198 87.5Z" fill="#C2B197" stroke="#22242D" stroke-width="0.6"/>
<path d="M108.812 94.6127L108.077 90.6649L105.235 88.6641L101.845 89.7822L103.03 97.177L107.588 97.177L108.812 94.6127Z" fill="#C2B197" stroke="#22242D" stroke-width="0.6"/>
<path d="M107.504 94.6226L107.504 90.4615L105.235 88.6641L101.845 89.7822L100.751 90.4615L95.8668 90.4615L97.9832 97.5054L105.12 97.8004L107.504 94.6226Z" fill="#F9E29C" stroke="#22242D" stroke-width="0.6"/>
<path d="M98.202 87.5L107.426 94.7359L104.984 97.6663L99.102 97.6663L98.202 87.5Z" fill="#F9E29C" stroke="#22242D" stroke-width="0.6"/>
<path d="M109.902 93.3945L107.502 90.3945L107.502 93.3945L109.902 93.3945Z" fill="#F9E29C" stroke="#22242D" stroke-width="0.6" stroke-linejoin="round"/>
<path d="M79.1984 121.5L86.7617 128.61L85.4593 131.215L79.1984 131.215L79.1984 121.5Z" fill="#C2B197" stroke="#22242D" stroke-width="0.6"/>
<path d="M86.8125 128.613L86.0767 124.665L83.2345 122.664L79.8452 123.782L81.0298 131.177L85.5883 131.177L86.8125 128.613Z" fill="#C2B197" stroke="#22242D" stroke-width="0.6"/>
<path d="M85.5039 128.623L85.5039 124.462L83.2348 122.664L79.8454 123.782L78.7509 124.462L73.8668 124.462L75.9832 131.505L83.1199 131.8L85.5039 128.623Z" fill="#F9E29C" stroke="#22242D" stroke-width="0.6"/>
<path d="M76.202 121.5L85.4258 128.736L82.9838 131.666L77.102 131.666L76.202 121.5Z" fill="#F9E29C" stroke="#22242D" stroke-width="0.6"/>
<path d="M87.9023 127.395L85.5023 124.395L85.5023 127.395L87.9023 127.395Z" fill="#F9E29C" stroke="#22242D" stroke-width="0.6" stroke-linejoin="round"/>
</svg>
