<svg width="109" height="20" viewBox="0 0 109 20" fill="none" xmlns="http://www.w3.org/2000/svg">
<g clip-path="url(#clip0_3007_24226)">
<path d="M27.8491 12.2801L32.8081 8.26866V8.10969H27.9702V6.80994H35.2202V7.74501L30.2612 11.7832V12.0637L35.2202 11.9302V13.2299H27.8491V12.2815V12.2801Z" fill="black"/>
<path d="M45.2842 10.4087H38.45C38.5712 11.3839 39.2141 12.176 41.238 12.176C42.9933 12.176 43.6101 11.6697 43.7175 11.1367H45.2856C45.2057 12.2548 44.0658 13.3582 41.238 13.3582C37.7396 13.3582 36.7222 11.6684 36.7222 10.0707C36.7222 8.01757 38.344 6.67908 41.132 6.67908C43.9199 6.67908 45.287 7.90002 45.287 9.88906V10.4087H45.2842ZM43.7175 9.36943C43.7175 8.51183 43.0071 7.86262 41.198 7.86262C39.5363 7.86262 38.7323 8.40897 38.5051 9.4095H43.7189V9.37076L43.7175 9.36943Z" fill="black"/>
<path d="M47.2419 6.80865H48.9574L48.9312 8.69216H49.095C49.5907 7.38038 50.5255 6.67773 52.6691 6.67773C55.3758 6.67773 56.3271 7.93875 56.3271 9.51102V13.2273H54.6117V9.95318C54.6117 8.80971 54.0087 8.04295 52.0248 8.04295C50.4167 8.04295 48.956 8.78299 48.956 10.3432V13.2286H47.2406V6.80998L47.2419 6.80865Z" fill="black"/>
<path d="M58.2174 10.0186C58.2174 8.19925 59.6781 6.67908 62.5858 6.67908C65.4935 6.67908 66.6334 7.88399 66.6334 9.27458L65.0653 9.40817C65.0516 8.68014 64.3948 7.97883 62.6133 7.97883C60.8318 7.97883 59.9328 8.87517 59.9328 10.0186C59.9328 11.0966 60.6294 12.0584 62.5459 12.0584C64.4623 12.0584 65.0791 11.3825 65.0915 10.6545L66.6596 10.7881C66.6596 12.1266 65.5747 13.3569 62.4784 13.3569C59.3821 13.3569 58.2174 11.6417 58.2174 10.0173V10.0186Z" fill="black"/>
<path d="M68.4838 10.032C68.4838 8.34218 69.7697 6.67908 73.0271 6.67908C76.2845 6.67908 77.5703 8.34218 77.5703 10.032C77.5703 11.7218 76.3106 13.3582 73.0271 13.3582C69.7435 13.3582 68.4838 11.7338 68.4838 10.032ZM75.8535 10.032C75.8535 8.96601 75.0894 7.97883 73.0257 7.97883C70.9619 7.97883 70.1978 8.96601 70.1978 10.032C70.1978 11.098 70.9482 12.0584 73.0257 12.0584C75.1032 12.0584 75.8535 11.0966 75.8535 10.032Z" fill="black"/>
<path d="M79.3931 9.94118C79.3931 8.13514 80.9076 6.67909 83.6542 6.67909C85.5169 6.67909 86.398 7.18537 86.7463 8.06969H86.8978V4.96924H88.6132V13.2286H86.8978C86.924 12.7611 86.9515 12.1106 86.9653 11.5789H86.8014C86.4793 12.6315 85.5858 13.3596 83.6019 13.3596C80.9213 13.3596 79.3945 12.0077 79.3945 9.94251L79.3931 9.94118ZM86.8978 10.0187V9.82362C86.8978 8.80973 85.9327 7.97885 83.8965 7.97885C82.0337 7.97885 81.0962 8.82309 81.0962 9.94118C81.0962 11.2409 82.1274 12.0598 83.8841 12.0598C85.8941 12.0598 86.8992 10.8896 86.8992 10.02L86.8978 10.0187Z" fill="black"/>
<path d="M99.1729 10.4087H92.3387C92.4598 11.3839 93.1028 12.176 95.1266 12.176C96.882 12.176 97.4987 11.6697 97.6061 11.1367H99.1742C99.0944 12.2548 97.9544 13.3582 95.1266 13.3582C91.6283 13.3582 90.6109 11.6684 90.6109 10.0707C90.6109 8.01757 92.2327 6.67908 95.0206 6.67908C97.8085 6.67908 99.1756 7.90002 99.1756 9.88906V10.4087H99.1729ZM97.6047 9.36943C97.6047 8.51183 96.8943 7.86262 95.0853 7.86262C93.4236 7.86262 92.6195 8.40897 92.3924 9.4095H97.6061V9.37076L97.6047 9.36943Z" fill="black"/>
<path d="M101.131 6.80865H102.846L102.82 8.77098H102.984C103.399 7.61415 104.199 6.67908 106.062 6.67908C108.247 6.67908 109.077 7.84792 109.077 9.64194C109.077 10.1362 109.051 10.577 109.037 10.7854H107.429C107.443 10.6291 107.455 10.3566 107.455 10.1228C107.455 8.7456 106.986 8.04429 105.566 8.04429C103.811 8.04429 102.846 9.36943 102.846 10.7988V13.2286H101.131V6.80999V6.80865Z" fill="black"/>
<path d="M9.2198 13.7061C8.96141 12.8608 8.52445 11.854 7.63024 11.4838C6.7252 11.1412 5.693 11.5495 4.95165 12.0679C4.39564 12.4643 3.91133 12.992 3.6543 13.6247C3.56772 13.84 3.50684 14.0644 3.47708 14.2928C3.44191 14.5212 3.40944 14.7509 3.4135 14.9819C3.44055 16.4835 4.27524 17.9274 5.42379 18.904C6.04879 19.4212 6.85913 19.899 7.71952 19.8386C9.09128 19.7021 9.35508 18.06 9.50254 16.9928C9.56477 16.5518 9.56883 16.1068 9.54718 15.6632C9.51201 15.0003 9.40784 14.3453 9.2198 13.7048V13.7061Z" fill="#F24A07"/>
<path d="M17.1893 14.0539C16.7753 13.8597 16.341 13.7179 15.9 13.6024C15.2399 13.4304 14.5648 13.3228 13.8789 13.2992C12.9698 13.2755 11.8483 13.3674 11.2098 14.0789C10.5943 14.8087 10.6754 15.8876 10.9555 16.7316C11.1719 17.3669 11.5399 17.976 12.081 18.4105C12.265 18.5562 12.4666 18.6822 12.6817 18.7806C12.8941 18.883 13.1092 18.9841 13.3378 19.0523C14.8178 19.4921 16.4912 19.1678 17.8034 18.4092C18.5029 17.9931 19.2226 17.3919 19.4282 16.5794C19.719 15.2707 18.1904 14.5212 17.1893 14.0539Z" fill="#F24A07"/>
<path d="M21.1409 6.83193C20.9488 6.0575 20.5821 5.20824 19.8503 4.7672C18.6584 4.09515 17.4504 5.27387 16.6833 6.05224C16.3654 6.37383 16.0921 6.73086 15.8419 7.10233C15.4698 7.65888 15.156 8.24824 14.9206 8.87304C14.6176 9.70524 14.3605 10.7684 14.8611 11.577C15.386 12.3698 16.4682 12.6297 17.3814 12.631C18.0713 12.6284 18.7829 12.4762 19.3741 12.1112C19.5743 11.9865 19.7596 11.8395 19.922 11.6715C20.0884 11.5074 20.2534 11.3394 20.3914 11.1504C21.2802 9.9205 21.4791 8.27712 21.1409 6.83193Z" fill="#F24A07"/>
<path d="M13.5367 7.43574C14.4769 7.19684 15.064 6.27802 15.3494 5.43532C15.5591 4.79739 15.6308 4.09515 15.4563 3.43491C15.3954 3.21176 15.3088 2.99518 15.1952 2.79304C15.0856 2.58959 14.9733 2.38482 14.8286 2.19974C13.8965 1.00002 12.3462 0.309586 10.8256 0.174387C10.0071 0.112694 9.06152 0.187513 8.4027 0.728308C7.37455 1.62088 8.15648 3.10019 8.68408 4.04789C8.90054 4.44036 9.16704 4.80264 9.45384 5.14786C9.88404 5.66372 10.3643 6.13494 10.9054 6.54579C11.6265 7.08264 12.5897 7.64838 13.538 7.43705L13.5367 7.43574Z" fill="#F24A07"/>
<path d="M5.56313 10.439C6.20166 10.2014 6.81178 9.90345 7.38132 9.53198C8.13078 9.03188 8.98171 8.31782 9.06829 7.37799C9.12375 6.43685 8.40541 5.60991 7.66812 5.08749C7.10805 4.69633 6.44111 4.41412 5.74035 4.3708C5.50361 4.35768 5.26416 4.3708 5.03147 4.41412C4.79743 4.45219 4.56204 4.49288 4.33612 4.5677C2.87237 5.05599 1.71571 6.27277 1.1137 7.63526C0.79985 8.37163 0.582046 9.26815 0.906723 10.0426C1.46408 11.2673 3.15511 11.0021 4.24684 10.8091C4.69868 10.7304 5.13564 10.5965 5.56313 10.439Z" fill="#F24A07"/>
</g>
<defs>
<clipPath id="clip0_3007_24226">
<rect width="109" height="20" fill="white"/>
</clipPath>
</defs>
</svg>
