<svg width="102" height="16" viewBox="0 0 102 16" fill="none" xmlns="http://www.w3.org/2000/svg">
<path d="M25.7468 13.9153C22.4172 13.9153 20.4856 11.5283 20.4856 7.94773C20.4856 4.35128 22.543 2.06372 25.8409 2.06372C28.3695 2.06372 30.1754 3.51483 30.6309 6.06994H28.7121C28.3666 4.52434 27.2517 3.7038 25.7755 3.7038C23.9697 3.7038 22.54 5.18773 22.54 7.94773C22.54 10.7246 23.938 12.2702 25.7597 12.2702C27.2983 12.2702 28.3982 11.4656 28.7438 9.90409H30.6625C30.1913 12.4642 28.3695 13.9153 25.7468 13.9153Z" fill="#007BFF"/>
<path d="M36.2238 5.03369C38.2653 5.03369 39.095 6.35849 39.095 8.37751V13.7105H37.2267V8.83701C37.2267 7.68428 37.0564 6.56437 35.6267 6.56437C34.1971 6.56437 33.6624 7.66837 33.6624 9.19805V13.7105H31.7952V2.27271H33.6624V6.40623C34.1505 5.52204 35.0485 5.03369 36.2238 5.03369Z" fill="#007BFF"/>
<path d="M48.2521 5.22266V13.7105H46.3839V12.5906C45.8809 13.4261 44.9978 13.9154 43.8711 13.9154C41.7503 13.9154 40.1959 12.1957 40.1959 9.46659C40.1959 6.73743 41.7503 5.03369 43.8711 5.03369C45.0017 5.03369 45.8809 5.52204 46.3839 6.35849V5.22266H48.2521ZM42.1434 9.46659C42.1434 11.2648 42.9127 12.3847 44.279 12.3847C45.5037 12.3847 46.4571 11.4229 46.4571 9.46659C46.4571 7.51022 45.5037 6.56437 44.279 6.56437C42.9127 6.56437 42.1434 7.66836 42.1434 9.46659Z" fill="#007BFF"/>
<path d="M57.6429 5.05054C59.6844 5.05054 60.5141 6.37533 60.5141 8.39436V13.7254H58.6478V8.85187C58.6478 7.70013 58.4756 6.58022 57.0459 6.58022C55.6162 6.58022 55.0826 7.68422 55.0826 9.2139V13.7254H53.2143V5.23951H55.0826V6.42307C55.5697 5.53988 56.4647 5.05054 57.6429 5.05054Z" fill="#007BFF"/>
<path d="M65.1001 6.48573C64.2833 6.48573 63.5299 6.84876 63.5299 7.41667C63.5299 7.98458 63.9378 8.28396 64.6606 8.42618L65.8546 8.66289C67.5654 8.99409 68.8693 9.53018 68.8693 11.1872C68.8693 12.9546 67.205 13.9322 65.2883 13.9322C63.216 13.9322 61.8339 12.7487 61.6299 11.1394H63.4517C63.6239 12.0077 64.2526 12.513 65.3516 12.513C66.3249 12.513 67.0476 12.1022 67.0476 11.408C67.0476 10.7137 66.4199 10.3985 65.5873 10.2403L64.315 9.98869C62.8863 9.70423 61.7705 9.05775 61.7705 7.51116C61.7705 6.01231 63.3725 5.05054 65.21 5.05054C66.8595 5.05054 68.3664 5.85516 68.7119 7.5589H66.9536C66.7496 6.7861 66.0427 6.48573 65.1001 6.48573Z" fill="#007BFF"/>
<path d="M72.5207 2.99976V5.23958H74.2167V6.5962H72.5207V11.2191C72.5207 12.0863 72.7247 12.2912 73.5257 12.2912H74.2009V13.7254H72.8148C71.0089 13.7254 70.6475 13.2361 70.6475 11.5005V6.5962H69.3951V5.23958H70.6515V2.99976H72.5207Z" fill="#007BFF"/>
<path d="M83.2135 5.23951V13.7254H81.3442V12.6074C80.8423 13.4429 79.9581 13.9322 78.8314 13.9322C76.7117 13.9322 75.1563 12.2126 75.1563 9.48343C75.1563 6.75427 76.7117 5.05054 78.8314 5.05054C79.9621 5.05054 80.8423 5.53988 81.3442 6.37533V5.23951H83.2135ZM77.1047 9.48343C77.1047 11.2817 77.874 12.4016 79.2403 12.4016C80.465 12.4016 81.4185 11.4398 81.4185 9.48343C81.4185 7.52707 80.4611 6.58121 79.2403 6.58121C77.874 6.58121 77.1047 7.68521 77.1047 9.48343Z" fill="#007BFF"/>
<path d="M90.5469 8.14278C90.3935 7.24267 89.6014 6.6121 88.5836 6.6121C87.4223 6.6121 86.3698 7.48038 86.3698 9.48349C86.3698 11.5025 87.4371 12.3678 88.5371 12.3678C89.447 12.3678 90.3737 11.957 90.6093 10.8212H92.431C92.0548 12.8104 90.3113 13.9293 88.5054 13.9293C86.055 13.9293 84.4382 12.0207 84.4382 9.49642C84.4382 6.97214 86.0708 5.04761 88.5836 5.04761C90.4212 5.04761 92.0548 6.24112 92.3687 8.13979L90.5469 8.14278Z" fill="#007BFF"/>
<path d="M95.4032 8.64702L98.5279 5.23955H100.773L97.5388 8.72658L101.135 13.7254H98.9566L96.3032 10.0454L95.4121 11.0082V13.7254H93.534V2.2876H95.4032V8.64702Z" fill="#007BFF"/>
<path d="M51.7015 13.7105H49.8323V5.22266H51.7015V13.7105Z" fill="#007BFF"/>
<path d="M50.7669 4.62186C51.4689 4.62186 52.0381 4.0501 52.0381 3.3448C52.0381 2.63951 51.4689 2.06775 50.7669 2.06775C50.0648 2.06775 49.4956 2.63951 49.4956 3.3448C49.4956 4.0501 50.0648 4.62186 50.7669 4.62186Z" fill="#007BFF"/>
<path d="M11.3759 11.4279H3.63158C3.36176 11.4284 3.09448 11.3754 2.84507 11.272C2.59566 11.1686 2.36903 11.0167 2.17816 10.8251L0.594047 9.23379C0.212548 8.84739 -0.0010466 8.32492 4.1365e-06 7.7807V3.64817C-0.000537826 3.37711 0.0521811 3.10861 0.155139 2.85807C0.258096 2.60752 0.409268 2.37985 0.599987 2.18811L2.1841 0.596759C2.56911 0.21346 3.08954 -0.00109723 3.63158 4.21988e-06H11.3759V2.28757H4.32364C3.78104 2.28809 3.26082 2.50486 2.87714 2.89028C2.49347 3.27571 2.27769 3.79831 2.27717 4.34339V7.08448C2.27717 7.6299 2.49271 8.15301 2.87645 8.53887C3.26018 8.92473 3.7807 9.14176 4.32364 9.14229H11.3759V11.4279Z" fill="#007BFF"/>
<path d="M4.55432 4.5752H12.2996C12.8407 4.57467 13.36 4.7892 13.7442 5.17195L15.3283 6.7633C15.7124 7.14921 15.9283 7.67262 15.9283 8.21839V12.3509C15.9283 12.8967 15.7124 13.4201 15.3283 13.806L13.7442 15.3973C13.36 15.7833 12.839 16.0001 12.2957 16.0001H4.55432V13.7125H11.6066C12.1499 13.7125 12.6709 13.4957 13.0551 13.1098C13.4392 12.7239 13.6551 12.2005 13.6551 11.6547V8.9146C13.6551 8.36883 13.4392 7.84542 13.0551 7.45951C12.6709 7.07359 12.1499 6.85679 11.6066 6.85679H4.55432V4.5752Z" fill="#007BFF"/>
</svg>
