<svg width="1501" height="329" viewBox="0 0 1501 329" fill="none" xmlns="http://www.w3.org/2000/svg">
<path d="M195.002 112.754L210.296 196.722H178.725L195.002 112.754ZM232.919 315.782H388.754L296.253 15H93.751L0 315.782H155.002L159.997 292.388H228.34L232.919 315.782Z" fill="#0728EF"/>
<path d="M596.945 321.239H744.874V151.651H560.699V204.351H581.671C580.537 208.885 578.741 211.557 575.624 214.107C572.506 216.657 568.083 218.802 561.565 218.802C552.78 218.802 547.17 216.62 541.725 212.85C536.279 209.08 527.9 197.828 527.9 183.945V170.12C527.9 156.237 532.508 145.404 539.63 139.54C546.752 133.675 554.975 129.997 565.08 129.997C575.184 129.997 583.092 132.194 591.982 141.876H744.874V141.026C740.623 93.9923 724.895 60.1337 695.99 39.4502C667.367 18.4834 623.725 8 565.064 8C501.868 8 449.477 15.9766 416.038 44.0268C382.881 71.7936 366.187 104.915 366.187 162.999C366.187 162.999 366.187 118.175 366.187 171.796C366.186 225.417 381.415 260.425 400.969 282.809C417.437 301.66 453.392 322.077 496.901 322.077C540.409 322.077 564.765 307.525 575.657 294.12C584.977 282.648 593.67 267.309 596.945 243.012V321.239Z" fill="#0728EF"/>
<path fill-rule="evenodd" clip-rule="evenodd" d="M1079.99 288.528C1049.71 312.985 1002.42 325.214 938.12 325.214C873.242 325.214 826.096 312.985 796.685 288.528C767.562 263.789 753 225.135 753 172.565V159.914C753 110.437 769.003 72.4853 801.01 46.0599C833.305 19.3533 880.45 6 942.445 6C1003 6 1048.7 19.4939 1079.56 46.4816C1110.41 73.1881 1125.84 111.14 1125.84 160.336V172.986C1125.84 225.556 1110.55 264.07 1079.99 288.528ZM914.575 193.192C909.632 187.341 907.161 178.202 907.161 165.775C907.161 153.237 909.632 144.126 914.575 138.442C919.575 132.813 927.387 129.999 938.011 129.999H940.568C950.567 129.999 958.237 133.092 963.578 139.278C968.975 145.519 971.674 154.63 971.674 166.611C971.674 178.313 968.947 187.146 963.493 193.109C958.095 199.071 950.425 202.053 940.483 202.053H937.926C927.302 202.053 919.518 199.099 914.575 193.192Z" fill="#0728EF"/>
<path d="M1254.81 120.719L1320.46 317.772H1500.22V12H1332.82C1332.82 12 1363.19 141.783 1380.9 204.381L1312 12H1132.95V317.772H1300.34C1300.34 317.772 1270.23 185.768 1254.81 120.719Z" fill="#0728EF"/>
</svg>
