<svg width="329" height="306" viewBox="0 0 329 306" fill="none" xmlns="http://www.w3.org/2000/svg">
<g clip-path="url(#clip0_1197_7666)">
<path d="M310.927 123.064L293.892 96.7752L242.26 110.214L156.642 98.6474L77.5121 113.166L147.304 180.587L177.466 294.133L213.409 252.299L182.068 196.005L287.002 151.452L285.001 125.028L310.927 123.064Z" fill="#1D1C1D"/>
<path d="M191.018 33.72C191.35 33.6911 191.678 33.8107 191.914 34.0467C192.15 34.2827 192.27 34.6109 192.241 34.9434L182.854 143.148C182.813 143.619 182.483 144.014 182.027 144.14C181.571 144.265 181.086 144.093 180.81 143.708L108.32 42.6059C108.083 42.2758 108.042 41.8442 108.212 41.4752C108.382 41.1063 108.736 40.8568 109.141 40.8217L191.018 33.72Z" fill="#BC7537" stroke="#1D1C1D" stroke-width="2.25995" stroke-linejoin="round"/>
<path d="M134.057 20.4751C134.054 20.1542 133.915 19.8498 133.674 19.6379C133.433 19.4259 133.113 19.3265 132.794 19.3642L9.13225 34.0307C8.68338 34.0839 8.30943 34.3995 8.18153 34.8331C8.05364 35.2666 8.19641 35.7347 8.54452 36.023L133.378 139.425C133.717 139.706 134.188 139.764 134.585 139.575C134.982 139.386 135.233 138.983 135.229 138.544L134.057 20.4751Z" fill="#EB9244" stroke="#1D1C1D" stroke-width="2.25995" stroke-linejoin="round"/>
<path d="M276.395 134.043C276.676 134.376 276.741 134.841 276.561 135.238C276.382 135.636 275.99 135.894 275.554 135.902L182.568 137.72C182.247 137.727 181.938 137.596 181.719 137.361C181.5 137.127 181.392 136.81 181.42 136.49L190.446 35.2944C190.486 34.8403 190.796 34.4549 191.231 34.3174C191.665 34.1799 192.14 34.3173 192.434 34.6656L276.395 134.043Z" fill="#BC7537" stroke="#1D1C1D" stroke-width="2.25995" stroke-linejoin="round"/>
<path d="M136.85 143.55C136.598 143.107 136.079 142.887 135.585 143.015C135.091 143.143 134.744 143.586 134.738 144.097L133.109 293.714C133.104 294.173 133.377 294.59 133.801 294.768C134.224 294.946 134.713 294.85 135.038 294.525L190.328 239.207C190.687 238.847 190.762 238.292 190.511 237.849L136.85 143.55Z" fill="#EB9244" stroke="#1D1C1D" stroke-width="2.25995" stroke-linejoin="round"/>
<path d="M278.184 136.144C278.685 135.93 278.962 135.389 278.843 134.858C278.724 134.326 278.243 133.955 277.699 133.976L135.191 139.255C134.79 139.269 134.427 139.495 134.237 139.849C134.047 140.202 134.059 140.629 134.267 140.972L161.123 185.069C161.416 185.549 162.016 185.741 162.532 185.52L278.184 136.144Z" fill="#BC7537" stroke="#1D1C1D" stroke-width="2.25995" stroke-linejoin="round"/>
<path d="M273.647 66.963C273.327 66.5879 272.801 66.4631 272.347 66.6548C271.893 66.8464 271.616 67.3102 271.662 67.8009L275.565 109.578C275.622 110.188 276.154 110.641 276.766 110.6L306.738 108.587C307.165 108.558 307.538 108.292 307.704 107.899C307.87 107.505 307.8 107.052 307.523 106.727L273.647 66.963Z" fill="#EB9244" stroke="#1D1C1D" stroke-width="2.25995" stroke-linejoin="round"/>
<path d="M273.119 67.2599C273.088 66.8497 272.837 66.4887 272.462 66.3176C272.088 66.1465 271.651 66.1923 271.32 66.4371L231.695 95.7782C231.413 95.9866 231.244 96.3138 231.237 96.6639C231.23 97.0141 231.386 97.3477 231.659 97.5671L276.22 133.374C276.571 133.656 277.056 133.703 277.454 133.493C277.852 133.283 278.088 132.857 278.054 132.408L273.119 67.2599Z" fill="#EB9244" stroke="#1D1C1D" stroke-width="2.25995" stroke-linejoin="round"/>
<path d="M134.31 20.0956C133.968 19.8263 133.502 19.777 133.112 19.9688C132.722 20.1606 132.476 20.5595 132.48 20.9945L133.683 139.478C133.686 139.783 133.812 140.074 134.033 140.284C134.254 140.495 134.55 140.607 134.855 140.596L277.209 135.275C277.682 135.257 278.094 134.946 278.241 134.496C278.388 134.045 278.238 133.551 277.866 133.258L134.31 20.0956Z" fill="#EB9244" stroke="#1D1C1D" stroke-width="2.25995" stroke-linejoin="round"/>
</g>
<defs>
<clipPath id="clip0_1197_7666">
<rect width="308" height="283" fill="white" transform="translate(0 23.2637) rotate(-4.33178)"/>
</clipPath>
</defs>
</svg>
