<svg width="500" height="116" viewBox="0 0 500 116" fill="none" xmlns="http://www.w3.org/2000/svg">
<path d="M76.5 46.3333H39.8333L54.5 69.25L76.5 46.3333Z" fill="#FCCD56" stroke="#18181A" stroke-width="1.83333" stroke-linejoin="round"/>
<path d="M20.5833 13.3333L39.8229 46.3333L76.5 45.9287L20.5833 13.3333Z" fill="#FCCD56" stroke="#18181A" stroke-width="1.83333" stroke-linejoin="round"/>
<path d="M65.4453 20.262L52.6666 31.9755L76.4453 45.9287V20.262H65.4453Z" fill="#FCCD56" stroke="#18181A" stroke-width="1.83333" stroke-linejoin="round"/>
<path d="M41.6665 103.167L39.8332 46.3333L63.6665 83.8838L41.6665 103.167Z" fill="#FCCD56" stroke="#18181A" stroke-width="1.83333" stroke-linejoin="round"/>
<path d="M83.8335 29.8333L76.5002 20.6667V29.8333H83.8335Z" fill="#FCCD56" stroke="#18181A" stroke-width="1.83333" stroke-linejoin="round"/>
<path d="M137.45 95.4216C125.889 95.4216 116.696 89.4511 113 84.9969L121.814 75.9939C124.088 78.8369 129.585 82.6277 136.503 82.6277C143.516 82.6277 147.401 78.837 147.401 74.0985C147.401 69.5496 143.61 65.7588 136.503 65.7588H129.585V53.4388H136.503C142.378 53.4388 145.506 50.4062 145.506 46.1416C145.506 41.8769 142.378 38.7496 136.503 38.7496C130.817 38.7496 125.983 42.0665 123.898 44.6253L115.18 35.7169C118.686 31.6419 127.026 26.24 137.735 26.24C151.761 26.24 160.195 34.7693 160.195 44.4357C160.195 52.3016 154.035 57.5139 149.391 58.9354C154.983 60.4517 162.28 66.1379 162.28 75.2357C162.28 86.3237 153.087 95.4216 137.45 95.4216Z" fill="#22242D"/>
<path d="M195.329 95.4216C180.26 95.4216 169.741 82.3434 169.741 60.8308C169.741 39.2234 180.26 26.24 195.329 26.24C210.302 26.24 220.916 39.2234 220.916 60.8308C220.916 82.3434 210.302 95.4216 195.329 95.4216ZM195.329 82.3434C202.247 82.3434 206.701 75.52 206.701 60.8308C206.701 46.1416 202.247 39.2234 195.329 39.2234C188.316 39.2234 183.956 46.1416 183.956 60.8308C183.956 75.52 188.316 82.3434 195.329 82.3434Z" fill="#22242D"/>
<path d="M283.956 94H253.82V27.6616H282.061C295.518 27.6616 303.574 35.7169 303.574 45.0991C303.574 51.8277 299.404 56.8505 294.665 58.6511C299.688 60.3569 306.89 65.9483 306.89 75.0462C306.89 85.1865 298.172 94 283.956 94ZM268.035 39.2234V53.9126H281.303C286.136 53.9126 289.169 50.88 289.169 46.6154C289.169 42.3508 286.041 39.2234 281.303 39.2234H268.035ZM268.035 64.8111V82.3434H283.198C288.695 82.3434 292.486 78.5526 292.486 73.6246C292.486 68.6019 288.695 64.8111 283.198 64.8111H268.035Z" fill="#22242D"/>
<path d="M324.263 41.1188C320.188 41.1188 316.871 38.0862 316.871 34.0111C316.871 30.0308 320.188 26.9034 324.263 26.9034C328.243 26.9034 331.56 30.0308 331.56 34.0111C331.56 38.0862 328.243 41.1188 324.263 41.1188ZM330.612 94H317.819V48.0369H330.612V94Z" fill="#22242D"/>
<path d="M356.237 94H343.443V48.0369H356.237V53.7231H356.521C358.417 50.88 363.155 47.0893 369.505 47.0893H371.684V60.8308C370.832 60.5465 369.126 60.0726 367.42 60.0726C360.976 60.0726 356.237 64.8111 356.237 72.3926V94Z" fill="#22242D"/>
<path d="M396.803 94.9477C385.715 94.9477 375.954 85.1865 375.954 70.9711C375.954 56.7557 385.715 47.0893 396.803 47.0893C404.384 47.0893 409.597 51.3539 411.492 54.576H411.776V27.6616H424.57V94H411.776V87.461H411.492C409.597 90.6831 404.384 94.9477 396.803 94.9477ZM400.404 83.1016C406.564 83.1016 411.776 77.8893 411.776 70.9711C411.776 64.1477 406.564 58.9354 400.404 58.9354C394.244 58.9354 389.032 64.1477 389.032 70.9711C389.032 77.8893 394.244 83.1016 400.404 83.1016Z" fill="#22242D"/>
<path d="M453.49 94.9477C444.392 94.9477 437 90.1145 433.873 86.4185L441.17 78.837C443.255 81.1114 447.52 84.2388 452.637 84.2388C456.712 84.2388 458.703 82.533 458.703 80.2585C458.703 73.909 435.958 76.6573 435.958 60.9256C435.958 53.4388 442.402 47.0893 453.775 47.0893C462.209 47.0893 468.748 50.88 471.496 53.7231L464.199 61.3046C462.588 59.7883 459.366 57.7034 455.196 57.7034C451.405 57.7034 449.51 59.4093 449.51 61.1151C449.51 67.3699 472.255 64.8111 472.255 80.5428C472.255 88.3139 465.621 94.9477 453.49 94.9477Z" fill="#22242D"/>
</svg>
