<svg width="160" height="160" viewBox="0 0 160 160" fill="none" xmlns="http://www.w3.org/2000/svg">
<mask id="path-1-inside-1_1437_48959" fill="white">
<path fill-rule="evenodd" clip-rule="evenodd" d="M137.467 6H135.302C134.892 7.59584 133.443 8.775 131.719 8.775C129.995 8.775 128.546 7.59584 128.136 6H125.136C124.727 7.59779 123.277 8.77885 121.552 8.77885C119.826 8.77885 118.377 7.59779 117.967 6H114.969C114.56 7.59779 113.11 8.77885 111.384 8.77885C109.659 8.77885 108.209 7.59779 107.8 6H104.802C104.392 7.59779 102.943 8.77885 101.217 8.77885C99.4918 8.77885 98.0422 7.59779 97.6328 6H94.6343C94.2249 7.59779 92.7753 8.77885 91.0499 8.77885C89.3245 8.77885 87.8749 7.59779 87.4655 6H84.466C84.0553 7.59584 82.6067 8.775 80.8826 8.775C79.1586 8.775 77.7099 7.59584 77.2992 6H74.2997C73.8903 7.59779 72.4408 8.77885 70.7153 8.77885C68.9899 8.77885 67.5403 7.59779 67.1309 6H64.1286C63.7192 7.59779 62.2696 8.77885 60.5442 8.77885C58.8187 8.77885 57.3691 7.59779 56.9597 6H53.9613C53.5519 7.59779 52.1023 8.77885 50.3769 8.77885C48.6514 8.77885 47.2018 7.59779 46.7924 6H43.794C43.3846 7.59779 41.935 8.77885 40.2096 8.77885C38.4841 8.77885 37.0346 7.59779 36.6252 6H33.6267C33.2173 7.59779 31.7677 8.77885 30.0423 8.77885C28.3169 8.77885 26.8673 7.59779 26.4579 6H23.4594C23.05 7.59779 21.6004 8.77885 19.875 8.77885C18.1496 8.77885 16.7 7.59779 16.2906 6H15.25H6V15.25V15.3704C7.59584 15.7812 8.775 17.2298 8.775 18.9539C8.775 20.6779 7.59584 22.1265 6 22.5373V25.5454C7.59584 25.9562 8.775 27.4048 8.775 29.1289C8.775 30.8529 7.59584 32.3015 6 32.7123V35.7204C7.59584 36.1312 8.775 37.5798 8.775 39.3039C8.775 41.0279 7.59584 42.4765 6 42.8873V45.8954C7.59584 46.3062 8.775 47.7548 8.775 49.4789C8.775 51.2029 7.59584 52.6516 6 53.0623V56.0704C7.59584 56.4812 8.775 57.9298 8.775 59.6539C8.775 61.3779 7.59584 62.8265 6 63.2373L6 66.2454C7.59584 66.6562 8.775 68.1048 8.775 69.8289C8.775 71.5529 7.59584 73.0015 6 73.4123L6 76.4204C7.59584 76.8312 8.775 78.2798 8.775 80.0039C8.775 81.7279 7.59584 83.1765 6 83.5873L6 86.5954C7.59584 87.0062 8.775 88.4548 8.775 90.1788C8.775 91.9029 7.59584 93.3515 6 93.7623L6 96.7704C7.59584 97.1812 8.775 98.6298 8.775 100.354C8.775 102.078 7.59584 103.527 6 103.937L6 106.945C7.59584 107.356 8.775 108.805 8.775 110.529C8.775 112.253 7.59584 113.702 6 114.112L6 117.12C7.59584 117.531 8.775 118.98 8.775 120.704C8.775 122.428 7.59584 123.877 6 124.287L6.00001 127.295C7.59584 127.706 8.775 129.155 8.775 130.879C8.775 132.603 7.59584 134.052 6.00001 134.462L6.00001 137.467C7.59584 137.877 8.775 139.326 8.775 141.05C8.775 142.774 7.59584 144.223 6.00001 144.633L6.00001 144.75L6 154H15.25H15.3665C15.7772 152.404 17.2259 151.225 18.95 151.225C20.6741 151.225 22.1228 152.404 22.5335 154H25.5415C25.9522 152.404 27.4009 151.225 29.125 151.225C30.8491 151.225 32.2978 152.404 32.7085 154H35.7165C36.1272 152.404 37.5759 151.225 39.3 151.225C41.0241 151.225 42.4728 152.404 42.8835 154H45.8915C46.3022 152.404 47.7509 151.225 49.475 151.225C51.1991 151.225 52.6478 152.404 53.0585 154H56.0665C56.4772 152.404 57.9259 151.225 59.65 151.225C61.3741 151.225 62.8228 152.404 63.2335 154H66.2415C66.6522 152.404 68.1009 151.225 69.825 151.225C71.5491 151.225 72.9978 152.404 73.4085 154H76.4165C76.8272 152.404 78.2759 151.225 80 151.225C81.7241 151.225 83.1728 152.404 83.5835 154H86.5915C87.0022 152.404 88.4509 151.225 90.175 151.225C91.8991 151.225 93.3478 152.404 93.7585 154H96.7665C97.1772 152.404 98.6259 151.225 100.35 151.225C102.074 151.225 103.523 152.404 103.933 154H106.942C107.352 152.404 108.801 151.225 110.525 151.225C112.249 151.225 113.698 152.404 114.108 154H117.117C117.527 152.404 118.976 151.225 120.7 151.225C122.424 151.225 123.873 152.404 124.283 154H127.292C127.702 152.404 129.151 151.225 130.875 151.225C132.599 151.225 134.048 152.404 134.458 154H137.467C137.877 152.404 139.326 151.225 141.05 151.225C142.774 151.225 144.223 152.404 144.633 154H144.75H154V144.75V144.629C152.412 144.213 151.24 142.768 151.24 141.05C151.24 139.331 152.412 137.887 154 137.471V134.458C152.412 134.042 151.24 132.597 151.24 130.879C151.24 129.16 152.412 127.716 154 127.299V124.283C152.412 123.867 151.24 122.422 151.24 120.704C151.24 118.985 152.412 117.54 154 117.124V114.11C152.408 113.697 151.233 112.25 151.233 110.529C151.233 108.808 152.408 107.361 154 106.947V103.933C152.412 103.517 151.24 102.072 151.24 100.354C151.24 98.6354 152.412 97.1905 154 96.7744V93.7603C152.408 93.3469 151.233 91.9001 151.233 90.1788C151.233 88.4576 152.408 87.0108 154 86.5974V83.5833C152.412 83.1672 151.24 81.7223 151.24 80.0039C151.24 78.2854 152.412 76.8405 154 76.4244V73.4083C152.412 72.9922 151.24 71.5473 151.24 69.8289C151.24 68.1104 152.412 66.6655 154 66.2494V63.2333C152.412 62.8172 151.24 61.3723 151.24 59.6539C151.24 57.9354 152.412 56.4905 154 56.0744V53.0603C152.408 52.6469 151.233 51.2001 151.233 49.4789C151.233 47.7576 152.408 46.3108 154 45.8974V42.8853C152.408 42.4719 151.233 41.0251 151.233 39.3039C151.233 37.5826 152.408 36.1358 154 35.7224V32.7083C152.412 32.2922 151.24 30.8473 151.24 29.1289C151.24 27.4104 152.412 25.9655 154 25.5494V22.5353C152.408 22.1219 151.233 20.6751 151.233 18.9539C151.233 17.2326 152.408 15.7858 154 15.3724V15.25V6H144.75H144.633C144.223 7.59584 142.774 8.775 141.05 8.775C139.326 8.775 137.877 7.59584 137.467 6Z"/>
</mask>
<path fill-rule="evenodd" clip-rule="evenodd" d="M137.467 6H135.302C134.892 7.59584 133.443 8.775 131.719 8.775C129.995 8.775 128.546 7.59584 128.136 6H125.136C124.727 7.59779 123.277 8.77885 121.552 8.77885C119.826 8.77885 118.377 7.59779 117.967 6H114.969C114.56 7.59779 113.11 8.77885 111.384 8.77885C109.659 8.77885 108.209 7.59779 107.8 6H104.802C104.392 7.59779 102.943 8.77885 101.217 8.77885C99.4918 8.77885 98.0422 7.59779 97.6328 6H94.6343C94.2249 7.59779 92.7753 8.77885 91.0499 8.77885C89.3245 8.77885 87.8749 7.59779 87.4655 6H84.466C84.0553 7.59584 82.6067 8.775 80.8826 8.775C79.1586 8.775 77.7099 7.59584 77.2992 6H74.2997C73.8903 7.59779 72.4408 8.77885 70.7153 8.77885C68.9899 8.77885 67.5403 7.59779 67.1309 6H64.1286C63.7192 7.59779 62.2696 8.77885 60.5442 8.77885C58.8187 8.77885 57.3691 7.59779 56.9597 6H53.9613C53.5519 7.59779 52.1023 8.77885 50.3769 8.77885C48.6514 8.77885 47.2018 7.59779 46.7924 6H43.794C43.3846 7.59779 41.935 8.77885 40.2096 8.77885C38.4841 8.77885 37.0346 7.59779 36.6252 6H33.6267C33.2173 7.59779 31.7677 8.77885 30.0423 8.77885C28.3169 8.77885 26.8673 7.59779 26.4579 6H23.4594C23.05 7.59779 21.6004 8.77885 19.875 8.77885C18.1496 8.77885 16.7 7.59779 16.2906 6H15.25H6V15.25V15.3704C7.59584 15.7812 8.775 17.2298 8.775 18.9539C8.775 20.6779 7.59584 22.1265 6 22.5373V25.5454C7.59584 25.9562 8.775 27.4048 8.775 29.1289C8.775 30.8529 7.59584 32.3015 6 32.7123V35.7204C7.59584 36.1312 8.775 37.5798 8.775 39.3039C8.775 41.0279 7.59584 42.4765 6 42.8873V45.8954C7.59584 46.3062 8.775 47.7548 8.775 49.4789C8.775 51.2029 7.59584 52.6516 6 53.0623V56.0704C7.59584 56.4812 8.775 57.9298 8.775 59.6539C8.775 61.3779 7.59584 62.8265 6 63.2373L6 66.2454C7.59584 66.6562 8.775 68.1048 8.775 69.8289C8.775 71.5529 7.59584 73.0015 6 73.4123L6 76.4204C7.59584 76.8312 8.775 78.2798 8.775 80.0039C8.775 81.7279 7.59584 83.1765 6 83.5873L6 86.5954C7.59584 87.0062 8.775 88.4548 8.775 90.1788C8.775 91.9029 7.59584 93.3515 6 93.7623L6 96.7704C7.59584 97.1812 8.775 98.6298 8.775 100.354C8.775 102.078 7.59584 103.527 6 103.937L6 106.945C7.59584 107.356 8.775 108.805 8.775 110.529C8.775 112.253 7.59584 113.702 6 114.112L6 117.12C7.59584 117.531 8.775 118.98 8.775 120.704C8.775 122.428 7.59584 123.877 6 124.287L6.00001 127.295C7.59584 127.706 8.775 129.155 8.775 130.879C8.775 132.603 7.59584 134.052 6.00001 134.462L6.00001 137.467C7.59584 137.877 8.775 139.326 8.775 141.05C8.775 142.774 7.59584 144.223 6.00001 144.633L6.00001 144.75L6 154H15.25H15.3665C15.7772 152.404 17.2259 151.225 18.95 151.225C20.6741 151.225 22.1228 152.404 22.5335 154H25.5415C25.9522 152.404 27.4009 151.225 29.125 151.225C30.8491 151.225 32.2978 152.404 32.7085 154H35.7165C36.1272 152.404 37.5759 151.225 39.3 151.225C41.0241 151.225 42.4728 152.404 42.8835 154H45.8915C46.3022 152.404 47.7509 151.225 49.475 151.225C51.1991 151.225 52.6478 152.404 53.0585 154H56.0665C56.4772 152.404 57.9259 151.225 59.65 151.225C61.3741 151.225 62.8228 152.404 63.2335 154H66.2415C66.6522 152.404 68.1009 151.225 69.825 151.225C71.5491 151.225 72.9978 152.404 73.4085 154H76.4165C76.8272 152.404 78.2759 151.225 80 151.225C81.7241 151.225 83.1728 152.404 83.5835 154H86.5915C87.0022 152.404 88.4509 151.225 90.175 151.225C91.8991 151.225 93.3478 152.404 93.7585 154H96.7665C97.1772 152.404 98.6259 151.225 100.35 151.225C102.074 151.225 103.523 152.404 103.933 154H106.942C107.352 152.404 108.801 151.225 110.525 151.225C112.249 151.225 113.698 152.404 114.108 154H117.117C117.527 152.404 118.976 151.225 120.7 151.225C122.424 151.225 123.873 152.404 124.283 154H127.292C127.702 152.404 129.151 151.225 130.875 151.225C132.599 151.225 134.048 152.404 134.458 154H137.467C137.877 152.404 139.326 151.225 141.05 151.225C142.774 151.225 144.223 152.404 144.633 154H144.75H154V144.75V144.629C152.412 144.213 151.24 142.768 151.24 141.05C151.24 139.331 152.412 137.887 154 137.471V134.458C152.412 134.042 151.24 132.597 151.24 130.879C151.24 129.16 152.412 127.716 154 127.299V124.283C152.412 123.867 151.24 122.422 151.24 120.704C151.24 118.985 152.412 117.54 154 117.124V114.11C152.408 113.697 151.233 112.25 151.233 110.529C151.233 108.808 152.408 107.361 154 106.947V103.933C152.412 103.517 151.24 102.072 151.24 100.354C151.24 98.6354 152.412 97.1905 154 96.7744V93.7603C152.408 93.3469 151.233 91.9001 151.233 90.1788C151.233 88.4576 152.408 87.0108 154 86.5974V83.5833C152.412 83.1672 151.24 81.7223 151.24 80.0039C151.24 78.2854 152.412 76.8405 154 76.4244V73.4083C152.412 72.9922 151.24 71.5473 151.24 69.8289C151.24 68.1104 152.412 66.6655 154 66.2494V63.2333C152.412 62.8172 151.24 61.3723 151.24 59.6539C151.24 57.9354 152.412 56.4905 154 56.0744V53.0603C152.408 52.6469 151.233 51.2001 151.233 49.4789C151.233 47.7576 152.408 46.3108 154 45.8974V42.8853C152.408 42.4719 151.233 41.0251 151.233 39.3039C151.233 37.5826 152.408 36.1358 154 35.7224V32.7083C152.412 32.2922 151.24 30.8473 151.24 29.1289C151.24 27.4104 152.412 25.9655 154 25.5494V22.5353C152.408 22.1219 151.233 20.6751 151.233 18.9539C151.233 17.2326 152.408 15.7858 154 15.3724V15.25V6H144.75H144.633C144.223 7.59584 142.774 8.775 141.05 8.775C139.326 8.775 137.877 7.59584 137.467 6Z" fill="#F2F4FF"/>
<path d="M135.302 6V5.075H134.585L134.407 5.76944L135.302 6ZM137.467 6L138.362 5.76944L138.184 5.075H137.467V6ZM128.136 6L129.031 5.76944L128.853 5.075H128.136V6ZM125.136 6V5.075H124.418L124.24 5.7704L125.136 6ZM117.967 6L118.863 5.7704L118.685 5.075H117.967V6ZM114.969 6V5.075H114.251L114.073 5.7704L114.969 6ZM107.8 6L108.696 5.7704L108.518 5.075H107.8V6ZM104.802 6V5.075H104.084L103.906 5.7704L104.802 6ZM97.6328 6L98.5288 5.7704L98.3506 5.075H97.6328V6ZM94.6343 6V5.075H93.9165L93.7383 5.7704L94.6343 6ZM87.4655 6L88.3615 5.7704L88.1833 5.075H87.4655V6ZM84.466 6V5.075H83.749L83.5702 5.76944L84.466 6ZM77.2992 6L78.195 5.76943L78.0162 5.075H77.2992V6ZM74.2997 6V5.075H73.5819L73.4037 5.7704L74.2997 6ZM67.1309 6L68.0269 5.77041L67.8488 5.075H67.1309V6ZM64.1286 6V5.075H63.4107L63.2325 5.77041L64.1286 6ZM56.9597 6L57.8558 5.77041L57.6776 5.075H56.9597V6ZM53.9613 6V5.075H53.2434L53.0652 5.77041L53.9613 6ZM46.7924 6L47.6885 5.77041L47.5103 5.075H46.7924V6ZM43.794 6V5.075H43.0761L42.898 5.77041L43.794 6ZM36.6252 6L37.5212 5.77041L37.343 5.075H36.6252V6ZM33.6267 6V5.075H32.9088L32.7307 5.77041L33.6267 6ZM26.4579 6L27.3539 5.77041L27.1757 5.075H26.4579V6ZM23.4594 6V5.075H22.7416L22.5634 5.77041L23.4594 6ZM16.2906 6L17.1866 5.77041L17.0084 5.075H16.2906V6ZM6 6V5.075H5.075V6H6ZM6 15.3704H5.075V16.0875L5.76944 16.2662L6 15.3704ZM8.775 18.9539L9.7 18.9539L9.7 18.9539L8.775 18.9539ZM6 22.5373L5.76944 21.6415L5.075 21.8202V22.5373H6ZM6 25.5454H5.075V26.2625L5.76944 26.4412L6 25.5454ZM8.775 29.1289L9.7 29.1289L9.7 29.1289L8.775 29.1289ZM6 32.7123L5.76944 31.8165L5.075 31.9952V32.7123H6ZM6 35.7204H5.075V36.4375L5.76944 36.6162L6 35.7204ZM8.775 39.3039L9.7 39.3039L9.7 39.3039L8.775 39.3039ZM6 42.8873L5.76944 41.9915L5.075 42.1702V42.8873H6ZM6 45.8954H5.075V46.6125L5.76944 46.7912L6 45.8954ZM8.775 49.4789L7.85 49.4789L7.85 49.4789L8.775 49.4789ZM6 53.0623L5.76944 52.1665L5.075 52.3452V53.0623H6ZM6 56.0704H5.075V56.7875L5.76944 56.9662L6 56.0704ZM8.775 59.6539L7.85 59.6539L7.85 59.6539L8.775 59.6539ZM6 63.2373L5.76944 62.3415L5.075 62.5202L5.075 63.2373L6 63.2373ZM6 66.2454L5.075 66.2454L5.075 66.9625L5.76944 67.1412L6 66.2454ZM8.775 69.8289L7.85 69.8289L7.85 69.8289L8.775 69.8289ZM6 73.4123L5.76944 72.5165L5.075 72.6952L5.075 73.4123L6 73.4123ZM6 76.4204L5.075 76.4204L5.075 77.1375L5.76944 77.3162L6 76.4204ZM8.775 80.0039L7.85 80.0039L7.85 80.0039L8.775 80.0039ZM6 83.5873L5.76944 82.6915L5.075 82.8702L5.075 83.5873L6 83.5873ZM6 86.5954L5.075 86.5954L5.075 87.3125L5.76944 87.4912L6 86.5954ZM6 93.7623L5.76944 92.8665L5.075 93.0452L5.075 93.7623L6 93.7623ZM6 96.7704L5.075 96.7704L5.075 97.4875L5.76944 97.6662L6 96.7704ZM6 103.937L5.76944 103.041L5.075 103.22L5.075 103.937L6 103.937ZM6 106.945L5.075 106.945L5.075 107.662L5.76944 107.841L6 106.945ZM6 114.112L5.76944 113.216L5.075 113.395L5.075 114.112L6 114.112ZM6 117.12L5.075 117.12L5.075 117.837L5.76944 118.016L6 117.12ZM6 124.287L5.76944 123.391L5.075 123.57L5.075 124.287L6 124.287ZM6.00001 127.295L5.07501 127.295L5.07501 128.012L5.76944 128.191L6.00001 127.295ZM6.00001 134.462L5.76944 133.566L5.07501 133.745L5.07501 134.462L6.00001 134.462ZM6.00001 137.467L5.07501 137.467L5.07501 138.184L5.76944 138.362L6.00001 137.467ZM8.775 141.05L9.7 141.05L9.7 141.05L8.775 141.05ZM6.00001 144.633L5.76944 143.738L5.07501 143.916L5.07501 144.633L6.00001 144.633ZM6.00001 144.75L6.92501 144.75L6.92501 144.75L6.00001 144.75ZM6 154L5.075 154L5.075 154.925H6V154ZM15.3665 154V154.925H16.0836L16.2624 154.231L15.3665 154ZM22.5335 154L21.6376 154.231L21.8164 154.925H22.5335V154ZM25.5415 154V154.925H26.2586L26.4374 154.231L25.5415 154ZM32.7085 154L31.8126 154.231L31.9914 154.925H32.7085V154ZM35.7165 154V154.925H36.4336L36.6124 154.231L35.7165 154ZM42.8835 154L41.9876 154.231L42.1664 154.925H42.8835V154ZM45.8915 154V154.925H46.6086L46.7874 154.231L45.8915 154ZM53.0585 154L52.1626 154.231L52.3414 154.925H53.0585V154ZM56.0665 154V154.925H56.7836L56.9624 154.231L56.0665 154ZM63.2335 154L62.3377 154.231L62.5164 154.925H63.2335V154ZM66.2415 154V154.925H66.9586L67.1374 154.231L66.2415 154ZM73.4085 154L72.5127 154.231L72.6914 154.925H73.4085V154ZM76.4165 154V154.925H77.1336L77.3123 154.231L76.4165 154ZM83.5835 154L82.6876 154.231L82.8664 154.925H83.5835V154ZM86.5915 154V154.925H87.3086L87.4873 154.231L86.5915 154ZM93.7585 154L92.8626 154.231L93.0414 154.925H93.7585V154ZM96.7665 154V154.925H97.4836L97.6624 154.231L96.7665 154ZM103.933 154L103.038 154.231L103.216 154.925H103.933V154ZM106.942 154V154.925H107.659L107.837 154.231L106.942 154ZM114.108 154L113.213 154.231L113.391 154.925H114.108V154ZM117.117 154V154.925H117.834L118.012 154.231L117.117 154ZM124.283 154L123.388 154.231L123.566 154.925H124.283V154ZM127.292 154V154.925H128.009L128.187 154.231L127.292 154ZM134.458 154L133.563 154.231L133.741 154.925H134.458V154ZM137.467 154V154.925H138.184L138.362 154.231L137.467 154ZM144.633 154L143.738 154.231L143.916 154.925H144.633V154ZM154 154V154.925H154.925V154H154ZM154 144.629H154.925V143.916L154.234 143.735L154 144.629ZM154 137.471L154.234 138.365L154.925 138.184V137.471H154ZM154 134.458H154.925V133.744L154.234 133.563L154 134.458ZM154 127.299L154.234 128.194L154.925 128.013V127.299H154ZM154 124.283H154.925V123.569L154.234 123.388L154 124.283ZM154 117.124L154.234 118.019L154.925 117.838V117.124H154ZM154 114.11H154.925V113.395L154.233 113.215L154 114.11ZM154 106.947L154.233 107.843L154.925 107.663V106.947H154ZM154 103.933H154.925V103.219L154.234 103.038L154 103.933ZM154 96.7744L154.234 97.6692L154.925 97.4883V96.7744H154ZM154 93.7603H154.925V93.0448L154.233 92.865L154 93.7603ZM154 86.5974L154.233 87.4927L154.925 87.3129V86.5974H154ZM154 83.5833H154.925V82.8694L154.234 82.6885L154 83.5833ZM154 76.4244L154.234 77.3192L154.925 77.1383V76.4244H154ZM154 73.4083H154.925V72.6944L154.234 72.5135L154 73.4083ZM154 66.2494L154.234 67.1442L154.925 66.9633V66.2494H154ZM154 63.2333H154.925V62.5194L154.234 62.3385L154 63.2333ZM154 56.0744L154.234 56.9692L154.925 56.7883V56.0744H154ZM154 53.0603H154.925V52.3448L154.233 52.165L154 53.0603ZM154 45.8974L154.233 46.7927L154.925 46.6129V45.8974H154ZM154 42.8853H154.925V42.1698L154.233 41.99L154 42.8853ZM154 35.7224L154.233 36.6177L154.925 36.4379V35.7224H154ZM154 32.7083H154.925V31.9944L154.234 31.8135L154 32.7083ZM154 25.5494L154.234 26.4442L154.925 26.2633V25.5494H154ZM154 22.5353H154.925V21.8198L154.233 21.64L154 22.5353ZM154 15.3724L154.233 16.2677L154.925 16.0879V15.3724H154ZM154 6H154.925V5.075H154V6ZM144.633 6V5.075H143.916L143.738 5.76944L144.633 6ZM135.302 6.925H137.467V5.075H135.302V6.925ZM131.719 9.7C133.875 9.7 135.685 8.22516 136.198 6.23056L134.407 5.76944C134.099 6.96651 133.011 7.85 131.719 7.85V9.7ZM127.24 6.23056C127.753 8.22516 129.563 9.7 131.719 9.7V7.85C130.427 7.85 129.34 6.96651 129.031 5.76944L127.24 6.23056ZM125.136 6.925H128.136V5.075H125.136V6.925ZM121.552 9.70385C123.71 9.70385 125.521 8.22665 126.032 6.2296L124.24 5.7704C123.933 6.96894 122.845 7.85385 121.552 7.85385V9.70385ZM117.071 6.2296C117.583 8.22664 119.394 9.70385 121.552 9.70385V7.85385C120.259 7.85385 119.17 6.96894 118.863 5.7704L117.071 6.2296ZM114.969 6.925H117.967V5.075H114.969V6.925ZM111.384 9.70385C113.543 9.70385 115.353 8.22665 115.865 6.2296L114.073 5.7704C113.766 6.96894 112.677 7.85385 111.384 7.85385V9.70385ZM106.904 6.2296C107.416 8.22664 109.226 9.70385 111.384 9.70385V7.85385C110.092 7.85385 109.003 6.96894 108.696 5.7704L106.904 6.2296ZM104.802 6.925H107.8V5.075H104.802V6.925ZM101.217 9.70385C103.375 9.70385 105.186 8.22665 105.698 6.2296L103.906 5.7704C103.598 6.96894 102.51 7.85385 101.217 7.85385V9.70385ZM96.7367 6.2296C97.2484 8.22664 99.0591 9.70385 101.217 9.70385V7.85385C99.9244 7.85385 98.8359 6.96894 98.5288 5.7704L96.7367 6.2296ZM94.6343 6.925H97.6328V5.075H94.6343V6.925ZM91.0499 9.70385C93.208 9.70385 95.0187 8.22665 95.5304 6.2296L93.7383 5.7704C93.4312 6.96894 92.3427 7.85385 91.0499 7.85385V9.70385ZM86.5694 6.2296C87.0811 8.22664 88.8918 9.70385 91.0499 9.70385V7.85385C89.7571 7.85385 88.6686 6.96894 88.3615 5.7704L86.5694 6.2296ZM84.466 6.925H87.4655V5.075H84.466V6.925ZM80.8826 9.7C83.0389 9.7 84.8485 8.22516 85.3618 6.23056L83.5702 5.76944C83.2621 6.96651 82.1744 7.85 80.8826 7.85V9.7ZM76.4034 6.23057C76.9167 8.22516 78.7263 9.7 80.8826 9.7V7.85C79.5908 7.85 78.5031 6.96651 78.195 5.76943L76.4034 6.23057ZM74.2997 6.925H77.2992V5.075H74.2997V6.925ZM70.7153 9.70385C72.8734 9.70385 74.6841 8.22664 75.1958 6.2296L73.4037 5.7704C73.0966 6.96894 72.0081 7.85385 70.7153 7.85385V9.70385ZM66.2348 6.22959C66.7465 8.22665 68.5573 9.70385 70.7153 9.70385V7.85385C69.4225 7.85385 68.334 6.96893 68.0269 5.77041L66.2348 6.22959ZM64.1286 6.925H67.1309V5.075H64.1286V6.925ZM60.5442 9.70385C62.7022 9.70385 64.5129 8.22665 65.0246 6.22959L63.2325 5.77041C62.9254 6.96893 61.837 7.85385 60.5442 7.85385V9.70385ZM56.0637 6.22959C56.5754 8.22665 58.3861 9.70385 60.5442 9.70385V7.85385C59.2514 7.85385 58.1629 6.96893 57.8558 5.77041L56.0637 6.22959ZM53.9613 6.925H56.9597V5.075H53.9613V6.925ZM50.3769 9.70385C52.5349 9.70385 54.3457 8.22665 54.8573 6.22959L53.0652 5.77041C52.7581 6.96893 51.6697 7.85385 50.3769 7.85385V9.70385ZM45.8964 6.22959C46.4081 8.22665 48.2188 9.70385 50.3769 9.70385V7.85385C49.0841 7.85385 47.9956 6.96893 47.6885 5.77041L45.8964 6.22959ZM43.794 6.925H46.7924V5.075H43.794V6.925ZM40.2096 9.70385C42.3676 9.70385 44.1784 8.22665 44.6901 6.22959L42.898 5.77041C42.5909 6.96893 41.5024 7.85385 40.2096 7.85385V9.70385ZM35.7291 6.22959C36.2408 8.22665 38.0515 9.70385 40.2096 9.70385V7.85385C38.9168 7.85385 37.8283 6.96893 37.5212 5.77041L35.7291 6.22959ZM33.6267 6.925H36.6252V5.075H33.6267V6.925ZM30.0423 9.70385C32.2004 9.70385 34.0111 8.22665 34.5228 6.22959L32.7307 5.77041C32.4236 6.96893 31.3351 7.85385 30.0423 7.85385V9.70385ZM25.5618 6.22959C26.0735 8.22665 27.8842 9.70385 30.0423 9.70385V7.85385C28.7495 7.85385 27.661 6.96894 27.3539 5.77041L25.5618 6.22959ZM23.4594 6.925H26.4579V5.075H23.4594V6.925ZM19.875 9.70385C22.0331 9.70385 23.8438 8.22665 24.3555 6.22959L22.5634 5.77041C22.2563 6.96894 21.1678 7.85385 19.875 7.85385V9.70385ZM15.3945 6.22959C15.9062 8.22665 17.7169 9.70385 19.875 9.70385V7.85385C18.5822 7.85385 17.4937 6.96894 17.1866 5.77041L15.3945 6.22959ZM15.25 6.925H16.2906V5.075H15.25V6.925ZM6 6.925H15.25V5.075H6V6.925ZM6.925 15.25V6H5.075V15.25H6.925ZM6.925 15.3704V15.25H5.075V15.3704H6.925ZM9.7 18.9539C9.7 16.7975 8.22516 14.988 6.23056 14.4746L5.76944 16.2662C6.96651 16.5743 7.85 17.6621 7.85 18.9539L9.7 18.9539ZM6.23056 23.4331C8.22516 22.9197 9.7 21.1102 9.7 18.9539H7.85C7.85 20.2456 6.96651 21.3334 5.76944 21.6415L6.23056 23.4331ZM6.925 25.5454V22.5373H5.075V25.5454H6.925ZM9.7 29.1289C9.7 26.9725 8.22516 25.163 6.23056 24.6496L5.76944 26.4412C6.96651 26.7493 7.85 27.8371 7.85 29.1289L9.7 29.1289ZM6.23056 33.6081C8.22516 33.0947 9.7 31.2852 9.7 29.1289H7.85C7.85 30.4206 6.96651 31.5084 5.76944 31.8165L6.23056 33.6081ZM6.925 35.7204V32.7123H5.075V35.7204H6.925ZM9.7 39.3039C9.7 37.1475 8.22516 35.338 6.23056 34.8246L5.76944 36.6162C6.96651 36.9243 7.85 38.0121 7.85 39.3039L9.7 39.3039ZM6.23056 43.7831C8.22516 43.2697 9.7 41.4602 9.7 39.3039H7.85C7.85 40.5956 6.96651 41.6834 5.76944 41.9915L6.23056 43.7831ZM6.925 45.8954V42.8873H5.075V45.8954H6.925ZM9.7 49.4789C9.7 47.3225 8.22516 45.513 6.23056 44.9996L5.76944 46.7912C6.96651 47.0993 7.85 48.1871 7.85 49.4789H9.7ZM6.23056 53.9581C8.22516 53.4447 9.7 51.6352 9.7 49.4789L7.85 49.4789C7.85 50.7706 6.96651 51.8584 5.76944 52.1665L6.23056 53.9581ZM6.925 56.0704V53.0623H5.075V56.0704H6.925ZM9.7 59.6539C9.7 57.4975 8.22516 55.688 6.23056 55.1746L5.76944 56.9662C6.96651 57.2743 7.85 58.3621 7.85 59.6539H9.7ZM6.23057 64.1331C8.22516 63.6197 9.7 61.8102 9.7 59.6539L7.85 59.6539C7.85 60.9456 6.96651 62.0334 5.76944 62.3415L6.23057 64.1331ZM6.925 66.2454L6.925 63.2373L5.075 63.2373L5.075 66.2454L6.925 66.2454ZM9.7 69.8289C9.7 67.6725 8.22516 65.863 6.23057 65.3496L5.76944 67.1412C6.96651 67.4493 7.85 68.5371 7.85 69.8289H9.7ZM6.23057 74.3081C8.22516 73.7947 9.7 71.9852 9.7 69.8289L7.85 69.8289C7.85 71.1206 6.96651 72.2084 5.76944 72.5165L6.23057 74.3081ZM6.925 76.4204L6.925 73.4123L5.075 73.4123L5.075 76.4204L6.925 76.4204ZM9.7 80.0039C9.7 77.8475 8.22516 76.038 6.23057 75.5246L5.76944 77.3162C6.96651 77.6243 7.85 78.7121 7.85 80.0039H9.7ZM6.23057 84.4831C8.22516 83.9697 9.7 82.1602 9.7 80.0039L7.85 80.0039C7.85 81.2956 6.96651 82.3834 5.76944 82.6915L6.23057 84.4831ZM6.925 86.5954L6.925 83.5873L5.075 83.5873L5.075 86.5954L6.925 86.5954ZM9.7 90.1788C9.7 88.0225 8.22516 86.213 6.23057 85.6996L5.76944 87.4912C6.96651 87.7993 7.85 88.8871 7.85 90.1788H9.7ZM6.23057 94.6581C8.22516 94.1447 9.7 92.3352 9.7 90.1788H7.85C7.85 91.4706 6.96651 92.5584 5.76944 92.8665L6.23057 94.6581ZM6.925 96.7704L6.925 93.7623L5.075 93.7623L5.075 96.7704L6.925 96.7704ZM9.7 100.354C9.7 98.1975 8.22516 96.388 6.23057 95.8746L5.76944 97.6662C6.96651 97.9743 7.85 99.0621 7.85 100.354H9.7ZM6.23057 104.833C8.22516 104.32 9.7 102.51 9.7 100.354H7.85C7.85 101.646 6.96651 102.733 5.76944 103.041L6.23057 104.833ZM6.925 106.945L6.925 103.937L5.075 103.937L5.075 106.945L6.925 106.945ZM9.7 110.529C9.7 108.373 8.22516 106.563 6.23057 106.05L5.76944 107.841C6.96651 108.149 7.85 109.237 7.85 110.529H9.7ZM6.23057 115.008C8.22516 114.495 9.7 112.685 9.7 110.529H7.85C7.85 111.821 6.96651 112.908 5.76944 113.216L6.23057 115.008ZM6.925 117.12L6.925 114.112L5.075 114.112L5.075 117.12L6.925 117.12ZM9.7 120.704C9.7 118.548 8.22516 116.738 6.23057 116.225L5.76944 118.016C6.96651 118.324 7.85 119.412 7.85 120.704H9.7ZM6.23057 125.183C8.22516 124.67 9.7 122.86 9.7 120.704H7.85C7.85 121.996 6.96651 123.083 5.76944 123.391L6.23057 125.183ZM6.92501 127.295L6.925 124.287L5.075 124.287L5.07501 127.295L6.92501 127.295ZM9.7 130.879C9.7 128.723 8.22516 126.913 6.23057 126.4L5.76944 128.191C6.96651 128.499 7.85 129.587 7.85 130.879H9.7ZM6.23057 135.358C8.22516 134.845 9.7 133.035 9.7 130.879H7.85C7.85 132.171 6.96651 133.258 5.76944 133.566L6.23057 135.358ZM6.92501 137.467L6.92501 134.462L5.07501 134.462L5.07501 137.467L6.92501 137.467ZM9.7 141.05C9.7 138.894 8.22516 137.084 6.23057 136.571L5.76944 138.362C6.96651 138.67 7.85 139.758 7.85 141.05L9.7 141.05ZM6.23057 145.529C8.22517 145.016 9.7 143.206 9.7 141.05H7.85C7.85 142.342 6.96651 143.43 5.76944 143.738L6.23057 145.529ZM6.92501 144.75L6.92501 144.633L5.07501 144.633L5.07501 144.75L6.92501 144.75ZM6.925 154L6.92501 144.75L5.07501 144.75L5.075 154L6.925 154ZM15.25 153.075H6V154.925H15.25V153.075ZM15.3665 153.075H15.25V154.925H15.3665V153.075ZM18.95 150.3C16.7936 150.3 14.984 151.775 14.4707 153.769L16.2624 154.231C16.5704 153.033 17.6582 152.15 18.95 152.15V150.3ZM23.4293 153.769C22.916 151.775 21.1064 150.3 18.95 150.3V152.15C20.2418 152.15 21.3296 153.033 21.6376 154.231L23.4293 153.769ZM25.5415 153.075H22.5335V154.925H25.5415V153.075ZM29.125 150.3C26.9686 150.3 25.159 151.775 24.6457 153.769L26.4374 154.231C26.7454 153.033 27.8332 152.15 29.125 152.15V150.3ZM33.6043 153.769C33.091 151.775 31.2814 150.3 29.125 150.3V152.15C30.4168 152.15 31.5046 153.033 31.8126 154.231L33.6043 153.769ZM35.7165 153.075H32.7085V154.925H35.7165V153.075ZM39.3 150.3C37.1436 150.3 35.334 151.775 34.8207 153.769L36.6124 154.231C36.9204 153.033 38.0082 152.15 39.3 152.15V150.3ZM43.7793 153.769C43.266 151.775 41.4564 150.3 39.3 150.3V152.15C40.5918 152.15 41.6796 153.033 41.9876 154.231L43.7793 153.769ZM45.8915 153.075H42.8835V154.925H45.8915V153.075ZM49.475 150.3C47.3186 150.3 45.509 151.775 44.9957 153.769L46.7874 154.231C47.0954 153.033 48.1832 152.15 49.475 152.15V150.3ZM53.9543 153.769C53.441 151.775 51.6314 150.3 49.475 150.3V152.15C50.7668 152.15 51.8546 153.033 52.1626 154.231L53.9543 153.769ZM56.0665 153.075H53.0585V154.925H56.0665V153.075ZM59.65 150.3C57.4936 150.3 55.684 151.775 55.1707 153.769L56.9624 154.231C57.2704 153.033 58.3582 152.15 59.65 152.15V150.3ZM64.1293 153.769C63.616 151.775 61.8064 150.3 59.65 150.3V152.15C60.9418 152.15 62.0296 153.033 62.3377 154.231L64.1293 153.769ZM66.2415 153.075H63.2335V154.925H66.2415V153.075ZM69.825 150.3C67.6686 150.3 65.859 151.775 65.3457 153.769L67.1374 154.231C67.4454 153.033 68.5332 152.15 69.825 152.15V150.3ZM74.3043 153.769C73.7909 151.775 71.9814 150.3 69.825 150.3V152.15C71.1168 152.15 72.2046 153.033 72.5127 154.231L74.3043 153.769ZM76.4165 153.075H73.4085V154.925H76.4165V153.075ZM80 150.3C77.8436 150.3 76.034 151.775 75.5207 153.769L77.3123 154.231C77.6204 153.033 78.7082 152.15 80 152.15V150.3ZM84.4793 153.769C83.9659 151.775 82.1564 150.3 80 150.3V152.15C81.2918 152.15 82.3796 153.033 82.6876 154.231L84.4793 153.769ZM86.5915 153.075H83.5835V154.925H86.5915V153.075ZM90.175 150.3C88.0186 150.3 86.209 151.775 85.6957 153.769L87.4873 154.231C87.7954 153.033 88.8832 152.15 90.175 152.15V150.3ZM94.6543 153.769C94.1409 151.775 92.3314 150.3 90.175 150.3V152.15C91.4668 152.15 92.5546 153.033 92.8626 154.231L94.6543 153.769ZM96.7665 153.075H93.7585V154.925H96.7665V153.075ZM100.35 150.3C98.1936 150.3 96.3841 151.775 95.8707 153.769L97.6624 154.231C97.9704 153.033 99.0582 152.15 100.35 152.15V150.3ZM104.829 153.769C104.316 151.775 102.506 150.3 100.35 150.3V152.15C101.642 152.15 102.73 153.033 103.038 154.231L104.829 153.769ZM106.942 153.075H103.933V154.925H106.942V153.075ZM110.525 150.3C108.369 150.3 106.559 151.775 106.046 153.769L107.837 154.231C108.145 153.033 109.233 152.15 110.525 152.15V150.3ZM115.004 153.769C114.491 151.775 112.681 150.3 110.525 150.3V152.15C111.817 152.15 112.905 153.033 113.213 154.231L115.004 153.769ZM117.117 153.075H114.108V154.925H117.117V153.075ZM120.7 150.3C118.544 150.3 116.734 151.775 116.221 153.769L118.012 154.231C118.32 153.033 119.408 152.15 120.7 152.15V150.3ZM125.179 153.769C124.666 151.775 122.856 150.3 120.7 150.3V152.15C121.992 152.15 123.08 153.033 123.388 154.231L125.179 153.769ZM127.292 153.075H124.283V154.925H127.292V153.075ZM130.875 150.3C128.719 150.3 126.909 151.775 126.396 153.769L128.187 154.231C128.495 153.033 129.583 152.15 130.875 152.15V150.3ZM135.354 153.769C134.841 151.775 133.031 150.3 130.875 150.3V152.15C132.167 152.15 133.255 153.033 133.563 154.231L135.354 153.769ZM137.467 153.075H134.458V154.925H137.467V153.075ZM141.05 150.3C138.894 150.3 137.084 151.775 136.571 153.769L138.362 154.231C138.67 153.033 139.758 152.15 141.05 152.15V150.3ZM145.529 153.769C145.016 151.775 143.206 150.3 141.05 150.3V152.15C142.342 152.15 143.43 153.033 143.738 154.231L145.529 153.769ZM144.75 153.075H144.633V154.925H144.75V153.075ZM154 153.075H144.75V154.925H154V153.075ZM153.075 144.75V154H154.925V144.75H153.075ZM153.075 144.629V144.75H154.925V144.629H153.075ZM150.315 141.05C150.315 143.199 151.781 145.004 153.766 145.524L154.234 143.735C153.043 143.423 152.165 142.338 152.165 141.05H150.315ZM153.766 136.576C151.781 137.096 150.315 138.901 150.315 141.05H152.165C152.165 139.762 153.043 138.677 154.234 138.365L153.766 136.576ZM153.075 134.458V137.471H154.925V134.458H153.075ZM150.315 130.879C150.315 133.028 151.781 134.833 153.766 135.353L154.234 133.563C153.043 133.251 152.165 132.166 152.165 130.879H150.315ZM153.766 126.405C151.781 126.925 150.315 128.729 150.315 130.879H152.165C152.165 129.591 153.043 128.506 154.234 128.194L153.766 126.405ZM153.075 124.283V127.299H154.925V124.283H153.075ZM150.315 120.704C150.315 122.853 151.781 124.658 153.766 125.178L154.234 123.388C153.043 123.076 152.165 121.991 152.165 120.704H150.315ZM153.766 116.23C151.781 116.75 150.315 118.554 150.315 120.704H152.165C152.165 119.416 153.043 118.331 154.234 118.019L153.766 116.23ZM153.075 114.11V117.124H154.925V114.11H153.075ZM150.308 110.529C150.308 112.682 151.778 114.489 153.767 115.006L154.233 113.215C153.038 112.905 152.158 111.819 152.158 110.529H150.308ZM153.767 106.052C151.778 106.569 150.308 108.376 150.308 110.529H152.158C152.158 109.239 153.038 108.153 154.233 107.843L153.767 106.052ZM153.075 103.933V106.947H154.925V103.933H153.075ZM150.315 100.354C150.315 102.503 151.781 104.308 153.766 104.828L154.234 103.038C153.043 102.726 152.165 101.641 152.165 100.354H150.315ZM153.766 95.8796C151.781 96.3997 150.315 98.2045 150.315 100.354H152.165C152.165 99.0663 153.043 97.9813 154.234 97.6692L153.766 95.8796ZM153.075 93.7603V96.7744H154.925V93.7603H153.075ZM150.308 90.1788C150.308 92.3317 151.778 94.1389 153.767 94.6556L154.233 92.865C153.038 92.5549 152.158 91.4685 152.158 90.1788H150.308ZM153.767 85.7021C151.778 86.2188 150.308 88.026 150.308 90.1788H152.158C152.158 88.8892 153.038 87.8028 154.233 87.4927L153.767 85.7021ZM153.075 83.5833V86.5974H154.925V83.5833H153.075ZM150.315 80.0039C150.315 82.1532 151.781 83.958 153.766 84.4781L154.234 82.6885C153.043 82.3764 152.165 81.2914 152.165 80.0039H150.315ZM153.766 75.5296C151.781 76.0497 150.315 77.8545 150.315 80.0039H152.165C152.165 78.7163 153.043 77.6313 154.234 77.3192L153.766 75.5296ZM153.075 73.4083V76.4244H154.925V73.4083H153.075ZM150.315 69.8289C150.315 71.9783 151.781 73.783 153.766 74.3031L154.234 72.5135C153.043 72.2014 152.165 71.1164 152.165 69.8289H150.315ZM153.766 65.3546C151.781 65.8747 150.315 67.6795 150.315 69.8289H152.165C152.165 68.5413 153.043 67.4563 154.234 67.1442L153.766 65.3546ZM153.075 63.2333V66.2494H154.925V63.2333H153.075ZM150.315 59.6539C150.315 61.8033 151.781 63.608 153.766 64.1281L154.234 62.3385C153.043 62.0264 152.165 60.9414 152.165 59.6539H150.315ZM153.766 55.1796C151.781 55.6997 150.315 57.5045 150.315 59.6539H152.165C152.165 58.3663 153.043 57.2813 154.234 56.9692L153.766 55.1796ZM153.075 53.0603V56.0744H154.925V53.0603H153.075ZM150.308 49.4789C150.308 51.6317 151.778 53.4389 153.767 53.9556L154.233 52.165C153.038 51.8549 152.158 50.7685 152.158 49.4789H150.308ZM153.767 45.0021C151.778 45.5188 150.308 47.326 150.308 49.4789H152.158C152.158 48.1892 153.038 47.1028 154.233 46.7927L153.767 45.0021ZM153.075 42.8853V45.8974H154.925V42.8853H153.075ZM150.308 39.3039C150.308 41.4567 151.778 43.2639 153.767 43.7806L154.233 41.99C153.038 41.6799 152.158 40.5935 152.158 39.3039H150.308ZM153.767 34.8271C151.778 35.3438 150.308 37.151 150.308 39.3039H152.158C152.158 38.0142 153.038 36.9278 154.233 36.6177L153.767 34.8271ZM153.075 32.7083V35.7224H154.925V32.7083H153.075ZM150.315 29.1289C150.315 31.2783 151.781 33.0831 153.766 33.6031L154.234 31.8135C153.043 31.5014 152.165 30.4164 152.165 29.1289H150.315ZM153.766 24.6546C151.781 25.1747 150.315 26.9795 150.315 29.1289H152.165C152.165 27.8413 153.043 26.7563 154.234 26.4442L153.766 24.6546ZM153.075 22.5353V25.5494H154.925V22.5353H153.075ZM150.308 18.9539C150.308 21.1067 151.778 22.9139 153.767 23.4306L154.233 21.64C153.038 21.3299 152.158 20.2435 152.158 18.9539H150.308ZM153.767 14.4771C151.778 14.9938 150.308 16.801 150.308 18.9539H152.158C152.158 17.6642 153.038 16.5778 154.233 16.2677L153.767 14.4771ZM153.075 15.25V15.3724H154.925V15.25H153.075ZM153.075 6V15.25H154.925V6H153.075ZM144.75 6.925H154V5.075H144.75V6.925ZM144.633 6.925H144.75V5.075H144.633V6.925ZM141.05 9.7C143.206 9.7 145.016 8.22516 145.529 6.23056L143.738 5.76944C143.43 6.96651 142.342 7.85 141.05 7.85V9.7ZM136.571 6.23056C137.084 8.22516 138.894 9.7 141.05 9.7V7.85C139.758 7.85 138.67 6.96651 138.362 5.76944L136.571 6.23056Z" fill="#18181A" mask="url(#path-1-inside-1_1437_48959)"/>
<path d="M16.4 141H14.9V134H17.88C19.33 134 20.35 135.02 20.35 136.35C20.35 137.67 19.33 138.7 17.88 138.7H16.4V141ZM16.4 135.35V137.35H17.83C18.4 137.35 18.85 136.9 18.85 136.35C18.85 135.8 18.4 135.35 17.83 135.35H16.4ZM22.6504 141H21.3004V136.15H22.6504V136.75H22.6804C22.8804 136.45 23.3804 136.05 24.0504 136.05H24.2804V137.5C24.1904 137.47 24.0104 137.42 23.8304 137.42C23.1504 137.42 22.6504 137.92 22.6504 138.72V141ZM26.9809 136.05C28.2609 136.05 29.1109 136.9 29.1109 137.95V141H27.8309V140.33H27.8009C27.6009 140.66 27.0709 141.1 26.3409 141.1C25.4009 141.1 24.7309 140.45 24.7309 139.7C24.7309 138.87 25.2809 138.32 26.2309 138.14L27.7609 137.85C27.7409 137.47 27.4009 137.15 26.9109 137.15C26.3909 137.15 26.0209 137.45 25.7809 137.72L25.0109 136.98C25.3609 136.56 26.0409 136.05 26.9809 136.05ZM26.7309 140.02C27.3109 140.02 27.7609 139.57 27.7609 138.9V138.74L26.7109 138.95C26.3309 139.02 26.1109 139.25 26.1109 139.5C26.1109 139.8 26.3309 140.02 26.7309 140.02ZM31.0929 135.42C30.6629 135.42 30.3129 135.1 30.3129 134.67C30.3129 134.25 30.6629 133.92 31.0929 133.92C31.5129 133.92 31.8629 134.25 31.8629 134.67C31.8629 135.1 31.5129 135.42 31.0929 135.42ZM31.7629 141H30.4129V136.15H31.7629V141ZM34.8168 141.1C33.8568 141.1 33.0768 140.59 32.7468 140.2L33.5168 139.4C33.7368 139.64 34.1868 139.97 34.7268 139.97C35.1568 139.97 35.3668 139.79 35.3668 139.55C35.3668 138.88 32.9668 139.17 32.9668 137.51C32.9668 136.72 33.6468 136.05 34.8468 136.05C35.7368 136.05 36.4268 136.45 36.7168 136.75L35.9468 137.55C35.7768 137.39 35.4368 137.17 34.9968 137.17C34.5968 137.17 34.3968 137.35 34.3968 137.53C34.3968 138.19 36.7968 137.92 36.7968 139.58C36.7968 140.4 36.0968 141.1 34.8168 141.1ZM40.0652 141.1C38.5952 141.1 37.4652 139.97 37.4652 138.57C37.4652 137.17 38.5952 136.05 39.9952 136.05C41.3952 136.05 42.4452 137.1 42.4452 138.47C42.4452 138.69 42.4152 138.9 42.3952 139H38.8652C38.9452 139.47 39.4452 139.95 40.1652 139.95C40.7352 139.95 41.1552 139.69 41.4252 139.45L42.1352 140.3C41.7852 140.67 41.0352 141.1 40.0652 141.1ZM38.8552 138.07H41.0752C40.9552 137.56 40.5752 137.17 39.9952 137.17C39.3852 137.17 39.0052 137.56 38.8552 138.07ZM45.3 141.1C44.13 141.1 43.1 140.07 43.1 138.57C43.1 137.07 44.13 136.05 45.3 136.05C46.1 136.05 46.65 136.5 46.85 136.84H46.88V134H48.23V141H46.88V140.31H46.85C46.65 140.65 46.1 141.1 45.3 141.1ZM45.68 139.85C46.33 139.85 46.88 139.3 46.88 138.57C46.88 137.85 46.33 137.3 45.68 137.3C45.03 137.3 44.48 137.85 44.48 138.57C44.48 139.3 45.03 139.85 45.68 139.85ZM53.5863 141.1C52.6263 141.1 51.8463 140.59 51.5163 140.2L52.2863 139.4C52.5063 139.64 52.9563 139.97 53.4963 139.97C53.9263 139.97 54.1363 139.79 54.1363 139.55C54.1363 138.88 51.7363 139.17 51.7363 137.51C51.7363 136.72 52.4163 136.05 53.6163 136.05C54.5063 136.05 55.1963 136.45 55.4863 136.75L54.7163 137.55C54.5463 137.39 54.2063 137.17 53.7663 137.17C53.3663 137.17 53.1663 137.35 53.1663 137.53C53.1663 138.19 55.5663 137.92 55.5663 139.58C55.5663 140.4 54.8663 141.1 53.5863 141.1ZM57.9348 141H56.5848V134H57.9348V138.07L59.6848 136.15H61.3148L59.4648 138.15L61.4148 141H59.8848L58.5648 139.02L57.9348 139.72V141ZM62.8409 135.42C62.4109 135.42 62.0609 135.1 62.0609 134.67C62.0609 134.25 62.4109 133.92 62.8409 133.92C63.2609 133.92 63.6109 134.25 63.6109 134.67C63.6109 135.1 63.2609 135.42 62.8409 135.42ZM63.5109 141H62.1609V136.15H63.5109V141ZM66.2648 141H64.9148V134H66.2648V141ZM69.0188 141H67.6688V134H69.0188V141ZM72.0727 141.1C71.1127 141.1 70.3327 140.59 70.0027 140.2L70.7727 139.4C70.9927 139.64 71.4427 139.97 71.9827 139.97C72.4127 139.97 72.6227 139.79 72.6227 139.55C72.6227 138.88 70.2227 139.17 70.2227 137.51C70.2227 136.72 70.9027 136.05 72.1027 136.05C72.9927 136.05 73.6827 136.45 73.9727 136.75L73.2027 137.55C73.0327 137.39 72.6927 137.17 72.2527 137.17C71.8527 137.17 71.6527 137.35 71.6527 137.53C71.6527 138.19 74.0527 137.92 74.0527 139.58C74.0527 140.4 73.3527 141.1 72.0727 141.1Z" fill="black"/>
<rect x="14" y="14" width="132" height="110" rx="8" fill="#22242D"/>
<rect x="17" y="17" width="18" height="11.2727" rx="5" fill="#5C997B"/>
<rect x="17" y="17" width="18" height="11.2727" rx="5" stroke="#22242D" stroke-width="2"/>
<rect x="17" y="26.2727" width="30" height="11.2727" rx="5" fill="#7DB38F"/>
<rect x="17" y="26.2727" width="30" height="11.2727" rx="5" stroke="#22242D" stroke-width="2"/>
<rect x="17" y="35.5454" width="38" height="11.2727" rx="5" fill="#A7C28E"/>
<rect x="17" y="35.5454" width="38" height="11.2727" rx="5" stroke="#22242D" stroke-width="2"/>
<rect x="17" y="44.8182" width="51" height="11.2727" rx="5" fill="#74A6A6"/>
<rect x="17" y="44.8182" width="51" height="11.2727" rx="5" stroke="#22242D" stroke-width="2"/>
<rect x="17" y="54.0909" width="61" height="11.2727" rx="5" fill="#4CBD97"/>
<rect x="17" y="54.0909" width="61" height="11.2727" rx="5" stroke="#22242D" stroke-width="2"/>
<rect x="17" y="63.3636" width="70" height="11.2727" rx="5" fill="#77A8F2"/>
<rect x="17" y="63.3636" width="70" height="11.2727" rx="5" stroke="#22242D" stroke-width="2"/>
<rect x="17" y="72.6364" width="78" height="11.2727" rx="5" fill="#627CD9"/>
<rect x="17" y="72.6364" width="78" height="11.2727" rx="5" stroke="#22242D" stroke-width="2"/>
<rect x="17" y="81.9091" width="87" height="11.2727" rx="5" fill="#A277E6"/>
<rect x="17" y="81.9091" width="87" height="11.2727" rx="5" stroke="#22242D" stroke-width="2"/>
<rect x="17" y="91.1819" width="97" height="11.2727" rx="5" fill="#C88FD6"/>
<rect x="17" y="91.1819" width="97" height="11.2727" rx="5" stroke="#22242D" stroke-width="2"/>
<rect x="17" y="100.455" width="114" height="11.2727" rx="5" fill="#E8749B"/>
<rect x="17" y="100.455" width="114" height="11.2727" rx="5" stroke="#22242D" stroke-width="2"/>
<rect x="17" y="109.727" width="126" height="11.2727" rx="5" fill="#D45D5D"/>
<rect x="17" y="109.727" width="126" height="11.2727" rx="5" stroke="#22242D" stroke-width="2"/>
<path d="M139.18 141H134.13V139.17H135.58V136.07C135.34 136.28 134.91 136.42 134.38 136.42V134.92C135.23 134.85 135.66 134.34 135.85 134H137.83V139.17H139.18V141ZM142.88 141.2C141.21 141.2 139.98 139.75 139.98 137.5C139.98 135.25 141.21 133.8 142.88 133.8C144.55 133.8 145.78 135.25 145.78 137.5C145.78 139.75 144.55 141.2 142.88 141.2ZM142.88 139.22C143.33 139.22 143.58 138.65 143.58 137.5C143.58 136.34 143.33 135.77 142.88 135.77C142.43 135.77 142.18 136.34 142.18 137.5C142.18 138.65 142.43 139.22 142.88 139.22Z" fill="black"/>
</svg>
