<svg width="160" height="160" viewBox="0 0 160 160" fill="none" xmlns="http://www.w3.org/2000/svg">
<mask id="path-1-inside-1_1220_6491" fill="white">
<path fill-rule="evenodd" clip-rule="evenodd" d="M80 1L73 8L73.0273 8.02734L69.8784 11.1763C71.1584 12.7473 71.0664 15.0637 69.6025 16.5276C68.1385 17.9916 65.8222 18.0836 64.2511 16.8036L62.1067 18.9479C63.3849 20.519 63.2923 22.8339 61.829 24.2972C60.3658 25.7604 58.0508 25.853 56.4798 24.5749L54.3346 26.7201C55.6155 28.2912 55.5238 30.6083 54.0595 32.0726C52.5952 33.5368 50.2781 33.6285 48.707 32.3476L46.5611 34.4935C47.842 36.0646 47.7503 38.3817 46.2861 39.846C44.8218 41.3103 42.5047 41.402 40.9336 40.1211L38.7886 42.2661C40.0686 43.8372 39.9766 46.1535 38.5126 47.6175C37.0487 49.0814 34.7323 49.1734 33.1612 47.8934L31.0151 50.0395C32.2951 51.6106 32.2031 53.927 30.7392 55.3909C29.2752 56.8549 26.9589 56.9469 25.3878 55.6669L23.2439 57.8108C24.5257 59.3819 24.4343 61.6997 22.9697 63.1644C21.505 64.629 19.1872 64.7204 17.6161 63.4386L15.4713 65.5834C16.7522 67.1545 16.6605 69.4716 15.1962 70.9358C13.7319 72.4001 11.4148 72.4918 9.84376 71.2109L8.02734 73.0273L8 73L1 80L8 87L10.8438 89.8438C12.4148 88.5629 14.7319 88.6546 16.1962 90.1188C17.6605 91.5831 17.7522 93.9002 16.4713 95.4713L18.6161 97.6161C20.1872 96.3343 22.505 96.4257 23.9697 97.8903C25.4343 99.3549 25.5257 101.673 24.2439 103.244L26.3878 105.388C27.9589 104.108 30.2752 104.2 31.7392 105.664C33.2031 107.128 33.2951 109.444 32.0151 111.015L34.1612 113.161C35.7323 111.881 38.0487 111.973 39.5126 113.437C40.9766 114.901 41.0686 117.218 39.7886 118.789L41.9336 120.934C43.5047 119.653 45.8218 119.744 47.2861 121.209C48.7503 122.673 48.842 124.99 47.5611 126.561L49.707 128.707C51.2781 127.426 53.5952 127.518 55.0595 128.982C56.5238 130.446 56.6155 132.763 55.3346 134.335L57.4798 136.48C59.0508 135.202 61.3658 135.294 62.829 136.758C64.2923 138.221 64.3849 140.536 63.1067 142.107L65.2511 144.251C66.8222 142.971 69.1385 143.063 70.6025 144.527C72.0664 145.991 72.1584 148.307 70.8784 149.878L73 152L73.0538 152.054L80 159L87 152L89.8418 149.158C88.5609 147.587 88.6526 145.27 90.1169 143.806C91.5812 142.341 93.8983 142.25 95.4693 143.531L97.6152 141.385C96.3344 139.814 96.426 137.497 97.8903 136.032C99.3546 134.568 101.672 134.476 103.243 135.757L105.389 133.611C104.108 132.04 104.199 129.723 105.664 128.259C107.128 126.795 109.445 126.703 111.016 127.984L113.161 125.839C111.881 124.268 111.973 121.951 113.437 120.487C114.901 119.023 117.218 118.931 118.789 120.211L120.935 118.065C119.655 116.494 119.747 114.178 121.211 112.714C122.675 111.25 124.991 111.158 126.562 112.438L128.705 110.295C127.424 108.724 127.516 106.407 128.98 104.942C130.444 103.478 132.762 103.386 134.333 104.667L136.48 102.52C135.202 100.949 135.294 98.6342 136.758 97.171C138.221 95.7077 140.536 95.6151 142.107 96.8933L144.252 94.748C142.971 93.177 143.063 90.8599 144.527 89.3956C145.991 87.9313 148.308 87.8396 149.88 89.1205L152 87L152.054 86.9462L159 80L152.054 73.0538L152 73L149.88 70.8795C148.308 72.1604 145.991 72.0687 144.527 70.6044C143.063 69.1401 142.971 66.823 144.252 65.252L142.107 63.1067C140.536 64.3849 138.221 64.2923 136.758 62.829C135.294 61.3658 135.202 59.0508 136.48 57.4798L134.333 55.3326C132.762 56.6135 130.444 56.5218 128.98 55.0575C127.516 53.5933 127.424 51.2762 128.705 49.7051L126.562 47.562C124.991 48.842 122.675 48.75 121.211 47.2861C119.747 45.8221 119.655 43.5057 120.935 41.9347L118.789 39.7886C117.218 41.0686 114.901 40.9766 113.437 39.5126C111.973 38.0487 111.881 35.7323 113.161 34.1612L111.016 32.0162C109.445 33.2971 107.128 33.2054 105.664 31.7411C104.199 30.2769 104.108 27.9598 105.389 26.3887L103.243 24.2428C101.672 25.5237 99.3546 25.432 97.8903 23.9677C96.426 22.5034 96.3344 20.1863 97.6152 18.6152L95.4693 16.4693C93.8983 17.7502 91.5812 17.6585 90.1169 16.1943C88.6526 14.73 88.5609 12.4129 89.8418 10.8418L87 8L80 1Z"/>
</mask>
<path fill-rule="evenodd" clip-rule="evenodd" d="M80 1L73 8L73.0273 8.02734L69.8784 11.1763C71.1584 12.7473 71.0664 15.0637 69.6025 16.5276C68.1385 17.9916 65.8222 18.0836 64.2511 16.8036L62.1067 18.9479C63.3849 20.519 63.2923 22.8339 61.829 24.2972C60.3658 25.7604 58.0508 25.853 56.4798 24.5749L54.3346 26.7201C55.6155 28.2912 55.5238 30.6083 54.0595 32.0726C52.5952 33.5368 50.2781 33.6285 48.707 32.3476L46.5611 34.4935C47.842 36.0646 47.7503 38.3817 46.2861 39.846C44.8218 41.3103 42.5047 41.402 40.9336 40.1211L38.7886 42.2661C40.0686 43.8372 39.9766 46.1535 38.5126 47.6175C37.0487 49.0814 34.7323 49.1734 33.1612 47.8934L31.0151 50.0395C32.2951 51.6106 32.2031 53.927 30.7392 55.3909C29.2752 56.8549 26.9589 56.9469 25.3878 55.6669L23.2439 57.8108C24.5257 59.3819 24.4343 61.6997 22.9697 63.1644C21.505 64.629 19.1872 64.7204 17.6161 63.4386L15.4713 65.5834C16.7522 67.1545 16.6605 69.4716 15.1962 70.9358C13.7319 72.4001 11.4148 72.4918 9.84376 71.2109L8.02734 73.0273L8 73L1 80L8 87L10.8438 89.8438C12.4148 88.5629 14.7319 88.6546 16.1962 90.1188C17.6605 91.5831 17.7522 93.9002 16.4713 95.4713L18.6161 97.6161C20.1872 96.3343 22.505 96.4257 23.9697 97.8903C25.4343 99.3549 25.5257 101.673 24.2439 103.244L26.3878 105.388C27.9589 104.108 30.2752 104.2 31.7392 105.664C33.2031 107.128 33.2951 109.444 32.0151 111.015L34.1612 113.161C35.7323 111.881 38.0487 111.973 39.5126 113.437C40.9766 114.901 41.0686 117.218 39.7886 118.789L41.9336 120.934C43.5047 119.653 45.8218 119.744 47.2861 121.209C48.7503 122.673 48.842 124.99 47.5611 126.561L49.707 128.707C51.2781 127.426 53.5952 127.518 55.0595 128.982C56.5238 130.446 56.6155 132.763 55.3346 134.335L57.4798 136.48C59.0508 135.202 61.3658 135.294 62.829 136.758C64.2923 138.221 64.3849 140.536 63.1067 142.107L65.2511 144.251C66.8222 142.971 69.1385 143.063 70.6025 144.527C72.0664 145.991 72.1584 148.307 70.8784 149.878L73 152L73.0538 152.054L80 159L87 152L89.8418 149.158C88.5609 147.587 88.6526 145.27 90.1169 143.806C91.5812 142.341 93.8983 142.25 95.4693 143.531L97.6152 141.385C96.3344 139.814 96.426 137.497 97.8903 136.032C99.3546 134.568 101.672 134.476 103.243 135.757L105.389 133.611C104.108 132.04 104.199 129.723 105.664 128.259C107.128 126.795 109.445 126.703 111.016 127.984L113.161 125.839C111.881 124.268 111.973 121.951 113.437 120.487C114.901 119.023 117.218 118.931 118.789 120.211L120.935 118.065C119.655 116.494 119.747 114.178 121.211 112.714C122.675 111.25 124.991 111.158 126.562 112.438L128.705 110.295C127.424 108.724 127.516 106.407 128.98 104.942C130.444 103.478 132.762 103.386 134.333 104.667L136.48 102.52C135.202 100.949 135.294 98.6342 136.758 97.171C138.221 95.7077 140.536 95.6151 142.107 96.8933L144.252 94.748C142.971 93.177 143.063 90.8599 144.527 89.3956C145.991 87.9313 148.308 87.8396 149.88 89.1205L152 87L152.054 86.9462L159 80L152.054 73.0538L152 73L149.88 70.8795C148.308 72.1604 145.991 72.0687 144.527 70.6044C143.063 69.1401 142.971 66.823 144.252 65.252L142.107 63.1067C140.536 64.3849 138.221 64.2923 136.758 62.829C135.294 61.3658 135.202 59.0508 136.48 57.4798L134.333 55.3326C132.762 56.6135 130.444 56.5218 128.98 55.0575C127.516 53.5933 127.424 51.2762 128.705 49.7051L126.562 47.562C124.991 48.842 122.675 48.75 121.211 47.2861C119.747 45.8221 119.655 43.5057 120.935 41.9347L118.789 39.7886C117.218 41.0686 114.901 40.9766 113.437 39.5126C111.973 38.0487 111.881 35.7323 113.161 34.1612L111.016 32.0162C109.445 33.2971 107.128 33.2054 105.664 31.7411C104.199 30.2769 104.108 27.9598 105.389 26.3887L103.243 24.2428C101.672 25.5237 99.3546 25.432 97.8903 23.9677C96.426 22.5034 96.3344 20.1863 97.6152 18.6152L95.4693 16.4693C93.8983 17.7502 91.5812 17.6585 90.1169 16.1943C88.6526 14.73 88.5609 12.4129 89.8418 10.8418L87 8L80 1Z" fill="#F2F4FF"/>
<path d="M73 8L72.2929 7.29289L71.5858 7.99997L72.2929 8.70708L73 8ZM80 1L80.7071 0.292893L80 -0.414214L79.2929 0.292893L80 1ZM73.0273 8.02734L73.7344 8.73445L74.4415 8.02737L73.7345 7.32026L73.0273 8.02734ZM69.8784 11.1763L69.1713 10.4692L68.5327 11.1077L69.1031 11.8079L69.8784 11.1763ZM69.6025 16.5276L68.8954 15.8205L69.6025 16.5276ZM64.2511 16.8036L64.8827 16.0283L64.1826 15.4579L63.544 16.0965L64.2511 16.8036ZM62.1067 18.9479L61.3996 18.2408L60.7615 18.879L61.331 19.579L62.1067 18.9479ZM61.829 24.2972L62.5361 25.0043V25.0043L61.829 24.2972ZM56.4798 24.5749L57.1109 23.7992L56.4108 23.2296L55.7727 23.8678L56.4798 24.5749ZM54.3346 26.7201L53.6275 26.013L52.9887 26.6518L53.5595 27.352L54.3346 26.7201ZM54.0595 32.0726L54.7666 32.7797V32.7797L54.0595 32.0726ZM48.707 32.3476L49.3389 31.5726L48.6387 31.0017L47.9999 31.6405L48.707 32.3476ZM46.5611 34.4935L45.854 33.7864L45.2152 34.4252L45.7861 35.1254L46.5611 34.4935ZM40.9336 40.1211L41.5655 39.346L40.8653 38.7752L40.2265 39.414L40.9336 40.1211ZM38.7886 42.2661L38.0815 41.559L37.4429 42.1976L38.0133 42.8977L38.7886 42.2661ZM38.5126 47.6175L39.2197 48.3246L38.5126 47.6175ZM33.1612 47.8934L33.7929 47.1182L33.0927 46.5477L32.4541 47.1863L33.1612 47.8934ZM31.0151 50.0395L30.308 49.3324L29.6694 49.971L30.2399 50.6712L31.0151 50.0395ZM30.7392 55.3909L30.0321 54.6838H30.0321L30.7392 55.3909ZM25.3878 55.6669L26.0194 54.8916L25.3193 54.3212L24.6807 54.9598L25.3878 55.6669ZM23.2439 57.8108L22.5367 57.1037L21.8977 57.7428L22.469 58.443L23.2439 57.8108ZM17.6161 63.4386L18.2483 62.6637L17.548 62.0924L16.909 62.7315L17.6161 63.4386ZM15.4713 65.5834L14.7642 64.8763L14.1254 65.5151L14.6962 66.2153L15.4713 65.5834ZM15.1962 70.9358L14.4891 70.2287H14.4891L15.1962 70.9358ZM9.84376 71.2109L10.4757 70.4359L9.77546 69.865L9.13665 70.5038L9.84376 71.2109ZM8.02734 73.0273L7.32024 73.7345L8.02734 74.4416L8.73445 73.7345L8.02734 73.0273ZM8 73L8.70711 72.2929L8 71.5858L7.29289 72.2929L8 73ZM1 80L0.292893 79.2929L-0.414214 80L0.292893 80.7071L1 80ZM8 87L7.29289 87.7071L8 87ZM10.8438 89.8438L10.1367 90.5509L10.7755 91.1897L11.4757 90.6188L10.8438 89.8438ZM16.4713 95.4713L15.6962 94.8394L15.1254 95.5396L15.7642 96.1784L16.4713 95.4713ZM18.6161 97.6161L17.909 98.3232L18.548 98.9623L19.2483 98.391L18.6161 97.6161ZM23.9697 97.8903L24.6768 97.1832H24.6768L23.9697 97.8903ZM24.2439 103.244L23.469 102.612L22.8977 103.312L23.5368 103.951L24.2439 103.244ZM26.3878 105.388L25.6807 106.095L26.3193 106.733L27.0194 106.163L26.3878 105.388ZM31.7392 105.664L31.0321 106.371H31.0321L31.7392 105.664ZM32.0151 111.015L31.2399 110.384L30.6695 111.084L31.308 111.722L32.0151 111.015ZM34.1612 113.161L33.4541 113.868L34.0927 114.507L34.7929 113.937L34.1612 113.161ZM39.5126 113.437L38.8055 114.144L39.5126 113.437ZM39.7886 118.789L39.0133 118.157L38.4429 118.857L39.0815 119.496L39.7886 118.789ZM41.9336 120.934L41.2265 121.641L41.8653 122.28L42.5655 121.709L41.9336 120.934ZM47.5611 126.561L46.7861 125.929L46.2152 126.629L46.854 127.268L47.5611 126.561ZM49.707 128.707L48.9999 129.414L49.6387 130.053L50.3389 129.482L49.707 128.707ZM55.0595 128.982L54.3524 129.689L55.0595 128.982ZM55.3346 134.335L54.5595 133.703L53.9887 134.403L54.6275 135.042L55.3346 134.335ZM57.4798 136.48L56.7727 137.187L57.4108 137.825L58.1109 137.256L57.4798 136.48ZM62.829 136.758L62.1219 137.465L62.829 136.758ZM63.1067 142.107L62.331 141.476L61.7615 142.176L62.3996 142.814L63.1067 142.107ZM65.2511 144.251L64.544 144.958L65.1826 145.597L65.8827 145.026L65.2511 144.251ZM70.6025 144.527L69.8954 145.234L70.6025 144.527ZM70.8784 149.878L70.1031 149.247L69.5327 149.947L70.1713 150.586L70.8784 149.878ZM73 152L72.2929 152.707L72.2929 152.707L73 152ZM73.0538 152.054L73.7609 151.347L73.7609 151.347L73.0538 152.054ZM80 159L79.2929 159.707L80 160.414L80.7071 159.707L80 159ZM87 152L87.7071 152.707L87 152ZM89.8418 149.158L90.5489 149.865L91.1877 149.226L90.6169 148.526L89.8418 149.158ZM95.4693 143.531L94.8374 144.306L95.5376 144.877L96.1765 144.238L95.4693 143.531ZM97.6152 141.385L98.3223 142.092L98.9612 141.453L98.3903 140.753L97.6152 141.385ZM97.8903 136.032L98.5974 136.739L97.8903 136.032ZM103.243 135.757L102.611 136.532L103.311 137.103L103.95 136.464L103.243 135.757ZM105.389 133.611L106.096 134.318L106.735 133.68L106.164 132.979L105.389 133.611ZM111.016 127.984L110.384 128.759L111.085 129.33L111.723 128.691L111.016 127.984ZM113.161 125.839L113.868 126.546L114.507 125.907L113.937 125.207L113.161 125.839ZM113.437 120.487L114.144 121.194L113.437 120.487ZM118.789 120.211L118.157 120.987L118.857 121.557L119.496 120.919L118.789 120.211ZM120.935 118.065L121.642 118.772L122.28 118.134L121.71 117.434L120.935 118.065ZM121.211 112.714L121.918 113.421L121.211 112.714ZM126.562 112.438L125.93 113.213L126.631 113.784L127.269 113.145L126.562 112.438ZM128.705 110.295L129.412 111.002L130.051 110.363L129.48 109.663L128.705 110.295ZM134.333 104.667L133.701 105.442L134.401 106.013L135.04 105.374L134.333 104.667ZM136.48 102.52L137.187 103.227L137.825 102.589L137.256 101.889L136.48 102.52ZM136.758 97.171L136.05 96.4639L136.758 97.171ZM142.107 96.8933L141.476 97.669L142.176 98.2385L142.814 97.6004L142.107 96.8933ZM144.252 94.748L144.959 95.4551L145.598 94.8163L145.027 94.1161L144.252 94.748ZM144.527 89.3956L143.82 88.6885V88.6885L144.527 89.3956ZM149.88 89.1205L149.248 89.8956L149.948 90.4664L150.587 89.8276L149.88 89.1205ZM152 87L151.293 86.2928L151.293 86.2929L152 87ZM152.054 86.9462L152.761 87.6534L152.761 87.6533L152.054 86.9462ZM159 80L159.707 80.7071L160.414 80L159.707 79.2929L159 80ZM152.054 73.0538L151.347 73.7609L151.347 73.7609L152.054 73.0538ZM152 73L152.707 72.2929L152.707 72.2929L152 73ZM149.88 70.8795L150.587 70.1724L149.948 69.5336L149.248 70.1044L149.88 70.8795ZM144.527 70.6044L145.234 69.8973L144.527 70.6044ZM144.252 65.252L145.027 65.8839L145.598 65.1837L144.959 64.5449L144.252 65.252ZM142.107 63.1067L142.814 62.3996L142.176 61.7615L141.476 62.331L142.107 63.1067ZM136.758 62.829L137.465 62.1219L136.758 62.829ZM136.48 57.4798L137.256 58.1109L137.825 57.4108L137.187 56.7727L136.48 57.4798ZM134.333 55.3326L135.04 54.6255L134.401 53.9867L133.701 54.5576L134.333 55.3326ZM128.98 55.0575L129.687 54.3504L128.98 55.0575ZM128.705 49.7051L129.48 50.337L130.051 49.6368L129.412 48.998L128.705 49.7051ZM126.562 47.562L127.269 46.8549L126.631 46.2163L125.93 46.7867L126.562 47.562ZM121.211 47.2861L121.918 46.579L121.211 47.2861ZM120.935 41.9347L121.71 42.5663L122.28 41.8662L121.642 41.2276L120.935 41.9347ZM118.789 39.7886L119.496 39.0815L118.857 38.4429L118.157 39.0133L118.789 39.7886ZM113.437 39.5126L114.144 38.8055L113.437 39.5126ZM113.161 34.1612L113.937 34.7929L114.507 34.0927L113.868 33.4541L113.161 34.1612ZM111.016 32.0162L111.723 31.3091L111.085 30.6703L110.384 31.2412L111.016 32.0162ZM105.664 31.7411L104.957 32.4482L105.664 31.7411ZM105.389 26.3887L106.164 27.0206L106.735 26.3204L106.096 25.6816L105.389 26.3887ZM103.243 24.2428L103.95 23.5357L103.311 22.8969L102.611 23.4677L103.243 24.2428ZM97.6152 18.6152L98.3903 19.2471L98.9612 18.5469L98.3223 17.9081L97.6152 18.6152ZM95.4693 16.4693L96.1765 15.7622L95.5376 15.1234L94.8374 15.6943L95.4693 16.4693ZM90.1169 16.1943L90.824 15.4872L90.1169 16.1943ZM89.8418 10.8418L90.6169 11.4737L91.1877 10.7735L90.5489 10.1347L89.8418 10.8418ZM87 8L87.7071 7.29289L87 8ZM73.7071 8.70711L80.7071 1.70711L79.2929 0.292893L72.2929 7.29289L73.7071 8.70711ZM73.7345 7.32026L73.7071 7.29292L72.2929 8.70708L72.3202 8.73441L73.7345 7.32026ZM70.5855 11.8834L73.7344 8.73445L72.3202 7.32023L69.1713 10.4692L70.5855 11.8834ZM70.3096 17.2348C72.1399 15.4044 72.2543 12.5093 70.6537 10.5446L69.1031 11.8079C70.0625 12.9854 69.9929 14.723 68.8954 15.8205L70.3096 17.2348ZM63.6195 17.5789C65.5841 19.1795 68.4792 19.0651 70.3096 17.2348L68.8954 15.8205C67.7978 16.9181 66.0602 16.9876 64.8827 16.0283L63.6195 17.5789ZM62.8138 19.6551L64.9582 17.5107L63.544 16.0965L61.3996 18.2408L62.8138 19.6551ZM62.5361 25.0043C64.3657 23.1747 64.4808 20.2815 62.8824 18.3169L61.331 19.579C62.289 20.7565 62.2189 22.4931 61.1219 23.5901L62.5361 25.0043ZM55.8487 25.3506C57.8133 26.9489 60.7066 26.8338 62.5361 25.0043L61.1219 23.5901C60.0249 24.6871 58.2883 24.7571 57.1109 23.7992L55.8487 25.3506ZM55.0417 27.4272L57.1869 25.282L55.7727 23.8678L53.6275 26.013L55.0417 27.4272ZM54.7666 32.7797C56.5974 30.9489 56.7114 28.0529 55.1096 26.0882L53.5595 27.352C54.5195 28.5295 54.4502 30.2677 53.3524 31.3655L54.7666 32.7797ZM48.0751 33.1227C50.0398 34.7245 52.9358 34.6105 54.7666 32.7797L53.3524 31.3655C52.2546 32.4632 50.5164 32.5326 49.3389 31.5726L48.0751 33.1227ZM47.2682 35.2006L49.4141 33.0547L47.9999 31.6405L45.854 33.7864L47.2682 35.2006ZM46.9932 40.5531C48.824 38.7223 48.938 35.8263 47.3362 33.8616L45.7861 35.1254C46.7461 36.3029 46.6767 38.0411 45.579 39.1389L46.9932 40.5531ZM40.3017 40.8961C42.2664 42.4979 45.1624 42.3839 46.9932 40.5531L45.579 39.1389C44.4812 40.2367 42.743 40.306 41.5655 39.346L40.3017 40.8961ZM39.4957 42.9732L41.6407 40.8282L40.2265 39.414L38.0815 41.559L39.4957 42.9732ZM39.2197 48.3246C41.0501 46.4942 41.1645 43.5991 39.5639 41.6345L38.0133 42.8977C38.9726 44.0752 38.903 45.8129 37.8055 46.9104L39.2197 48.3246ZM32.5296 48.6687C34.4943 50.2694 37.3894 50.155 39.2197 48.3246L37.8055 46.9104C36.708 48.0079 34.9703 48.0775 33.7929 47.1182L32.5296 48.6687ZM31.7222 50.7467L33.8683 48.6006L32.4541 47.1863L30.308 49.3324L31.7222 50.7467ZM31.4463 56.098C33.2767 54.2677 33.3911 51.3726 31.7904 49.4079L30.2399 50.6712C31.1992 51.8486 31.1296 53.5863 30.0321 54.6838L31.4463 56.098ZM24.7562 56.4422C26.7208 58.0428 29.6159 57.9284 31.4463 56.098L30.0321 54.6838C28.9346 55.7813 27.1969 55.8509 26.0194 54.8916L24.7562 56.4422ZM23.951 58.5179L26.0949 56.374L24.6807 54.9598L22.5367 57.1037L23.951 58.5179ZM23.6768 63.8715C25.508 62.0403 25.6216 59.1434 24.0187 57.1787L22.469 58.443C23.4297 59.6205 23.3606 61.3592 22.2625 62.4573L23.6768 63.8715ZM16.984 64.2134C18.9487 65.8163 21.8456 65.7027 23.6768 63.8715L22.2625 62.4573C21.1645 63.5553 19.4258 63.6244 18.2483 62.6637L16.984 64.2134ZM16.1784 66.2905L18.3232 64.1457L16.909 62.7315L14.7642 64.8763L16.1784 66.2905ZM15.9033 71.643C17.7341 69.8122 17.8481 66.9162 16.2464 64.9515L14.6962 66.2153C15.6562 67.3928 15.5869 69.131 14.4891 70.2287L15.9033 71.643ZM9.21187 71.986C11.1766 73.5878 14.0725 73.4737 15.9033 71.643L14.4891 70.2287C13.3913 71.3265 11.6531 71.3959 10.4757 70.4359L9.21187 71.986ZM8.73445 73.7345L10.5509 71.918L9.13665 70.5038L7.32024 72.3202L8.73445 73.7345ZM7.29289 73.7071L7.32024 73.7345L8.73445 72.3202L8.70711 72.2929L7.29289 73.7071ZM1.70711 80.7071L8.70711 73.7071L7.29289 72.2929L0.292893 79.2929L1.70711 80.7071ZM8.70711 86.2929L1.70711 79.2929L0.292893 80.7071L7.29289 87.7071L8.70711 86.2929ZM11.5509 89.1367L8.70711 86.2929L7.29289 87.7071L10.1367 90.5509L11.5509 89.1367ZM16.9033 89.4117C15.0725 87.5809 12.1766 87.4669 10.2119 89.0687L11.4757 90.6188C12.6531 89.6588 14.3913 89.7282 15.4891 90.8259L16.9033 89.4117ZM17.2464 96.1032C18.8481 94.1385 18.7341 91.2425 16.9033 89.4117L15.4891 90.8259C16.5869 91.9237 16.6562 93.6619 15.6962 94.8394L17.2464 96.1032ZM19.3232 96.909L17.1784 94.7642L15.7642 96.1784L17.909 98.3232L19.3232 96.909ZM24.6768 97.1832C22.8456 95.352 19.9487 95.2383 17.984 96.8413L19.2483 98.391C20.4258 97.4303 22.1645 97.4994 23.2626 98.5974L24.6768 97.1832ZM25.0187 103.876C26.6216 101.911 26.508 99.0144 24.6768 97.1832L23.2625 98.5974C24.3606 99.6954 24.4297 101.434 23.469 102.612L25.0187 103.876ZM27.0949 104.681L24.951 102.537L23.5368 103.951L25.6807 106.095L27.0949 104.681ZM32.4463 104.957C30.6159 103.126 27.7208 103.012 25.7562 104.613L27.0194 106.163C28.1969 105.204 29.9346 105.273 31.0321 106.371L32.4463 104.957ZM32.7904 111.647C34.3911 109.682 34.2767 106.787 32.4463 104.957L31.0321 106.371C32.1296 107.468 32.1992 109.206 31.2399 110.384L32.7904 111.647ZM34.8684 112.454L32.7222 110.308L31.308 111.722L33.4541 113.868L34.8684 112.454ZM40.2197 112.73C38.3894 110.9 35.4943 110.785 33.5296 112.386L34.7929 113.937C35.9703 112.977 37.708 113.047 38.8055 114.144L40.2197 112.73ZM40.5639 119.42C42.1645 117.456 42.0501 114.56 40.2197 112.73L38.8055 114.144C39.903 115.242 39.9726 116.979 39.0133 118.157L40.5639 119.42ZM42.6407 120.226L40.4957 118.081L39.0815 119.496L41.2265 121.641L42.6407 120.226ZM47.9932 120.502C46.1624 118.671 43.2664 118.557 41.3017 120.159L42.5655 121.709C43.743 120.749 45.4812 120.818 46.579 121.916L47.9932 120.502ZM48.3362 127.193C49.938 125.228 49.824 122.332 47.9932 120.502L46.579 121.916C47.6767 123.014 47.7461 124.752 46.7861 125.929L48.3362 127.193ZM50.4141 128L48.2682 125.854L46.854 127.268L48.9999 129.414L50.4141 128ZM55.7666 128.275C53.9358 126.444 51.0398 126.33 49.0751 127.932L50.3389 129.482C51.5164 128.522 53.2546 128.591 54.3524 129.689L55.7666 128.275ZM56.1096 134.966C57.7114 133.002 57.5974 130.106 55.7666 128.275L54.3524 129.689C55.4502 130.787 55.5195 132.525 54.5595 133.703L56.1096 134.966ZM58.1869 135.773L56.0417 133.627L54.6275 135.042L56.7727 137.187L58.1869 135.773ZM63.5361 136.05C61.7066 134.221 58.8133 134.106 56.8487 135.704L58.1109 137.256C59.2883 136.298 61.0249 136.368 62.1219 137.465L63.5361 136.05ZM63.8824 142.738C65.4808 140.773 65.3657 137.88 63.5361 136.05L62.1219 137.465C63.2189 138.562 63.289 140.298 62.331 141.476L63.8824 142.738ZM65.9582 143.544L63.8138 141.4L62.3996 142.814L64.544 144.958L65.9582 143.544ZM71.3096 143.82C69.4792 141.99 66.5841 141.875 64.6195 143.476L65.8827 145.026C67.0602 144.067 68.7978 144.137 69.8954 145.234L71.3096 143.82ZM71.6537 150.51C73.2543 148.545 73.1399 145.65 71.3096 143.82L69.8954 145.234C70.9929 146.332 71.0624 148.069 70.1031 149.247L71.6537 150.51ZM73.7071 151.293L71.5855 149.171L70.1713 150.586L72.2929 152.707L73.7071 151.293ZM73.7609 151.347L73.7071 151.293L72.2929 152.707L72.3468 152.761L73.7609 151.347ZM80.7071 158.293L73.7609 151.347L72.3467 152.761L79.2929 159.707L80.7071 158.293ZM86.2929 151.293L79.2929 158.293L80.7071 159.707L87.7071 152.707L86.2929 151.293ZM89.1347 148.451L86.2929 151.293L87.7071 152.707L90.5489 149.865L89.1347 148.451ZM89.4098 143.099C87.579 144.929 87.465 147.825 89.0667 149.79L90.6169 148.526C89.6569 147.349 89.7262 145.611 90.824 144.513L89.4098 143.099ZM96.1012 142.756C94.1366 141.154 91.2406 141.268 89.4098 143.099L90.824 144.513C91.9218 143.415 93.66 143.346 94.8374 144.306L96.1012 142.756ZM96.9081 140.678L94.7622 142.824L96.1765 144.238L98.3223 142.092L96.9081 140.678ZM97.1832 135.325C95.3524 137.156 95.2384 140.052 96.8402 142.017L98.3903 140.753C97.4303 139.575 97.4997 137.837 98.5974 136.739L97.1832 135.325ZM103.875 134.982C101.91 133.38 99.014 133.494 97.1832 135.325L98.5974 136.739C99.6952 135.642 101.433 135.572 102.611 136.532L103.875 134.982ZM104.682 132.904L102.536 135.05L103.95 136.464L106.096 134.318L104.682 132.904ZM104.957 127.552C103.126 129.383 103.012 132.279 104.614 134.243L106.164 132.979C105.204 131.802 105.273 130.064 106.371 128.966L104.957 127.552ZM111.648 127.209C109.683 125.607 106.787 125.721 104.957 127.552L106.371 128.966C107.469 127.868 109.207 127.799 110.384 128.759L111.648 127.209ZM112.454 125.132L110.309 127.277L111.723 128.691L113.868 126.546L112.454 125.132ZM112.73 119.78C110.9 121.611 110.785 124.506 112.386 126.47L113.937 125.207C112.977 124.03 113.047 122.292 114.144 121.194L112.73 119.78ZM119.42 119.436C117.456 117.835 114.56 117.95 112.73 119.78L114.144 121.194C115.242 120.097 116.979 120.027 118.157 120.987L119.42 119.436ZM120.228 117.358L118.081 119.504L119.496 120.919L121.642 118.772L120.228 117.358ZM120.504 112.007C118.673 113.837 118.559 116.732 120.159 118.697L121.71 117.434C120.751 116.256 120.82 114.519 121.918 113.421L120.504 112.007ZM127.194 111.663C125.229 110.062 122.334 110.176 120.504 112.007L121.918 113.421C123.015 112.324 124.753 112.254 125.93 113.213L127.194 111.663ZM127.998 109.588L125.855 111.731L127.269 113.145L129.412 111.002L127.998 109.588ZM128.273 104.235C126.442 106.066 126.328 108.962 127.93 110.927L129.48 109.663C128.52 108.486 128.59 106.747 129.687 105.65L128.273 104.235ZM134.965 103.892C133 102.291 130.104 102.405 128.273 104.235L129.687 105.65C130.785 104.552 132.523 104.482 133.701 105.442L134.965 103.892ZM135.773 101.813L133.626 103.96L135.04 105.374L137.187 103.227L135.773 101.813ZM136.05 96.4639C134.221 98.2934 134.106 101.187 135.704 103.151L137.256 101.889C136.298 100.712 136.368 98.9751 137.465 97.8781L136.05 96.4639ZM142.738 96.1176C140.773 94.5192 137.88 94.6343 136.05 96.4639L137.465 97.8781C138.562 96.7811 140.298 96.711 141.476 97.669L142.738 96.1176ZM143.545 94.0409L141.4 96.1862L142.814 97.6004L144.959 95.4551L143.545 94.0409ZM143.82 88.6885C141.989 90.5193 141.875 93.4152 143.477 95.3799L145.027 94.1161C144.067 92.9387 144.136 91.2005 145.234 90.1027L143.82 88.6885ZM150.511 88.3454C148.547 86.7436 145.651 86.8577 143.82 88.6885L145.234 90.1027C146.332 89.0049 148.07 88.9356 149.248 89.8956L150.511 88.3454ZM151.293 86.2929L149.172 88.4134L150.587 89.8276L152.707 87.7071L151.293 86.2929ZM151.347 86.239L151.293 86.2928L152.707 87.7072L152.761 87.6534L151.347 86.239ZM152.761 87.6533L159.707 80.7071L158.293 79.2929L151.347 86.2391L152.761 87.6533ZM159.707 79.2929L152.761 72.3467L151.347 73.7609L158.293 80.7071L159.707 79.2929ZM151.293 73.7071L151.347 73.7609L152.761 72.3468L152.707 72.2929L151.293 73.7071ZM149.172 71.5866L151.293 73.7071L152.707 72.2929L150.587 70.1724L149.172 71.5866ZM143.82 71.3115C145.651 73.1423 148.547 73.2563 150.511 71.6546L149.248 70.1044C148.07 71.0644 146.332 70.9951 145.234 69.8973L143.82 71.3115ZM143.477 64.6201C141.875 66.5848 141.989 69.4807 143.82 71.3115L145.234 69.8973C144.136 68.7995 144.067 67.0613 145.027 65.8839L143.477 64.6201ZM141.4 63.8138L143.545 65.9591L144.959 64.5449L142.814 62.3996L141.4 63.8138ZM136.05 63.5361C137.88 65.3657 140.773 65.4808 142.738 63.8824L141.476 62.331C140.298 63.289 138.562 63.2189 137.465 62.1219L136.05 63.5361ZM135.704 56.8487C134.106 58.8133 134.221 61.7066 136.05 63.5361L137.465 62.1219C136.368 61.0249 136.298 59.2883 137.256 58.1109L135.704 56.8487ZM133.626 56.0397L135.773 58.1869L137.187 56.7727L135.04 54.6255L133.626 56.0397ZM128.273 55.7647C130.104 57.5954 133 57.7095 134.965 56.1077L133.701 54.5576C132.523 55.5176 130.785 55.4482 129.687 54.3504L128.273 55.7647ZM127.93 49.0732C126.328 51.0379 126.442 53.9339 128.273 55.7647L129.687 54.3504C128.59 53.2527 128.52 51.5145 129.48 50.337L127.93 49.0732ZM125.855 48.2691L127.998 50.4122L129.412 48.998L127.269 46.8549L125.855 48.2691ZM120.504 47.9932C122.334 49.8235 125.229 49.9379 127.194 48.3373L125.93 46.7867C124.753 47.746 123.015 47.6765 121.918 46.579L120.504 47.9932ZM120.159 41.3031C118.559 43.2677 118.673 46.1628 120.504 47.9932L121.918 46.579C120.82 45.4814 120.751 43.7438 121.71 42.5663L120.159 41.3031ZM118.081 40.4957L120.228 42.6418L121.642 41.2276L119.496 39.0815L118.081 40.4957ZM112.73 40.2197C114.56 42.0501 117.456 42.1645 119.42 40.5639L118.157 39.0133C116.979 39.9726 115.242 39.903 114.144 38.8055L112.73 40.2197ZM112.386 33.5296C110.785 35.4943 110.9 38.3894 112.73 40.2197L114.144 38.8055C113.047 37.708 112.977 35.9703 113.937 34.7929L112.386 33.5296ZM110.309 32.7233L112.454 34.8684L113.868 33.4541L111.723 31.3091L110.309 32.7233ZM104.957 32.4482C106.787 34.279 109.683 34.3931 111.648 32.7913L110.384 31.2412C109.207 32.2012 107.469 32.1318 106.371 31.034L104.957 32.4482ZM104.614 25.7568C103.012 27.7215 103.126 30.6175 104.957 32.4482L106.371 31.034C105.273 29.9363 105.204 28.1981 106.164 27.0206L104.614 25.7568ZM102.536 24.9499L104.682 27.0958L106.096 25.6816L103.95 23.5357L102.536 24.9499ZM97.1832 24.6748C99.014 26.5056 101.91 26.6196 103.875 25.0178L102.611 23.4677C101.433 24.4277 99.6952 24.3584 98.5974 23.2606L97.1832 24.6748ZM96.8402 17.9833C95.2384 19.948 95.3524 22.844 97.1832 24.6748L98.5974 23.2606C97.4997 22.1628 97.4303 20.4246 98.3903 19.2471L96.8402 17.9833ZM94.7622 17.1765L96.9081 19.3223L98.3223 17.9081L96.1765 15.7622L94.7622 17.1765ZM89.4098 16.9014C91.2406 18.7322 94.1366 18.8462 96.1012 17.2444L94.8374 15.6943C93.66 16.6543 91.9218 16.5849 90.824 15.4872L89.4098 16.9014ZM89.0667 10.2099C87.465 12.1746 87.579 15.0706 89.4098 16.9014L90.824 15.4872C89.7262 14.3894 89.6569 12.6512 90.6169 11.4737L89.0667 10.2099ZM86.2929 8.70711L89.1347 11.5489L90.5489 10.1347L87.7071 7.29289L86.2929 8.70711ZM79.2929 1.70711L86.2929 8.70711L87.7071 7.29289L80.7071 0.292893L79.2929 1.70711Z" fill="#18181A" mask="url(#path-1-inside-1_1220_6491)"/>
<path d="M63.7428 31.4308L63.497 31.4282L63.3232 31.602L15.5876 79.3376L15.1742 79.751L15.5876 80.1644L79.5866 144.163L80 144.577L80.4134 144.163L144.412 80.1644L144.826 79.751L144.412 79.3376L97.0304 31.9556L96.8618 31.7869L96.6233 31.7844L63.7428 31.4308Z" fill="#EDDDC5" stroke="#22242D" stroke-width="1.16925"/>
<path d="M108.064 111.606L106.918 112.751L102.803 108.636L103.948 107.49L104.457 108L104.483 107.974C104.398 107.55 104.483 106.786 105.051 106.218L105.247 106.022L106.477 107.253C106.375 107.304 106.18 107.414 106.027 107.567C105.45 108.144 105.45 108.992 106.129 109.671L108.064 111.606ZM112.12 107.719C110.873 108.966 108.955 108.966 107.767 107.779C106.579 106.591 106.588 104.681 107.776 103.493C108.964 102.306 110.745 102.306 111.908 103.468C112.095 103.655 112.247 103.858 112.315 103.96L109.32 106.955C109.787 107.286 110.618 107.269 111.229 106.658C111.713 106.175 111.849 105.598 111.874 105.165L113.198 105.284C113.215 105.895 112.943 106.896 112.12 107.719ZM108.522 106.175L110.406 104.291C109.871 103.96 109.218 103.952 108.726 104.444C108.208 104.961 108.217 105.615 108.522 106.175ZM116.901 102.938C115.654 104.185 113.736 104.185 112.548 102.997C111.36 101.809 111.369 99.9002 112.616 98.6528C113.499 97.7704 114.585 97.6176 115.221 97.711L115.162 99.145C114.746 99.1195 114.186 99.2044 113.719 99.6711C113.108 100.282 113.108 101.215 113.719 101.826C114.339 102.446 115.272 102.446 115.883 101.835C116.35 101.368 116.443 100.783 116.426 100.341L117.86 100.282C117.936 100.952 117.784 102.055 116.901 102.938ZM121.285 98.5544C120.037 99.8017 118.12 99.8017 116.932 98.6138C115.744 97.4258 115.752 95.5167 116.94 94.3287C118.128 93.1408 119.91 93.1408 121.073 94.3033C121.259 94.4899 121.412 94.6936 121.48 94.7954L118.485 97.7907C118.951 98.1216 119.783 98.1047 120.394 97.4937C120.878 97.0101 121.013 96.4331 121.039 96.0003L122.362 96.1191C122.379 96.73 122.108 97.7313 121.285 98.5544ZM117.687 97.0101L119.571 95.1263C119.036 94.7954 118.383 94.7869 117.891 95.2791C117.373 95.7967 117.382 96.45 117.687 97.0101ZM119.914 90.2857C119.549 90.6505 118.981 90.676 118.616 90.3111C118.26 89.9547 118.277 89.3778 118.641 89.0129C118.998 88.6565 119.575 88.6395 119.931 88.9959C120.296 89.3608 120.271 89.9293 119.914 90.2857ZM125.218 94.4519L124.072 95.5975L119.957 91.4821L121.102 90.3366L125.218 94.4519ZM128.64 91.0291L127.452 92.217L121.742 89.6969L122.972 88.4665L126.689 90.2484L126.714 90.223L124.924 86.5149L126.112 85.327L128.64 91.0291ZM132.861 86.9783C131.614 88.2256 129.696 88.2256 128.508 87.0377C127.32 85.8497 127.329 83.9405 128.516 82.7526C129.704 81.5647 131.486 81.5647 132.649 82.7271C132.835 82.9138 132.988 83.1175 133.056 83.2193L130.061 86.2146C130.527 86.5455 131.359 86.5286 131.97 85.9176C132.454 85.434 132.589 84.857 132.615 84.4242L133.939 84.543C133.956 85.1539 133.684 86.1552 132.861 86.9783ZM129.263 85.434L131.147 83.5502C130.612 83.2193 129.959 83.2108 129.467 83.703C128.949 84.2206 128.958 84.8739 129.263 85.434ZM136.751 82.9183L135.606 84.0638L131.49 79.9484L132.636 78.8029L133.145 79.312L133.17 79.2866C133.086 78.8623 133.17 78.0986 133.739 77.5301L133.934 77.3349L135.164 78.5653C135.063 78.6162 134.867 78.7265 134.715 78.8793C134.138 79.4563 134.138 80.3048 134.817 80.9836L136.751 82.9183Z" fill="#30313D"/>
<path d="M29.7388 80.7881L27.0405 83.4864L21.1008 77.5467L23.6294 75.0181C24.8343 73.8132 26.2768 73.8132 27.1169 74.6532C27.7193 75.2557 27.7957 76.0787 27.5327 76.6642C28.1351 76.3672 29.2806 76.223 30.0952 77.0376C31.0031 77.9455 31.0116 79.5153 29.7388 80.7881ZM23.4088 77.3091L24.724 78.6243L25.912 77.4364C26.3447 77.0036 26.3447 76.4606 25.9629 76.0787C25.5811 75.6969 25.021 75.6969 24.5968 76.1212L23.4088 77.3091ZM25.6998 79.6001L27.2696 81.1699L28.6273 79.8123C29.1194 79.3201 29.1194 78.6413 28.6782 78.2C28.2285 77.7503 27.5496 77.7503 27.0575 78.2425L25.6998 79.6001ZM34.7648 75.9318C33.5174 77.1792 31.5998 77.1792 30.4118 75.9912C29.2239 74.8033 29.2324 72.8941 30.4203 71.7062C31.6083 70.5182 33.3902 70.5182 34.5526 71.6807C34.7393 71.8674 34.8921 72.071 34.9599 72.1728L31.9646 75.1682C32.4313 75.4991 33.2629 75.4821 33.8738 74.8712C34.3575 74.3875 34.4932 73.8105 34.5187 73.3778L35.8424 73.4966C35.8594 74.1075 35.5879 75.1088 34.7648 75.9318ZM31.167 74.3875L33.0508 72.5038C32.5162 72.1728 31.8628 72.1644 31.3707 72.6565C30.8531 73.1741 30.8615 73.8275 31.167 74.3875ZM39.0369 71.6597C38.2223 72.4743 37.1277 72.7034 36.5168 72.6525L36.4913 71.3203C36.8817 71.3372 37.5435 71.2354 38.0017 70.7772C38.3666 70.4123 38.392 70.0814 38.1884 69.8778C37.6199 69.3093 35.8295 71.5918 34.4209 70.1832C33.7506 69.5129 33.7591 68.3674 34.7773 67.3492C35.5325 66.594 36.4574 66.3479 36.958 66.3564L36.9835 67.6886C36.7035 67.6971 36.2283 67.7989 35.8549 68.1722C35.5155 68.5116 35.4986 68.8341 35.6513 68.9868C36.2113 69.5469 38.0187 67.2813 39.4272 68.6898C40.123 69.3856 40.123 70.5736 39.0369 71.6597ZM43.2188 67.3929C42.3703 68.2414 41.3012 68.2414 40.3508 67.2911L38.7386 65.6789L38.0598 66.3577L36.9991 65.2971L37.364 64.9322C37.6355 64.6607 37.6355 64.3212 37.3131 63.9988L36.49 63.1757L37.5082 62.1575L38.8235 63.4727L39.7144 62.5818L40.7751 63.6424L39.8841 64.5334L41.3266 65.9759C41.7085 66.3577 42.0903 66.3492 42.4297 66.0098C42.6164 65.8231 42.7267 65.594 42.7691 65.4668L43.8298 66.5274C43.7449 66.7141 43.5243 67.0874 43.2188 67.3929Z" fill="#30313D"/>
<path d="M79.484 28.3906H72.944C72.944 24.1906 76.604 24.0706 76.604 22.7746C76.604 22.4386 76.376 22.2106 75.992 22.2106C75.548 22.2106 75.212 22.5586 75.044 22.8106L72.848 21.7906C73.22 20.9146 74.42 19.7506 76.304 19.7506C78.284 19.7506 79.544 21.0106 79.544 22.5106C79.544 24.5506 77.324 25.1146 76.544 25.9906H79.484V28.3906ZM83.732 28.6306C82.136 28.6306 80.852 27.8386 80.336 27.2506L81.872 25.6546C82.124 25.9426 82.7 26.3266 83.312 26.3266C83.912 26.3266 84.236 25.9906 84.236 25.5706C84.236 25.1506 83.912 24.8146 83.336 24.8146C82.964 24.8146 82.664 24.9826 82.532 25.1146L80.672 24.7906L81.032 19.9906H86.672V22.2106H83.456L83.372 23.1346C83.552 23.0386 83.984 22.8946 84.476 22.8946C86.036 22.8946 87.176 24.0346 87.176 25.6306C87.176 27.3106 85.856 28.6306 83.732 28.6306Z" fill="#22242D"/>
<path d="M68.3764 129.052C67.6147 128.867 67.349 127.919 67.9033 127.365L78.2569 117.011C78.8331 116.435 79.668 116.201 80.4597 116.394L91.8369 119.161C92.5986 119.346 92.8643 120.293 92.31 120.848L81.9564 131.201C81.3802 131.778 80.5453 132.012 79.7536 131.819L68.3764 129.052Z" fill="#FFF4E3" stroke="#202124" stroke-width="0.650159"/>
<path d="M74.5429 127.722L74.7316 122.816C74.7523 122.277 75.0962 121.805 75.6023 121.619L83.8934 118.575C84.653 118.296 85.4834 118.755 85.6524 119.546L86.5673 123.829C86.7035 124.467 86.3575 125.109 85.7502 125.346L76.3554 129.013C75.4629 129.361 74.5061 128.68 74.5429 127.722Z" stroke="#D5D7E0" stroke-width="0.664994" stroke-linecap="round" stroke-dasharray="1.33 1.33"/>
<path d="M76.7911 119.999L79.6033 118.589L78.0063 120.915L80.7693 119.688L80.4743 120.789L82.2304 119.686L81.7879 121.338L84.4525 120.479L83.1998 121.52L86.1712 121.332L85.9253 122.25L87.5339 121.698L87.8407 122.37" stroke="#797C8F" stroke-width="0.866879" stroke-linejoin="round"/>
<path d="M74.0426 123.022L75.6944 122.463L76.215 123.479L77.9989 123.206L77.7172 124.257L79.4629 123.348L79.1813 124.399" stroke="#797C8F" stroke-width="0.866879" stroke-linejoin="round"/>
<path d="M68.3764 121.052C67.6147 120.867 67.349 119.919 67.9033 119.365L78.2569 109.011C78.8331 108.435 79.668 108.201 80.4597 108.394L91.8369 111.161C92.5986 111.346 92.8643 112.293 92.31 112.848L81.9564 123.201C81.3802 123.778 80.5453 124.012 79.7536 123.819L68.3764 121.052Z" fill="#FFF4E3" stroke="#202124" stroke-width="0.650159"/>
<path d="M74.5429 119.722L74.7316 114.816C74.7523 114.277 75.0962 113.805 75.6023 113.619L83.8934 110.575C84.653 110.296 85.4834 110.755 85.6524 111.546L86.5673 115.829C86.7035 116.467 86.3575 117.109 85.7502 117.346L76.3554 121.013C75.4629 121.361 74.5061 120.68 74.5429 119.722Z" stroke="#D5D7E0" stroke-width="0.664994" stroke-linecap="round" stroke-dasharray="1.33 1.33"/>
<path d="M76.7911 111.999L79.6033 110.589L78.0063 112.915L80.7693 111.688L80.4743 112.789L82.2304 111.686L81.7879 113.338L84.4525 112.479L83.1998 113.52L86.1712 113.332L85.9253 114.25L87.5339 113.698L87.8407 114.37" stroke="#797C8F" stroke-width="0.866879" stroke-linejoin="round"/>
<path d="M74.0426 115.022L75.6944 114.463L76.215 115.479L77.9989 115.206L77.7172 116.257L79.4629 115.348L79.1813 116.399" stroke="#797C8F" stroke-width="0.866879" stroke-linejoin="round"/>
<path d="M68.3764 113.052C67.6147 112.867 67.349 111.919 67.9033 111.365L78.2569 101.011C78.8331 100.435 79.668 100.201 80.4597 100.394L91.8369 103.161C92.5986 103.346 92.8643 104.293 92.31 104.848L81.9564 115.201C81.3802 115.778 80.5453 116.012 79.7536 115.819L68.3764 113.052Z" fill="#FFF4E3" stroke="#202124" stroke-width="0.650159"/>
<path d="M74.5429 111.722L74.7316 106.816C74.7523 106.277 75.0962 105.805 75.6023 105.619L83.8934 102.575C84.653 102.296 85.4834 102.755 85.6524 103.546L86.5673 107.829C86.7035 108.467 86.3575 109.109 85.7502 109.346L76.3554 113.013C75.4629 113.361 74.5061 112.68 74.5429 111.722Z" stroke="#D5D7E0" stroke-width="0.664994" stroke-linecap="round" stroke-dasharray="1.33 1.33"/>
<path d="M76.7911 103.999L79.6033 102.589L78.0063 104.915L80.7693 103.688L80.4743 104.789L82.2304 103.686L81.7879 105.338L84.4525 104.479L83.1998 105.52L86.1712 105.332L85.9253 106.25L87.5339 105.698L87.8407 106.37" stroke="#797C8F" stroke-width="0.866879" stroke-linejoin="round"/>
<path d="M74.0426 107.022L75.6944 106.463L76.215 107.479L77.9989 107.206L77.7172 108.257L79.4629 107.348L79.1813 108.399" stroke="#797C8F" stroke-width="0.866879" stroke-linejoin="round"/>
<path d="M68.3764 105.052C67.6147 104.867 67.349 103.919 67.9033 103.365L78.2569 93.0114C78.8331 92.4352 79.668 92.2011 80.4597 92.3937L91.8369 95.1607C92.5986 95.346 92.8643 96.2934 92.31 96.8478L81.9564 107.201C81.3802 107.778 80.5453 108.012 79.7536 107.819L68.3764 105.052Z" fill="#FFF4E3" stroke="#202124" stroke-width="0.650159"/>
<path d="M74.5429 103.722L74.7316 98.8162C74.7523 98.2775 75.0962 97.8045 75.6023 97.6188L83.8934 94.5752C84.653 94.2964 85.4834 94.7547 85.6524 95.5459L86.5673 99.8295C86.7035 100.467 86.3575 101.109 85.7502 101.346L76.3554 105.013C75.4629 105.361 74.5061 104.68 74.5429 103.722Z" stroke="#D5D7E0" stroke-width="0.664994" stroke-linecap="round" stroke-dasharray="1.33 1.33"/>
<path d="M76.7911 95.9992L79.6033 94.589L78.0063 96.915L80.7693 95.6883L80.4743 96.7894L82.2304 95.6864L81.7879 97.3381L84.4525 96.4785L83.1998 97.5197L86.1712 97.3324L85.9253 98.25L87.5339 97.6976L87.8407 98.3699" stroke="#797C8F" stroke-width="0.866879" stroke-linejoin="round"/>
<path d="M74.0426 99.0218L75.6944 98.463L76.215 99.4787L77.9989 99.2057L77.7172 100.257L79.4629 99.3476L79.1813 100.399" stroke="#797C8F" stroke-width="0.866879" stroke-linejoin="round"/>
<path d="M68.3764 97.052C67.6147 96.8667 67.349 95.9194 67.9033 95.365L78.2569 85.0114C78.8331 84.4352 79.668 84.2011 80.4597 84.3937L91.8369 87.1607C92.5986 87.346 92.8643 88.2934 92.31 88.8478L81.9564 99.2013C81.3802 99.7775 80.5453 100.012 79.7536 99.8191L68.3764 97.052Z" fill="#FFF4E3" stroke="#202124" stroke-width="0.650159"/>
<path d="M74.5429 95.7224L74.7316 90.8162C74.7523 90.2775 75.0962 89.8045 75.6023 89.6188L83.8934 86.5752C84.653 86.2964 85.4834 86.7547 85.6524 87.5459L86.5673 91.8295C86.7035 92.467 86.3575 93.1093 85.7502 93.3463L76.3554 97.0125C75.4629 97.3608 74.5061 96.6798 74.5429 95.7224Z" stroke="#D5D7E0" stroke-width="0.664994" stroke-linecap="round" stroke-dasharray="1.33 1.33"/>
<path d="M76.7911 87.9992L79.6033 86.589L78.0063 88.915L80.7693 87.6883L80.4743 88.7894L82.2304 87.6864L81.7879 89.3381L84.4525 88.4785L83.1998 89.5197L86.1712 89.3324L85.9253 90.25L87.5339 89.6976L87.8407 90.3699" stroke="#797C8F" stroke-width="0.866879" stroke-linejoin="round"/>
<path d="M74.0426 91.0218L75.6944 90.463L76.215 91.4787L77.9989 91.2057L77.7172 92.2568L79.4629 91.3476L79.1813 92.3987" stroke="#797C8F" stroke-width="0.866879" stroke-linejoin="round"/>
<path d="M68.3764 89.052C67.6147 88.8667 67.349 87.9194 67.9033 87.365L78.2569 77.0114C78.8331 76.4352 79.668 76.2011 80.4597 76.3937L91.8369 79.1607C92.5986 79.346 92.8643 80.2934 92.31 80.8478L81.9564 91.2013C81.3802 91.7775 80.5453 92.0116 79.7536 91.8191L68.3764 89.052Z" fill="#FFF4E3" stroke="#202124" stroke-width="0.650159"/>
<path d="M74.5429 87.7224L74.7316 82.8162C74.7523 82.2775 75.0962 81.8045 75.6023 81.6188L83.8934 78.5752C84.653 78.2964 85.4834 78.7547 85.6524 79.5459L86.5673 83.8295C86.7035 84.467 86.3575 85.1093 85.7502 85.3463L76.3554 89.0125C75.4629 89.3608 74.5061 88.6798 74.5429 87.7224Z" stroke="#D5D7E0" stroke-width="0.664994" stroke-linecap="round" stroke-dasharray="1.33 1.33"/>
<path d="M76.7911 79.9992L79.6033 78.589L78.0063 80.915L80.7693 79.6883L80.4743 80.7894L82.2304 79.6864L81.7879 81.3381L84.4525 80.4785L83.1998 81.5197L86.1712 81.3324L85.9253 82.25L87.5339 81.6976L87.8407 82.3699" stroke="#797C8F" stroke-width="0.866879" stroke-linejoin="round"/>
<path d="M74.0426 83.0218L75.6944 82.463L76.215 83.4787L77.9989 83.2057L77.7172 84.2568L79.4629 83.3476L79.1813 84.3987" stroke="#797C8F" stroke-width="0.866879" stroke-linejoin="round"/>
<path d="M68.3764 81.052C67.6147 80.8667 67.349 79.9194 67.9033 79.365L78.2569 69.0114C78.8331 68.4352 79.668 68.2011 80.4597 68.3937L91.8369 71.1607C92.5986 71.346 92.8643 72.2934 92.31 72.8478L81.9564 83.2013C81.3802 83.7775 80.5453 84.0116 79.7536 83.8191L68.3764 81.052Z" fill="#FFF4E3" stroke="#202124" stroke-width="0.650159"/>
<path d="M74.5429 79.7224L74.7316 74.8162C74.7523 74.2775 75.0962 73.8045 75.6023 73.6188L83.8934 70.5752C84.653 70.2964 85.4834 70.7547 85.6524 71.5459L86.5673 75.8295C86.7035 76.467 86.3575 77.1093 85.7502 77.3463L76.3554 81.0125C75.4629 81.3608 74.5061 80.6798 74.5429 79.7224Z" stroke="#D5D7E0" stroke-width="0.664994" stroke-linecap="round" stroke-dasharray="1.33 1.33"/>
<path d="M76.7911 71.9992L79.6033 70.589L78.0063 72.915L80.7693 71.6883L80.4743 72.7894L82.2304 71.6864L81.7879 73.3381L84.4525 72.4785L83.1998 73.5197L86.1712 73.3324L85.9253 74.25L87.5339 73.6976L87.8407 74.3699" stroke="#797C8F" stroke-width="0.866879" stroke-linejoin="round"/>
<path d="M74.0426 75.0218L75.6944 74.463L76.215 75.4787L77.9989 75.2057L77.7172 76.2568L79.4629 75.3476L79.1813 76.3987" stroke="#797C8F" stroke-width="0.866879" stroke-linejoin="round"/>
<path d="M68.3764 73.052C67.6147 72.8667 67.349 71.9194 67.9033 71.365L78.2569 61.0114C78.8331 60.4352 79.668 60.2011 80.4597 60.3937L91.8369 63.1607C92.5986 63.346 92.8643 64.2934 92.31 64.8478L81.9564 75.2013C81.3802 75.7775 80.5453 76.0116 79.7536 75.8191L68.3764 73.052Z" fill="#FFF4E3" stroke="#202124" stroke-width="0.650159"/>
<path d="M74.5429 71.7224L74.7316 66.8162C74.7523 66.2775 75.0962 65.8045 75.6023 65.6188L83.8934 62.5752C84.653 62.2964 85.4834 62.7547 85.6524 63.5459L86.5673 67.8295C86.7035 68.467 86.3575 69.1093 85.7502 69.3463L76.3554 73.0125C75.4629 73.3608 74.5061 72.6798 74.5429 71.7224Z" stroke="#D5D7E0" stroke-width="0.664994" stroke-linecap="round" stroke-dasharray="1.33 1.33"/>
<path d="M76.7911 63.9992L79.6033 62.589L78.0063 64.915L80.7693 63.6883L80.4743 64.7894L82.2304 63.6864L81.7879 65.3381L84.4525 64.4785L83.1998 65.5197L86.1712 65.3324L85.9253 66.25L87.5339 65.6976L87.8407 66.3699" stroke="#797C8F" stroke-width="0.866879" stroke-linejoin="round"/>
<path d="M74.0426 67.0218L75.6944 66.463L76.215 67.4787L77.9989 67.2057L77.7172 68.2568L79.4629 67.3476L79.1813 68.3987" stroke="#797C8F" stroke-width="0.866879" stroke-linejoin="round"/>
<path d="M68.3764 65.052C67.6147 64.8667 67.349 63.9194 67.9033 63.365L78.2569 53.0114C78.8331 52.4352 79.668 52.2011 80.4597 52.3937L91.8369 55.1607C92.5986 55.346 92.8643 56.2934 92.31 56.8478L81.9564 67.2013C81.3802 67.7775 80.5453 68.0116 79.7536 67.8191L68.3764 65.052Z" fill="#FFF4E3" stroke="#202124" stroke-width="0.650159"/>
<path d="M74.5429 63.7224L74.7316 58.8162C74.7523 58.2775 75.0962 57.8045 75.6023 57.6188L83.8934 54.5752C84.653 54.2964 85.4834 54.7547 85.6524 55.5459L86.5673 59.8295C86.7035 60.467 86.3575 61.1093 85.7502 61.3463L76.3554 65.0125C75.4629 65.3608 74.5061 64.6798 74.5429 63.7224Z" stroke="#D5D7E0" stroke-width="0.664994" stroke-linecap="round" stroke-dasharray="1.33 1.33"/>
<path d="M76.7911 55.9992L79.6033 54.589L78.0063 56.915L80.7693 55.6883L80.4743 56.7894L82.2304 55.6864L81.7879 57.3381L84.4525 56.4785L83.1998 57.5197L86.1712 57.3324L85.9253 58.25L87.5339 57.6976L87.8407 58.3699" stroke="#797C8F" stroke-width="0.866879" stroke-linejoin="round"/>
<path d="M74.0426 59.0218L75.6944 58.463L76.215 59.4787L77.9989 59.2057L77.7172 60.2568L79.4629 59.3476L79.1813 60.3987" stroke="#797C8F" stroke-width="0.866879" stroke-linejoin="round"/>
<path d="M68.3764 57.052C67.6147 56.8667 67.349 55.9194 67.9033 55.365L78.2569 45.0114C78.8331 44.4352 79.668 44.2011 80.4597 44.3937L91.8369 47.1607C92.5986 47.346 92.8643 48.2934 92.31 48.8478L81.9564 59.2013C81.3802 59.7775 80.5453 60.0116 79.7536 59.8191L68.3764 57.052Z" fill="#FFF4E3" stroke="#202124" stroke-width="0.650159"/>
<path d="M74.5429 55.7224L74.7316 50.8162C74.7523 50.2775 75.0962 49.8045 75.6023 49.6188L83.8934 46.5752C84.653 46.2964 85.4834 46.7547 85.6524 47.5459L86.5673 51.8295C86.7035 52.467 86.3575 53.1093 85.7502 53.3463L76.3554 57.0125C75.4629 57.3608 74.5061 56.6798 74.5429 55.7224Z" stroke="#D5D7E0" stroke-width="0.664994" stroke-linecap="round" stroke-dasharray="1.33 1.33"/>
<path d="M76.7911 47.9992L79.6033 46.589L78.0063 48.915L80.7693 47.6883L80.4743 48.7894L82.2304 47.6864L81.7879 49.3381L84.4525 48.4785L83.1998 49.5197L86.1712 49.3324L85.9253 50.25L87.5339 49.6976L87.8407 50.3699" stroke="#797C8F" stroke-width="0.866879" stroke-linejoin="round"/>
<path d="M74.0426 51.0218L75.6944 50.463L76.215 51.4787L77.9989 51.2057L77.7172 52.2568L79.4629 51.3476L79.1813 52.3987" stroke="#797C8F" stroke-width="0.866879" stroke-linejoin="round"/>
<path opacity="0.2" d="M78.4567 52.4677L60.918 34.3444L63.2565 32.0059L93.4243 33.5321L78.4567 52.4677Z" fill="#18181A"/>
<path d="M39.3764 99.052C38.6147 98.8667 38.349 97.9194 38.9033 97.365L49.2569 87.0114C49.8331 86.4352 50.668 86.2011 51.4597 86.3937L62.8369 89.1607C63.5986 89.346 63.8643 90.2934 63.31 90.8478L52.9564 101.201C52.3802 101.778 51.5453 102.012 50.7536 101.819L39.3764 99.052Z" fill="#FFF4E3" stroke="#202124" stroke-width="0.650159"/>
<path d="M45.5429 97.7224L45.7316 92.8162C45.7523 92.2775 46.0962 91.8045 46.6023 91.6188L54.8934 88.5752C55.653 88.2964 56.4834 88.7547 56.6524 89.5459L57.5673 93.8295C57.7035 94.467 57.3575 95.1093 56.7502 95.3463L47.3554 99.0125C46.4629 99.3608 45.5061 98.6798 45.5429 97.7224Z" stroke="#D5D7E0" stroke-width="0.664994" stroke-linecap="round" stroke-dasharray="1.33 1.33"/>
<path d="M47.7911 89.9992L50.6033 88.589L49.0063 90.915L51.7693 89.6883L51.4743 90.7894L53.2304 89.6864L52.7879 91.3381L55.4525 90.4785L54.1998 91.5197L57.1712 91.3324L56.9253 92.25L58.5339 91.6976L58.8407 92.3699" stroke="#797C8F" stroke-width="0.866879" stroke-linejoin="round"/>
<path d="M45.0426 93.0218L46.6944 92.463L47.215 93.4787L48.9989 93.2057L48.7172 94.2568L50.4629 93.3476L50.1813 94.3987" stroke="#797C8F" stroke-width="0.866879" stroke-linejoin="round"/>
<path d="M39.3764 95.052C38.6147 94.8667 38.349 93.9194 38.9033 93.365L49.2569 83.0114C49.8331 82.4352 50.668 82.2011 51.4597 82.3937L62.8369 85.1607C63.5986 85.346 63.8643 86.2934 63.31 86.8478L52.9564 97.2013C52.3802 97.7775 51.5453 98.0116 50.7536 97.8191L39.3764 95.052Z" fill="#FFF4E3" stroke="#202124" stroke-width="0.650159"/>
<path d="M45.5429 93.7224L45.7316 88.8162C45.7523 88.2775 46.0962 87.8045 46.6023 87.6188L54.8934 84.5752C55.653 84.2964 56.4834 84.7547 56.6524 85.5459L57.5673 89.8295C57.7035 90.467 57.3575 91.1093 56.7502 91.3463L47.3554 95.0125C46.4629 95.3608 45.5061 94.6798 45.5429 93.7224Z" stroke="#D5D7E0" stroke-width="0.664994" stroke-linecap="round" stroke-dasharray="1.33 1.33"/>
<path d="M47.7911 85.9992L50.6033 84.589L49.0063 86.915L51.7693 85.6883L51.4743 86.7894L53.2304 85.6864L52.7879 87.3381L55.4525 86.4785L54.1998 87.5197L57.1712 87.3324L56.9253 88.25L58.5339 87.6976L58.8407 88.3699" stroke="#797C8F" stroke-width="0.866879" stroke-linejoin="round"/>
<path d="M45.0426 89.0218L46.6944 88.463L47.215 89.4787L48.9989 89.2057L48.7172 90.2568L50.4629 89.3476L50.1813 90.3987" stroke="#797C8F" stroke-width="0.866879" stroke-linejoin="round"/>
<path d="M39.3764 91.052C38.6147 90.8667 38.349 89.9194 38.9033 89.365L49.2569 79.0114C49.8331 78.4352 50.668 78.2011 51.4597 78.3937L62.8369 81.1607C63.5986 81.346 63.8643 82.2934 63.31 82.8478L52.9564 93.2013C52.3802 93.7775 51.5453 94.0116 50.7536 93.8191L39.3764 91.052Z" fill="#FFF4E3" stroke="#202124" stroke-width="0.650159"/>
<path d="M45.5429 89.7224L45.7316 84.8162C45.7523 84.2775 46.0962 83.8045 46.6023 83.6188L54.8934 80.5752C55.653 80.2964 56.4834 80.7547 56.6524 81.5459L57.5673 85.8295C57.7035 86.467 57.3575 87.1093 56.7502 87.3463L47.3554 91.0125C46.4629 91.3608 45.5061 90.6798 45.5429 89.7224Z" stroke="#D5D7E0" stroke-width="0.664994" stroke-linecap="round" stroke-dasharray="1.33 1.33"/>
<path d="M47.7911 81.9992L50.6033 80.589L49.0063 82.915L51.7693 81.6883L51.4743 82.7894L53.2304 81.6864L52.7879 83.3381L55.4525 82.4785L54.1998 83.5197L57.1712 83.3324L56.9253 84.25L58.5339 83.6976L58.8407 84.3699" stroke="#797C8F" stroke-width="0.866879" stroke-linejoin="round"/>
<path d="M45.0426 85.0218L46.6944 84.463L47.215 85.4787L48.9989 85.2057L48.7172 86.2568L50.4629 85.3476L50.1813 86.3987" stroke="#797C8F" stroke-width="0.866879" stroke-linejoin="round"/>
<path d="M39.3764 87.052C38.6147 86.8667 38.349 85.9194 38.9033 85.365L49.2569 75.0114C49.8331 74.4352 50.668 74.2011 51.4597 74.3937L62.8369 77.1607C63.5986 77.346 63.8643 78.2934 63.31 78.8478L52.9564 89.2013C52.3802 89.7775 51.5453 90.0116 50.7536 89.8191L39.3764 87.052Z" fill="#FFF4E3" stroke="#202124" stroke-width="0.650159"/>
<path d="M45.5429 85.7224L45.7316 80.8162C45.7523 80.2775 46.0962 79.8045 46.6023 79.6188L54.8934 76.5752C55.653 76.2964 56.4834 76.7547 56.6524 77.5459L57.5673 81.8295C57.7035 82.467 57.3575 83.1093 56.7502 83.3463L47.3554 87.0125C46.4629 87.3608 45.5061 86.6798 45.5429 85.7224Z" stroke="#D5D7E0" stroke-width="0.664994" stroke-linecap="round" stroke-dasharray="1.33 1.33"/>
<path d="M47.7911 77.9992L50.6033 76.589L49.0063 78.915L51.7693 77.6883L51.4743 78.7894L53.2304 77.6864L52.7879 79.3381L55.4525 78.4785L54.1998 79.5197L57.1712 79.3324L56.9253 80.25L58.5339 79.6976L58.8407 80.3699" stroke="#797C8F" stroke-width="0.866879" stroke-linejoin="round"/>
<path d="M45.0426 81.0218L46.6944 80.463L47.215 81.4787L48.9989 81.2057L48.7172 82.2568L50.4629 81.3476L50.1813 82.3987" stroke="#797C8F" stroke-width="0.866879" stroke-linejoin="round"/>
<path d="M39.3764 83.052C38.6147 82.8667 38.349 81.9194 38.9033 81.365L49.2569 71.0114C49.8331 70.4352 50.668 70.2011 51.4597 70.3937L62.8369 73.1607C63.5986 73.346 63.8643 74.2934 63.31 74.8478L52.9564 85.2013C52.3802 85.7775 51.5453 86.0116 50.7536 85.8191L39.3764 83.052Z" fill="#FFF4E3" stroke="#202124" stroke-width="0.650159"/>
<path d="M45.5429 81.7224L45.7316 76.8162C45.7523 76.2775 46.0962 75.8045 46.6023 75.6188L54.8934 72.5752C55.653 72.2964 56.4834 72.7547 56.6524 73.5459L57.5673 77.8295C57.7035 78.467 57.3575 79.1093 56.7502 79.3463L47.3554 83.0125C46.4629 83.3608 45.5061 82.6798 45.5429 81.7224Z" stroke="#D5D7E0" stroke-width="0.664994" stroke-linecap="round" stroke-dasharray="1.33 1.33"/>
<path d="M47.7911 73.9992L50.6033 72.589L49.0063 74.915L51.7693 73.6883L51.4743 74.7894L53.2304 73.6864L52.7879 75.3381L55.4525 74.4785L54.1998 75.5197L57.1712 75.3324L56.9253 76.25L58.5339 75.6976L58.8407 76.3699" stroke="#797C8F" stroke-width="0.866879" stroke-linejoin="round"/>
<path d="M45.0426 77.0218L46.6944 76.463L47.215 77.4787L48.9989 77.2057L48.7172 78.2568L50.4629 77.3476L50.1813 78.3987" stroke="#797C8F" stroke-width="0.866879" stroke-linejoin="round"/>
<path d="M39.3764 79.052C38.6147 78.8667 38.349 77.9194 38.9033 77.365L49.2569 67.0114C49.8331 66.4352 50.668 66.2011 51.4597 66.3937L62.8369 69.1607C63.5986 69.346 63.8643 70.2934 63.31 70.8478L52.9564 81.2013C52.3802 81.7775 51.5453 82.0116 50.7536 81.8191L39.3764 79.052Z" fill="#FFF4E3" stroke="#202124" stroke-width="0.650159"/>
<path d="M45.5429 77.7224L45.7316 72.8162C45.7523 72.2775 46.0962 71.8045 46.6023 71.6188L54.8934 68.5752C55.653 68.2964 56.4834 68.7547 56.6524 69.5459L57.5673 73.8295C57.7035 74.467 57.3575 75.1093 56.7502 75.3463L47.3554 79.0125C46.4629 79.3608 45.5061 78.6798 45.5429 77.7224Z" stroke="#D5D7E0" stroke-width="0.664994" stroke-linecap="round" stroke-dasharray="1.33 1.33"/>
<path d="M47.7911 69.9992L50.6033 68.589L49.0063 70.915L51.7693 69.6883L51.4743 70.7894L53.2304 69.6864L52.7879 71.3381L55.4525 70.4785L54.1998 71.5197L57.1712 71.3324L56.9253 72.25L58.5339 71.6976L58.8407 72.3699" stroke="#797C8F" stroke-width="0.866879" stroke-linejoin="round"/>
<path d="M45.0426 73.0218L46.6944 72.463L47.215 73.4787L48.9989 73.2057L48.7172 74.2568L50.4629 73.3476L50.1813 74.3987" stroke="#797C8F" stroke-width="0.866879" stroke-linejoin="round"/>
<path d="M39.3764 75.052C38.6147 74.8667 38.349 73.9194 38.9033 73.365L49.2569 63.0114C49.8331 62.4352 50.668 62.2011 51.4597 62.3937L62.8369 65.1607C63.5986 65.346 63.8643 66.2934 63.31 66.8478L52.9564 77.2013C52.3802 77.7775 51.5453 78.0116 50.7536 77.8191L39.3764 75.052Z" fill="#FFF4E3" stroke="#202124" stroke-width="0.650159"/>
<path d="M45.5429 73.7224L45.7316 68.8162C45.7523 68.2775 46.0962 67.8045 46.6023 67.6188L54.8934 64.5752C55.653 64.2964 56.4834 64.7547 56.6524 65.5459L57.5673 69.8295C57.7035 70.467 57.3575 71.1093 56.7502 71.3463L47.3554 75.0125C46.4629 75.3608 45.5061 74.6798 45.5429 73.7224Z" stroke="#D5D7E0" stroke-width="0.664994" stroke-linecap="round" stroke-dasharray="1.33 1.33"/>
<path d="M47.7911 65.9992L50.6033 64.589L49.0063 66.915L51.7693 65.6883L51.4743 66.7894L53.2304 65.6864L52.7879 67.3381L55.4525 66.4785L54.1998 67.5197L57.1712 67.3324L56.9253 68.25L58.5339 67.6976L58.8407 68.3699" stroke="#797C8F" stroke-width="0.866879" stroke-linejoin="round"/>
<path d="M45.0426 69.0218L46.6944 68.463L47.215 69.4787L48.9989 69.2057L48.7172 70.2568L50.4629 69.3476L50.1813 70.3987" stroke="#797C8F" stroke-width="0.866879" stroke-linejoin="round"/>
<path d="M97.3764 98.052C96.6147 97.8667 96.349 96.9194 96.9033 96.365L107.257 86.0114C107.833 85.4352 108.668 85.2011 109.46 85.3937L120.837 88.1607C121.599 88.346 121.864 89.2934 121.31 89.8478L110.956 100.201C110.38 100.778 109.545 101.012 108.754 100.819L97.3764 98.052Z" fill="#FFF4E3" stroke="#202124" stroke-width="0.650159"/>
<path d="M103.543 96.7224L103.732 91.8162C103.752 91.2775 104.096 90.8045 104.602 90.6188L112.893 87.5752C113.653 87.2964 114.483 87.7547 114.652 88.5459L115.567 92.8295C115.704 93.467 115.358 94.1093 114.75 94.3463L105.355 98.0125C104.463 98.3608 103.506 97.6798 103.543 96.7224Z" stroke="#D5D7E0" stroke-width="0.664994" stroke-linecap="round" stroke-dasharray="1.33 1.33"/>
<path d="M105.791 88.9992L108.603 87.589L107.006 89.915L109.769 88.6883L109.474 89.7894L111.23 88.6864L110.788 90.3381L113.453 89.4785L112.2 90.5197L115.171 90.3324L114.925 91.25L116.534 90.6976L116.841 91.3699" stroke="#797C8F" stroke-width="0.866879" stroke-linejoin="round"/>
<path d="M103.043 92.0218L104.694 91.463L105.215 92.4787L106.999 92.2057L106.717 93.2568L108.463 92.3476L108.181 93.3987" stroke="#797C8F" stroke-width="0.866879" stroke-linejoin="round"/>
<path d="M97.3764 94.052C96.6147 93.8667 96.349 92.9194 96.9033 92.365L107.257 82.0114C107.833 81.4352 108.668 81.2011 109.46 81.3937L120.837 84.1607C121.599 84.346 121.864 85.2934 121.31 85.8478L110.956 96.2013C110.38 96.7775 109.545 97.0116 108.754 96.8191L97.3764 94.052Z" fill="#FFF4E3" stroke="#202124" stroke-width="0.650159"/>
<path d="M103.543 92.7224L103.732 87.8162C103.752 87.2775 104.096 86.8045 104.602 86.6188L112.893 83.5752C113.653 83.2964 114.483 83.7547 114.652 84.5459L115.567 88.8295C115.704 89.467 115.358 90.1093 114.75 90.3463L105.355 94.0125C104.463 94.3608 103.506 93.6798 103.543 92.7224Z" stroke="#D5D7E0" stroke-width="0.664994" stroke-linecap="round" stroke-dasharray="1.33 1.33"/>
<path d="M105.791 84.9992L108.603 83.589L107.006 85.915L109.769 84.6883L109.474 85.7894L111.23 84.6864L110.788 86.3381L113.453 85.4785L112.2 86.5197L115.171 86.3324L114.925 87.25L116.534 86.6976L116.841 87.3699" stroke="#797C8F" stroke-width="0.866879" stroke-linejoin="round"/>
<path d="M103.043 88.0218L104.694 87.463L105.215 88.4787L106.999 88.2057L106.717 89.2568L108.463 88.3476L108.181 89.3987" stroke="#797C8F" stroke-width="0.866879" stroke-linejoin="round"/>
<path d="M97.3764 90.052C96.6147 89.8667 96.349 88.9194 96.9033 88.365L107.257 78.0114C107.833 77.4352 108.668 77.2011 109.46 77.3937L120.837 80.1607C121.599 80.346 121.864 81.2934 121.31 81.8478L110.956 92.2013C110.38 92.7775 109.545 93.0116 108.754 92.8191L97.3764 90.052Z" fill="#FFF4E3" stroke="#202124" stroke-width="0.650159"/>
<path d="M103.543 88.7224L103.732 83.8162C103.752 83.2775 104.096 82.8045 104.602 82.6188L112.893 79.5752C113.653 79.2964 114.483 79.7547 114.652 80.5459L115.567 84.8295C115.704 85.467 115.358 86.1093 114.75 86.3463L105.355 90.0125C104.463 90.3608 103.506 89.6798 103.543 88.7224Z" stroke="#D5D7E0" stroke-width="0.664994" stroke-linecap="round" stroke-dasharray="1.33 1.33"/>
<path d="M105.791 80.9992L108.603 79.589L107.006 81.915L109.769 80.6883L109.474 81.7894L111.23 80.6864L110.788 82.3381L113.453 81.4785L112.2 82.5197L115.171 82.3324L114.925 83.25L116.534 82.6976L116.841 83.3699" stroke="#797C8F" stroke-width="0.866879" stroke-linejoin="round"/>
<path d="M103.043 84.0218L104.694 83.463L105.215 84.4787L106.999 84.2057L106.717 85.2568L108.463 84.3476L108.181 85.3987" stroke="#797C8F" stroke-width="0.866879" stroke-linejoin="round"/>
<path d="M97.3764 86.052C96.6147 85.8667 96.349 84.9194 96.9033 84.365L107.257 74.0114C107.833 73.4352 108.668 73.2011 109.46 73.3937L120.837 76.1607C121.599 76.346 121.864 77.2934 121.31 77.8478L110.956 88.2013C110.38 88.7775 109.545 89.0116 108.754 88.8191L97.3764 86.052Z" fill="#FFF4E3" stroke="#202124" stroke-width="0.650159"/>
<path d="M103.543 84.7224L103.732 79.8162C103.752 79.2775 104.096 78.8045 104.602 78.6188L112.893 75.5752C113.653 75.2964 114.483 75.7547 114.652 76.5459L115.567 80.8295C115.704 81.467 115.358 82.1093 114.75 82.3463L105.355 86.0125C104.463 86.3608 103.506 85.6798 103.543 84.7224Z" stroke="#D5D7E0" stroke-width="0.664994" stroke-linecap="round" stroke-dasharray="1.33 1.33"/>
<path d="M105.791 76.9992L108.603 75.589L107.006 77.915L109.769 76.6883L109.474 77.7894L111.23 76.6864L110.788 78.3381L113.453 77.4785L112.2 78.5197L115.171 78.3324L114.925 79.25L116.534 78.6976L116.841 79.3699" stroke="#797C8F" stroke-width="0.866879" stroke-linejoin="round"/>
<path d="M103.043 80.0218L104.694 79.463L105.215 80.4787L106.999 80.2057L106.717 81.2568L108.463 80.3476L108.181 81.3987" stroke="#797C8F" stroke-width="0.866879" stroke-linejoin="round"/>
<path d="M97.3764 82.052C96.6147 81.8667 96.349 80.9194 96.9033 80.365L107.257 70.0114C107.833 69.4352 108.668 69.2011 109.46 69.3937L120.837 72.1607C121.599 72.346 121.864 73.2934 121.31 73.8478L110.956 84.2013C110.38 84.7775 109.545 85.0116 108.754 84.8191L97.3764 82.052Z" fill="#FFF4E3" stroke="#202124" stroke-width="0.650159"/>
<path d="M103.543 80.7224L103.732 75.8162C103.752 75.2775 104.096 74.8045 104.602 74.6188L112.893 71.5752C113.653 71.2964 114.483 71.7547 114.652 72.5459L115.567 76.8295C115.704 77.467 115.358 78.1093 114.75 78.3463L105.355 82.0125C104.463 82.3608 103.506 81.6798 103.543 80.7224Z" stroke="#D5D7E0" stroke-width="0.664994" stroke-linecap="round" stroke-dasharray="1.33 1.33"/>
<path d="M105.791 72.9992L108.603 71.589L107.006 73.915L109.769 72.6883L109.474 73.7894L111.23 72.6864L110.788 74.3381L113.453 73.4785L112.2 74.5197L115.171 74.3324L114.925 75.25L116.534 74.6976L116.841 75.3699" stroke="#797C8F" stroke-width="0.866879" stroke-linejoin="round"/>
<path d="M103.043 76.0218L104.694 75.463L105.215 76.4787L106.999 76.2057L106.717 77.2568L108.463 76.3476L108.181 77.3987" stroke="#797C8F" stroke-width="0.866879" stroke-linejoin="round"/>
<path d="M97.3764 78.052C96.6147 77.8667 96.349 76.9194 96.9033 76.365L107.257 66.0114C107.833 65.4352 108.668 65.2011 109.46 65.3937L120.837 68.1607C121.599 68.346 121.864 69.2934 121.31 69.8478L110.956 80.2013C110.38 80.7775 109.545 81.0116 108.754 80.8191L97.3764 78.052Z" fill="#FFF4E3" stroke="#202124" stroke-width="0.650159"/>
<path d="M103.543 76.7224L103.732 71.8162C103.752 71.2775 104.096 70.8045 104.602 70.6188L112.893 67.5752C113.653 67.2964 114.483 67.7547 114.652 68.5459L115.567 72.8295C115.704 73.467 115.358 74.1093 114.75 74.3463L105.355 78.0125C104.463 78.3608 103.506 77.6798 103.543 76.7224Z" stroke="#D5D7E0" stroke-width="0.664994" stroke-linecap="round" stroke-dasharray="1.33 1.33"/>
<path d="M105.791 68.9992L108.603 67.589L107.006 69.915L109.769 68.6883L109.474 69.7894L111.23 68.6864L110.788 70.3381L113.453 69.4785L112.2 70.5197L115.171 70.3324L114.925 71.25L116.534 70.6976L116.841 71.3699" stroke="#797C8F" stroke-width="0.866879" stroke-linejoin="round"/>
<path d="M103.043 72.0218L104.694 71.463L105.215 72.4787L106.999 72.2057L106.717 73.2568L108.463 72.3476L108.181 73.3987" stroke="#797C8F" stroke-width="0.866879" stroke-linejoin="round"/>
<path d="M97.3764 74.052C96.6147 73.8667 96.349 72.9194 96.9033 72.365L107.257 62.0114C107.833 61.4352 108.668 61.2011 109.46 61.3937L120.837 64.1607C121.599 64.346 121.864 65.2934 121.31 65.8478L110.956 76.2013C110.38 76.7775 109.545 77.0116 108.754 76.8191L97.3764 74.052Z" fill="#FFF4E3" stroke="#202124" stroke-width="0.650159"/>
<path d="M103.543 72.7224L103.732 67.8162C103.752 67.2775 104.096 66.8045 104.602 66.6188L112.893 63.5752C113.653 63.2964 114.483 63.7547 114.652 64.5459L115.567 68.8295C115.704 69.467 115.358 70.1093 114.75 70.3463L105.355 74.0125C104.463 74.3608 103.506 73.6798 103.543 72.7224Z" stroke="#D5D7E0" stroke-width="0.664994" stroke-linecap="round" stroke-dasharray="1.33 1.33"/>
<path d="M105.791 64.9992L108.603 63.589L107.006 65.915L109.769 64.6883L109.474 65.7894L111.23 64.6864L110.788 66.3381L113.453 65.4785L112.2 66.5197L115.171 66.3324L114.925 67.25L116.534 66.6976L116.841 67.3699" stroke="#797C8F" stroke-width="0.866879" stroke-linejoin="round"/>
<path d="M103.043 68.0218L104.694 67.463L105.215 68.4787L106.999 68.2057L106.717 69.2568L108.463 68.3476L108.181 69.3987" stroke="#797C8F" stroke-width="0.866879" stroke-linejoin="round"/>
<path d="M97.3764 70.052C96.6147 69.8667 96.349 68.9194 96.9033 68.365L107.257 58.0114C107.833 57.4352 108.668 57.2011 109.46 57.3937L120.837 60.1607C121.599 60.346 121.864 61.2934 121.31 61.8478L110.956 72.2013C110.38 72.7775 109.545 73.0116 108.754 72.8191L97.3764 70.052Z" fill="#FFF4E3" stroke="#202124" stroke-width="0.650159"/>
<path d="M103.543 68.7224L103.732 63.8162C103.752 63.2775 104.096 62.8045 104.602 62.6188L112.893 59.5752C113.653 59.2964 114.483 59.7547 114.652 60.5459L115.567 64.8295C115.704 65.467 115.358 66.1093 114.75 66.3463L105.355 70.0125C104.463 70.3608 103.506 69.6798 103.543 68.7224Z" stroke="#D5D7E0" stroke-width="0.664994" stroke-linecap="round" stroke-dasharray="1.33 1.33"/>
<path d="M105.791 60.9992L108.603 59.589L107.006 61.915L109.769 60.6883L109.474 61.7894L111.23 60.6864L110.788 62.3381L113.453 61.4785L112.2 62.5197L115.171 62.3324L114.925 63.25L116.534 62.6976L116.841 63.3699" stroke="#797C8F" stroke-width="0.866879" stroke-linejoin="round"/>
<path d="M103.043 64.0218L104.694 63.463L105.215 64.4787L106.999 64.2057L106.717 65.2568L108.463 64.3476L108.181 65.3987" stroke="#797C8F" stroke-width="0.866879" stroke-linejoin="round"/>
<path d="M97.314 32.4786L90.3986 45.7852L64.0345 31.7764L64.0507 31.7539L96.7264 31.8911L97.314 32.4786Z" fill="#FFF4E3" stroke="#22242D" stroke-width="1.16925"/>
</svg>
